<svg id="Groupe_340" data-name="Groupe 340" xmlns="http://www.w3.org/2000/svg" xmlns:xlink="http://www.w3.org/1999/xlink" width="118.745" height="131.576" viewBox="0 0 118.745 131.576">
  <defs>
    <clipPath id="clip-path">
      <rect id="Rectangle_252" data-name="Rectangle 252" width="118.745" height="131.576" fill="none"/>
    </clipPath>
  </defs>
  <g id="Groupe_254" data-name="Groupe 254" clip-path="url(#clip-path)">
    <path id="Tracé_448" data-name="Tracé 448" d="M162.042,31.65c.261-9.128,4.793-19.1,10.349-19.1s10.088,9.968,10.349,19.1h3.782c-.267-11.274-7.16-20.28-14.131-20.28s-13.864,9.006-14.131,20.28Z" transform="translate(-113.327 -8.142)" fill="#da725a"/>
    <path id="Tracé_449" data-name="Tracé 449" d="M186.291,31.434h-4.066v-.139c-.261-8.949-4.679-18.957-10.21-18.957s-9.948,10.008-10.207,18.957v.139H157.74v-.145C158,20.412,164.668,10.87,172.015,10.87s14.017,9.542,14.273,20.419v.145ZM182.5,31.15H186c-.307-10.67-6.817-20-13.983-20s-13.676,9.327-13.983,20h3.5c.3-9.043,4.827-19.1,10.485-19.1S182.2,22.107,182.5,31.15" transform="translate(-112.955 -7.784)" fill="#da725a"/>
    <path id="Tracé_450" data-name="Tracé 450" d="M131.167,186.941H61.582a9.474,9.474,0,0,1-9.44-10.278L61.824,88.2a10.588,10.588,0,0,1,10.55-9.693h48a10.591,10.591,0,0,1,10.55,9.693l9.682,88.463A9.475,9.475,0,0,1,131.167,186.941Z" transform="translate(-37.313 -56.22)" fill="#fff"/>
    <path id="Tracé_451" data-name="Tracé 451" d="M129.014,185.644H59.429a10.326,10.326,0,0,1-10.292-11.2l9.684-88.486a11.365,11.365,0,0,1,11.4-10.451h48a11.37,11.37,0,0,1,11.4,10.474l9.679,88.443a10.324,10.324,0,0,1-10.286,11.22ZM70.221,77.214a9.679,9.679,0,0,0-9.7,8.912l-9.682,88.483a8.62,8.62,0,0,0,8.594,9.33h69.582a8.623,8.623,0,0,0,8.594-9.352L127.93,86.143a9.686,9.686,0,0,0-9.7-8.935h-48Z" transform="translate(-35.16 -54.071)" fill="#da725a"/>
    <path id="Tracé_452" data-name="Tracé 452" d="M157.207,111.747l-33.389,8.08-33.389-8.08,1.42-23.165A10.311,10.311,0,0,1,102.161,78.27h43.314a10.311,10.311,0,0,1,10.312,10.312Z" transform="translate(-64.755 -56.048)" fill="#fff"/>
    <path id="Tracé_453" data-name="Tracé 453" d="M121.553,118.556l-34.283-8.3,1.462-23.852A11.177,11.177,0,0,1,99.9,75.27H143.21a11.177,11.177,0,0,1,11.164,11.138l1.462,23.852Zm-32.5-9.616,32.5,7.865,32.5-7.865-1.377-22.5a9.472,9.472,0,0,0-9.46-9.46H99.9a9.472,9.472,0,0,0-9.46,9.46v.051L89.059,108.94Z" transform="translate(-62.493 -53.9)" fill="#da725a"/>
    <path id="Tracé_454" data-name="Tracé 454" d="M164.71,325.1H115.084l-2.178,25.655a5.784,5.784,0,0,0,5.761,6.272h42.46a5.781,5.781,0,0,0,5.761-6.272Z" transform="translate(-80.835 -232.799)" fill="#fff"/>
    <path id="Tracé_455" data-name="Tracé 455" d="M158.973,355.73h-42.46a6.637,6.637,0,0,1-6.612-7.194l2.243-26.436h51.19l2.243,26.436a6.637,6.637,0,0,1-6.612,7.194ZM113.711,323.8,111.6,348.677a4.93,4.93,0,0,0,4.912,5.349h42.46a4.93,4.93,0,0,0,4.912-5.349L161.77,323.8Z" transform="translate(-78.681 -230.65)" fill="#da725a"/>
    <path id="Tracé_456" data-name="Tracé 456" d="M169.06,299.345l-25.6,12.089-25.6-12.089v-5.079a8.625,8.625,0,0,1,8.625-8.625h33.942a8.625,8.625,0,0,1,8.625,8.625v5.079Z" transform="translate(-84.405 -204.542)" fill="#fff"/>
    <path id="Tracé_457" data-name="Tracé 457" d="M141.317,310.228,114.87,297.736v-5.619a9.488,9.488,0,0,1,9.477-9.477h33.942a9.488,9.488,0,0,1,9.477,9.477v5.619L141.32,310.228Zm-24.743-13.571,24.743,11.689,24.743-11.689v-4.54a7.782,7.782,0,0,0-7.774-7.774H124.344a7.782,7.782,0,0,0-7.774,7.774v4.54Z" transform="translate(-82.256 -202.394)" fill="#da725a"/>
    <rect id="Rectangle_248" data-name="Rectangle 248" width="4.293" height="19.23" transform="translate(38.454 49.234)" fill="#da725a"/>
    <path id="Tracé_458" data-name="Tracé 458" d="M139.517,192.424H134.94V172.91h4.577Zm-4.293-.284h4.009V173.194h-4.009Z" transform="translate(-96.628 -123.818)" fill="#da725a"/>
    <rect id="Rectangle_249" data-name="Rectangle 249" width="7.402" height="7.087" transform="translate(36.898 68.464)" fill="#da725a"/>
    <path id="Tracé_459" data-name="Tracé 459" d="M137.146,248.01H129.46v-7.37h7.686Zm-7.4-.284h7.118v-6.8h-7.118Z" transform="translate(-92.704 -172.318)" fill="#da725a"/>
    <rect id="Rectangle_250" data-name="Rectangle 250" width="4.293" height="19.23" transform="translate(76.845 49.234)" fill="#da725a"/>
    <path id="Tracé_460" data-name="Tracé 460" d="M274.737,192.424H270.16V172.91h4.577Zm-4.293-.284h4.009V173.194h-4.009Z" transform="translate(-193.457 -123.818)" fill="#da725a"/>
    <rect id="Rectangle_251" data-name="Rectangle 251" width="7.402" height="7.087" transform="translate(75.292 68.464)" fill="#da725a"/>
    <path id="Tracé_461" data-name="Tracé 461" d="M272.376,248.01H264.69v-7.37h7.686Zm-7.4-.284h7.118v-6.8h-7.118Z" transform="translate(-189.54 -172.318)" fill="#da725a"/>
    <path id="Tracé_462" data-name="Tracé 462" d="M201.326,324.458a4.4,4.4,0,1,1-4.4-4.4,4.4,4.4,0,0,1,4.4,4.4" transform="translate(-137.867 -229.189)" fill="#da725a"/>
    <path id="Tracé_463" data-name="Tracé 463" d="M196.57,328.64a4.54,4.54,0,1,1,4.54-4.54,4.544,4.544,0,0,1-4.54,4.54m0-8.8a4.256,4.256,0,1,0,4.256,4.256,4.261,4.261,0,0,0-4.256-4.256" transform="translate(-137.509 -228.831)" fill="#da725a"/>
    <path id="Tracé_464" data-name="Tracé 464" d="M77.524,25.225,66.88,1.663,78.955.53l9.057,21.512Z" transform="translate(-47.892 -0.38)" fill="#da725a"/>
    <path id="Tracé_465" data-name="Tracé 465" d="M76.915,25.019,66.14,1.161,78.516,0l9.159,21.751-10.76,3.265ZM66.56,1.405,77.071,24.672l10.218-3.1L78.337.3l-11.774,1.1Z" transform="translate(-47.362)" fill="#da725a"/>
    <path id="Tracé_466" data-name="Tracé 466" d="M31.907,5.275S18.162,21.649,13.793,44.146c-7.547,38.871,4.151,58.5,4.151,58.5l-10.567,1.51S-.548,86.038,4.358,47.167C6.817,27.662,20.962,4.52,20.962,4.52l10.945.755" transform="translate(-1.973 -3.237)" fill="#da725a"/>
    <path id="Tracé_467" data-name="Tracé 467" d="M6.962,103.933l-.043-.1c-.079-.182-7.884-18.6-3.029-57.059C6.326,27.466,20.371,4.307,20.513,4.074L20.559,4l11.308.781-.179.213c-.136.165-13.773,16.6-18.083,38.806-3.893,20.047-2.561,34.857-.758,43.752,1.953,9.636,4.863,14.6,4.892,14.644l.108.182L6.962,103.933M20.712,4.3C19.835,5.752,6.533,28.1,4.171,46.809c-4.659,36.918,2.357,55.307,2.967,56.812l10.252-1.465c-.539-.982-3.066-5.886-4.821-14.531-1.811-8.921-3.149-23.778.755-43.879C17.384,22.844,29.681,7.029,31.3,5.025Z" transform="translate(-1.647 -2.864)" fill="#da725a"/>
    <path id="Tracé_468" data-name="Tracé 468" d="M16.288,356.856l3.4-30.666L3.835,332.981,3.08,349.588Z" transform="translate(-2.206 -233.579)" fill="#fff"/>
    <path id="Tracé_469" data-name="Tracé 469" d="M14.789,354.8,0,346.656l.8-17.668,17.685-7.578-3.7,33.389Zm-13.04-9.122,11.626,6.4,3.095-27.949L2.453,330.132l-.707,15.542Z" transform="translate(0 -230.156)" fill="#da725a"/>
    <path id="Tracé_470" data-name="Tracé 470" d="M289.711,25.225,300.355,1.663,288.28.53l-9.06,21.512Z" transform="translate(-199.945 -0.38)" fill="#da725a"/>
    <path id="Tracé_471" data-name="Tracé 471" d="M289.3,25.019l-10.76-3.265.06-.145L287.7,0l12.379,1.161L300,1.343,289.3,25.019Zm-10.374-3.447,10.218,3.1L299.658,1.405,287.884.3l-8.955,21.271Z" transform="translate(-199.458)" fill="#da725a"/>
    <path id="Tracé_472" data-name="Tracé 472" d="M315.11,5.282s13.744,16.373,18.114,38.871c7.547,38.871-4.151,58.5-4.151,58.5l10.567,1.51s7.924-18.114,3.018-56.985c-2.462-19.5-16.6-42.644-16.6-42.644l-10.945.755Z" transform="translate(-225.645 -3.244)" fill="#da725a"/>
    <path id="Tracé_473" data-name="Tracé 473" d="M339.005,103.933l-10.885-1.556.108-.182c.028-.048,2.939-5.008,4.892-14.644,1.8-8.9,3.134-23.7-.758-43.752-4.31-22.2-17.946-38.644-18.083-38.806l-.179-.213L325.408,4l.045.074c.142.233,14.187,23.392,16.623,42.7,4.855,38.465-2.95,56.877-3.029,57.059Zm-10.428-1.777,10.252,1.465c.61-1.5,7.626-19.891,2.967-56.812C339.437,28.1,326.132,5.752,325.255,4.3l-10.584.73c1.616,2,13.912,17.819,17.969,38.721,3.9,20.1,2.564,34.956.755,43.879-1.755,8.645-4.279,13.549-4.821,14.531Z" transform="translate(-224.922 -2.864)" fill="#da725a"/>
    <path id="Tracé_474" data-name="Tracé 474" d="M358.316,356.856l-3.4-30.666,15.848,6.791.755,16.606Z" transform="translate(-254.152 -233.579)" fill="#fff"/>
    <path id="Tracé_475" data-name="Tracé 475" d="M355.067,354.789l-3.7-33.389,17.685,7.578.8,17.668-14.789,8.14Zm-1.684-30.672,3.095,27.949,11.626-6.4-.707-15.542-14.017-6.008Z" transform="translate(-251.61 -230.149)" fill="#da725a"/>
    <path id="Tracé_476" data-name="Tracé 476" d="M181.384,128.844a.786.786,0,0,1-.6-.275c-.426-.5-10.445-12.206-10.445-18.094a11.043,11.043,0,1,1,22.086,0c0,5.888-10.019,17.6-10.445,18.094a.8.8,0,0,1-.6.275Zm0-27.832h0a9.461,9.461,0,0,0-9.463,9.463c0,4.117,6.348,12.606,9.463,16.351,2.163-2.621,9.466-11.811,9.466-16.354a9.475,9.475,0,0,0-9.463-9.463Z" transform="translate(-121.978 -71.2)" fill="#da725a"/>
    <path id="Tracé_477" data-name="Tracé 477" d="M198.073,131.583h0a4.426,4.426,0,1,1,4.426-4.426,4.429,4.429,0,0,1-4.426,4.426m0-7.271a2.845,2.845,0,0,0-2.842,2.848,2.845,2.845,0,1,0,2.845-2.845Z" transform="translate(-138.669 -87.885)" fill="#da725a"/>
  </g>
</svg>
