<?xml version="1.0" encoding="UTF-8"?>
<svg id="Calque_2" data-name="Calque 2" xmlns="http://www.w3.org/2000/svg" xmlns:xlink="http://www.w3.org/1999/xlink" viewBox="0 0 104.91 104.35">
  <defs>
    <style>
      .cls-1 {
        fill: none;
      }

      .cls-2 {
        clip-path: url(#clippath);
      }

      .cls-3 {
        fill: #789389;
      }

      .cls-4 {
        opacity: .24;
      }
    </style>
    <clipPath id="clippath">
      <rect class="cls-1" x="17.29" y="13.26" width="70.34" height="77.84" transform="translate(-21.42 56.25) rotate(-48.01)"/>
    </clipPath>
  </defs>
  <g id="Calque_1-2" data-name="Calque 1">
    <g id="Groupe_389" data-name="Groupe 389" class="cls-4">
      <g class="cls-2">
        <g id="Groupe_388" data-name="Groupe 388">
          <path id="Tracé_723" data-name="Tracé 723" class="cls-3" d="M73.45,62.11l.23-.21-1.34-3.02c-1.26-2.83-4.56-4.1-7.4-2.84l-18.28,8.14c-2.83,1.26-4.1,4.56-2.84,7.4l1.34,3.02,.31-.03,4.37,12.51c.71,2.09,2.95,3.18,5,2.37l.27-.12,22.94-10.22c2.01-.9,2.83-3.23,1.98-5.15l-.12-.27-6.47-11.58Zm-18.83,26.34c-1.46,.65-3.18,0-3.83-1.47l-.08-.18-4.2-12.15,15.93,.35,10.39-12.08,6.21,11.25c.74,1.42,.22,3.19-1.17,4.02l-.18,.08-23.03,10.26-.04-.09Zm-10.02-17.33c-1.02-2.28,.05-5.06,2.33-6.08h0l18.37-8.18c2.28-1.02,5.06,.05,6.08,2.33h0l1.1,2.47-.28,.35-10.25,11.9-15.8-.3-.45-.02-1.1-2.47h0Z"/>
          <path id="Tracé_724" data-name="Tracé 724" class="cls-3" d="M60.49,70.62c1.37-.61,1.98-2.2,1.37-3.57-.16-.37-.46-.78-.8-1.07-.17-.14-.3-.19-.48-.33-1.23-.55-2.68-.12-3.4,.97-.14,.17-.24,.44-.34,.7-.16,.62-.19,1.29,.09,1.93,.61,1.37,2.2,1.98,3.57,1.37"/>
          <path id="Tracé_725" data-name="Tracé 725" class="cls-3" d="M90.34,56.01c-.53-4.14-2.75-14.55-11.89-29.64-5.8-9.58-18.43-18.52-19.21-19.04l-.04-.09-.09,.04h0l-6.37,2.18-.46,.2h0l.28,13.67-3.29,1.47c-2.95-5.15-8.33-8.12-12.07-6.45s-5.13,7.65-3.28,13.29l-2.56,1.14-9.97-9.36h0l-.46,.2-5.88,3.28h0l-.09,.04,.04,.09c-.13,.93-1.94,16.31,1.3,27.02,4.95,16.52,11.1,25.18,13.87,28.43l-1.41,1.5,3.82,9.8,9.77,.8c1.75,1.96,4.63,2.54,7.01,1.48l37.66-16.77c2.38-1.06,3.88-3.59,3.59-6.2l5.91-7.89-4.69-9.3-1.48,.11h0Zm-3.78,22.49l-37.66,16.77c-2.56,1.14-5.6-.03-6.74-2.59l-.16-.37L25.93,42.2c-.56-1.5-.4-3.11,.29-4.51-.43,1.5-.36,3.12,.29,4.58l4.92,13.25,8.09-1.52,2.08,4.66-.82,.37,1.79,4.02,4.11-1.83-1.79-4.02-.82,.37-1.83-4.11,9.71-1.81,8.49-6.52,1.91,4.3-.82,.37,1.79,4.02,4.2-1.87-1.79-4.02-.82,.37-2.16-4.84,5.8-4.44-6.56-12.52c-.65-1.46-1.81-2.59-3.17-3.19,1.5,.43,2.8,1.38,3.55,2.8l26.5,45.48c1.32,2.48,.51,5.58-2.06,6.94-.04-.09-.13-.05-.22,0h0Zm-56.65,5.84l.98-.99,.09-.04,.09-.04,3.91-4.26,.09-.04,.09-.04,1.04-1.12,.95,2.86,.04,.09,.04,.09,.04,.09,3.87,12.62-7.85-.66-3.38-8.57h0Zm65.35-19.02l-4.76,6.28-8.4-14.44,2.15-.08,.09-.04,.09-.04,5.78-.05,.09-.04,.09-.04h.76s4.1,8.46,4.1,8.46h0Zm-37.47-26.36l2.28,5.12-8.45,6.61-9.71,1.81-2.4-5.39-2.47,1.1,2.12,4.75-7,1.25-4.68-12.48h0c-1.14-2.56-.2-5.61,2.2-7.11l.64-.28,23.4-10.42,.64-.28c2.68-.87,5.58,.47,6.76,3.12l6.14,11.83-4.96,3.85-2.03-4.57-2.47,1.1h0Zm-21.66-8.31c-1.54-4.68-1.38-10.23,1.45-11.49s7.06,2.33,9.51,6.61l-10.97,4.88Zm-1.76,47.44c-1.24-1.31-2.3-2.7-3.36-4.09-3.16-4.4-7.43-12.02-10.18-23.84-1.29-6.1-1.59-12.43-.83-18.58l5.64,5.04c-1.11,1.7-1.43,3.92-.67,5.88l10.88,34.03-1.5,1.55h0ZM59.16,22.14l.05-8.02c5.08,3.54,9.68,7.96,13.26,13.04,6.95,9.94,9.76,18.22,10.91,23.51,.37,1.81,.64,3.66,.83,5.55l-3.05,.04-17.97-30.77c-.77-1.74-2.29-2.92-4.02-3.36Z"/>
          <path id="Tracé_726" data-name="Tracé 726" class="cls-3" d="M43.45,31.87c-3.29,1.47-4.76,5.3-3.3,8.59h0c1.42,3.2,9.63,7.1,10.02,7.26,.13,.05,.26,.1,.45,.02,.09-.04,.23-.21,.28-.35,.15-.4,2.74-9.1,1.31-12.3-1.65-3.21-5.48-4.68-8.77-3.21h0Zm6.59,14.81c-2.54-1.28-8.05-4.3-9.07-6.59-1.35-2.79-.22-6.15,2.58-7.5,2.79-1.35,6.15-.22,7.5,2.57l.16,.37c1.1,2.47-.63,9.15-1.17,11.15h0Z"/>
          <path id="Tracé_727" data-name="Tracé 727" class="cls-3" d="M45.04,35.44c-1.28,.57-1.89,2.16-1.32,3.43s2.16,1.89,3.43,1.32,1.89-2.16,1.32-3.43-2.06-1.93-3.43-1.32h0m1.75,3.93c-.82,.37-1.88-.04-2.25-.86s.04-1.88,.86-2.25,1.88,.04,2.25,.86h0c.37,.82-.04,1.88-.86,2.25Z"/>
        </g>
      </g>
    </g>
  </g>
</svg>