<svg id="Groupe_341" data-name="Groupe 341" xmlns="http://www.w3.org/2000/svg" xmlns:xlink="http://www.w3.org/1999/xlink" width="148.5" height="140.899" viewBox="0 0 148.5 140.899">
  <defs>
    <clipPath id="clip-path">
      <rect id="Rectangle_295" data-name="Rectangle 295" width="148.5" height="140.899" fill="none"/>
    </clipPath>
  </defs>
  <path id="Tracé_659" data-name="Tracé 659" d="M25.4,167.518h.01l.006-.01Z" transform="translate(-17.337 -114.338)" fill="#da725a"/>
  <g id="Groupe_342" data-name="Groupe 342">
    <g id="Groupe_341-2" data-name="Groupe 341" clip-path="url(#clip-path)">
      <path id="Tracé_660" data-name="Tracé 660" d="M146.507,54.076a2.7,2.7,0,0,0-2.809-.237,2.345,2.345,0,0,0-.5.4,7.674,7.674,0,0,0-6.072-2.694c-6.333.46-7.634,6.736-7.634,6.736s-2.171-6.028-8.5-5.593c-3.434.235-6.644,3.462-7.187,7.607-.316-2.656-.551-4.7-.575-5.139l-.016-.293-.974-1.02c.114-1.816.608-7.688.961-11.747.049-.113.1-.227.143-.341.131-.315.255-.613.4-.888a53.132,53.132,0,0,0,3.141-6.957,12.432,12.432,0,0,0,4.522-8.1,9.666,9.666,0,0,0-.232-3.164c.129-.326.259-.652.387-.977.308-.784.588-1.586.858-2.363.231-.662.469-1.347.722-2.009a2.464,2.464,0,0,0,.143-1.029,2.664,2.664,0,0,0-1.932-2.4,2.7,2.7,0,0,0-2.966.965l-.024.035c-.471.648-.9,1.33-1.316,2.029q-.183-.109-.37-.207c.092-.436.177-.865.259-1.282.289-1.469.483-2.966.671-4.414q.081-.626.165-1.251a4.941,4.941,0,0,0-.755-3.629,1.9,1.9,0,0,0-2.506-.841l-.09.042c-1.754.952-2.487,3.357-2.925,4.794l-.076.247c-.095.3-.22.605-.352.924-.062.151-.125.3-.184.453l.064.032-.065-.023-.453,1.241c.03-.94.057-1.89.075-2.83.037-1.949.048-3.923.035-6.034a7.991,7.991,0,0,0-.24-1.927,2.669,2.669,0,0,0-2.4-2.18,2.782,2.782,0,0,0-2.65,1.549,8.974,8.974,0,0,0-1.02,3.647l-.035.273c-.14,1.083-.272,2.166-.4,3.25s-.263,2.159-.4,3.238c-.033.254-.07.51-.109.766-.148-1.381-.3-2.783-.475-4.167-.145-1.152-.4-2.289-.65-3.388l-.03-.132a2.443,2.443,0,0,0-2.18-2.031,2.651,2.651,0,0,0-2.628,1.472c-.3.563-.767,7.454-.948,10.324a8.659,8.659,0,0,0-6.188,4.476q-.121.219-.232.445l-.014-.011-.1-.1-.153-.061c-.062-.024-.126-.046-.19-.068l-.13-.044a2.155,2.155,0,0,0-.284-.156,2.692,2.692,0,0,0-3.215.625,2.852,2.852,0,0,0-.373,3.407c.254.428.528.874.8,1.315A21.575,21.575,0,0,1,87.827,27.4l.033.1.058.087a13,13,0,0,1,1.088,1.948c.46,1.293,3.663,10.164,4.325,11.462.047.093.141.24.429.692a23.075,23.075,0,0,1,2.066,3.572c.092,1.362.17,2.742.244,4.1a3.463,3.463,0,0,0-1.253.372c-.226.113-.46.327-2.891,2.752l-.673.671a7.057,7.057,0,0,0-3.927-3.265c-.037-.661-.063-1.323-.088-1.972q-.022-.587-.047-1.173l-.052-1.158c-.061-1.34-.124-2.724-.151-4.085a8.2,8.2,0,0,1,.065-1.007,9.9,9.9,0,0,0,.075-1.14c-.005-.66-.057-1.315-.108-1.948-.021-.257-.041-.515-.059-.773l-.013-.2-.105-.169c-.075-.121-.152-.239-.229-.358-.164-.253-.318-.491-.448-.733a2.652,2.652,0,0,0-2.628-1.473,2.443,2.443,0,0,0-2.18,2.032l-.028.123c-.249,1.1-.507,2.242-.652,3.4-.172,1.383-.327,2.783-.475,4.164-.039-.257-.076-.514-.109-.768-.14-1.078-.271-2.157-.4-3.236s-.264-2.165-.4-3.246l-.035-.273a8.972,8.972,0,0,0-1.02-3.653,2.777,2.777,0,0,0-2.648-1.55,2.671,2.671,0,0,0-2.4,2.18,8.008,8.008,0,0,0-.24,1.926c-.013,2.082,0,4.113.035,6.035.017.94.044,1.888.075,2.827L72.6,42.423l-.061.023.06-.031c-.059-.152-.122-.3-.184-.453-.132-.319-.257-.621-.351-.923-.2-.651-.5-1.642-.73-2.443a4.05,4.05,0,0,0-2.362-2.642,1.9,1.9,0,0,0-2.505.84,4.945,4.945,0,0,0-.756,3.631q.085.625.165,1.251c.188,1.448.382,2.946.671,4.415.166.844.343,1.737.572,2.645-.152-.265-.307-.53-.464-.792-.494-.828-.982-1.634-1.535-2.394-.864-1.185-2.957-1.335-3.368-1.353l-.336-.015-.245.231a3.1,3.1,0,0,0-.831,3.57c.253.662.491,1.347.722,2.009.27.776.55,1.578.858,2.362,1.168,2.976,3.62,9.3,3.62,9.3l.023.053c.041.086.086.172.131.258a2.145,2.145,0,0,1,.163.35c.353,1.233,1.252,3.881,2.2,6.684,1.163,3.425,2.682,7.9,3.2,9.855l-.122.053a2.4,2.4,0,0,0-1.5,2.654c-.022,2.312-1.509,28.8-1.657,30.569l-.067.21.048.108-.007,2.111c0,1.678-.009,3.355-.025,5.034a2.722,2.722,0,0,1-.086.521c-.026.115-.052.23-.073.345l-.043.241.025.056,0,.168c-2.068-.589-4.263-1.161-6.611-1.707-.4-.092-.792-.178-1.187-.266-.9-29.4-2.41-76.541-2.85-78.247-.4-1.562.486-5.125.864-6.366l.211-.7c7.845-3.87,11.013-8.855,11.421-13.321.54-5.907-3.733-10.91-8.355-11.227h0c-7.317-.5-9.827,6.463-9.827,6.463S49.911,8.3,42.6,7.77c-3.241-.235-6.634,1.835-8.475,5.136a10.95,10.95,0,0,0-.922,2.18c-1.569,2.161-1.273,7.437-1.187,8.592l1,5.884,0,0,.435,2.562a7.919,7.919,0,0,0,1.869,3.915L38.979,40.2a4.868,4.868,0,0,1,1.215,3.248l-.5,72.907a82.508,82.508,0,0,0-10.954.482c-.036-.388-.077-.84-.123-1.335-.3-3.235-.847-9.2-.882-9.762.119-2.211-.264-3.639-1.169-4.365a2.009,2.009,0,0,0-.8-.394c.253-3.473.544-7.243.655-8.084l.694-.9h0l.633-.822-.289-.223.3.205c.593-.867,2.877-5.018,3.395-6.168l-.2-.113.211.076q.633-1.777,1.264-3.554l.026-.075a29.962,29.962,0,0,1,2.537-5.29l.053-.076c.308-.5,2.865-3.818,3.246-4.27l.093-.111.048-.137.007-.02a1.906,1.906,0,0,0,.35-.636l.089-.022.038-.581a2.731,2.731,0,0,0-1.03-2.325,2.9,2.9,0,0,0-2.606-.539,5.49,5.49,0,0,0-.768.27c-.366.162-4.208,3.64-6.355,5.669a5.414,5.414,0,0,0-.57-.72,32,32,0,0,1-.429-5.675c.038-1.422.023-2.862.01-4.254-.011-1.056-.022-2.148-.009-3.217a13.943,13.943,0,0,1,.175-1.773c.028-.2.057-.4.082-.6a5.918,5.918,0,0,0-1.267-5.085c-.076-.1-.152-.191-.224-.288l-.128-.171-.2-.084a3.243,3.243,0,0,0-2.534-.139l-.2.079-.134.173c-1.092,1.408-1.91,5.222-2.448,8.6-.243-3.174-.521-6.643-.61-7.755-.039-.495-.123-.975-.2-1.439-.031-.176-.062-.352-.09-.528-.072-.974-.673-2.759-2.472-2.8-2.89-.07-3.262,1.638-3.4,3.389-.15,1.845-.2,3.72-.248,5.532-.018.681-.036,1.363-.059,2.043-.035,1.01-.058,2.02-.081,3.03q-.005.241-.011.483a56.647,56.647,0,0,0-2.728-7.431A2.069,2.069,0,0,0,8.3,53.538a2.131,2.131,0,0,0-1.833,1.5,9.326,9.326,0,0,0-.481,2.645c.119,1.851.811,7.226,1.044,8.1.252.948.542,1.9.861,2.823.112.322.205.642.281.94-.322-.756-.961-2.6-1.817-5.246a7.4,7.4,0,0,0-2.127-3.255l-.337-.3-.15-.053a2.918,2.918,0,0,0-3.037.417l-.081.071-.059.09A3.247,3.247,0,0,0,.186,64.2c.243.734.462,1.5.673,2.236.189.658.384,1.338.6,2.007.377,1.176.785,2.361,1.18,3.507.182.529.365,1.059.547,1.6s.371,1.045.558,1.567c.418,1.168.851,2.376,1.236,3.568.272.842.518,1.716.755,2.562.193.686.392,1.394.607,2.091.157.509.359.993.553,1.462.084.2.168.4.247.606l.154-.061-.151.077q.291.637.584,1.273c.52,1.131,1.058,2.3,1.555,3.455a3.885,3.885,0,0,1,.2.822c.03.175.06.35.1.522l.016.057c.034.114.07.227.106.34.094.3.183.579.249.859a1.014,1.014,0,0,1-.024.285,1.7,1.7,0,0,1-.053.192,2.407,2.407,0,0,0-.121.562L9.664,95c-.113,1.548-.3,4.061-.437,6.017l-.126.093a2.883,2.883,0,0,0-3.16,2.255l-.024.084-.005.087c-.058.9-.063,1.1-.065,1.215,0,.066,0,.083-.022.287L5.8,106.074c-.067.876-1.254,13.7-1.6,17.432-.875.376-1.751.763-2.63,1.17v5.3c19.112-9.262,37.021-11.062,58.621-6.034A147.113,147.113,0,0,1,86.033,132.7c8.745,3.685,16.3,6.869,28.368,7.872,2.682.225,5.291.324,7.815.324a102.091,102.091,0,0,0,22.194-2.489v-4.974c-1.129.265-2.341.528-3.63.78l-.544-51.09a4.868,4.868,0,0,1,1.215-3.248l3.666-4.166a7.919,7.919,0,0,0,1.87-3.915l1.425-8.374.009-.074c.1-1.309.466-7.906-1.914-9.273M9.169,86.026q-.277-.6-.553-1.207h0c-.083-.212-.171-.422-.258-.633-.189-.456-.368-.886-.5-1.323-.209-.677-.405-1.376-.595-2.052-.242-.861-.492-1.751-.774-2.621-.393-1.216-.829-2.436-1.252-3.615-.186-.519-.372-1.039-.552-1.551q-.27-.8-.546-1.595c-.392-1.138-.8-2.315-1.169-3.474-.207-.646-.4-1.314-.584-1.961-.216-.754-.439-1.533-.691-2.3a1.631,1.631,0,0,1,.141-1.462,1.228,1.228,0,0,1,1.241-.1l.1.092a5.807,5.807,0,0,1,1.67,2.555c.968,2.994,1.626,4.872,1.956,5.581.42.906.828,1.674,1.558,1.9a1.346,1.346,0,0,0,1.121-.16c.888-.542.442-2.485-.089-4.018-.307-.889-.585-1.8-.828-2.713-.195-.732-.873-5.9-.994-7.794A7.576,7.576,0,0,1,7.989,55.5a.539.539,0,0,1,.471-.385.5.5,0,0,1,.507.268,58.328,58.328,0,0,1,2.673,7.351c1.547,4.809,1.794,5.386,2.4,5.614l1.272.476-.21-1.342c-.078-.5-.343-2.563-.417-3.222l-.039-1q.021-.826.039-1.651c.023-1,.046-2.007.08-3.011.023-.685.042-1.37.06-2.055.048-1.792.1-3.644.243-5.447.128-1.6.31-1.97,1.783-1.93.825.02.925,1.3.928,1.353l.008.076c.031.2.065.393.1.589.078.447.152.869.185,1.29.457,5.7.993,12.595,1.019,13.514a3.588,3.588,0,0,0,.249,1.977l.227.467,1.511-.065v-2.11c.317-3.484,1.426-11.467,2.756-13.6a1.68,1.68,0,0,1,.941.11l.114.144a5.276,5.276,0,0,1,.427.588,5.013,5.013,0,0,1,.507,3.308c-.025.195-.052.39-.08.585a15.421,15.421,0,0,0-.19,1.975c-.013,1.086,0,2.187.009,3.251.014,1.378.028,2.8-.009,4.2a30.479,30.479,0,0,0,.248,4.532,3.781,3.781,0,0,0-1.045-.234A5.162,5.162,0,0,0,19.7,74.454a5.166,5.166,0,0,0-4.545-4.012,4.859,4.859,0,0,0-4.371,2.647c-1.73,3.1-.8,8.32,8.145,12.291C26.139,83.332,28.8,79.9,29.069,76.91a5.661,5.661,0,0,0-.215-2.148c1.991-1.922,5.807-5.283,6.374-5.756a4.4,4.4,0,0,1,.469-.157,1.307,1.307,0,0,1,1.179.245,1.169,1.169,0,0,1,.444.826l-.012.156a.532.532,0,0,1-.128.358.949.949,0,0,0-.226.369c-.577.722-2.817,3.616-3.248,4.284a35.08,35.08,0,0,0-2.772,5.733l.48.226-.493-.195-2.487,5.929c-.779,1.436-1.665,3-1.99,3.478l-.609.791h0l-.876,1.132-.042.121c-.121.345-.441,4.209-.951,11.484l-.412.474a8.292,8.292,0,0,1-1.079.156c-1.113.068-2.252.106-3.354.142-.594.02-1.187.039-1.782.063-.552.023-1.1.019-1.64,0l-.1,0c-.2-.009-.4-.022-.594-.035-.112-.008-.225-.014-.337-.023-.148-.012-.293-.026-.439-.04-.17-.017-.34-.034-.509-.053l-.291-.035c-.23-.029-.459-.059-.685-.092l-.122-.017c-.566-.084-1.116-.179-1.646-.277l-.341-.438c.09-1.328.45-6.265.613-8.495l.089-1.219a1.408,1.408,0,0,1,.054-.2,3.041,3.041,0,0,0,.1-.407,2.275,2.275,0,0,0,0-.9c-.079-.336-.181-.66-.28-.973q-.047-.148-.093-.3c-.03-.136-.053-.276-.077-.415a5.146,5.146,0,0,0-.3-1.179c-.506-1.175-1.047-2.353-1.571-3.493M7.381,106.17l.026-1.009c.025-.263.025-.289.027-.378,0-.016,0-.036,0-.062a.908.908,0,0,0,.395.245c.452.142.907.24,1.346.334.19.041.381.082.6.132l.315.061,0,0,.294.056c.883.169,1.9.345,3,.476l.144.016c.231.026.465.051.7.072.126.012.252.022.379.032.156.012.312.023.47.032s.339.02.51.027c.1,0,.207.006.311.009.5.015,1.01.018,1.519,0,.331-.013.879-.019,1.514-.026,4.185-.046,6.221-.174,7.212-.547l0,.05h.019c0,.513.165,2.3.87,9.96l.127,1.383a85.148,85.148,0,0,0-21.3,5.774c.422-4.565,1.476-15.954,1.525-16.639m32.79-67.014L36.5,34.988a6.332,6.332,0,0,1-1.462-2.953l-1.449-8.512c-.022-.307-.039-.619-.051-.933,1.5,3.993,5.206,8.271,12.258,12.125l.7.773.022.023a6.289,6.289,0,0,0,2.149,1.543c.529.244.916.417.916.417l.267.119.28-.082s.863-.253,2-.607l3.9-1.5c-.4,1.634-.867,4.156-.472,5.682.3,1.458,1.344,30.379,2.791,77.515a103.193,103.193,0,0,0-17.078-2.192l.5-72.946a6.453,6.453,0,0,0-1.61-4.307M122.22,73.194l.247.811c.377,1.241,1.267,4.8.864,6.365-.557,2.142-2.8,50.038-3.059,55.493l0,.057.01.117q-1.49-.03-3.017-.112c-.016-2.522-.031-5.075-.043-7.145-.017-2.955-.026-4.381-.029-4.494-.046-1.438-.1-10.17-.126-15.388-.012-2.08-.021-3.692-.026-4.249-.063-6.517-.9-23.72-1.059-25.97-.061-.851-.66-5.788-1.294-11.015-.1-.861-.211-1.741-.317-2.615,1.056,2.814,3.478,5.694,7.851,8.146M89.928,129.147l-.255-2.418c-.021-.2-.044-.393-.067-.589s-.05-.415-.07-.616l.295.39-.365-2.938c-.021-.17-.045-.339-.07-.508a10.237,10.237,0,0,1-.115-1.033c-.024-.643-.025-1.306-.025-1.947q0-.358,0-.715l.05-.08-.058-.307c-.019-.1-.041-.193-.064-.289a1.984,1.984,0,0,1-.068-.367c-.014-1.951-.229-9.954-.436-17.694-.216-8.071-.44-16.416-.437-17.891v-.093l-.506-2.144-.165-.161c-.068-.066-.135-.134-.2-.2,0-.054,0-.107,0-.161.009-.341.017-.663.04-.981l.018-.236c.056-.728.114-1.48.216-2.2.08-.123.315-.393.507-.613a15.309,15.309,0,0,0,3.793-7.227l.145-.739q.333-1.011.66-2.024c.548-1.689,1.114-3.436,1.718-5.131a7.1,7.1,0,0,1,.707-1.315c.144-.23.289-.461.421-.695l.289-.511c0,.437,0,.878-.008,1.3-.008.174-.29,5.1-.681,11.929-.859,14.986-2.4,41.865-3.358,58.994q-.951-.389-1.91-.789M97.795,51.9l-.015-.29a.373.373,0,0,1,.032.074.48.48,0,0,1-.017.217m16.6,26.889c.162,2.242.992,19.379,1.055,25.871.005.557.015,2.166.027,4.243.032,5.563.08,13.97.126,15.424,0,.12.014,2.035.028,4.458.012,2.039.026,4.55.042,7.035-.307-.022-.615-.045-.924-.071a70.306,70.306,0,0,1-21.359-5.193c.956-17.1,2.52-44.385,3.388-59.529.543-9.477.682-11.891.683-11.972.012-.561.01-1.127.008-1.675,0-.589-.005-1.2.011-1.791a3.949,3.949,0,0,1,.065-.547c.123-.125.25-.248.383-.369l-.179-.2.069-.049.207.141-.177-.163.011-.008.2.124c.079-.125.157-.251.235-.377a4.476,4.476,0,0,1,2.009-.422h.019c.517,0,1.034,0,1.55-.007a41.736,41.736,0,0,1,5.159.173,15.532,15.532,0,0,1,1.724.29l.055.013c.133.032.261.066.387.1l.167.048c.1.029.189.059.28.09s.155.054.233.083.16.06.238.092.153.065.229.1.167.074.248.114c.055.027.109.058.163.086.087.046.176.091.261.141l.185.108h.005l.2.114.26.272c.135,1.483.774,6.754,1.448,12.308.6,4.978,1.228,10.125,1.287,10.938m4.118-61.226-.071.07c.395-.655.776-1.263,1.212-1.863l.008-.011a1.114,1.114,0,0,1,1.229-.378,1.079,1.079,0,0,1,.8.971.928.928,0,0,1-.041.374c-.261.683-.5,1.379-.738,2.052-.188.541-.384,1.091-.587,1.637a9.274,9.274,0,0,0-1.977-2.557Zm-6.977-3,.877-2.41.111-.271c.14-.338.285-.687.4-1.061l.078-.256.069-.226.27-.741,0,0,.375-1.028a3.991,3.991,0,0,1,1.413-1.847c.292-.112.311-.1.574.284a3.388,3.388,0,0,1,.488,2.514q-.085.629-.166,1.259c-.185,1.423-.376,2.895-.655,4.312-.065.329-.133.667-.2,1.009a6.287,6.287,0,0,0-1.123-.182h0a8.482,8.482,0,0,0-3.13.344q.309-.852.619-1.7m-6.853-.609c.095-.582.193-1.185.27-1.786.14-1.083.272-2.166.4-3.249s.263-2.16.4-3.238l.035-.276a7.653,7.653,0,0,1,.808-3.035c.413-.691.754-.811,1.174-.78a1.14,1.14,0,0,1,.975.987,6.547,6.547,0,0,1,.191,1.546c.013,2.1,0,4.06-.035,6-.028,1.5-.081,3.032-.132,4.512l-.038,1.1-.188,1.745a9.975,9.975,0,0,0-3.153,4.135,9.887,9.887,0,0,0-1.212-2.855,2.8,2.8,0,0,0,.088-.723,22.024,22.024,0,0,1,.409-4.082M99.815,4.6c.506.039.689.518.753.8l.029.131c.24,1.062.489,2.161.624,3.236.235,1.893.44,3.828.638,5.7q.1.964.205,1.927A8.051,8.051,0,0,0,97.945,14.8c.187-2.945.627-8.779.8-9.631A1.073,1.073,0,0,1,99.815,4.6M87.635,23.814c-.266-.434-.535-.874-.785-1.3A1.264,1.264,0,0,1,87.025,21a1.13,1.13,0,0,1,1.371-.265.851.851,0,0,1,.114.062,2.2,2.2,0,0,0,.47.206l.01,0c.074.058.186.146.35.273a10.069,10.069,0,0,0,.02,5.614l-.066-.1a22.273,22.273,0,0,0-1.659-2.975M95.1,40.83c-.159-.249-.323-.505-.351-.555-.434-.852-2.477-6.375-3.707-9.778,2.188,3.343,6.268,6.768,13.04,9.773a37.193,37.193,0,0,0,10.355-4.492c-.589,1.368-1.279,2.8-2.1,4.35-.179.34-.324.686-.463,1.02-.06.145-.121.29-.184.434l-.053.12-.011.13c-.086.981-.719,8.276-.933,11.3a13.312,13.312,0,0,0-3.474-.814c-.182-.022-.365-.036-.547-.053l-.166-.016c-1.1-.1-2.2-.123-3.288-.123-.451,0-.9,0-1.343.008-.515,0-1.032.008-1.546.007-.132,0-.26.009-.389.016-.055,0-.111,0-.165.007-.12.009-.237.023-.354.037l-.063.007a2.031,2.031,0,0,0,.008-.853,2.264,2.264,0,0,0-1.143-1.463,4.117,4.117,0,0,0-.546-.269c-.079-1.487-.164-3-.266-4.491-.038-.579-.6-1.624-2.311-4.3M74.53,34.812a6.518,6.518,0,0,1,.192-1.546,1.14,1.14,0,0,1,.977-.987c.418-.03.759.09,1.172.781a7.652,7.652,0,0,1,.808,3.04l.036.277c.139,1.077.271,2.156.4,3.234s.264,2.166.4,3.247c.077.6.175,1.2.27,1.785a21.956,21.956,0,0,1,.409,4.083,3.271,3.271,0,0,0,.127.89c.02.08.04.16.056.24l.172,2.759,1.253-1.324c.046-.048.087-.086.121-.116a.977.977,0,0,0,.388-.726c.031-1.033.05-2.068.069-3.1v-.038q.115-1.064.227-2.128c.2-1.879.4-3.822.641-5.724.136-1.079.385-2.18.626-3.246l.027-.122c.064-.282.247-.761.754-.8a1.082,1.082,0,0,1,1.105.636c.161.3.342.582.517.852l.111.171q.022.3.046.59c.051.633.1,1.23.1,1.833a8.65,8.65,0,0,1-.066.962,9.383,9.383,0,0,0-.074,1.206c.027,1.38.09,2.775.152,4.124l.052,1.155q.026.582.047,1.165c.021.551.043,1.112.072,1.676-5.077-.087-6.833,4.784-6.833,4.784a7.914,7.914,0,0,0-3.719-4.97l-.086-.236-.119-.652-.232-2.158-.038-1.1c-.051-1.48-.1-3.01-.132-4.512-.037-1.909-.048-3.926-.035-6M67.771,37.7c.276-.4.282-.4.638-.258a2.271,2.271,0,0,1,.941.71l.78,2.137-.01-.012.3.819.128.417c.116.372.261.721.4,1.059.03.072.059.143.088.214l.9,2.467q.392,1.074.782,2.151l.134.609.131.757c-.195-.029-.393-.054-.6-.069A5.933,5.933,0,0,0,69,49.544a35.617,35.617,0,0,1-.892-3.76c-.279-1.418-.47-2.889-.655-4.313q-.082-.629-.166-1.258a3.391,3.391,0,0,1,.489-2.516M62.56,49.468c-.235-.673-.477-1.369-.738-2.051a1.46,1.46,0,0,1,.206-1.606,3.11,3.11,0,0,1,1.807.672c.422.58.8,1.184,1.2,1.839l-.086-.084,1.824,3.282a8,8,0,0,0-1.655,4.653c-.621-1.594-1.265-3.248-1.718-4.4-.3-.755-.571-1.543-.837-2.3m5.2,13.647c1.974,2.4,5.174,4.81,10.022,6.962,10.323-2.93,14.128-7.847,14.519-12.122a8.087,8.087,0,0,0-.362-3.245c.335-.333.7-.7,1.1-1.1,1.058-1.056,2.252-2.247,2.536-2.484a1.9,1.9,0,0,1,.572-.173c0,.039,0,.078.006.117q.06,1.152.123,2.3l.052.241-.184.177-.041.264c-.014.087-.03.173-.046.26a9.413,9.413,0,0,0-1.9,3.215c-.106.183-.219.362-.332.543a8.391,8.391,0,0,0-.857,1.625c-.611,1.718-1.181,3.475-1.732,5.175q-.335,1.033-.673,2.064l-.178.872a13.842,13.842,0,0,1-3.433,6.5,2.955,2.955,0,0,0-.871,1.351c-.116.8-.179,1.606-.239,2.385l-.018.237c-.016.217-.026.434-.033.647a5.42,5.42,0,0,0-.862-.08c-3.178-.006-6.562-.008-9.954.048-.28,0-.553.025-.818.044a6.993,6.993,0,0,1-1.242.019c-.363-1.611-1.6-5.306-3.356-10.474-.694-2.043-1.358-4-1.8-5.371m1.574,57.777a.993.993,0,0,0,.021-.287c.01-.048.021-.1.032-.144a4,4,0,0,0,.125-.855c.016-1.683.021-3.363.025-5.045l.006-1.97a.954.954,0,0,0,.011-.385c.316-3.348,1.666-30.451,1.666-30.695l-.007-.105a.826.826,0,0,1,.42-.98h.475a6.368,6.368,0,0,0,2.167.107c.254-.018.493-.036.728-.04,3.363-.055,6.747-.054,9.926-.048a5.709,5.709,0,0,1,.97.12c.094.017.188.031.282.047l.027.027.079.079.358,1.517c0,1.714.215,9.552.437,17.842.207,7.733.422,15.728.435,17.667a3.189,3.189,0,0,0,.111.722c0,.018.009.037.013.055a.921.921,0,0,0,.016.289q0,.34,0,.679c0,.655,0,1.333.027,2.008a11.772,11.772,0,0,0,.13,1.2c.01.064.019.129.028.193l-.1-.2.127,1.589c0,.256.01.516.024.778.025.434.076.861.125,1.275.015.128.03.256.045.384l.012.151c.042.522.081,1.042.122,1.562l-.543-.229a168.6,168.6,0,0,0-18.33-6.814Zm77.5-57.7-1.419,8.336a6.334,6.334,0,0,1-1.5,3.132l-3.666,4.168a6.454,6.454,0,0,0-1.61,4.31l.547,51.372a97.824,97.824,0,0,1-16.412,1.539c-.3-.176-.6-.359-.907-.558,1-21.3,2.6-53.13,2.99-54.725.4-1.534-.074-4.059-.469-5.693l3.847,1.48.049.017c1.137.355,2,.608,2,.608l.28.082.266-.119s.388-.173.915-.416a6.262,6.262,0,0,0,2.147-1.541l.133-.146C146.009,68.625,147.134,60.8,144.454,56l0,0c-.089-.16-.184-.315-.281-.468a1.024,1.024,0,0,1,.317-.313c.266-.154.677-.073,1.223.24,1,.576,1.364,4.459,1.124,7.742" transform="translate(0 0)" fill="#da725a"/>
      <path id="Tracé_661" data-name="Tracé 661" d="M454.949,420.379Z" transform="translate(-310.539 -286.942)" fill="#da725a"/>
    </g>
  </g>
</svg>
