<svg id="Groupe_326" data-name="Groupe 326" xmlns="http://www.w3.org/2000/svg" xmlns:xlink="http://www.w3.org/1999/xlink" width="140" height="101.973" viewBox="0 0 140 101.973">
  <defs>
    <clipPath id="clip-path">
      <rect id="Rectangle_243" data-name="Rectangle 243" width="140" height="101.973" fill="none"/>
    </clipPath>
  </defs>
  <g id="Groupe_248" data-name="Groupe 248" clip-path="url(#clip-path)">
    <path id="Tracé_234" data-name="Tracé 234" d="M270.38,6.7l6.951-3.621s8.594-1.727,10.739,7.419l-1.615,1.665-6.368,1.758-5.872-1.73Z" transform="translate(-186.556 -2.038)" fill="#fff"/>
    <path id="Tracé_235" data-name="Tracé 235" d="M277.035,12.854l-6.439-1.9L265.97,4.332l8-4.173.13-.025c.093-.019,9.505-1.789,11.827,8.116l.115.5L283.9,10.96l-6.87,1.894Zm-5.286-3.5,5.3,1.563L282.922,9.3,284,8.191a8.069,8.069,0,0,0-9.406-6.253L268.707,5Z" transform="translate(-183.514 0)" fill="#da725a"/>
    <path id="Tracé_236" data-name="Tracé 236" d="M279.99,150.548s-.062-5.044,2.948-7.326l5.825,1.209-.13,3.02-6.036,2.279-2.6.818Z" transform="translate(-193.187 -98.82)" fill="#fff"/>
    <path id="Tracé_237" data-name="Tracé 237" d="M277.005,149.595l-.016-1.252c0-.226-.028-5.543,3.317-8.076l.338-.254,7.013,1.457-.192,4.424-6.659,2.511-3.8,1.194Zm4.111-7.586a8.342,8.342,0,0,0-2.173,5.025l1.277-.4,5.438-2.052.071-1.615-4.613-.958Z" transform="translate(-191.117 -96.605)" fill="#da725a"/>
    <path id="Tracé_238" data-name="Tracé 238" d="M232.856,116.521s4.827-1.466,6.092-5.022l-2.914-5.187-2.837,1.039-.347,6.442Z" transform="translate(-160.662 -73.353)" fill="#fff"/>
    <path id="Tracé_239" data-name="Tracé 239" d="M229.859,115.231l-.009-4.009V111.2l.381-7.056,4.157-1.519,3.506,6.244-.143.4c-1.4,3.953-6.483,5.537-6.7,5.6l-1.2.363Zm1.851-3.959v1.339a8.337,8.337,0,0,0,4.139-3.593l-2.307-4.108-1.519.555-.313,5.8Z" transform="translate(-158.592 -70.807)" fill="#da725a"/>
    <path id="Tracé_240" data-name="Tracé 240" d="M258.752,31.175s9.462-1.575,12.348,4.756,1.246,14.54,1.246,14.54l-5.525,3.841s-6.92-1.355-12.568-8.854a7.715,7.715,0,0,0-8.181-2.691l-3.212.226a5.666,5.666,0,0,1,3.206-4.337Z" transform="translate(-167.568 -21.39)" fill="#fff"/>
    <path id="Tracé_241" data-name="Tracé 241" d="M264.714,53.218l-.388-.074c-.3-.059-7.335-1.513-13.133-9.208l-.022-.031a6.747,6.747,0,0,0-7.192-2.316l-.158.025-4.322.3.118-1.1a6.588,6.588,0,0,1,3.7-5.069l12.788-7.537.171-.028c.415-.068,10.2-1.612,13.346,5.286,2.976,6.529,1.383,14.76,1.314,15.107l-.074.369-6.154,4.281ZM252.688,42.826a22.861,22.861,0,0,0,11.632,8.4l4.858-3.379c.26-1.618,1.147-8.364-1.243-13.61-2.359-5.174-9.976-4.405-11.189-4.247L244.166,37.4l-.056.025a4.4,4.4,0,0,0-2.334,2.462l1.835-.13A8.584,8.584,0,0,1,252.688,42.826Z" transform="translate(-165.25 -19.31)" fill="#da725a"/>
    <path id="Tracé_242" data-name="Tracé 242" d="M154.149,64.815a24.1,24.1,0,0,0-3.624-10.156,23.177,23.177,0,0,0-12.8-9.911l-4.266,1.876c-.456-1.829,2.17-2.623,2.17-2.623l5.776-2.542s11.514-.229,15.975,4.821,11.951,6.4,16.2,5.577L170.494,54.9a.683.683,0,0,1-.735.493,4.075,4.075,0,0,0-.586.2c-3.122,1.3-4.306,4.722-2.731,9.053.474,1.305,1.541,2.238,1.6,3.649s-1.054,5.174-3.469,6.092c-1.966.744-10.268-2.356-10.851-2.22a61.01,61.01,0,0,0,.434-7.354Z" transform="translate(-92.049 -28.604)" fill="#fff"/>
    <path id="Tracé_243" data-name="Tracé 243" d="M161.651,73.375c-1.773,0-4.582-.781-7.747-1.718-.871-.257-1.848-.549-2.183-.608l-1.153.267.143-1.3a56.88,56.88,0,0,0,.434-7.146,23.183,23.183,0,0,0-3.488-9.759A22.212,22.212,0,0,0,135.7,43.69l-4.96,2.183-.267-1.07c-.521-2.093,1.535-3.336,2.744-3.72l5.9-2.6h.186c.487-.012,12-.18,16.692,5.131,4.291,4.855,11.548,6.011,15.327,5.283l3.017-.583-5.14,5.066a1.6,1.6,0,0,1-1.408.9,3.235,3.235,0,0,0-.35.127c-2.719,1.128-3.565,4.148-2.21,7.875a7.115,7.115,0,0,0,.645,1.231,5.553,5.553,0,0,1,1.011,2.7c.065,1.528-1.054,5.856-4.071,7a3.341,3.341,0,0,1-1.166.171Zm-9-4.015c.412.109.977.276,1.783.515,2,.592,6.693,1.984,7.726,1.59,1.891-.716,2.923-3.95,2.871-5.18a3.962,3.962,0,0,0-.744-1.814,8.651,8.651,0,0,1-.8-1.559c-1.705-4.684-.431-8.7,3.249-10.228a5.067,5.067,0,0,1,.713-.239l.118-.031.012-.047,1.423-1.4h-.087c-4.706,0-10.584-1.916-14.3-6.123-3.832-4.337-13.629-4.508-15.083-4.508l-3.451,1.519a24.053,24.053,0,0,1,13.157,10.256A25.04,25.04,0,0,1,153,62.661a48.119,48.119,0,0,1-.344,6.7Z" transform="translate(-89.968 -26.552)" fill="#da725a"/>
    <path id="Tracé_244" data-name="Tracé 244" d="M270.885,133.473s-5.428,5.549-9.338,7.078-16.977,8.532-16.977,8.532l23.3,35.882s10.333-11.874,12.888-15.675,9.425-7.357,9.425-7.357h1.652s8.693-29.812-20.957-28.46Z" transform="translate(-168.748 -92.063)" fill="#fff"/>
    <path id="Tracé_245" data-name="Tracé 245" d="M264.809,184.437,240.28,146.673l.893-.477c.536-.288,13.164-7.05,17.079-8.578,3.674-1.435,8.957-6.808,9.009-6.861l.257-.26.366-.016c8.826-.4,15.259,1.869,19.1,6.758,6.827,8.684,2.961,22.312,2.793,22.889l-.2.67h-2.117c-1.116.608-6.727,3.739-8.888,6.951-2.558,3.8-12.534,15.281-12.959,15.768l-.809.93Zm-21.866-37.079,22.08,33.994c2.48-2.871,9.93-11.558,12.01-14.652,2.657-3.953,9.48-7.512,9.769-7.664l.2-.1h1.156c.667-2.79,2.784-13.66-2.644-20.558-3.4-4.319-9.177-6.355-17.188-6.058-1.159,1.15-5.807,5.627-9.4,7.028-3.224,1.259-12.974,6.408-15.982,8.008Z" transform="translate(-165.788 -89.997)" fill="#da725a"/>
    <path id="Tracé_246" data-name="Tracé 246" d="M65.674,91.073,97.255,73.684c2.4-1.8.034-14.528-3.519-20.12a23.155,23.155,0,0,0-12.8-9.911L51.58,56.468,65.67,91.076Z" transform="translate(-35.589 -30.119)" fill="#fff"/>
    <path id="Tracé_247" data-name="Tracé 247" d="M62.538,90.183,47.71,53.767l30.5-13.315.326.1A24.029,24.029,0,0,1,91.857,50.853a35.659,35.659,0,0,1,4.12,11.818c.527,2.939,1.119,8.085-.831,9.546l-.109.071-32.5,17.894ZM50.119,54.747l13.356,32.8L94.067,70.7c.5-.468.939-2.9.081-7.7a34.186,34.186,0,0,0-3.86-11.148A22.21,22.21,0,0,0,78.334,42.43L50.122,54.747Z" transform="translate(-32.919 -27.911)" fill="#da725a"/>
    <path id="Tracé_248" data-name="Tracé 248" d="M38.613,94.753c6.362,10.017,7.5,26.349-6.284,30.506-8.188,2.787-17.705-.682-24.067-10.7S1.538,92.521,12.853,86.19c10.5-4.864,19.4-1.454,25.76,8.563" transform="translate(-2.644 -57.959)" fill="#fff"/>
    <path id="Tracé_249" data-name="Tracé 249" d="M24.693,125.085c-7.236,0-14.391-4.337-19.293-12.057-4.033-6.352-5.469-12.965-4.04-18.617a17.654,17.654,0,0,1,8.963-11.065l.062-.031c10.6-4.914,20.17-1.749,26.935,8.907,3.733,5.878,6.266,15.117,3.516,22.511a15.17,15.17,0,0,1-10.3,9.378,18.106,18.106,0,0,1-5.844.97ZM11.2,84.99C6.913,87.4,4.21,90.719,3.162,94.87c-1.3,5.149.05,11.244,3.807,17.163,5.754,9.062,14.776,13.111,22.982,10.321l.031-.009a13.208,13.208,0,0,0,9.112-8.253c2.527-6.8.143-15.377-3.342-20.868-6.284-9.9-14.776-12.745-24.551-8.231Z" transform="translate(-0.567 -55.928)" fill="#da725a"/>
    <path id="Tracé_250" data-name="Tracé 250" d="M237.052,195.54c6.588,10.373,6.173,22.439-.924,26.947-13.16,11.412-18.192-.251-24.78-10.624s-14.831-18.908.924-26.947C219.371,180.408,230.464,185.167,237.052,195.54Z" transform="translate(-140.217 -126.414)" fill="#fff"/>
    <path id="Tracé_251" data-name="Tracé 251" d="M224.355,226.077a8.614,8.614,0,0,1-1.33-.1c-5.419-.837-8.95-6.594-12.689-12.689-.6-.977-1.218-1.984-1.842-2.967-.71-1.119-1.448-2.226-2.161-3.3-3.677-5.531-7.152-10.752-5.825-15.82.9-3.429,3.919-6.417,9.232-9.136,7.524-4.734,19.187.161,26.026,10.934a29.008,29.008,0,0,1,4.815,16.2c-.186,5.376-2.3,9.629-5.968,11.989C230.822,224.468,227.449,226.077,224.355,226.077Zm-8.036-43.98a10.347,10.347,0,0,0-5.618,1.563l-.077.043c-4.839,2.468-7.558,5.075-8.318,7.971-1.116,4.26,1.984,8.922,5.574,14.317.719,1.079,1.46,2.2,2.183,3.333.632,1,1.252,2.009,1.857,2.992,3.506,5.717,6.82,11.12,11.39,11.824,2.9.45,6.216-.989,10.141-4.4l.112-.084c3.165-2.009,5-5.745,5.165-10.519A27.121,27.121,0,0,0,234.2,194c-4.719-7.434-11.818-11.9-17.879-11.9Z" transform="translate(-138.147 -124.374)" fill="#da725a"/>
    <path id="Tracé_252" data-name="Tracé 252" d="M276.623,100.166l-10.2-10.138L267.5,78.043l4.365-3.141s6.34,8.064,15.244,9.158,22.08,11.585,23.921,20.988.031,13.554.031,13.554l-4.142,2.942s2.787-15.783-6.727-23.345c-7.5-5.959-14.416-4.743-14.416-4.743s-1.063,2.846-9.149,6.709Z" transform="translate(-183.824 -51.681)" fill="#fff"/>
    <path id="Tracé_253" data-name="Tracé 253" d="M303.458,120.759l.391-2.232c.028-.152,2.573-15.334-6.39-22.458-6.021-4.787-11.691-4.728-13.257-4.6-.691,1.082-2.868,3.59-9.332,6.678l-.592.282L263.3,87.519l1.156-12.844,5.432-3.912.552.7c.062.078,6.222,7.778,14.627,8.811,9.155,1.125,22.786,11.865,24.718,21.732,1.876,9.58.05,13.926-.031,14.106l-.1.236-6.2,4.405ZM285.247,89.565a21.6,21.6,0,0,1,13.371,5.05c7.8,6.2,7.747,17.4,7.329,22.1l2.186-1.553c.307-.949,1.355-5.022-.167-12.788-1.767-9.019-14.732-19.215-23.121-20.244-7.726-.949-13.5-6.793-15.287-8.823l-3.32,2.39-1,11.127,9.425,9.366c6.941-3.42,8.088-5.906,8.1-5.931l.186-.5.515-.068a11.036,11.036,0,0,1,1.786-.121Z" transform="translate(-181.672 -48.824)" fill="#da725a"/>
    <path id="Tracé_254" data-name="Tracé 254" d="M215.207,15.731a1.351,1.351,0,0,0-.189-2.449,14.929,14.929,0,0,1-5.069-3.367C205.389,5.473,199.117,6.3,199.117,6.3L181.21,15.251l9.139,6.34,10.934,4.629,2.012-1.06s.809-3.8,3.742-5.125c1.742-.784,5.45-2.8,8.169-4.306Z" transform="translate(-125.031 -4.303)" fill="#fff"/>
    <path id="Tracé_255" data-name="Tracé 255" d="M197.27,25.16,185.84,20.32l-10.51-7.292L194.781,3.3l.155-.022a14.987,14.987,0,0,1,11.6,3.875,14.067,14.067,0,0,0,4.753,3.162,2.281,2.281,0,0,1,1.479,1.984,2.252,2.252,0,0,1-1.169,2.148c-2.787,1.541-6.479,3.547-8.237,4.34-2.455,1.107-3.206,4.44-3.215,4.471l-.093.422-2.787,1.469Zm-10.528-6.476L197.183,23.1l1.259-.663c.329-1.128,1.429-4.111,4.154-5.339,1.7-.766,5.345-2.747,8.1-4.272a.4.4,0,0,0,.214-.391.43.43,0,0,0-.285-.378,15.989,15.989,0,0,1-5.388-3.568c-3.8-3.7-9-3.454-9.921-3.376l-16.351,8.175,7.772,5.391Z" transform="translate(-120.974 -2.215)" fill="#da725a"/>
    <path id="Tracé_256" data-name="Tracé 256" d="M162.513,23.974l9.143-4.089,6.225-.012L168.3,24.659s-2.152-.288-5.794-.685Z" transform="translate(-112.128 -13.711)" fill="#fff"/>
    <path id="Tracé_257" data-name="Tracé 257" d="M160.641,23.519l-.285-.037c-.022,0-2.183-.291-5.77-.682l-3.416-.372,12.46-5.574,10.383-.022-13.374,6.687Zm-2.468-2.186c1.039.124,1.773.217,2.145.267l5.779-2.889H164.03Z" transform="translate(-104.304 -11.614)" fill="#da725a"/>
    <path id="Tracé_258" data-name="Tracé 258" d="M331.019,42.394l3.327-2.592s-.9,5.208,9.022,8.2L331.58,56.283l-1.77-8.253Z" transform="translate(-227.562 -27.463)" fill="#fff"/>
    <path id="Tracé_259" data-name="Tracé 259" d="M328.845,52.942,326.74,43.12l1.321-6.163,5.487-4.275-.409,2.369c-.025.167-.524,4.471,8.374,7.149l1.832.552Zm-.2-9.821,1.432,6.684,9.133-6.417c-5.5-2.062-7.224-4.877-7.732-6.731l-1.739,1.355-1.1,5.112Z" transform="translate(-225.444 -22.55)" fill="#da725a"/>
    <path id="Tracé_260" data-name="Tracé 260" d="M350.676,99.337,360.045,90s.375-4.858-.477-6.576a18.9,18.9,0,0,0,2.173-5.264,19.547,19.547,0,0,0-1.625-12.237l-.787-3.64-1.42-1.615-2.561-.5s.871-7.992-10.364-11L323.23,65.634s17.857,5.8,21.819,14.289,5.624,19.414,5.624,19.414Z" transform="translate(-223.022 -33.928)" fill="#fff"/>
    <path id="Tracé_261" data-name="Tracé 261" d="M345.632,99.027l-.276-1.814c-.016-.109-1.69-10.9-5.549-19.159-3.745-8.023-21.091-13.743-21.264-13.8L316.85,63.7l23.537-17.811.44.118c9.645,2.582,10.916,8.836,11.049,11.136l2.124.415,1.789,2.034.818,3.782a20.32,20.32,0,0,1,1.714,12.255l-.059.4a17.882,17.882,0,0,1-2.065,5.208c.694,2.1.412,6.089.375,6.572l-.028.344ZM320.775,63.064c4.607,1.693,17.318,6.92,20.719,14.2a80.236,80.236,0,0,1,5.394,17.885l7.853-7.822c.115-1.823.1-4.731-.409-5.748l-.226-.456.26-.437a17.989,17.989,0,0,0,2.049-4.917l.059-.412a18.439,18.439,0,0,0-1.612-11.316l-.04-.087-.756-3.5-1.051-1.2-3.088-.6.093-.849c.028-.285.577-7.053-9.245-9.883l-20,15.138Z" transform="translate(-218.62 -31.665)" fill="#da725a"/>
    <path id="Tracé_262" data-name="Tracé 262" d="M8.67,96.171c7.1-4.507,18.01-.038,24.37,9.98s5.762,21.794-1.337,26.3-18.01.038-24.37-9.98-5.762-21.794,1.337-26.3" transform="translate(-2.021 -65.145)" fill="#da725a"/>
    <path id="Tracé_263" data-name="Tracé 263" d="M23.444,133.026c-6.6,0-14.066-4.514-18.914-12.15-6.625-10.435-5.9-22.808,1.621-27.583,3.7-2.347,8.423-2.536,13.312-.533a27.358,27.358,0,0,1,12.342,10.8c6.625,10.435,5.9,22.808-1.621,27.583a12.41,12.41,0,0,1-6.737,1.885ZM12.931,93.247a10.656,10.656,0,0,0-5.782,1.615C.5,99.088.024,110.311,6.1,119.878c4.5,7.084,11.344,11.306,17.3,11.306a10.659,10.659,0,0,0,5.791-1.615c6.653-4.226,7.124-15.448,1.048-25.016A25.467,25.467,0,0,0,18.759,94.481,15.464,15.464,0,0,0,12.931,93.247Z" transform="translate(0 -63.053)" fill="#da725a"/>
    <path id="Tracé_264" data-name="Tracé 264" d="M203.233,195.535c7.1-4.507,18.194.251,24.781,10.627s6.172,22.441-.927,26.947-18.193-.251-24.781-10.627-6.173-22.441.926-26.947" transform="translate(-136.357 -133.741)" fill="#da725a"/>
    <path id="Tracé_265" data-name="Tracé 265" d="M219.016,233.663c-6.718,0-14.438-4.756-19.507-12.742-6.851-10.792-6.309-23.456,1.212-28.231s19.212.121,26.063,10.913,6.309,23.456-1.212,28.231a12.066,12.066,0,0,1-6.557,1.829M207.334,192.7a10.34,10.34,0,0,0-5.618,1.563c-6.653,4.226-6.941,15.737-.639,25.664s16.843,14.562,23.5,10.339,6.941-15.737.639-25.664C220.494,197.167,213.395,192.7,207.334,192.7Z" transform="translate(-134.342 -131.69)" fill="#da725a"/>
    <path id="Tracé_266" data-name="Tracé 266" d="M13.84,106.253c5.961-3.784,15.169.039,20.566,8.54s4.94,18.46-1.022,22.245S18.216,137,12.819,128.5s-4.939-18.461,1.022-22.245" transform="translate(-6.246 -72.305)" fill="#fff"/>
    <path id="Tracé_267" data-name="Tracé 267" d="M26.144,137.391a14.756,14.756,0,0,1-5.627-1.2,23.551,23.551,0,0,1-10.5-9.236c-5.664-8.919-5.078-19.476,1.308-23.528s16.186-.1,21.85,8.826a23.52,23.52,0,0,1,3.894,13.433c-.208,4.514-2.052,8.1-5.2,10.1a10.548,10.548,0,0,1-5.723,1.612Zm-9.077-33.718a8.746,8.746,0,0,0-4.743,1.321c-5.518,3.5-5.847,12.906-.735,20.961a21.654,21.654,0,0,0,9.642,8.516c3.6,1.494,7.019,1.4,9.639-.264s4.16-4.722,4.34-8.612A21.665,21.665,0,0,0,31.6,113.247C27.8,107.257,22.039,103.673,17.066,103.673Z" transform="translate(-4.225 -70.265)" fill="#da725a"/>
    <path id="Tracé_268" data-name="Tracé 268" d="M211.123,205.119c5.961-3.784,15.448.478,21.189,9.521s5.563,19.442-.4,23.226-15.448-.478-21.189-9.521-5.562-19.442.4-23.226" transform="translate(-142.503 -140.575)" fill="#fff"/>
    <path id="Tracé_269" data-name="Tracé 269" d="M224.983,238.1c-5.8,0-12.562-4.244-17.051-11.316-6.008-9.462-5.7-20.455.685-24.51s16.465.347,22.473,9.806,5.7,20.455-.685,24.51a9.981,9.981,0,0,1-5.419,1.51ZM214.1,202.6a8.245,8.245,0,0,0-4.492,1.246c-5.518,3.5-5.568,13.346-.112,21.943,4.142,6.52,10.28,10.479,15.411,10.479a8.245,8.245,0,0,0,4.492-1.246c5.518-3.5,5.568-13.346.112-21.943C225.373,206.558,219.235,202.6,214.1,202.6Z" transform="translate(-140.492 -138.524)" fill="#da725a"/>
    <path id="Tracé_270" data-name="Tracé 270" d="M250.58,69.987l3.522-3.435a9.339,9.339,0,0,1,6.833,2.579,37.466,37.466,0,0,0-6.08,5.084,38,38,0,0,1-4.275-4.226Z" transform="translate(-172.895 -45.91)" fill="#fff"/>
    <path id="Tracé_271" data-name="Tracé 271" d="M252.111,73.405l-.694-.518a38.983,38.983,0,0,1-4.405-4.343l-.611-.663,4.4-4.3.329-.031a10.248,10.248,0,0,1,7.568,2.84l.822.8-.952.639a36.645,36.645,0,0,0-5.893,4.917Zm-3.116-5.456c1.4,1.491,2.341,2.4,2.9,2.9a37.655,37.655,0,0,1,4.635-3.863,8.668,8.668,0,0,0-4.92-1.594L249,67.949Z" transform="translate(-170.011 -43.838)" fill="#da725a"/>
    <path id="Tracé_272" data-name="Tracé 272" d="M326.073,27.437h0a4.776,4.776,0,0,0-5.205-3.795l-4.508,2.824c5,1.811,5.382,4.756,5.382,4.756l1.91-1.314c.651.825,2.381,3.249,1.5,6.03,0,0,1.085,3.708,4.322,3.751l5.608-4.266s-6.557.775-9-7.986Z" transform="translate(-218.282 -16.294)" fill="#fff"/>
    <path id="Tracé_273" data-name="Tracé 273" d="M325.076,38.531h-.319c-3.878-.059-5.149-4.247-5.2-4.427l-.081-.273.087-.27a5.26,5.26,0,0,0-.834-4.464l-2.412,1.662-.2-1.51c-.016-.084-.456-2.437-4.774-4l-1.8-.651,6.29-3.94.192-.028a5.588,5.588,0,0,1,5.807,3.286l.087-.059.347,1.234c2.189,7.84,7.766,7.338,8,7.313l3.314-.353-8.513,6.476Zm-3.655-4.709c.26.685,1.153,2.613,3.057,2.827L327.962,34c-2.217-.567-5.354-2.26-7.106-7.192l-.037.025-.347-1.234a3.806,3.806,0,0,0-4-3.141l-2.824,1.77A8.538,8.538,0,0,1,317.48,27.7l1.656-1.141.539.685a7.532,7.532,0,0,1,1.742,6.582Z" transform="translate(-213.583 -14.2)" fill="#da725a"/>
    <path id="Tracé_274" data-name="Tracé 274" d="M139.279,35.571l5.779-2.542s11.514-.226,15.978,4.821a18.532,18.532,0,0,0,12.06,5.729,1.7,1.7,0,0,1,1.051,2.9s-7.121.164-14.624-6.4-20.241-4.508-20.241-4.508-.04.012-.112.037l.112-.037Z" transform="translate(-96.024 -22.788)" fill="#da725a"/>
    <path id="Tracé_275" data-name="Tracé 275" d="M173.368,45.345c-.887,0-7.837-.214-15.172-6.625-6.8-5.943-18.387-4.446-19.41-4.3l-.034.012v-.006a.135.135,0,0,0-.037.006l-.034-.2-.539-1.553c.037-.012.068-.025.093-.031l5.9-2.6h.186c.487-.012,12-.177,16.692,5.131a17.588,17.588,0,0,0,11.446,5.416,2.626,2.626,0,0,1,1.621,4.486l-.264.26-.369.009h-.084ZM143.7,32.268c4.529.053,11.037.955,15.721,5.05,6.064,5.3,11.914,6.045,13.545,6.148a.764.764,0,0,0,0-.515.776.776,0,0,0-.667-.512c-2.4-.214-8.426-1.234-12.674-6.039-3.838-4.343-13.629-4.508-15.083-4.508l-.843.372Z" transform="translate(-95.314 -20.729)" fill="#da725a"/>
    <path id="Tracé_276" data-name="Tracé 276" d="M276.153,76.647l2.424-1.745s4.061,5.856,13.272,8.061,20.654,7.441,24.52,18.056,1.59,17.51,1.59,17.51l-4.331,3.02c.214-.149.294-1.138.344-1.364a27.509,27.509,0,0,0,.515-3.829,31.834,31.834,0,0,0-1.786-12.736,20.045,20.045,0,0,0-3.212-6.278,40.357,40.357,0,0,0-5.314-5.258,31.743,31.743,0,0,0-9.524-5.407c-2.632-.933-5.494-1.293-8.061-2.387a27.356,27.356,0,0,1-10.442-7.642Z" transform="translate(-190.538 -51.681)" fill="#da725a"/>
    <path id="Tracé_277" data-name="Tracé 277" d="M311.236,119.406l-1.063-1.525a.622.622,0,0,0-.22.248,4.938,4.938,0,0,0,.136-.725c.019-.139.037-.251.05-.316a26.524,26.524,0,0,0,.5-3.7,31.077,31.077,0,0,0-1.733-12.361,19.365,19.365,0,0,0-3.048-5.993,39.229,39.229,0,0,0-5.19-5.134,30.769,30.769,0,0,0-9.245-5.249c-1.113-.394-2.31-.694-3.466-.983a30.961,30.961,0,0,1-4.65-1.426,28.164,28.164,0,0,1-10.82-7.937l-.574-.76,3.965-2.855.539.778c.037.053,4,5.6,12.723,7.685,7.524,1.8,20.8,6.619,25.177,18.638,3.934,10.792,1.7,17.826,1.6,18.121l-.1.295-4.585,3.2Zm-36.648-45.5a27.669,27.669,0,0,0,9.443,6.619,28.855,28.855,0,0,0,4.371,1.333c1.2.3,2.44.608,3.637,1.032a32.715,32.715,0,0,1,9.8,5.565,41.461,41.461,0,0,1,5.438,5.379,20.87,20.87,0,0,1,3.373,6.563,32.936,32.936,0,0,1,1.835,13.108,29.765,29.765,0,0,1-.347,3l2.09-1.457c.347-1.37,1.609-7.648-1.659-16.62-4.083-11.2-16.7-15.752-23.862-17.467a25.021,25.021,0,0,1-13.235-7.692Z" transform="translate(-187.612 -48.776)" fill="#da725a"/>
    <path id="Tracé_278" data-name="Tracé 278" d="M239.806,76.686c3.078-1.279,6.905.886,8.547,4.837s.478,8.191-2.6,9.471-6.905-.886-8.547-4.837-.478-8.191,2.6-9.471" transform="translate(-163.153 -52.658)" fill="#fff"/>
    <path id="Tracé_279" data-name="Tracé 279" d="M241.806,90.274a6.916,6.916,0,0,1-3.4-.949,10.3,10.3,0,0,1-4.644-11.173,6.331,6.331,0,0,1,3.609-4.346c3.547-1.473,7.927.921,9.763,5.342s.443,9.214-3.1,10.686a5.785,5.785,0,0,1-2.226.443Zm-2.2-15.048a3.944,3.944,0,0,0-1.516.3,4.509,4.509,0,0,0-2.53,3.122,8.446,8.446,0,0,0,3.764,9.062,4.517,4.517,0,0,0,4,.409c2.6-1.079,3.54-4.784,2.1-8.256-1.172-2.821-3.565-4.635-5.816-4.635Z" transform="translate(-161.077 -50.624)" fill="#da725a"/>
    <path id="Tracé_280" data-name="Tracé 280" d="M386.781,45.562l-5.171,3.885s11.567-3.289,14.019,8.237c0,0,3.624.8,4.768,5.757a9.376,9.376,0,0,0-1.277-9.549c-3.652-4.948-6.166-7.285-12.339-8.327Z" transform="translate(-263.303 -31.437)" fill="#fff"/>
    <path id="Tracé_281" data-name="Tracé 281" d="M389.9,63.912l-.57-2.468c-.986-4.275-3.943-5.029-4.071-5.06l-.57-.136-.13-.577c-.66-3.1-2.077-5.32-4.21-6.607-3.779-2.276-8.6-.942-8.643-.93l-4.821,1.37,9.5-7.134.394.065c6.371,1.076,9.136,3.553,12.931,8.693a10.243,10.243,0,0,1,1.355,10.528L389.9,63.909Zm-3.64-9.152a7.642,7.642,0,0,1,3.795,3.41,8.811,8.811,0,0,0-1.845-5.931c-3.633-4.923-5.946-6.91-11.353-7.9l-2.04,1.532a12.191,12.191,0,0,1,6.489,1.6,11.15,11.15,0,0,1,4.951,7.289Z" transform="translate(-253.139 -29.236)" fill="#da725a"/>
    <path id="Tracé_282" data-name="Tracé 282" d="M243.849,82.357c2.348-.976,5.267.676,6.519,3.69s.365,6.248-1.983,7.223-5.267-.676-6.519-3.689-.365-6.248,1.983-7.223" transform="translate(-166.49 -56.631)" fill="#fff"/>
    <path id="Tracé_283" data-name="Tracé 283" d="M244.913,92.447a6.887,6.887,0,0,1-5.974-4.539c-1.448-3.482-.332-7.267,2.486-8.439s6.287.71,7.735,4.191a7.742,7.742,0,0,1,.4,4.979,5.051,5.051,0,0,1-2.88,3.46,4.572,4.572,0,0,1-1.761.347Zm-1.7-11.471a2.8,2.8,0,0,0-1.076.211c-1.869.778-2.536,3.472-1.482,6.008s3.432,3.965,5.3,3.187a3.229,3.229,0,0,0,1.8-2.235,5.875,5.875,0,0,0-.319-3.773c-.859-2.068-2.6-3.4-4.226-3.4Z" transform="translate(-164.425 -54.593)" fill="#da725a"/>
    <path id="Tracé_284" data-name="Tracé 284" d="M28.539,125.4c3.151-2.282,8.952.352,12.956,5.883s4.7,11.863,1.546,14.145-8.952-.352-12.956-5.883-4.7-11.863-1.546-14.145" transform="translate(-18.328 -85.957)" fill="#fff"/>
    <path id="Tracé_285" data-name="Tracé 285" d="M35.593,144.728c-5.18-2.871-9.484-9.567-9.6-14.931s4.012-7.391,9.189-4.523,9.484,9.567,9.6,14.931-4.012,7.391-9.189,4.523m-.4-19.1c-4.991-2.765-8.966-.812-8.857,4.359s4.257,11.623,9.248,14.391,8.966.812,8.857-4.359-4.257-11.623-9.248-14.391" transform="translate(-17.934 -85.538)" fill="#da725a"/>
    <path id="Tracé_286" data-name="Tracé 286" d="M28.231,132.456l11.006,3.726-11.1-8.842L25.6,114.732l-2.369,9.887L12.23,120.892l11.1,8.842,2.533,12.609Z" transform="translate(-8.439 -79.163)" fill="#da725a"/>
    <path id="Tracé_287" data-name="Tracé 287" d="M41.438,138.944l6.427,7.8-4.129-8.919L47.7,133.6l-6.334.533-6.427-7.8,4.129,8.919L35.1,139.477l6.334-.533" transform="translate(-24.108 -87.166)" fill="#da725a"/>
    <path id="Tracé_288" data-name="Tracé 288" d="M47.185,145.675,40.2,137.2l-6.882.58,4.312-4.595L33.15,123.5l6.982,8.473,6.882-.58L42.7,135.99ZM40.2,136.786l5.872,7.127L42.3,135.76l3.621-3.86-5.785.487-5.872-7.127,3.773,8.154-3.621,3.86,5.785-.487" transform="translate(-22.873 -85.214)" fill="#fff"/>
    <path id="Tracé_289" data-name="Tracé 289" d="M34.657,144.057c-5.413-3-9.914-10-10.032-15.606s4.191-7.726,9.6-4.728,9.914,10,10.032,15.606-4.191,7.726-9.6,4.728m-.4-19.1c-4.756-2.635-8.544-.772-8.442,4.154s4.058,11.077,8.814,13.715,8.544.772,8.442-4.154-4.058-11.077-8.814-13.715" transform="translate(-16.989 -84.427)" fill="#da725a"/>
    <path id="Tracé_290" data-name="Tracé 290" d="M34.291,143.783c-5.509-3.051-10.085-10.175-10.206-15.879s4.266-7.862,9.772-4.808,10.085,10.175,10.206,15.879-4.266,7.862-9.772,4.808m-.425-20.334c-5.32-2.948-9.555-.865-9.44,4.644s4.536,12.388,9.856,15.337,9.555.865,9.44-4.644S39.186,126.4,33.866,123.448Zm.4,19.1c-4.852-2.688-8.882-8.963-8.988-13.985s3.757-6.923,8.606-4.235,8.882,8.963,8.988,13.985-3.757,6.923-8.606,4.235m-.375-17.867c-4.663-2.582-8.374-.756-8.274,4.071s3.978,10.86,8.64,13.443,8.374.756,8.274-4.071S38.554,127.265,33.891,124.682Z" transform="translate(-16.616 -83.976)" fill="#fff"/>
    <path id="Tracé_291" data-name="Tracé 291" d="M51.852,154.014c.446-.323,1.269.051,1.838.836s.667,1.683.22,2.007-1.269-.051-1.837-.836-.667-1.683-.221-2.007" transform="translate(-35.584 -106.186)" fill="#fff"/>
    <path id="Tracé_292" data-name="Tracé 292" d="M52.519,156.542a3.105,3.105,0,0,1-1.51-2.35c-.016-.843.632-1.163,1.448-.713a3.105,3.105,0,0,1,1.51,2.35c.019.843-.632,1.163-1.448.713m-.056-2.71c-.626-.347-1.125-.1-1.113.549a2.388,2.388,0,0,0,1.163,1.807c.626.347,1.125.1,1.113-.549a2.388,2.388,0,0,0-1.163-1.807" transform="translate(-35.195 -105.756)" fill="#da725a"/>
    <path id="Tracé_293" data-name="Tracé 293" d="M50.975,155.431a4.577,4.577,0,0,1-2.226-3.466c-.025-1.246.93-1.714,2.133-1.048a4.578,4.578,0,0,1,2.226,3.466C53.133,155.629,52.178,156.1,50.975,155.431Zm-.087-4.2c-1.035-.574-1.86-.167-1.835.905a3.948,3.948,0,0,0,1.919,2.985c1.035.574,1.86.167,1.835-.905a3.948,3.948,0,0,0-1.919-2.985" transform="translate(-33.635 -103.92)" fill="#da725a"/>
    <path id="Tracé_294" data-name="Tracé 294" d="M50.6,155.162a4.942,4.942,0,0,1-2.4-3.736c-.028-1.342,1-1.851,2.3-1.132a4.942,4.942,0,0,1,2.4,3.736c.028,1.342-1,1.851-2.3,1.132m-.087-4.2c-.942-.521-1.69-.152-1.671.822a3.584,3.584,0,0,0,1.745,2.713c.942.521,1.69.152,1.671-.822a3.592,3.592,0,0,0-1.745-2.713" transform="translate(-33.256 -103.475)" fill="#fff"/>
    <path id="Tracé_295" data-name="Tracé 295" d="M227.376,229.468c3.151-2.282,8.952.352,12.956,5.883s4.7,11.863,1.546,14.145-8.952-.352-12.956-5.883-4.7-11.863-1.546-14.145" transform="translate(-155.522 -157.761)" fill="#fff"/>
    <path id="Tracé_296" data-name="Tracé 296" d="M234.453,248.818c-5.18-2.871-9.484-9.567-9.6-14.931s4.012-7.391,9.189-4.523,9.484,9.567,9.6,14.931S239.631,251.685,234.453,248.818Zm-.4-19.1c-4.991-2.765-8.966-.812-8.857,4.359s4.257,11.623,9.248,14.391,8.966.812,8.857-4.359-4.257-11.623-9.248-14.391" transform="translate(-155.144 -157.358)" fill="#da725a"/>
    <path id="Tracé_297" data-name="Tracé 297" d="M227.091,236.546l11.006,3.726L227,231.431l-2.533-12.609-2.369,9.887-11.006-3.726,11.1,8.842,2.533,12.609Z" transform="translate(-145.648 -150.983)" fill="#da725a"/>
    <path id="Tracé_298" data-name="Tracé 298" d="M240.288,243.044l6.427,7.8-4.129-8.919,3.965-4.226-6.334.533-6.427-7.8,4.129,8.919-3.965,4.226Z" transform="translate(-161.31 -158.993)" fill="#da725a"/>
    <path id="Tracé_299" data-name="Tracé 299" d="M246.045,249.765l-6.982-8.473-6.882.58,4.312-4.595-4.483-9.685,6.982,8.473,6.882-.58-4.312,4.595Zm-6.985-8.888L244.932,248l-3.773-8.154,3.621-3.86-5.785.487-5.872-7.127L236.9,237.5l-3.621,3.86Z" transform="translate(-160.082 -157.034)" fill="#fff"/>
    <path id="Tracé_300" data-name="Tracé 300" d="M233.517,248.147c-5.413-3-9.914-10-10.032-15.606s4.191-7.726,9.6-4.728,9.914,10,10.032,15.606S238.93,251.145,233.517,248.147Zm-.4-19.1c-4.756-2.635-8.544-.772-8.442,4.154s4.058,11.077,8.814,13.715,8.544.772,8.442-4.154S237.873,231.685,233.117,229.047Z" transform="translate(-154.198 -156.247)" fill="#da725a"/>
    <path id="Tracé_301" data-name="Tracé 301" d="M233.141,247.873c-5.509-3.051-10.085-10.175-10.206-15.879s4.266-7.862,9.772-4.808,10.085,10.175,10.206,15.879S238.647,250.926,233.141,247.873Zm-.425-20.334c-5.32-2.948-9.555-.865-9.44,4.644s4.536,12.388,9.856,15.337,9.555.865,9.44-4.644-4.536-12.388-9.856-15.337m.4,19.1c-4.852-2.688-8.882-8.963-8.988-13.985s3.757-6.923,8.606-4.235,8.882,8.963,8.988,13.985S237.965,249.327,233.116,246.639Zm-.375-17.867c-4.663-2.582-8.374-.756-8.274,4.071s3.978,10.86,8.64,13.443,8.374.756,8.274-4.071S237.4,231.355,232.741,228.772Z" transform="translate(-153.819 -155.796)" fill="#fff"/>
    <path id="Tracé_302" data-name="Tracé 302" d="M250.7,258.092c.446-.323,1.269.051,1.838.836s.667,1.683.22,2.007-1.269-.051-1.837-.836-.667-1.683-.221-2.007" transform="translate(-172.784 -177.998)" fill="#fff"/>
    <path id="Tracé_303" data-name="Tracé 303" d="M251.379,260.632a3.105,3.105,0,0,1-1.51-2.35c-.016-.843.632-1.163,1.448-.713a3.105,3.105,0,0,1,1.51,2.35c.019.843-.632,1.163-1.448.713m-.056-2.71c-.626-.347-1.125-.1-1.113.549a2.388,2.388,0,0,0,1.163,1.807c.626.347,1.125.1,1.113-.549A2.388,2.388,0,0,0,251.323,257.922Z" transform="translate(-172.404 -177.576)" fill="#da725a"/>
    <path id="Tracé_304" data-name="Tracé 304" d="M249.825,259.531a4.578,4.578,0,0,1-2.226-3.466c-.025-1.246.93-1.714,2.133-1.048a4.577,4.577,0,0,1,2.226,3.466C251.983,259.729,251.028,260.2,249.825,259.531Zm-.087-4.2c-1.035-.574-1.86-.167-1.835.905a3.948,3.948,0,0,0,1.919,2.986c1.035.574,1.86.167,1.835-.905A3.956,3.956,0,0,0,249.738,255.33Z" transform="translate(-170.838 -175.747)" fill="#da725a"/>
    <path id="Tracé_305" data-name="Tracé 305" d="M249.458,259.252a4.942,4.942,0,0,1-2.4-3.736c-.028-1.342,1-1.851,2.3-1.132a4.942,4.942,0,0,1,2.4,3.736c.028,1.342-1,1.851-2.3,1.132m-.087-4.2c-.942-.521-1.69-.152-1.671.822a3.592,3.592,0,0,0,1.745,2.713c.942.521,1.69.152,1.671-.822A3.584,3.584,0,0,0,249.372,255.051Z" transform="translate(-170.465 -175.295)" fill="#fff"/>
  </g>
</svg>
