<svg xmlns="http://www.w3.org/2000/svg" xmlns:xlink="http://www.w3.org/1999/xlink" width="100.592" height="105.567" viewBox="0 0 100.592 105.567">
  <defs>
    <clipPath id="clip-path">
      <rect id="Rectangle_62" data-name="Rectangle 62" width="72.424" height="82.708" fill="#4f5c5c"/>
    </clipPath>
  </defs>
  <g id="Groupe_124" data-name="Groupe 124" transform="translate(193.271 -222.566) rotate(-155)">
    <g id="Groupe_123" data-name="Groupe 123" transform="translate(-23 -351.329)" clip-path="url(#clip-path)">
      <path id="Tracé_105" data-name="Tracé 105" d="M18.8,120.448c-.925,1.762-1.286,4.061-1.889,5.963l-2.046,6.46c-.132.416-.242.869-.361,1.321a35.858,35.858,0,0,1,.156-14.035c.319-1.576-2.08-2.255-2.424-.668a32.433,32.433,0,0,0,.546,15.709l-.138-.09q-2.384-1.586-4.7-3.268c-1.733-1.259-3.43-2.565-5.1-3.9-.761-.609-1.283-1.2-2.281-.91a.777.777,0,0,0-.558.732.955.955,0,0,0,.515.919.558.558,0,0,0,.548.029c1.132.653,2.388,2.394,3.246,3.16q1.78,1.59,3.618,3.113c1.513,1.254,4.614,4.769,6.835,4.354,2.521-.471,2.951-4.662,3.578-6.584L20.12,127.3q.485-1.488.971-2.975.161-.5.323-.991c.027-.042.043-.074.066-.113a1.663,1.663,0,0,0,.807-.451l.292-.307a1.681,1.681,0,0,0,.437-1.651c-.783-2.061-3.146-2.4-4.217-.359" transform="translate(0 -56.658)" fill="#4f5c5c"/>
      <path id="Tracé_106" data-name="Tracé 106" d="M31.645,78.448c-1.51,1.684-2.252,4.183-2.972,6.3a58.763,58.763,0,0,0-2.069,8,.734.734,0,0,0,1.415.39,57.749,57.749,0,0,1,2.635-7.557c.878-2.018,2.252-3.977,2.739-6.122.217-.959-1.012-1.838-1.748-1.017" transform="translate(-12.703 -37.326)" fill="#4f5c5c"/>
      <path id="Tracé_107" data-name="Tracé 107" d="M50.541,37.733a42.2,42.2,0,0,0-9.065,15.441c-.24.714.909,1.217,1.231.519a57.339,57.339,0,0,1,9.526-14.268c1.018-1.143-.629-2.821-1.692-1.692" transform="translate(-19.801 -17.849)" fill="#4f5c5c"/>
      <path id="Tracé_108" data-name="Tracé 108" d="M78.087,17.819a26.739,26.739,0,0,0-5.867,4.852c-.3.376-.038,1.186.548.941a40.764,40.764,0,0,0,4.927-2.8c1.25-.743,3.551-2.642,5.019-2.262a1.2,1.2,0,0,0,1.5-1.144c0-.1,0-.193,0-.289a1.459,1.459,0,0,0-1.036-1.36c-1.8-.688-3.737,1.123-5.093,2.066" transform="translate(-34.446 -7.454)" fill="#4f5c5c"/>
      <path id="Tracé_109" data-name="Tracé 109" d="M108.3,5.679c2.372-.439,4.745-.876,7.116-1.326,1.872-.355,4.683-1.5,6.5-1.1A1.318,1.318,0,0,0,123.564,2c.007-.107.015-.214.022-.321a1.586,1.586,0,0,0-1.145-1.5c-1.88-.657-4.453.673-6.241,1.185q-4.21,1.2-8.414,2.435a.976.976,0,0,0,.519,1.881" transform="translate(-51.166 0)" fill="#4f5c5c"/>
    </g>
  </g>
</svg>
