<?xml version="1.0" encoding="UTF-8"?>
<svg id="Calque_2" data-name="Calque 2" xmlns="http://www.w3.org/2000/svg" xmlns:xlink="http://www.w3.org/1999/xlink" viewBox="0 0 107.2 78.1">
  <defs>
    <style>
      .cls-1 {
        fill: none;
      }

      .cls-2 {
        clip-path: url(#clippath);
      }

      .cls-3 {
        fill: #789389;
      }

      .cls-4 {
        opacity: .24;
      }
    </style>
    <clipPath id="clippath">
      <rect class="cls-1" width="107.2" height="78.1"/>
    </clipPath>
  </defs>
  <g id="Calque_1-2" data-name="Calque 1">
    <g id="Groupe_380" data-name="Groupe 380" class="cls-4">
      <g class="cls-2">
        <g id="Groupe_379" data-name="Groupe 379">
          <path id="Tracé_674" data-name="Tracé 674" class="cls-3" d="M107.1,29.1c-.2-1.6-.7-3.1-1.3-4.6,1-2.6,.5-5.5-1.2-7.7-2.9-3.9-5-5.8-9.9-6.7l-.3-.1-1.1,.8h0l-3.1,2.3-1,.7c-.8,0-4.4-.2-6-5.6l-.3-1h-.1c-.8-1.7-2.6-2.8-4.4-2.5h-.1l-.2,.2C75.9-1.3,69.5-.1,69.4-.1h-.1l-5,2.6c-2.2-1.5-4.9-2.2-7.6-1.9h-.1l-6.3,3.2h-4.7l-7,3.1h-1l-4.5,2h-.1l.4,1.1L12.2,19.2c-1.6,.3-3.1,.8-4.5,1.5h0c-1.4,.8-2.7,1.8-3.8,2.9-4.8,4.1-5,12.9-.2,20.4,3.7,5.8,9.4,9.3,14.5,9.3,1.8,0,3.5-.5,5.1-1.4,3.6-1,6.5-3.7,7.8-7.2,.3-.7,.5-1.4,.6-2.2l15.9-8.8c.3,.1,1,.3,1.6,.4,1.9,.7,3.9,1.1,5.9,1.3,.3,0,.6,0,.9-.1,1.4-.7,2.5-2.1,2.8-3.7,.7-.5,1.3-1.2,1.7-2,.5,.2,1,.2,1.5,.2,.4,0,.8-.1,1.2-.2l4.3,4.2c-.9,1.3-1.4,2.8-1.5,4.4-3.5,1.8-7.4,3.8-8,4.2-1.1,.2-2.1,.6-3,1.2-1.4,.7-2.7,1.5-3.9,2.5,0,0-.1,0-.1,.1-5.8,3.7-6.2,13.4-.9,21.6,3.9,6.1,9.8,9.8,14.9,9.8,.9,0,1.9-.1,2.8-.4,2.3-.7,4.5-1.9,6.2-3.6,1-.7,1.9-1.6,2.6-2.6,.8-.9,8-9.2,9.9-12,1.7-2.5,5.9-4.9,6.8-5.3h.2l-.2,.9,1.2-.9h.3l.1-.3,3.3-2.3,.1-.2c.1-.4,.2-.7,.3-1.1l7.1-7.1v-.3c.2-1.7,.1-3.4-.3-5,.7-1.2,1.3-2.6,1.6-4v-.3c0-.2,.1-.4,.1-.7,.2-.6,.2-2,0-3.3h0Zm-1.5,4.4v.3c-.3,1.3-.9,2.6-1.6,3.8l-.2,.3,.2,.3c.4,1.4,.5,2.9,.3,4.4l-5.5,5.4c.1-1.6,0-3.1-.2-4.7-.3-1.9-.8-3.8-1.4-5.6,0-.1-.1-.2-.1-.3-3-8.4-11.7-12.2-17.6-13.8-.2-.1-.4-.1-.5-.1l1.2-.9,.9-.7,4.4-3.3,.2-.1,4.2-3.2,1.1-.9c2.2-.5,4.5-.3,6.5,.7,1.7,1.1,2.9,2.9,3.2,5l-.1,.5,.6,.1c.1,0,2.4,.6,3.1,3.9v.1h0l.4,1.8,.2-.3c.9,2.4,1.1,4.9,.7,7.3h0Zm-12.9,19.4c-.2,.1-5.4,2.8-7.5,5.9-1.2,1.7-4.6,5.8-7,8.7,.2-.8,.3-1.6,.3-2.5,0-4.4-1.3-8.7-3.7-12.4-3.6-5.6-8.8-9.1-13.7-9.7,1.3-.7,3-1.6,4.7-2.4,1.4-.7,2.7-1.4,3.8-1.9,.5-.2,1-.4,1.3-.6h0l.4-.2c.5-.2,1-.4,1.4-.7,.1-.1,.2-.1,.4-.2,.3-.1,.5-.3,.7-.4,3.1-1.8,4.3-3.2,4.7-3.8,3.7-.1,7.3,1.1,10.1,3.5,6,4.7,5.3,14.2,5,16.6h-.8l-.1,.1h0Zm-39.8,13.9c-1.4-2.1-2.3-4.5-2.8-6.9-.1-.6-.2-1.2-.2-1.9v-1.7c.2-2.8,1.2-5.1,3.2-6.3,1-.6,2.2-1,3.4-1,1.9,.1,3.8,.6,5.4,1.7,.5,.3,1,.6,1.5,1,.7,.5,1.3,1.1,2,1.7,2.1,2.1,3.7,4.6,4.8,7.4,.3,.8,.6,1.6,.8,2.5,.1,.6,.2,1.2,.3,1.8,.5,3.8-.6,7.1-3.1,8.7-1,.6-2.2,1-3.4,1-1.1,0-2.2-.2-3.2-.6-.6-.2-1.1-.4-1.6-.7-.6-.3-1.1-.7-1.7-1-2.3-1.6-4.1-3.5-5.4-5.7h0Zm21.3,3c.1-.3,.1-.7,.2-1.1,0-.4,.1-.8,.1-1.2,.1-4.4-1.2-8.8-3.7-12.5-2.4-3.9-5.9-7-10.2-8.8-.4-.1-.7-.3-1.1-.4-.3-.1-.7-.2-1-.3-.9-.2-1.8-.3-2.8-.3,.6-.4,1.3-.7,2-.9,.2-.1,.5-.1,.8-.2,.2,0,.5-.1,.8-.1h.6c4.6,0,10.1,3.4,13.7,9.1,2.3,3.4,3.5,7.5,3.5,11.6,0,1.7-.4,3.3-1.1,4.9-.1,.2-.3,.5-.4,.7s-.3,.4-.4,.6c-.5,.7-1.1,1.3-1.9,1.7,.4-.7,.7-1.7,.9-2.8h0Zm-17.7-36.4c-.3,.5-.7,.8-1.2,1-.8,.3-4.4-.8-5.9-1.2-.4-.1-.7-.2-1-.3,.6-1.7,.2-4.5-.1-6.3-.5-3.2-1.6-6.2-3.2-9-1.8-2.9-4.4-5.3-7.5-6.9l.4-.2c1.4,0,2.9,.1,4.3,.4,2.2,.5,4.2,1.5,5.9,2.9,2.6,2.3,5.7,3.9,9,4.7-.8,.7-1.3,1.6-1.5,2.6-.3,1.3-.3,2.7,.1,3.9v.2c0,.2,0,.5,.1,.7,.1,.5,.2,1,.4,1.6,0,.1,.1,.2,.1,.4,.2,.4,.4,.8,.6,1.2,.3,.4,.5,.9,.6,1.4,0,.3,0,.5-.1,.8-.1,.4-.2,.7-.3,1-.3,.4-.5,.8-.7,1.1h0Zm-26.7,10.4c-.1,.2-.2,.5-.2,.7-.7,1.9-1.9,3.5-3.5,4.6,.8-1.3,1.3-2.7,1.6-4.2,.1-.3,.1-.6,.1-.9s.1-.6,.1-.9c.2-4.3-1-8.6-3.4-12.2-2.2-3.7-5.5-6.5-9.4-8.3-.3-.1-.7-.3-1-.4-.3-.1-.6-.2-.9-.3s-.6-.1-.8-.2c-.9-.2-1.8-.3-2.7-.2,.8-.3,1.6-.5,2.4-.7,.2-.1,.5-.1,.7-.1s.5-.1,.7-.1c5.3-.6,10,2,13.7,7.8,2.2,3.5,3.9,8.7,3.2,13.4,0,.3-.1,.6-.2,.9-.2,.5-.3,.8-.4,1.1Zm-6-1.4c0,1-.2,1.9-.5,2.8-.1,.3-.2,.6-.4,.9-.1,.3-.3,.5-.4,.8-.5,.8-1.2,1.5-2,2-2,1.3-4.6,1.3-7.4,.2-3.1-1.4-5.6-3.6-7.4-6.5-2.1-3.1-3-6.9-2.6-10.6l2.8,2.2v-1.3l-2.7-.9c.2-2.2,1.4-4.1,3.2-5.4,1.1-.7,2.3-1,3.6-1,1.5,0,2.9,.4,4.3,1,.3,.2,.7,.3,1,.5s.7,.4,1,.7c1.9,1.4,3.6,3.1,4.8,5.1,1.8,2.8,2.7,6.1,2.7,9.5h0Zm4.4-14.6c-3.3-5.2-7.4-8-12.1-8.5l15.1-6.6,3.6-1.6h.1c.3,.1,.7,.2,1,.4,1.7,.7,3.2,1.6,4.6,2.8,1.4,1.2,2.6,2.6,3.5,4.1,.3,.5,.6,1.1,.9,1.7,1,2.2,1.6,4.5,2.1,6.8,.7,3.7,.3,5.5-.1,5.9l-.3,.1-14.9,8.2c.2-4.6-1-9.3-3.5-13.3h0ZM47.4,5.5l-4.4,2.2c-.5-.1-1.1-.2-1.5-.2l4.3-1.9,1.6-.1h0Zm6-1.5l3.5-1.8c2.4-.2,4.8,.5,6.7,1.9,.3,.2,.6,.5,.9,.7,.4,.4,.9,.8,1.3,1.1,.5,.4,1,.7,1.6,1,.3,.1,.5,.3,.8,.4,.1,0,.2,.1,.3,.1s.1,.1,.2,.1,.2,.2,.2,.3-.1,.2-.2,.3l-.1,.1-.9,.5c-1.9,1.1-4.1,2.2-5.2,2.7-.7,.3-1.4,.9-1.9,1.5-.3,.4-.6,.8-.8,1.3-.2,.3-.3,.7-.4,1.1-.1,0-.2,0-.3-.1h-.2c-.3,0-.5-.1-.8-.1-.2,0-.5-.1-.7-.1-2.7-.5-5.2-1.9-7.1-3.9-1.4-1.4-3.2-2.5-5.2-2.9l8-4,.3-.2h0Zm23.4,1.9l-1.8,1.1c-1.7-.4-3.4-.5-5.1-.3-.2-.2-.5-.4-.8-.6-1.4-.6-2.6-1.4-3.6-2.4l-.1-.1,4.3-2.2c3.2-.5,6.3,1.4,7.1,4.5h0Zm1.7,.7l.3-.2c1.4-.1,2.7,.8,3,2.2q0,.1,.1,.2l.3,.9h0c1.3,3.8,3.7,5.1,5.4,5.5l-.2,.1-.3,.2h0l-.4,.3-1.8,1.4c-1.1-.2-2-1.1-2.3-2.2,.1-.6,.2-1.2,.1-1.7-.2-1.2-.7-2.4-1.5-3.3l-.1-.1-.4-.4-1.2,.8-.1,.1h0c-.6-.9-1.3-1.7-2.3-2.3-.2-.1-.4-.2-.6-.3l.1-.1,1.9-1.1h0Zm16.3,5c.5,.1,1,.2,1.4,.3,3.2,.8,4.8,2.4,7.3,5.7,.8,1,1.3,2.3,1.4,3.5v1c-.6-1.2-1.7-2.1-2.9-2.6-.4-2-1.5-3.8-3.2-5.1-.2-.2-.4-.3-.6-.4-1.1-.6-2.3-1-3.5-1.1-.5-.1-1-.1-1.5-.1l.4-.3,.7-.5,.5-.4Zm-31.7,1.1c1.3-.6,4.2-2.1,6.3-3.3,.1,0,.1-.1,.2-.1,.2-.2,.4-.4,.5-.6,.1-.2,.1-.3,.2-.5h2.3c.6,0,1.2,.1,1.8,.2,.2,0,.4,.1,.6,.1,.2,.1,.4,.2,.6,.3,2.3,1,2.8,2.3,2.9,2.7l-.9,4.3,1.3,6-1.8,1.3c-2.7-.7-5.2-2-7.3-3.8-.6-.5-1-1-1.3-1.3h.1l-.6-.6-.4-.5-.1,.1c-1.5-1.2-3.4-1.9-5.3-1.8h-.3l-.3,.3c-.2,0-.5,0-.7,.1,.3-1.3,1.1-2.3,2.2-2.9h0Zm18,2.4v.1c.4,1.3,1.2,2.3,2.4,3l-2.2,1.8-.8,.6-.4,.3-.3-1.3-.8-3.8,.4-1.9,.3-1.5,.1-.5,.4-.3,.3-.2c.7,1,1,2.2,.6,3.4v.3h0Zm-22.1,11c-.2-.3-.4-.7-.6-1.1h0c-.4-.9-.5-1.8-.3-2.8,.1-.6,.4-1.1,.8-1.4,.2-.1,.4-.3,.6-.4,.2-.1,.3-.1,.5-.1h.3c.2,0,.4,0,.6,.1,.2,0,.3,.1,.5,.2,.6,.3,1,.6,1.4,1.1,.1,.2,.2,.3,.3,.5,0,0,0,.1,.1,.1,.1,.2,.2,.4,.3,.6,.1,.2,.2,.4,.2,.6,.2,.7,.2,1.5,0,2.3-.1,.3-.2,.5-.3,.7-.2,.3-.5,.6-.8,.8-.1,.1-.2,.1-.3,.2-1.2,.3-2.6-.2-3.3-1.4m5.3-6.8h0c-.4-.4-.8-.7-1.3-1-.2-.1-.4-.2-.7-.4-.1,0-.1-.1-.2-.1-.2-.1-.5-.2-.8-.3l.4-.4,.3-.3,.4-.4c.6,0,1.1,.1,1.7,.2,.1,0,.2,.1,.3,.1h.1c.6,.2,1.2,.5,1.8,.9-.1,.1-.2,.1-.3,.2-.2,.1-.3,.2-.5,.4l-.1,.1-.8,.6h0l-.3,.4h0Zm-5.6,10c.1,.1,.3,.2,.4,.2-.1,.1-.1,.2-.2,.3-.1-.1-.1-.3-.2-.5h0Zm7.2-7.4h0c-.2-.5-.5-1-.8-1.4l.3-.3c2.2,2.4,4.8,4.3,7.8,5.5,1.2,.5,2.3,.8,3.6,1.1,.9,.2,1.8,.5,2.7,.8,2.6,.9,5,2.3,7.1,4,.3,.3,.6,.5,.9,.8,.6,.5,1.1,1.1,1.7,1.6,.5,.5,.9,1,1.4,1.5,.4,.4,.7,.9,1,1.4,.1,.2,.2,.3,.3,.5-.6-.8-1.4-1.6-2.2-2.3-.2-.1-.4-.3-.5-.4-1.4-1.1-3.1-2-4.8-2.6-1.6-.6-3.3-.9-4.9-.9-.5,0-.9,0-1.4,.1h-.4l-.1,.3s-.6,1.2-3.5,3.1c-.2,.1-.5,.3-.7,.4s-.5,.3-.7,.4c-.1,.1-.2,.1-.4,.2-.3,.1-.6,.3-.9,.4l-1.3-1.3-.9-.9-.6-.6-3.9-3.9c1.8-1.3,2.5-4.5,1.2-7.5h0Zm3.9,15c-.7,.3-1.5,.7-2.5,1.2,.1-.9,.5-1.8,1-2.6l1.5,1.4Z"/>
          <path id="Tracé_675" data-name="Tracé 675" class="cls-3" d="M12.8,45.3l.6,3.1,.6-2.4c-.1-.1-.3-.1-.4-.2-.3-.1-.6-.3-.8-.5Z"/>
          <path id="Tracé_676" data-name="Tracé 676" class="cls-3" d="M13.8,30.3l-.6-3.1-.6,2.4c.2,.1,.4,.2,.6,.3,.2,.2,.4,.3,.6,.4Z"/>
          <path id="Tracé_677" data-name="Tracé 677" class="cls-3" d="M21.1,42.1v.7l.5,.2,.9,.3,1.2,.4-1.5-1.2-1.1-.9v.1c-.1,.1-.1,.3,0,.4h0Z"/>
          <path id="Tracé_678" data-name="Tracé 678" class="cls-3" d="M16.3,37.8l-1,1.1,1.1,2.3,3.5,1.2c0-.3,.1-.6,0-.9,0-.3,0-.6-.1-.8l-3.5-2.9h0Z"/>
          <path id="Tracé_679" data-name="Tracé 679" class="cls-3" d="M11.3,36.8l-1.1-2.3-3.3-1.1c0,.3-.1,.6-.1,1,0,.3,0,.6,.1,.9l3.3,2.6,1.1-1.1h0Z"/>
          <path id="Tracé_680" data-name="Tracé 680" class="cls-3" d="M14.9,35.7l-.8-4c-.3-.2-.5-.3-.8-.5s-.6-.3-.9-.4l-.7,3.1,1.6,2,1.6-.2h0Z"/>
          <path id="Tracé_681" data-name="Tracé 681" class="cls-3" d="M11.7,40l.8,4c.3,.2,.7,.5,1.1,.7,.2,.1,.4,.2,.7,.3l.7-3.1-1.6-2-1.7,.1h0Z"/>
          <path id="Tracé_682" data-name="Tracé 682" class="cls-3" d="M11.5,36.6c.1-.8,.6-1.1,1.4-.9l-1.4-1.6-2.8-3.4,1.8,3.9,1,2Z"/>
          <path id="Tracé_683" data-name="Tracé 683" class="cls-3" d="M15.1,38.6l.9-1,1.7-1.8-2.7,.2-1.3,.1c.7,.6,1.2,1.5,1.4,2.5h0Z"/>
          <path id="Tracé_684" data-name="Tracé 684" class="cls-3" d="M15.1,39.1c-.1,.8-.8,1-1.6,.6l1.6,1.9,2.8,3.4-1.8-3.9-1-2h0Z"/>
          <path id="Tracé_685" data-name="Tracé 685" class="cls-3" d="M11.5,37.1l-.9,1-1.7,1.8,2.7-.2,1.6-.1c-.9-.6-1.5-1.5-1.7-2.5"/>
          <path id="Tracé_686" data-name="Tracé 686" class="cls-3" d="M13.3,36.4c-.7-.4-1.3-.1-1.3,.6,.1,.9,.6,1.6,1.3,2.1,.7,.4,1.3,.1,1.3-.6-.1-.9-.6-1.7-1.3-2.1m-.9,.9c0-.5,.4-.7,.9-.4,.5,.3,.8,.8,.9,1.4,0,.5-.4,.7-.9,.4-.5-.3-.8-.8-.9-1.4"/>
          <path id="Tracé_687" data-name="Tracé 687" class="cls-3" d="M20.7,40.9c-.3-1.9-1.1-3.8-2.2-5.5h0c0-.1-.1-.1-.1-.2-.5-.7-1-1.4-1.6-2.1-.9-1-1.8-1.8-2.9-2.5-.2-.1-.4-.3-.6-.4-.2-.1-.5-.2-.7-.4-1.4-.8-3-.9-4.4-.3h-.1c-1.2,.7-2,2-2,3.4v1.4c.3,2,1,4,2.1,5.7,0,0,0,.1,.1,.1,1.2,1.9,2.7,3.5,4.5,4.8,.3,.2,.6,.4,.9,.5,.2,.1,.3,.2,.4,.2,1.4,.8,3.1,1,4.6,.5h0c1.3-.6,2.1-1.9,2.1-3.4v-1.5c-.1,0-.1-.2-.1-.3h0Zm-.6,.7v.9c0,1.2-.7,2.4-1.8,3h-.2c-1.3,.4-2.7,.3-3.9-.4-.2-.1-.4-.2-.6-.3-.3-.2-.7-.4-1-.6-1.5-1.1-2.8-2.5-3.8-4,0-.1-.1-.1-.1-.2s-.1-.1-.1-.1c0,0-.1-.1-.1-.2-.9-1.5-1.5-3.1-1.8-4.8,0-.3-.1-.5-.1-.8v-.9c.1-1.2,.7-2.2,1.7-2.8l.1-.1h.2c1.2-.4,2.6-.3,3.7,.2,.3,.1,.6,.3,.9,.4,.3,.1,.5,.3,.8,.5,1.3,.9,2.5,2,3.4,3.3,.2,.3,.4,.5,.5,.8l.1,.1h0s.1,.1,.1,.2c1,1.5,1.7,3.3,1.9,5.1v.5c.1,.1,.1,.2,.1,.2h0Z"/>
          <path id="Tracé_688" data-name="Tracé 688" class="cls-3" d="M53,57.7l-2.8-1,2.8,2.3v-1.3Z"/>
          <path id="Tracé_689" data-name="Tracé 689" class="cls-3" d="M68.2,67.5l2.6,.9-2.6-2.1v.5c.1,.3,.1,.5,0,.7h0Z"/>
          <path id="Tracé_690" data-name="Tracé 690" class="cls-3" d="M61,55l-.6-3.1-.6,2.4c.2,.1,.4,.2,.6,.3,.2,.2,.4,.3,.6,.4h0Z"/>
          <path id="Tracé_691" data-name="Tracé 691" class="cls-3" d="M60,70l.6,3.1,.6-2.4c-.1-.1-.3-.1-.4-.2-.3-.1-.6-.3-.8-.5Z"/>
          <path id="Tracé_692" data-name="Tracé 692" class="cls-3" d="M62.1,60.4l-.8-4c-.3-.2-.5-.3-.8-.5s-.6-.3-.9-.4l-.7,3.1,1.6,2,1.6-.2h0Z"/>
          <path id="Tracé_693" data-name="Tracé 693" class="cls-3" d="M62.4,63.6l1.1,2.3,3.5,1.2c0-.3,.1-.6,0-.9,0-.3,0-.6-.1-.8l-3.6-2.8-.9,1h0Z"/>
          <path id="Tracé_694" data-name="Tracé 694" class="cls-3" d="M58.5,61.5l-1.1-2.3-3.3-1.1c0,.3-.1,.6-.1,1,0,.3,0,.6,.1,.9l3.3,2.6,1.1-1.1h0Z"/>
          <path id="Tracé_695" data-name="Tracé 695" class="cls-3" d="M62.2,66.5l-1.6-2-1.6,.1,.8,4c.3,.2,.7,.5,1.1,.7,.2,.1,.4,.2,.7,.3l.6-3.1h0Z"/>
          <path id="Tracé_696" data-name="Tracé 696" class="cls-3" d="M62.3,63.8c-.1,.8-.8,1-1.6,.6l1.6,1.9,2.8,3.4-1.8-3.9-1-2h0Z"/>
          <path id="Tracé_697" data-name="Tracé 697" class="cls-3" d="M62.3,63.3l.9-1,1.7-1.8-2.7,.2-1.3,.1c.7,.6,1.2,1.5,1.4,2.5"/>
          <path id="Tracé_698" data-name="Tracé 698" class="cls-3" d="M61.8,63.2c-.1-.9-.6-1.6-1.3-2.1-.7-.4-1.3-.1-1.3,.6,.1,.9,.6,1.6,1.3,2.1,.7,.4,1.3,.1,1.3-.6m-2.2-1.2c0-.5,.4-.7,.9-.4,.5,.3,.8,.8,.9,1.4,0,.5-.4,.7-.9,.4-.5-.3-.8-.9-.9-1.4"/>
          <path id="Tracé_699" data-name="Tracé 699" class="cls-3" d="M58.7,61.3c.1-.8,.6-1.1,1.4-.9l-1.4-1.6-2.8-3.4,1.8,3.9,1,2Z"/>
          <path id="Tracé_700" data-name="Tracé 700" class="cls-3" d="M58.7,61.8l-.9,1-1.7,1.8,2.7-.2,1.6-.1c-.9-.6-1.5-1.5-1.7-2.5"/>
          <path id="Tracé_701" data-name="Tracé 701" class="cls-3" d="M60.8,70.3c.1,.1,.3,.2,.4,.2,1.4,.8,3.1,1,4.6,.5h0c1.3-.7,2.2-2,2.1-3.5v-1.3c-.3-2.2-1-4.2-2.2-6h0c-1.2-1.9-2.8-3.5-4.7-4.8-.2-.1-.4-.3-.6-.4-.2-.1-.5-.2-.7-.4-1.4-.8-3-.9-4.4-.3h-.1c-1.2,.7-2,2-2,3.4v1.4c.3,2,1,4,2.1,5.7,0,0,0,.1,.1,.1,1.2,1.9,2.7,3.5,4.5,4.8,.3,.2,.6,.4,.9,.6h0Zm-4.8-5.4c0-.1-.1-.1-.1-.2s-.1-.1-.1-.1c0,0-.1-.1-.1-.2-.9-1.5-1.5-3.1-1.8-4.8,0-.3-.1-.5-.1-.8v-.9c.1-1.2,.7-2.2,1.7-2.8h.3c1.2-.4,2.6-.3,3.7,.2,.3,.1,.6,.3,.9,.4,.3,.1,.5,.3,.8,.5,1.6,1.1,2.9,2.5,3.9,4l.1,.1h0c0,.1,.1,.1,.1,.2,1,1.5,1.7,3.3,1.9,5.1,0,.3,0,.5,.1,.8v.9c0,1.2-.7,2.4-1.8,3h-.2c-1.3,.4-2.7,.3-3.9-.4-.2-.1-.4-.2-.6-.3-.3-.2-.7-.4-1-.6-1.6-1.1-2.8-2.5-3.8-4.1h0Z"/>
        </g>
      </g>
    </g>
  </g>
</svg>