<?xml version="1.0" encoding="UTF-8"?>
<svg id="Calque_2" data-name="Calque 2" xmlns="http://www.w3.org/2000/svg" xmlns:xlink="http://www.w3.org/1999/xlink" viewBox="0 0 103.4 97.2">
  <defs>
    <style>
      .cls-1 {
        fill: none;
      }

      .cls-2 {
        clip-path: url(#clippath);
      }

      .cls-3 {
        fill: #789389;
      }

      .cls-4 {
        opacity: .24;
      }
    </style>
    <clipPath id="clippath">
      <rect class="cls-1" width="103.4" height="97.2"/>
    </clipPath>
  </defs>
  <g id="Calque_1-2" data-name="Calque 1">
    <g id="Groupe_391" data-name="Groupe 391" class="cls-4">
      <g class="cls-2">
        <g id="Groupe_390" data-name="Groupe 390">
          <path id="Tracé_728" data-name="Tracé 728" class="cls-3" d="M103.4,52.2v-.4c-.2-1.2-.6-2.4-1.1-3.5-.6-1.3-1.7-4-2.9-6.7-1.9-4.4-3.1-7.2-3.3-7.6-.5-.7-1.3-1.1-2.1-1.1,0-.1-.1-.2-.1-.2v-.2c-.2-.9-.7-3.2-3.2-2.7-2.9,.5-2.6,4.2-2.4,6.2,.3,2,.8,4,1.4,5.9,1,3.4,2.1,7.3,2.1,9.4,0,1.5-.2,3.1-.7,4.5,0,.1-.1,.2-.1,.2h0c0,.1-.1,.1-.1,.2l-.1,.1v.1h0c-.3-.4-.7-.9-.9-1.3-1.1-1.8-1.9-3.7-2.6-5.6-.5-2-2.1-3.2-4.7-3.4h-.3c-.5,0-1,.2-1.3,.5-.5,.7-.6,1.6-.4,2.5v.3c.1,3.5,.5,6.9,1,10.3,.4,1.2,4.4,9.9,5.1,11.5l-7.4,21.8c-6.6-.9-11.2-2.9-16.5-5.1-6.1-2.7-12.5-4.9-19.1-6.5-8.2-2.1-16.7-2.6-25-1.5l-1.5-8.2c.7-1.5,4.7-10.3,5.1-11.6,.5-3.4,.9-6.9,1-10.3v-.3c.2-.9,.1-1.7-.4-2.5-.3-.4-.8-.6-1.3-.5h-.3c-2.6,.2-4.2,1.4-4.7,3.4-.6,2-1.5,3.9-2.6,5.6-.3,.5-.6,.9-.9,1.3h0l-.1-.1h0c0-.1-.1-.1-.1-.2h0c0-.1-.1-.2-.1-.2-.5-1.4-.8-3-.7-4.5,0-2.1,1.1-6,2.1-9.4,.6-1.9,1.1-3.9,1.4-5.9,.2-2,.5-5.7-2.4-6.2-2.5-.5-3,1.8-3.2,2.7v.2s0,.1-.1,.2c-.8,.1-1.6,.5-2.1,1.1-.2,.4-1.4,3.1-3.3,7.6-1.1,2.6-2.3,5.4-2.9,6.6-.4,.8-.7,1.7-1,2.6-.2,.5-.2,1-.1,1.5l.1,.6,6.3,29.7c-2,.7-3.9,1.5-5.9,2.4v3.8c13.8-6.7,26.6-8,42.2-4.3,6.4,1.5,12.6,3.6,18.6,6.3,6.3,2.7,11.7,4.9,20.4,5.7,1.9,.2,3.8,.2,5.6,.2,5.4,0,10.7-.6,16-1.8v-3.6c-2.4,.6-4.9,1-7.4,1.3l7.3-40.8c-.3,0-.3-.1-.3-.1M2.4,49.3c.6-1.3,1.8-4,2.9-6.7,1.3-3.1,3-7,3.2-7.4,.2-.2,.4-.3,.6-.4l-2.8,12.5,1.3,.3,2.8-12.4,.4-1.8v-.2c.1-.5,.3-1.1,.6-1.5,.3-.2,.7-.3,1-.2,1.2,.2,1.6,1.6,1.3,4.7-.3,1.9-.8,3.8-1.4,5.6-1,3.5-2.1,7.5-2.1,9.8-.1,1.7,.2,3.4,.8,5.1,0,.1,.1,.2,.1,.3h0c.1,.1,.1,.2,.2,.3h0c.1,.1,.1,.2,.2,.2h0l.2,.2h0l.1,.1h0l.1,.1h0q.1,.1,.2,.1h.1c.1,0,.2,.1,.3,.1h.3c.3-.1,.8-.3,1.9-2.1,1.2-1.9,2.1-3.9,2.7-6,.2-.7,.6-1.3,1.2-1.7-.2,2.1,.2,3.6,1.1,4.5,.4,.4,.9,.7,1.5,.8-.1,2-.3,3.9-.6,5.9-.3,1-3.5,8.1-5.2,11.6l-.1,.2,1.6,8.6c-3.1,.5-6.3,1.3-9.3,2.3L1.2,52c.3-.6,.7-1.7,1.2-2.7m18.7-1.3h.2c.1,0,.2,0,.3,.1,.2,.2,.1,.7,.1,1.2v.7c-.1,1-.1,1.9-.2,2.7-.2-.1-.4-.2-.6-.3h0c-.5-.5-1-1.6-.6-4.1,.3-.2,.5-.3,.8-.3m64.9,45.7l-5.4-.8,7.4-21.6-.1-.2c-1.6-3.6-4.8-10.6-5.2-11.6-.3-1.9-.5-3.9-.6-5.9,.6-.1,1.1-.4,1.5-.8,.9-.9,1.3-2.4,1.1-4.5,.6,.4,1,1,1.2,1.7,.7,2.1,1.6,4.1,2.7,6,1.1,1.8,1.5,2,1.9,2.1h.4c.1,0,.2,0,.3-.1h0c.1,0,.2-.1,.2-.1h0l.1-.1h0l.1-.1q.1-.1,.2-.2h0c0-.1,.1-.1,.1-.2h0c.1-.1,.1-.2,.2-.3h0c.1-.1,.1-.2,.1-.3,.6-1.6,.9-3.3,.8-5.1,0-2.3-1.1-6.3-2.1-9.8-.6-1.8-1.1-3.7-1.4-5.6-.3-3.2,.1-4.5,1.3-4.7,.3-.1,.7,0,1,.2,.4,.4,.6,.9,.6,1.5v.2h0l.4,1.8,2.8,12.4,1.3-.3-2.8-12.5c.2,.1,.4,.2,.6,.4,.2,.4,1.9,4.3,3.2,7.4,1.1,2.6,2.3,5.4,2.9,6.7,.5,1,.9,2,1,3.1l-7.4,41.3c-2.6-.1-5.5,.1-8.4,0m-4.2-46.1c.1-.1,.2-.1,.3-.1h.2c.3,0,.6,.1,.8,.1,.4,2.5-.1,3.6-.6,4.1l-.1,.1c-.2,.2-.3,.3-.6,.3-.1-.9-.1-1.8-.2-2.7v-.7c.1-.3,.1-.9,.2-1.1m9.2,9.6l-.3-.4h0l.3,.4Zm-.5-.5h0l.1,.1-.1-.1h0Z"/>
          <path id="Tracé_729" data-name="Tracé 729" class="cls-3" d="M21.3,41.4c1.7-.2,3.4-.7,4.9-1.6,1.4-.9,2.4-2.3,2.8-4v-.1c1.1-.3,2.1-.4,3.2-.3,.8,.1,1.6,.3,2.3,.5-.4,1.3-.6,2.7-.7,4.1-1,0-2,.2-3,.4v-.2c-.2-.8-.8-1.5-1.6-1.6-.4,0-.8,.1-1.1,.4s-.5,.8-.5,1.3c.1,.5,.3,1,.6,1.5-.6,0-1.1,.2-1.5,.6-.6,.5-.7,1.4-.2,2.1,.3,.4,.8,.6,1.2,.5,.2,0,.5,0,.7-.1,.4-.2,.8-.4,1-.8l.1,.1c.3,.2,.6,.4,1,.5,.8,.2,1.7-.3,1.9-1.2,.1-.6-.1-1.2-.6-1.6-.1-.1-.2-.1-.3-.2,.1,0,.1-.1,.2-.1h.4c.6,0,1.1-.1,1.6-.2,0,3.4,1.1,6.7,2.9,9.5h-.1l.9,1.1c-.4,.1-.7,.3-1,.5,0-.1-.1-.1-.1-.2-.3-.8-1.1-1.3-2-1.2-.4,0-.8,.3-1,.6-.3,.4-.3,.9-.2,1.4,.2,.5,.5,.9,.9,1.3-.5,.1-1,.5-1.3,.9-.4,.6-.4,1.4,.2,2,.3,.3,.6,.4,1,.4s.7-.1,1.1-.3c.4-.2,.6-.6,.8-1l.1,.1c.3,.2,.7,.3,1,.2,.9,0,1.6-.7,1.6-1.6,0-.6-.4-1.2-.9-1.4-.1-.1-.2-.1-.3-.1,.1,0,.1-.1,.2-.1s.2-.1,.3-.1h.1c.1,0,.3-.1,.4-.1,.1,.1,.2,.3,.4,.4q.1,.1,.2,.2c1.2,1.2,2.5,2.2,4,3.1h-.2c-.3,0-.7,.1-1.1,.1-1.1,.1-2.1,.5-3,1.2-5.3-1.4-10.7,1.7-12.1,6.9-.4,1.5-.5,3-.2,4.5l.1,.5,.4,.1c5.2,1.8,10.8-1,12.5-6.2,.5-1.6,.7-3.3,.4-5,.7-.4,1.5-.7,2.3-.8,.3,0,.5-.1,.8-.1,.7-.1,1.5-.2,2.2-.4,1.2,.5,2.4,.8,3.7,1h0c.3,0,.5,.1,.8,.1h.1c.3,0,.6,.1,.9,.1h.2c-.4,1.1-1,2.1-1.8,3-1.7-.4-3.4-.2-4.9,.6-1.4,.9-2.7,2-3.7,3.3-.2,.2-.2,.4-.2,.7,0,.2,.2,.3,.3,.4,1.8,.7,3.7,.8,5.5,.3,1.9-.5,4.1-1.9,3.7-4q0-.1-.1-.2c.4-.4,.7-.8,1-1.2,.1,1,.2,2,.4,3,0,.1,0,.2,.1,.3v.1s0,.1-.1,.1c-.9-.2-1.8,.1-2.5,.8-.7,.7-1,1.6-.8,2.6,.2,.9,1,1.5,1.9,1.4,.8-.1,1.5-.7,1.8-1.4,.2-.3,.3-.6,.4-.9,.4,.9,.8,1.8,1.3,2.7h-.1c-.7-.1-1.4,0-2,.1-1.1,.3-1.9,1.3-2.1,2.4-.2,1.1,.4,2.1,1.4,2.6,1,.4,2.1,.3,2.9-.4,.8-.6,1.3-1.6,1.4-2.6,.3,.4,.6,.8,1,1.1-.2,.4-.3,.8-.4,1.1v.1c-.2,.6-.4,1.3-.4,1.9,.1,1.2,.8,2.4,1.8,3.1,.4,.3,.9,.4,1.3,.4s.7-.1,1-.2c.9-.4,1.6-1.2,1.8-2.2s-.1-2.1-.8-2.9-1.6-1.3-2.6-1.7l-.2-.1c0-.1-.1-.2-.2-.3-.3-.2-.5-.5-.8-.8h.1c1,.3,2,.2,2.9-.3,.8-.6,1.1-1.8,.6-2.7-.5-.9-1.6-1.4-2.6-1.3s-2,.5-2.9,1l-.2,.1c-.2-.4-.4-.7-.5-1.1-.2-.6-.5-1.2-.7-1.8,.8,.5,1.7,.8,2.7,.8,.6,0,1.2-.3,1.6-.7,.3-.3,.4-.7,.4-1.1-.2-1.1-1.1-1.9-2.3-2.1-.6-.1-1.2-.1-1.8-.1-.4,.1-.9,0-1.3-.2-.1-.4-.1-.8-.1-1.2-.1-.9-.1-1.8,0-2.6h0v-.2h.3c.3,0,.5,0,.8-.1h.1c.3,0,.6-.1,.8-.1h0c.4-.1,.9-.2,1.3-.3h.1c.5-.1,1-.3,1.5-.5v.1l.3-.1c.1,.2,.1,.5,.2,.7,.2,.7,.4,1.5,.7,2.3,.2,.7,.5,1.4,.9,2.1v.2c.6,1.4,1.5,2.7,2.6,3.8,.6,.5,1.3,1,2,1.2,.8,.2,1.7,.3,2.5,.2,1-.1,2-.4,2.8-.9,.3-.2,.4-.5,.3-.8-1.1-3.8-5.1-5.9-8.9-4.8-.1,0-.3,.1-.4,.1-.2-.3-.3-.6-.4-1-.3-.9-.6-1.8-.9-2.7-.1-.3-.2-.6-.3-1,.3-.1,.6-.3,.8-.4h0c.3-.1,.6-.3,.8-.5h0c.2-.1,.4-.2,.6-.4v.2c.2,.5,.5,1,1,1.3-.1,0-.1,.1-.2,.1-.7,.5-.9,1.4-.7,2.2,.1,.4,.4,.7,.8,.8,.2,.1,.3,.1,.5,.1,.3,0,.6-.1,.9-.2,.4-.3,.8-.7,1-1.2,.3,.5,.7,.9,1.2,1.1,.7,.3,1.5,0,1.9-.7,.3-.7,.1-1.5-.5-2-.3-.3-.7-.5-1.1-.6v-.2c.1-.4,.1-.7,0-1.1-.2-.8-1.1-1.3-1.9-1.1-.6,.2-1,.6-1.1,1.2v.3q-.1-.1-.2-.2c-.1-.1-.1-.2-.2-.3h0v-.1c-.1-.2-.2-.3-.4-.4h-.1c.3-.2,.6-.5,.9-.7l.1-.1c.1-.1,.3-.2,.4-.4,.1,0,.1-.1,.1-.1,.1-.1,.2-.1,.2-.2,.2-.1,.3-.3,.4-.4,.1-.1,.2-.2,.2-.2,.2-.2,.3-.3,.4-.5l.1-.1,.4-.5v.1l.8-1.3c.1-.1,.2-.3,.3-.4,.8,.4,1.6,.9,2.2,1.5-.4,1.6-.2,3.4,.6,4.9,.9,1.4,2,2.6,3.4,3.6,.2,.2,.6,.2,.8,0q.1-.1,.1-.2c.6-1.8,.7-3.7,.1-5.5-.6-1.7-1.9-3.8-4-3.4,0,0-.1,0-.1,.1-.8-.7-1.6-1.4-2.6-1.8,.6-1.1,1.1-2.3,1.5-3.6q0-.1,.1-.2c.1-.2,.1-.4,.2-.6,0-.1,.1-.3,.1-.4s0-.2,.1-.3c0-.2,.1-.4,.1-.6v-.1c0-.3,.1-.5,.1-.8v-.1c0-.3,.1-.6,.1-.8v-.1c.6,.3,1.3,.6,2,.8,.6,.1,1.2,.2,1.8,.3,1,1.9,3.6,1.5,5.3,.8s3.1-1.9,4.1-3.5c.2-.3,.1-.6-.2-.8,0,0-.1,0-.1-.1-1.8-.5-3.7-.6-5.5-.3-.5,.1-1,.3-1.4,.5,.3-1.5,.1-3-.4-4.4-.7-1.9-2.2-3.9-4.2-3.5q-.1,0-.2,.1c-.4-.4-.8-.7-1.3-1,1-.1,2-.4,3-.6,.1,0,.2-.1,.3-.1h.1s.1,0,.1,.1c-.1,.9,.2,1.8,.9,2.4s1.7,.9,2.6,.6c.8-.3,1.4-1.1,1.3-2-.2-.8-.8-1.4-1.5-1.7-.3-.1-.6-.2-.9-.3,.9-.4,1.8-.9,2.6-1.5v.1c0,.7,.1,1.4,.3,2,.4,1.1,1.4,1.8,2.5,1.9s2.1-.5,2.5-1.6c.4-1,.1-2.1-.6-2.9-.7-.8-1.7-1.2-2.7-1.2,.4-.3,.7-.7,1.1-1.1,.4,.1,.8,.2,1.2,.3h.1c.6,.2,1.3,.3,2,.3,1.2-.2,2.3-.9,2.9-2,.4-.7,.4-1.6,0-2.4-.4-.9-1.3-1.5-2.3-1.6s-2,.3-2.8,1c-.7,.8-1.2,1.7-1.5,2.7l-.1,.2c-.1,0-.2,.1-.3,.2-.2,.3-.5,.6-.7,.8v-.1c.2-1,0-2-.5-2.9-.7-.8-1.9-1-2.7-.4-.9,.6-1.3,1.7-1.1,2.7s.6,2,1.2,2.8l.1,.2c-.4,.2-.7,.4-1,.6-.6,.3-1.2,.6-1.8,.8,.5-.8,.7-1.8,.6-2.7-.1-.6-.3-1.1-.8-1.5-.3-.3-.7-.4-1.2-.3-1.1,.3-1.9,1.3-1.9,2.4-.1,.6,0,1.2,.1,1.8,.1,.4,.1,.9-.1,1.3-.4,.1-.8,.2-1.1,.2-.9,.1-1.8,.2-2.6,.2h-1.1c-.6-.7-1.2-1.4-1.9-2,.3-.2,.6-.4,.9-.7,0,.1,.1,.1,.1,.2,.4,.6,1,.9,1.7,.9,.2,0,.3,0,.5-.1,.4-.1,.7-.4,.9-.8,.2-.4,.2-.9,0-1.4-.3-.5-.6-.8-1.1-1.1,.5-.2,.9-.6,1.1-1.1,.3-.7,.1-1.5-.5-1.9-.7-.4-1.5-.2-2.1,.3-.3,.3-.5,.7-.6,1.1q-.1,0-.2-.1c-.3-.1-.7-.1-1.1-.1-.9,.2-1.4,1-1.2,1.8,.1,.6,.6,1.1,1.2,1.2,.1,0,.2,.1,.3,.1l-.2,.2c-.1,.1-.2,.1-.3,.1h-.1c-.1,0-.2,.1-.3,.2-1.6-1.2-3.3-2.1-5.2-2.7l.2-.1c.3-.1,.7-.2,1-.3,1.1-.3,2-.9,2.7-1.8,5.4,.5,10.2-3.6,10.7-9,.1-1.5-.1-3-.7-4.4l-.2-.4-.5-.1c-3.9-.6-7.8,1.2-9.9,4.6,1.7-5.2-1.1-10.7-6.3-12.4h-.1l-.4-.1-.3,.3c-2.6,2.4-3.7,6-2.9,9.4,.4,1.6,1.1,3.1,2.2,4.3-.2,.1-.4,.2-.6,.3-1.8,.9-3.7,2.6-3,4.6,0,.1,.1,.1,.1,.2-.3,.4-.6,.9-.8,1.4-.3-1-.6-2-1-2.9,0-.1-.1-.2-.1-.3v-.2c.9,0,1.8-.4,2.3-1.2s.7-1.8,.3-2.7c-.4-.8-1.2-1.2-2.1-1.1-.8,.3-1.3,.9-1.5,1.7-.1,.3-.2,.6-.2,1-.5-.9-1.1-1.7-1.7-2.4h.1c.7-.1,1.3-.2,2-.5,1-.5,1.6-1.6,1.6-2.7s-.8-2-1.8-2.3c-1-.2-2.1,.1-2.8,.9-.7,.8-1,1.8-.9,2.8-.4-.3-.8-.6-1.2-.9,.1-.4,.1-.8,.2-1.2v-.1c.1-.7,.1-1.3,0-2-.3-1.2-1.2-2.2-2.3-2.7-.8-.3-1.7-.2-2.4,.2-.9,.5-1.4,1.5-1.3,2.5,0,1,.5,2,1.3,2.7,.9,.6,1.8,1,2.9,1.2l.2,.1c.1,.1,.1,.2,.3,.3,.3,.2,.6,.4,.9,.6h-.1c-1-.1-2,.2-2.8,.9-.7,.8-.7,2-.1,2.8,.7,.8,1.8,1.1,2.8,.8s1.9-.8,2.7-1.5l.2-.1c.3,.3,.5,.7,.7,1,.3,.5,.7,1.1,1,1.7-.9-.4-1.9-.5-2.8-.3-.6,.1-1.1,.5-1.4,1-.2,.4-.3,.8-.1,1.2,.4,1,1.5,1.7,2.6,1.6,.6,0,1.2-.1,1.8-.3,.4-.1,.9-.2,1.3-.1,.1,.4,.2,.8,.3,1.1,.2,.9,.4,1.7,.5,2.6h0v.2c-1.8,.4-3.5,1.1-5,2-.1-.3-.3-.5-.4-.8-.4-.7-.7-1.4-1.1-2.1-.4-.7-.8-1.3-1.3-1.9v-.1s0-.1-.1-.1c-.8-1.3-1.9-2.4-3.2-3.3-.7-.4-1.4-.7-2.2-.8-.9-.1-1.7,0-2.5,.3-1,.3-1.8,.8-2.6,1.4-.2,.2-.3,.5-.2,.8,1.8,3.5,6.1,4.9,9.6,3.1,.1-.1,.3-.1,.4-.2,.2,.3,.4,.6,.6,.9,.5,.8,.9,1.6,1.3,2.5,.2,.3,.3,.6,.5,1-.7,.5-1.4,1.1-2.1,1.7,0-.1,0-.2-.1-.3-.3-.5-.7-.9-1.2-1.1q.1-.1,.1-.2c.6-.6,.7-1.5,.3-2.3-.2-.3-.6-.6-1-.6-.5-.1-1,.1-1.3,.4-.4,.4-.7,.8-.8,1.4-.4-.4-.8-.7-1.4-.8-.7-.1-1.5,.3-1.7,1s.2,1.5,.8,1.9c.4,.2,.8,.3,1.2,.3v.2c0,.4,0,.7,.2,1.1,.3,.5,.8,.9,1.5,.9,.1,0,.3,0,.4-.1,.7-.2,1.1-.8,1.1-1.5v-.3c.1,0,.1,.1,.2,.1l.2,.2h0v.1c.1,.2,.2,.3,.4,.3h.2c-.5,.5-.9,1-1.3,1.5h0l-.2,.3c-.7,.9-1.3,2-1.8,3-1.3-.1-2.5-.5-3.6-1.1,.1-1.7-.5-3.4-1.7-4.6-1.2-1.2-2.6-2.1-4.1-2.8-.3-.1-.8,0-.8,.3-.3,1.8,.1,3.7,1,5.4,.8,1.5,2.6,3.5,4.6,2.7,.1,0,.2-.1,.2-.1,1.2,.7,2.5,1.2,3.9,1.4l-.1,.2c-1.6-.6-3.2-.8-4.9-.6-.6,.1-1.2,.2-1.8,.4-1.7-1.3-3.9-.1-5.2,1.2-1.3,1.2-2.2,2.9-2.5,4.7-.1,.3,.1,.6,.4,.7,1.2,.3,1.3,.3,1.4,.3m50.9,12.1c.4,.6,.7,1.3,.9,2.1,.3,1.2,.3,2.5,0,3.7-.9-.7-1.8-1.6-2.4-2.6-.6-1-.9-2.2-.8-3.4,.7,.9,1.2,2,1.5,3.1,.1,.3,.4,.5,.7,.3,.3-.1,.4-.4,.4-.6-.3-1.2-.9-2.4-1.7-3.4,.7,0,1.1,.3,1.4,.8M27.2,30.1c-.6-1.1-.9-2.3-.8-3.6,1.1,.5,2.1,1.2,2.9,2.1,.8,.9,1.3,2,1.4,3.1-.9-.7-1.6-1.7-2.1-2.7-.3-.7-1.3-.1-1,.6,.6,1.1,1.4,2.1,2.3,3-1.2-.1-2.2-1.6-2.7-2.5m26.9,27.4c-.2,0-.5,.1-.7,.1h-.1c-.2,0-.5,0-.7,.1h-1.8c-.3,0-.5,0-.8-.1h-.4c-.1,0-.3,0-.4-.1-.2,0-.3-.1-.5-.1-.1,0-.2,0-.3-.1-.2,0-.4-.1-.5-.1s-.2,0-.2-.1c-.2,0-.4-.1-.6-.1l-.2-.1c-.2-.1-.4-.1-.5-.2h-.3l-.2-.1c-.1,0-.2-.1-.3-.1l-.2-.1h-.2l-.1-.1c-.1,0-.2-.1-.2-.1-.1,0-.2-.1-.3-.1-.1-.1-.3-.1-.4-.2-.1-.1-.2-.1-.3-.2s-.2-.1-.3-.2-.3-.2-.4-.3l-.2-.1c-.2-.1-.4-.2-.5-.4l-.1-.1c-.9-.6-1.8-1.3-2.5-2.1h0c1.7,.1,3.3-.4,4.7-1.3,1.1-.8,1.5-.7,2.1-.3,.9,.6,2.1,.8,3.1,.3,1.3-.6,2.2-1.8,2.3-3.2,.4-1.3,.5-1.4,1.1-1.3,.9,.2,1.6,.7,2,1.5,.7,1.5,.7,3.3,.1,4.9-.5,1.3-.7,2.7-.7,4.2h0c-.1,.1-.3,.1-.5,.2h0m-9.1,7c-.7,.2-.4,1.3,.3,1.1,1.2-.3,2.4-.8,3.4-1.6-.3,1.2-2,1.8-3,2.1-1.2,.3-2.5,.3-3.7,0,.8-.9,1.7-1.7,2.7-2.4,1-.6,2.2-.8,3.4-.7-.9,.8-1.9,1.3-3.1,1.5m4.7,4.4q-.1-.1-.2-.2c-.1-.2-.1-.4-.1-.6,0-.3,.2-.6,.3-.8,.3-.5,.9-.7,1.5-.6h.1c-.1,.3-.2,.6-.3,.9s-.2,.5-.4,.8c0,.1-.1,.1-.1,.2l-.1,.1-.1,.1-.1,.1h0s-.1,0-.1,.1h-.3c0-.1-.1-.1-.1-.1h0m4.5-3.5c-.4-.2-.8-.6-1.1-1h1.2c.8-.1,1.6,.1,2.2,.6,.1,.2,.3,.4,.2,.6s-.4,.2-.6,.3c-.8,0-1.4-.2-1.9-.5m-1,8.8c-.4,.5-1.1,.6-1.7,.5-.2-.1-.5-.2-.6-.4-.2-.2-.3-.5-.2-.8,0-.4,.2-.7,.4-1,.2-.2,.5-.4,.8-.5,.6-.1,1.3-.1,2-.1v.2c0,.8-.2,1.5-.7,2.1m2.1-4c.5-.3,1.1-.6,1.7-.8,.6-.2,1.3-.1,1.9,.3,.2,.2,.3,.4,.3,.6s0,.5-.2,.6c-.5,.3-1.2,.4-1.8,.2-.7,0-1.4-.4-1.9-.9m4.7,7.2c.1,.6-.2,1.2-.7,1.6s-1.2,.4-1.7,.1c-.7-.5-1.1-1.2-1.1-2v-.2h0v-.1c0-.1,.1-.3,.1-.4,.1-.3,.2-.7,.3-1,.1-.2,.1-.4,.2-.6l.7,.3c.4,.2,.8,.4,1.1,.6,.6,.4,1,1,1.1,1.7m-26.1-21.1v-.2c0-.1,.1-.2,.2-.3,.3-.2,.6-.3,.9-.4,0,.3-.2,.5-.4,.7-.1,.1-.2,.1-.4,.2q-.1,.1-.3,0c.1,.1,0,0,0,0,.1,.1,0,0,0,0m.6-3.6v-.4h.1c.2,0,.3,.1,.4,.2,.1,.1,.2,.2,.3,.4,.1,.3,.1,.5,.1,.8-.3-.2-.6-.5-.8-.8,0,0,0-.1-.1-.2m2.3,2.7c-.2-.1-.3-.2-.5-.3-.1-.1-.3-.2-.4-.2h.1c.2,0,.4-.1,.6-.1s.3,0,.5,.1l.2,.1,.1,.1c.1,.1,.1,.2,.1,.3-.2,0-.4,.1-.7,0m0-21.4c.4-.8,.8-1.5,1.3-2.2h0c1,.2,2,.1,2.9-.4,.5-.3,.9-.7,1.1-1.2l.1-.1c.2,0,.5,.1,.7,.2,1.5,.5,2.3-.7,2.9-1.6s.9-1.3,1.5-1.2l.3,.1c1.9,.4,3.8,.8,5.5-2.5,.1-.1,.1-.2,.2-.3h.2c.2,0,.4,0,.5,.1h.4c.1,0,.3,0,.4,.1h.3c5.7,1.2,10.3,5.4,12.1,11h0c-.4-.3-.6-.7-.9-1.2-.2-.5-.9-1.9-2-1.8s-1.6,1.7-1.7,2.2c-.2,.4-.7,.7-1.2,.7h0c-.8,0-1.2-.9-1.3-1.6-.1-.4-.1-.8-.2-1.1-.4-2.2-.6-3.1-2.5-3.1h-.2v-.3c.1-.7,0-1.4-.1-2.1-.1-.8-.6-1.4-1.4-1.7-1.3-.4-3,.4-3.8,1.1-1.4,1.3-2.2,3.2-2.3,5.1,0,.3-.1,.5-1,.8-.7,.3-1.6,.6-1.8,1.7-.1,.3-.1,.6-.1,.8-.2,1.3-.3,2.1-1.3,2.4-.6,.2-1.1-.4-1.9-1.3-.6-.7-1.2-1.4-2-1.4h-.1c-.3,0-.6,.1-.9,.1-.6,.1-1.1,.2-2.4-.7-.1-.2-.7-.4-1.3-.6h0m16.4-10.7h-.5c-1.2-.1-2.4,0-3.5,.2,.2-1.2,.6-2.3,1.3-3.3,1.7,.1,3.4-.4,4.7-1.5,.6-.5,1.2-1.2,1.7-1.8,.2,.1,.4,.1,.5,.2,.1,.8-.1,1.6-.4,2.4-.1,.2-.2,.5-.3,.7-.4,.9-.7,1.9-.8,2.8v.3c-.3,.1-.5,.2-.8,.4-.2,0-.3-.1-.5-.1h-.3c-.2,0-.3,0-.5-.1h-.4q-.1-.2-.2-.2m5-9.3c-.1-.2-.2-.3-.4-.3-.1,0-.2,0-.4-.1l-.1-.2,1.6-2c.1-.2,.1-.4-.1-.5-.1-.1-.2-.1-.3-.1s-.2,.1-.2,.1l-1.2,1.5-.5-2.3,2.1-2.7c.1-.2,.1-.4-.1-.5-.2-.1-.4-.1-.5,.1h0l-1.8,2.2-.5-2.2,1.6-2c.1-.2,.1-.4-.1-.5-.1-.1-.2-.1-.3-.1s-.2,.1-.2,.1l-1.2,1.5-.8-3.4c0-.2-.2-.3-.4-.3s-.3,.2-.3,.4l.8,3.4-1.6-.8c-.2-.1-.4,0-.5,.2-.1,.1,0,.3,.1,.4l.1,.1,2.2,1.1,.5,2.2-2.4-1.2c-.2-.1-.4,0-.5,.2-.1,.1,0,.3,.1,.4l.1,.1,2.9,1.5,.5,2.3-1.6-.8c-.2-.1-.4,0-.5,.2-.1,.1,0,.3,.1,.4h.1l2.1,1.1c-.7,0-1.3,0-2,.1-3.3-3.1-3.5-8.3-.4-11.6l.1-.1c4.3,1.6,6.5,6.3,4.9,10.6-.2,.7-.6,1.3-1,1.9,.1-.2,0-.3,0-.4m-4.2,1h.1c.2-.1,.5-.1,.7-.2,.3,0,.6-.1,.9-.1h.8c0,.1-.1,.1-.1,.2l-.1,.1-.1,.1c-.1,.2-.2,.3-.3,.5s-.2,.3-.3,.5l-.1,.1s0,.1-.1,.1c-.4,.5-.8,.9-1.2,1.3-.9,.8-2,1.2-3.2,1.3,.8-.9,1.8-1.5,2.8-2,.7-.3,.1-1.3-.5-1-1.2,.5-2.2,1.2-3.1,2.2,.1-1.2,1.6-2.1,2.6-2.6,.3-.1,.6-.2,.9-.3q.3-.1,.3-.2m7.9,5.5l1-1.3h2.5c.2,0,.4-.2,.4-.4s-.2-.4-.4-.4h-2l1.5-1.9h3.4c.2,0,.4-.2,.4-.4s-.2-.4-.4-.4h-2.9l1.4-1.8h2.5c.2,0,.4-.2,.4-.4s-.2-.4-.4-.4h-2l2.2-2.8c.1-.2,.1-.4-.1-.5-.2-.1-.4-.1-.5,.1l-2.2,2.7-.4-1.8c0-.2-.2-.3-.4-.3s-.3,.2-.3,.3v.1l.5,2.4-1.4,1.8-.5-2.6c0-.2-.2-.3-.4-.3s-.3,.2-.3,.3v.1l.6,3.2-1.5,1.8-.4-1.8c0-.2-.2-.3-.4-.3s-.3,.2-.3,.4l.5,2.4-.7,1.7c-1.2-4.4,1.4-8.9,5.8-10.2,1-.3,1.9-.3,2.9-.3,1.4,4.3-.9,9-5.3,10.4-.9,.4-1.9,.6-2.8,.6m-2.5-3.2c-.1,1.4,.1,2.8,.6,4.1-.6,.5-1.3,.9-2.1,1.2-.2,.1-.5,.1-.7,.2,.2-.7,.4-1.4,.7-2.1,.1-.3,.3-.7,.4-1,.4-1,.5-2.1,.3-3.2,.5-.5,.9-1.1,1.3-1.6-.3,.7-.4,1.5-.5,2.4m13.2,10.3c-.2,.4-.4,.7-.7,.9,0-.3,0-.6-.1-.9v-.1c-.2-.7,0-1.5,.4-2.1,.1-.1,.2-.2,.4-.2h.1c.1,.1,.2,.2,.2,.5,.1,.8,0,1.4-.3,1.9m.9,9.5c.2-.2,.2-.4,.2-.7-.3-1.1-.9-2.1-1.6-3,1,.5,1.6,2,1.9,2.7,.4,1.1,.4,2.3,.3,3.4-.9-.7-1.7-1.5-2.4-2.4-.6-.9-.9-1.9-.9-3,.7,.8,1.1,1.8,1.5,2.8,.1,.2,.2,.4,.4,.4s.5,0,.6-.2m-6.9,11.1h0c-.1-.4-.2-.9-.3-1.3-.5-1.9,0-2.3,.5-2.7,.7-.4,1.1-1.1,1.1-1.9,0-.3,.1-.5,.3-.7h0v.4c-.1,2.2-.6,4.3-1.6,6.2m-37.3-8c.2,.3,.3,.6,.1,1-.2-.2-.3-.5-.5-.8v-.3h0c.3,0,.4,.1,.4,.1m1.3,3.1c-.1-.1-.2-.2-.3-.3l-.1-.1q-.1-.1-.2-.2h.5c.1,0,.3,.1,.4,.1h0l.1,.1h0v.3c-.1,.2-.3,.2-.4,.1m-2.9,.3h0s-.1,0,0,0h-.1v-.1c0-.1,.1-.2,.2-.2,.2-.1,.5-.2,.7-.2-.1,.2-.2,.3-.4,.4-.2,.1-.3,.1-.4,.1m7.9,23.5c-2.1,1.8-5,2.5-7.7,1.7-.6-4.5,2.5-8.7,7.1-9.3,1-.1,2-.1,2.9,.1l-1.3,1.1-2.5-.5c-.2,0-.4,.1-.4,.3s.1,.4,.3,.4l1.9,.4-1.8,1.6-3.4-.6c-.2-.1-.4,.1-.4,.3s.1,.4,.3,.4h.1l2.8,.5-1.7,1.5-2.5-.5c-.2,0-.4,.1-.4,.3,0,.1,0,.2,.1,.3q.1,.1,.2,.1l1.9,.4-2.7,2.3c-.1,.1-.2,.4,0,.5,.1,.1,.2,.1,.2,.1h0c.1,0,.2,0,.2-.1l2.6-2.3v1.8c0,.1,0,.2,.1,.3,.1,.1,.2,.1,.3,.1,.2,0,.3-.1,.4-.3v-2.5l1.7-1.5v2.7c0,.2,.2,.4,.4,.4h0c.2,0,.3-.1,.3-.3v-3.4l1.8-1.5v1.8c0,.2,.2,.4,.4,.4s.4-.2,.4-.4h0v-2.4l1.3-1.1c.2,2.6-.9,5.2-2.9,6.9m28.5-1.6c.3,0,.6-.3,.6-.6s-.3-.6-.6-.6c-1,0-1.9-.3-2.7-1,0,0-.1-.1-.1-.2,3-1,6.2,.6,7.3,3.5-.7,.3-1.5,.5-2.3,.6-.9,.1-1.7-.1-2.5-.5-.6-.4-1.2-.9-1.6-1.6,.7,.2,1.3,.3,1.9,.4m-4.6-9.8h0c-.2-.6-.6-1.2-1.2-1.4-.2-.1-.3-.2-.5-.4,.1-.2,.2-.3,.3-.5,.7-.8,1-1.8,.8-2.9,0-.2-.1-.4,0-.6,.6,.3,1.2,.7,1.6,1.3,.8,.8,1.8,1.3,2.9,1.5h0c-1.1,1.3-2.5,2.2-3.9,3m3.2,4q-.1,0,0,0c-.1-.2-.1-.4,0-.5,.1-.2,.2-.3,.3-.4,.2-.2,.5-.3,.8-.3-.1,.3-.3,.7-.6,.9q-.1,.1-.2,.2h-.1q-.1,.1-.2,.1h0m3.9-.6v.2s0,.1,0,0,0,.1,0,0c0,0-.1,.1-.2,.1s-.2,0-.3-.1c-.3-.2-.5-.5-.6-.8,.3,0,.6,0,.8,.2,.2,.2,.3,.3,.3,.4m-2.2-2.8c0-.1,.2-.1,.3-.1,.2,0,.4,.3,.3,.5,0,.2-.1,.4-.2,.6-.1,.2-.1,.3-.1,.5h0v-.1l-.3-.6c0-.2-.1-.3-.1-.5l.1-.2s.1-.1,0-.1m12.5-33.6h0c.1-.2,.3-.3,.6-.3h.2c.1,0,.3,0,.4,.1,.3,.5,.5,1.1,.3,1.7-.1,.7-.4,1.3-.8,1.8-.3-.5-.6-1-.8-1.5-.4-.6-.3-1.2,.1-1.8m-.4,9q-.1,0,0,0t-.1,.1c0,.1-.1,.1-.2,.2-.1,.1-.3,.1-.5,.1-.3,0-.5-.1-.8-.3-.5-.3-.7-.8-.6-1.3,.3,0,.5,.1,.8,.2,.3,.1,.5,.2,.8,.3h0c.1,0,.1,.1,.1,.1h.1l.1,.1,.1,.1v.3h0v.1h.2Zm5.6-2c-.1,.2-.2,.4-.3,.6-.2,.2-.4,.3-.7,.3-.4,0-.7-.1-1-.4-.2-.2-.4-.5-.5-.7-.1-.5-.2-1.1-.2-1.7v-.1h.1c.7-.1,1.5,.1,2,.5,.5,.3,.7,.9,.6,1.5m-.1-5.7l.3-.8c.1-.3,.3-.7,.4-1,.4-.6,.9-.9,1.6-1.1,.6-.1,1.1,.1,1.5,.5s.5,1,.2,1.5c-.4,.7-1.1,1.1-1.9,1.2h-.2c-.1,0-.3,0-.4-.1-.3-.1-.6-.1-1-.2-.2,.1-.3,.1-.5,0m-18.7,1c-.1-.1-.1-.2-.1-.3,.1-.2,.3-.4,.6-.3,.2,0,.4,.1,.6,.2,.2,.1,.3,.1,.5,.2h-.1c-.2,.1-.4,.2-.6,.2h-.5l-.2-.1c-.1,.1-.2,.1-.2,.1m3.2-2c0,.1,.1,.1,.1,.2s0,.2-.1,.3c-.2,.2-.5,.4-.8,.5,0-.3,.1-.6,.3-.8,.1-.1,.2-.2,.3-.2h.2c-.1,0,0,0,0,0-.1,0,0,0,0,0m0,3.6v.3h-.1c-.2,0-.3,0-.4-.1-.1-.1-.3-.2-.4-.3-.2-.2-.2-.5-.2-.8,.3,.2,.6,.4,.9,.6,.1,.2,.2,.3,.2,.3m-18-13.2h.1c.1,0,.2,.1,.2,.2,.1,.2,.2,.3,.2,.5,0,.3-.1,.6-.2,.8-.2,.5-.8,.9-1.4,.8h-.1c0-.3,.1-.6,.1-1,0-.3,.1-.6,.2-.8q0-.1,.1-.2s0-.1,.1-.1c0-.1,.1-.1,.1-.1,0,0,0-.1,.1-.1h0l.1-.1,.1-.1h.2l.1,.2h0m-4.5-2.4c-.2-.7-.1-1.5,.3-2.2,.3-.5,.9-.8,1.5-.8,.3,0,.5,.1,.7,.3s.4,.5,.4,.8c0,.4-.1,.8-.3,1.1s-.4,.5-.7,.6c-.6,.2-1.3,.4-1.9,.4v-.2m1,7.7c-.7,.3-1.6,.2-2.2-.2-.2-.1-.3-.4-.3-.6,.1-.2,.4-.3,.6-.4,.6-.1,1.3-.1,1.8,.1,.5,.2,.9,.4,1.2,.8-.3,.1-.7,.2-1.1,.3m-8-11.8c-.2-.6,0-1.2,.4-1.7s1.1-.6,1.6-.4c.7,.3,1.3,1,1.5,1.8v.2h0v.5c0,.4-.1,.7-.1,1.1,0,.2-.1,.4-.1,.6l-.8-.2c-.4-.1-.8-.2-1.2-.4-.6-.2-1.1-.8-1.3-1.5m5.9,6.3c-.5,.4-1,.8-1.5,1.1-.6,.3-1.3,.3-1.9,0-.2-.1-.3-.3-.4-.6-.1-.2-.1-.5,.1-.6,.5-.4,1.1-.6,1.7-.6,.7,0,1.4,.2,2,.7m-7.8,6.2c-.3,.1-.5,.4-.4,.7s.4,.5,.7,.4c1-.2,2,0,2.8,.5,.1,0,.1,.1,.2,.1-2.8,1.5-6.2,.6-7.9-2.1,.6-.5,1.4-.8,2.1-1,.8-.2,1.7-.2,2.5,0,.7,.3,1.3,.7,1.9,1.2-.6,.1-1.3,.1-1.9,.2m35,21.5c-.2-.1-.3-.2-.5-.3v-.9h0c0-.5-.1-1-.2-1.5h0l-.3-1.1c-.5-2.1-1.3-4.1-2.5-5.9,1.1,.3,2.2,.9,3,1.6-.3,1.7,0,3.4,.9,4.9,.9,1.3,2,2.4,3.3,3.2-.3,.3-.5,.6-.8,.9h0c-.9-.1-2-.4-2.9-.9m7.3-.6c1.3-.2,2.7-.2,4,.2-.7,1-1.7,1.7-2.8,2.2-.9,.4-2.6,.9-3.6,.3,.5,0,.9-.1,1.3-.2,.8-.2,1.5-.4,2.3-.8,.3-.2,.4-.5,.2-.8s-.5-.4-.8-.2c-1.1,.5-2.2,.8-3.4,.8,.7-.7,1.7-1.3,2.8-1.5m-40.9-11.9c-.1,.1-.1,.2-.2,.2-.2,0-.4-.2-.4-.5,0-.2,0-.4,.1-.6v-.5h0v.1c.1,.2,.3,.4,.4,.5,.1,.1,.1,.3,.1,.5v.2c0,.1-.1,.2,0,.1m1.1-3.6h0c.1,.2,.1,.3,.1,.5s-.1,.3-.2,.4c-.2,.2-.4,.4-.7,.4,.1-.4,.2-.7,.4-1,0-.1,.1-.1,.2-.2l.1-.1c-.1,.1,0,0,.1,0q-.1,0,0,0m-3.9,1.1c0-.1,.1-.1,.2-.1h.3c.3,.2,.5,.4,.7,.6-.3,.1-.6,.1-.8-.1l-.3-.3c0,.1-.1,0-.1-.1,0,.1,0,0,0,0,0,.1,0,0,0,0m-10,11.1c.5-.5,1.1-1,1.8-1.3,.4-.2,1-.4,1.5-.3-.4,.2-.8,.4-1.1,.7-.7,.4-1.3,1-1.8,1.5s.3,1.3,.8,.8c.8-.9,1.8-1.6,2.9-2.1-.4,1.1-1.2,2-2.2,2.6-1.1,.6-2.3,1-3.6,1.2,.2-1.2,.8-2.2,1.7-3.1"/>
        </g>
      </g>
    </g>
  </g>
</svg>