<svg id="Groupe_172" data-name="Groupe 172" xmlns="http://www.w3.org/2000/svg" xmlns:xlink="http://www.w3.org/1999/xlink" width="33.695" height="32.647" viewBox="0 0 33.695 32.647">
  <defs>
    <clipPath id="clip-path">
      <rect id="Rectangle_115" data-name="Rectangle 115" width="33.695" height="32.647" fill="#da725a"/>
    </clipPath>
  </defs>
  <g id="Groupe_171" data-name="Groupe 171" clip-path="url(#clip-path)">
    <path id="Tracé_158" data-name="Tracé 158" d="M33.539,13.423c-.726-5.084-3.632-10.834-8.9-12.226a.463.463,0,0,0-.3-.121c-4.782-1.271-9.321-1.695-13.921.3-4.3,1.876-7.868,4.6-9.5,9.079C-1.385,16.873.734,26.013,6.3,30.25c5.75,4.358,16.282,2.239,21.669-2.058,4.479-3.51,6.295-9.2,5.568-14.769ZM29,23.531c-3.45,5.084-10.169,6.6-15.979,6.416-6.6-.182-10.108-6.84-10.592-12.771A12.775,12.775,0,0,1,9.389,4.525c4.721-2.6,9.14-2.6,14.345-1.331h.121C31.361,6.1,33.176,17.418,29,23.531Z" transform="translate(0.001 -0.001)" fill="#da725a"/>
    <path id="Tracé_159" data-name="Tracé 159" d="M87.454,98.06a39.679,39.679,0,0,0-13.316,14.284c-1.755-1.634-3.511-3.329-5.266-4.963-.968-.908-2.421.545-1.453,1.453,2.058,2.058,4.176,4.055,6.234,6.113a1.155,1.155,0,0,0,1.755-.242,53.915,53.915,0,0,1,13.074-14.89c1.029-.787.121-2.482-1.029-1.755Z" transform="translate(-61.298 -89.419)" fill="#da725a"/>
  </g>
</svg>
