<svg xmlns="http://www.w3.org/2000/svg" width="55.935" height="55.935" viewBox="0 0 55.935 55.935">
  <g id="Groupe_393" data-name="Groupe 393" transform="translate(-1006.963 -746.11)">
    <path id="Tracé_167" data-name="Tracé 167" d="M415.459,27.968A27.968,27.968,0,1,1,387.492,0a27.968,27.968,0,0,1,27.968,27.968" transform="translate(647.439 746.11)" fill="#fff5ed"/>
    <path id="Tracé_168" data-name="Tracé 168" d="M402.133,28.173c4.7,0,5.259.018,7.116.1a9.739,9.739,0,0,1,3.269.607,5.83,5.83,0,0,1,3.342,3.342,9.749,9.749,0,0,1,.607,3.27c.085,1.857.1,2.414.1,7.116s-.018,5.259-.1,7.116a9.749,9.749,0,0,1-.607,3.27,5.83,5.83,0,0,1-3.342,3.342,9.739,9.739,0,0,1-3.269.607c-1.857.085-2.414.1-7.116.1s-5.259-.018-7.116-.1a9.74,9.74,0,0,1-3.27-.607,5.83,5.83,0,0,1-3.342-3.342,9.741,9.741,0,0,1-.607-3.27c-.085-1.857-.1-2.414-.1-7.116s.018-5.259.1-7.116a9.741,9.741,0,0,1,.607-3.27,5.83,5.83,0,0,1,3.342-3.342,9.739,9.739,0,0,1,3.27-.607c1.857-.085,2.414-.1,7.116-.1m0-3.173c-4.782,0-5.382.02-7.26.106a12.927,12.927,0,0,0-4.274.818,9,9,0,0,0-5.15,5.15,12.928,12.928,0,0,0-.818,4.274c-.086,1.878-.106,2.478-.106,7.26s.02,5.382.106,7.26a12.928,12.928,0,0,0,.818,4.274,9,9,0,0,0,5.15,5.15,12.927,12.927,0,0,0,4.274.818c1.878.086,2.478.106,7.26.106s5.382-.02,7.26-.106a12.927,12.927,0,0,0,4.274-.818,9,9,0,0,0,5.15-5.15,12.926,12.926,0,0,0,.818-4.274c.086-1.878.106-2.478.106-7.26s-.02-5.382-.106-7.26a12.926,12.926,0,0,0-.818-4.274,9,9,0,0,0-5.15-5.15,12.927,12.927,0,0,0-4.274-.818c-1.878-.086-2.478-.106-7.26-.106" transform="translate(632.798 731.468)" fill="#92b7bc"/>
    <path id="Tracé_169" data-name="Tracé 169" d="M414.242,45.676a9.043,9.043,0,1,0,9.042,9.042,9.042,9.042,0,0,0-9.042-9.042m0,14.912a5.87,5.87,0,1,1,5.87-5.87,5.87,5.87,0,0,1-5.87,5.87" transform="translate(620.688 719.359)" fill="#92b7bc"/>
    <path id="Tracé_170" data-name="Tracé 170" d="M448.837,41.826a2.113,2.113,0,1,1-2.113-2.113,2.113,2.113,0,0,1,2.113,2.113" transform="translate(597.607 722.851)" fill="#92b7bc"/>
  </g>
</svg>
