<svg xmlns="http://www.w3.org/2000/svg" width="55.935" height="55.935" viewBox="0 0 55.935 55.935">
  <g id="Groupe_392" data-name="Groupe 392" transform="translate(-932.482 -746.11)">
    <path id="Tracé_163" data-name="Tracé 163" d="M235.7,27.968A27.968,27.968,0,1,1,207.73,0,27.968,27.968,0,0,1,235.7,27.968" transform="translate(752.72 746.11)" fill="#fff5ed"/>
    <path id="Tracé_164" data-name="Tracé 164" d="M243.179,53.309c.46-.516.838-1.04,1.31-1.485a7.185,7.185,0,0,1,5.169-2.04,11.967,11.967,0,0,1,3.25.4,6.353,6.353,0,0,1,4.511,4.744,19.883,19.883,0,0,1,.6,5.436c.007,3.864-.011,7.727,0,11.59,0,.362-.1.457-.457.454q-2.985-.024-5.971,0c-.351,0-.426-.106-.425-.437q.016-5.514,0-11.028a9.906,9.906,0,0,0-.32-2.738,3.078,3.078,0,0,0-3.386-2.4c-2.36.125-3.587,1.293-3.889,3.693a13.788,13.788,0,0,0-.105,1.724c0,3.575,0,7.151.01,10.725,0,.357-.088.462-.452.459q-3.007-.027-6.014,0c-.322,0-.414-.084-.414-.409q.014-10.618,0-21.235c0-.35.114-.431.445-.429q2.856.021,5.712,0c.351,0,.441.11.433.442-.019.846-.007,1.692-.007,2.538" transform="translate(719.435 716.953)" fill="#92b7bc"/>
    <path id="Tracé_165" data-name="Tracé 165" d="M216.45,62.166c0,3.5-.006,7,.008,10.505,0,.389-.1.507-.5.5-1.99-.022-3.979-.017-5.969,0-.319,0-.415-.077-.414-.407q.014-10.635,0-21.27c0-.293.071-.4.382-.4,2.018.013,4.037.017,6.055,0,.388,0,.441.146.44.479q-.014,5.3-.006,10.592" transform="translate(735.258 716.185)" fill="#92b7bc"/>
    <path id="Tracé_166" data-name="Tracé 166" d="M216.255,28.555a3.974,3.974,0,1,1-3.968-3.954,3.987,3.987,0,0,1,3.968,3.954" transform="translate(736.002 731.702)" fill="#92b7bc"/>
  </g>
</svg>
