<svg id="logo" xmlns="http://www.w3.org/2000/svg" xmlns:xlink="http://www.w3.org/1999/xlink" width="265.785" height="66.002" viewBox="0 0 265.785 66.002">
  <defs>
    <clipPath id="clip-path">
      <rect id="Rectangle_1" data-name="Rectangle 1" width="265.785" height="66.002" fill="#fff5ed"/>
    </clipPath>
  </defs>
  <g id="Groupe_1" data-name="Groupe 1" clip-path="url(#clip-path)">
    <path id="Tracé_1" data-name="Tracé 1" d="M176.26,64.251a14.7,14.7,0,0,1-7.707-2.086,15.326,15.326,0,0,1-5.5-5.624,15.712,15.712,0,0,1-2.026-7.953,15.386,15.386,0,0,1,7.53-13.516,14.81,14.81,0,0,1,7.77-2.086,15.313,15.313,0,0,1,5.139.878A14.864,14.864,0,0,1,186,36.432v-15l4.477-1.028V63.767h-4.416V60.562a13.9,13.9,0,0,1-9.8,3.689m.427-3.146a12.542,12.542,0,0,0,5.29-1.12A10.64,10.64,0,0,0,186,56.871V40.3a10.959,10.959,0,0,0-4.02-3.055,12.608,12.608,0,0,0-5.29-1.119,11.011,11.011,0,0,0-9.768,5.654,15.109,15.109,0,0,0-1.48,6.742,15.3,15.3,0,0,0,1.48,6.773,11.345,11.345,0,0,0,4.051,4.233,10.739,10.739,0,0,0,5.717,1.572" transform="translate(12.863 1.63)" fill="#fff5ed"/>
    <path id="Tracé_2" data-name="Tracé 2" d="M144.639,63.321a14.7,14.7,0,0,1-7.707-2.086,15.328,15.328,0,0,1-5.505-5.624,15.712,15.712,0,0,1-2.026-7.953,15.384,15.384,0,0,1,7.531-13.516,14.809,14.809,0,0,1,7.769-2.086,15.3,15.3,0,0,1,5.139.878,14.864,14.864,0,0,1,4.536,2.569V33.38l4.478-1.027V62.837h-4.416V59.632a13.905,13.905,0,0,1-9.8,3.689m.425-3.146a12.547,12.547,0,0,0,5.291-1.12,10.636,10.636,0,0,0,4.019-3.114V39.374a10.955,10.955,0,0,0-4.019-3.055,12.612,12.612,0,0,0-5.291-1.119,11.011,11.011,0,0,0-9.768,5.654,15.108,15.108,0,0,0-1.481,6.742A15.3,15.3,0,0,0,135.3,54.37a11.345,11.345,0,0,0,4.051,4.233,10.742,10.742,0,0,0,5.717,1.572" transform="translate(10.337 2.561)" fill="#fff5ed"/>
    <path id="Tracé_3" data-name="Tracé 3" d="M124.419,31.731a19.849,19.849,0,0,1-7.045-1.24,17.2,17.2,0,0,1-5.715-3.477l2.72-2.118a15.944,15.944,0,0,0,4.658,2.993,13.4,13.4,0,0,0,5.2,1.057,10.574,10.574,0,0,0,5.924-1.512,5.889,5.889,0,0,0,2.3-4.715,3.812,3.812,0,0,0-1.362-3.113,8.711,8.711,0,0,0-4.262-1.543l-5.261-.725q-4.537-.667-6.743-2.722a7.233,7.233,0,0,1-2.208-5.564,7.5,7.5,0,0,1,1.452-4.536,9.749,9.749,0,0,1,4.02-3.144,14.318,14.318,0,0,1,5.9-1.15,19.619,19.619,0,0,1,6.23.966,20.527,20.527,0,0,1,5.685,3.024L133.55,6.453a20.369,20.369,0,0,0-4.929-2.569,14.937,14.937,0,0,0-4.868-.816,8.513,8.513,0,0,0-5.081,1.392,5.757,5.757,0,0,0-1.935,4.412,3.738,3.738,0,0,0,1.33,3.114,9.079,9.079,0,0,0,4.294,1.483l5.262.725a12.387,12.387,0,0,1,6.8,2.661,7.211,7.211,0,0,1,2.268,5.624,7.541,7.541,0,0,1-1.633,4.717,11,11,0,0,1-4.385,3.327,15.44,15.44,0,0,1-6.258,1.208" transform="translate(8.92 0.018)" fill="#fff5ed"/>
    <path id="Tracé_4" data-name="Tracé 4" d="M235.7,63.451a19.843,19.843,0,0,1-7.044-1.24,17.187,17.187,0,0,1-5.715-3.477l2.719-2.118a15.935,15.935,0,0,0,4.659,2.993,13.394,13.394,0,0,0,5.2,1.057,10.578,10.578,0,0,0,5.925-1.512,5.889,5.889,0,0,0,2.3-4.715,3.809,3.809,0,0,0-1.362-3.113,8.707,8.707,0,0,0-4.262-1.543l-5.261-.725q-4.536-.667-6.743-2.722a7.237,7.237,0,0,1-2.208-5.564,7.518,7.518,0,0,1,1.452-4.536,9.76,9.76,0,0,1,4.021-3.144,14.318,14.318,0,0,1,5.9-1.15,19.629,19.629,0,0,1,6.23.966,20.585,20.585,0,0,1,5.684,3.024l-2.36,2.239A20.363,20.363,0,0,0,239.9,35.6a14.944,14.944,0,0,0-4.869-.816,8.509,8.509,0,0,0-5.08,1.392,5.757,5.757,0,0,0-1.935,4.412,3.737,3.737,0,0,0,1.329,3.114,9.089,9.089,0,0,0,4.295,1.483l5.261.725a12.391,12.391,0,0,1,6.8,2.661,7.214,7.214,0,0,1,2.267,5.624,7.541,7.541,0,0,1-1.633,4.717,11,11,0,0,1-4.385,3.327,15.436,15.436,0,0,1-6.258,1.208" transform="translate(17.809 2.552)" fill="#fff5ed"/>
    <path id="Tracé_5" data-name="Tracé 5" d="M126.436,37.537a10.539,10.539,0,0,0-3.9-4.112,11.126,11.126,0,0,0-5.805-1.481A12.588,12.588,0,0,0,110.8,33.3a12.3,12.3,0,0,0-4.474,4.141,10.5,10.5,0,0,0-3.87-4.021,10.879,10.879,0,0,0-5.686-1.481,11.284,11.284,0,0,0-8.889,3.931V32.6l-4.475,1.178V62.846h4.475V39.5a9.7,9.7,0,0,1,3.355-3.295,8.71,8.71,0,0,1,4.388-1.119,7.3,7.3,0,0,1,5.681,2.327,9.13,9.13,0,0,1,2.117,6.38V62.846h4.416V43.677c0-.524-.029-1.8-.091-2.268s-.133-.918-.212-1.361a10.265,10.265,0,0,1,3.507-3.72,8.627,8.627,0,0,1,4.534-1.239,7.388,7.388,0,0,1,5.747,2.327c1.408,1.553,2.117,4.464,2.117,7.165V62.846h4.412V43.677a12.73,12.73,0,0,0-1.42-6.14" transform="translate(6.663 2.552)" fill="#fff5ed"/>
    <path id="Tracé_6" data-name="Tracé 6" d="M107.629,5.873a10.646,10.646,0,0,0-4.113-4.112A12.19,12.19,0,0,0,97.439.28a11.926,11.926,0,0,0-9.555,4.174V.885h-.226L83.409,2V31.182h4.475V8.082a9.888,9.888,0,0,1,3.509-3.447,9.575,9.575,0,0,1,4.835-1.209,8.262,8.262,0,0,1,6.2,2.327,8.755,8.755,0,0,1,2.267,6.38V31.182h4.417V12.013a12.3,12.3,0,0,0-1.483-6.14" transform="translate(6.663 0.023)" fill="#fff5ed"/>
    <path id="Tracé_7" data-name="Tracé 7" d="M78.93,39.685a15.465,15.465,0,0,0-5.567-5.655,15.8,15.8,0,0,0-15.692,0,15.375,15.375,0,0,0-5.595,5.655,16.533,16.533,0,0,0,0,15.966A15.348,15.348,0,0,0,57.672,61.3a15.8,15.8,0,0,0,15.692,0,15.437,15.437,0,0,0,5.567-5.654,16.533,16.533,0,0,0,0-15.966m-8.525-4.832a9.591,9.591,0,0,1,7.91,7.911,12.228,12.228,0,0,1-.11,4.513l-8.4-1.388,3.042-5.564-5.564,3.042-1.39-8.4a12.275,12.275,0,0,1,4.513-.111M53.294,46.322A20.729,20.729,0,0,1,64.183,35.433c.3-.1.6-.193.9-.274l-1.356,8.208-5.519-3.042,3,5.564-8.2,1.354q.126-.46.286-.921M60.6,60.482a9.6,9.6,0,0,1-7.911-7.911,12.11,12.11,0,0,1,.121-4.511L61.2,49.447l-2.49,5.1,5.012-2.579,1.387,8.392a12.139,12.139,0,0,1-4.512.122M77.738,48.989A20.739,20.739,0,0,1,66.85,59.877c-.308.107-.614.2-.92.284l1.353-8.193,5.1,2.579-2.579-5.1,8.207-1.356q-.122.449-.273.9m-8.4.216-3.743-1.5v.053l6.343,6.31-4.81-2.6-1.533-3.588V61.427L64.055,51.5l1.495-3.725-.019-.045-6.31,6.336L61.8,49.29,65.517,47.7l-.013-.031H51.834L61.76,46.13l3.744,1.5v-.054l-6.462-6.531,4.927,2.824,1.535,3.59V33.909l1.537,9.926-1.495,3.726.019.044,6.817-6.817L69.3,46.045l-3.721,1.591.014.032h13.67Z" transform="translate(3.996 2.552)" fill="#fff5ed"/>
    <path id="Tracé_8" data-name="Tracé 8" d="M79.291,15.994A16.378,16.378,0,0,0,77.384,8.1a15.052,15.052,0,0,0-5.139-5.624A13.171,13.171,0,0,0,64.957.392,14.134,14.134,0,0,0,57.4,2.478,15.351,15.351,0,0,0,52.015,8.1a15.779,15.779,0,0,0-1.993,7.892A15.561,15.561,0,0,0,57.73,29.631a15.236,15.236,0,0,0,7.892,2.086,18.593,18.593,0,0,0,6.019-.937,19.419,19.419,0,0,0,5.29-2.811L74.15,25A10.5,10.5,0,0,1,70.4,27.062a14.81,14.81,0,0,1-4.6.725,11.173,11.173,0,0,1-9.462-5.079,12.34,12.34,0,0,1-1.906-5.322H79.291Zm-24.766-2.14c.989-5.927,5.158-10.378,10.152-10.378S73.84,7.926,74.83,13.854Z" transform="translate(3.996 0.032)" fill="#fff5ed"/>
    <path id="Tracé_9" data-name="Tracé 9" d="M222.222,47.657a16.377,16.377,0,0,0-1.906-7.892,15.052,15.052,0,0,0-5.139-5.624,13.171,13.171,0,0,0-7.288-2.086,14.134,14.134,0,0,0-7.559,2.086,15.351,15.351,0,0,0-5.382,5.624,15.779,15.779,0,0,0-1.993,7.892,15.561,15.561,0,0,0,7.708,13.637,15.235,15.235,0,0,0,7.891,2.086,18.588,18.588,0,0,0,6.019-.937,19.424,19.424,0,0,0,5.291-2.811l-2.782-2.964a10.5,10.5,0,0,1-3.749,2.057,14.815,14.815,0,0,1-4.6.725,11.176,11.176,0,0,1-9.463-5.079,12.326,12.326,0,0,1-1.9-5.322h24.855Zm-24.765-2.14c.989-5.927,5.156-10.378,10.151-10.378s9.164,4.45,10.154,10.378Z" transform="translate(15.414 2.561)" fill="#fff5ed"/>
    <path id="Tracé_10" data-name="Tracé 10" d="M.013,32.757C-.151,28.107,1.2,23.792,3.9,21.087a13.394,13.394,0,0,1,9.61-3.845c5.977.171,9.534,2.735,12.977,5.215,3.5,2.522,5.962,5.367,12.7,4.847l.221,2.691c-6.906.456-8.987-.761-14.5-4.583-3.3-2.284-6.327-4.559-11.474-4.706a10.734,10.734,0,0,0-7.625,3.053c-2.189,2.2-3.226,4.972-3.1,8.916.108,3.417,1.258,11.35,12.1,12.7,6.9.862,9.728-3.737,14.192-8.595,4.754-5.174,12.244-2.848,12.519-2.725l-1.478,2.4a9.736,9.736,0,0,0-11.337,4.006c-2.123,3.167-7.887,7.831-13.761,7.321C10.009,47.356.428,44.439.013,32.757" transform="translate(0 1.377)" fill="#fff5ed"/>
    <path id="Tracé_11" data-name="Tracé 11" d="M243.7,18.616a65.629,65.629,0,0,1-20.151,1.573c-7.749-.646-12.686-2.727-18.4-5.136a102.323,102.323,0,0,0-18.02-6.1c-14.907-3.465-27.337-2.373-40.475,3.713v3.165c12.985-6.292,25.153-7.516,39.829-4.1a99.878,99.878,0,0,1,17.558,5.952c5.941,2.5,11.072,4.666,19.275,5.349,1.822.152,3.595.22,5.309.219A69.26,69.26,0,0,0,243.7,21.558Z" transform="translate(11.715 0.559)" fill="#fff5ed"/>
    <path id="Tracé_12" data-name="Tracé 12" d="M45.25,37.537a10.547,10.547,0,0,0-3.9-4.112,10.435,10.435,0,0,0-3.91-1.335,12.5,12.5,0,0,0-1.837-.146l-.033,0-.025,0c-.335,0-.661.019-.982.048a11.149,11.149,0,0,0-7.85,3.883V32.6l-4.475,1.178V62.846h4.475V39.5a11.525,11.525,0,0,1,.687-.958c.046-.058.094-.114.141-.171.2-.246.413-.481.632-.7.09-.09.181-.171.272-.255.194-.18.393-.356.6-.517.122-.094.252-.177.377-.265.188-.131.374-.262.569-.377.159-.091.32-.166.481-.247.179-.09.357-.185.541-.261.162-.067.329-.116.494-.173.2-.068.4-.145.608-.2.124-.032.255-.05.382-.077.254-.053.5-.11.765-.141.127-.016.26-.015.388-.025.258-.022.516-.046.784-.046a7.556,7.556,0,0,1,5.1,1.735,6.961,6.961,0,0,1,.61.59c.011.014.022.029.035.043,1.387,1.563,2.083,4.444,2.083,7.122V62.846H46.67V43.677a12.73,12.73,0,0,0-1.42-6.14" transform="translate(1.777 2.552)" fill="#fff5ed"/>
    <path id="Tracé_13" data-name="Tracé 13" d="M45.746,16.63a12.387,12.387,0,0,0-6.8-2.661l-5.262-.725a9.069,9.069,0,0,1-4.291-1.483,3.734,3.734,0,0,1-1.333-3.114,5.763,5.763,0,0,1,1.935-4.413,8.526,8.526,0,0,1,5.082-1.391,14.926,14.926,0,0,1,4.867.816,20.394,20.394,0,0,1,4.93,2.569l2.36-2.239A20.547,20.547,0,0,0,41.544.966,19.619,19.619,0,0,0,35.314,0a14.309,14.309,0,0,0-5.9,1.15A9.756,9.756,0,0,0,25.4,4.294a7.517,7.517,0,0,0-1.451,4.536,7.227,7.227,0,0,0,2.208,5.562q2.2,2.059,6.742,2.722l5.262.725a8.708,8.708,0,0,1,4.261,1.544A3.8,3.8,0,0,1,43.781,22.5a5.891,5.891,0,0,1-2.3,4.715,10.586,10.586,0,0,1-5.926,1.512,13.4,13.4,0,0,1-5.2-1.057A15.532,15.532,0,0,1,28.3,26.612V30.1c.132.052.255.116.389.165a19.827,19.827,0,0,0,7.046,1.241A15.42,15.42,0,0,0,42,30.3a10.979,10.979,0,0,0,4.386-3.326,7.54,7.54,0,0,0,1.632-4.717,7.207,7.207,0,0,0-2.268-5.624" transform="translate(1.913 0)" fill="#fff5ed"/>
  </g>
</svg>
