<?xml version="1.0" encoding="UTF-8"?>
<svg id="Calque_2" data-name="Calque 2" xmlns="http://www.w3.org/2000/svg" xmlns:xlink="http://www.w3.org/1999/xlink" viewBox="0 0 103.8 76.2">
  <defs>
    <style>
      .cls-1 {
        fill: none;
      }

      .cls-2 {
        clip-path: url(#clippath);
      }

      .cls-3 {
        fill: #789389;
      }

      .cls-4 {
        opacity: .24;
      }
    </style>
    <clipPath id="clippath">
      <rect class="cls-1" width="103.8" height="76.2"/>
    </clipPath>
  </defs>
  <g id="Calque_1-2" data-name="Calque 1">
    <g id="Groupe_386" data-name="Groupe 386" class="cls-4">
      <g class="cls-2">
        <g id="Groupe_385" data-name="Groupe 385">
          <path id="Tracé_716" data-name="Tracé 716" class="cls-3" d="M77.5,71.9c-1.4-.3-2.8-.6-4.3-1,1.3,.4,2.8,.8,4.3,1"/>
          <path id="Tracé_717" data-name="Tracé 717" class="cls-3" d="M46.1,13.8c-.4,0-.9,.2-1.1,.6l-.1,.2c.5-.7,1.5-.9,2.2-.3l.3,.3-.1-.2c-.3-.4-.7-.6-1.2-.6"/>
          <path id="Tracé_718" data-name="Tracé 718" class="cls-3" d="M57.7,32.4l-.4,.6h.1l.3-.6h0"/>
          <path id="Tracé_720" data-name="Tracé 720" class="cls-3" d="M101.3,71.4l1.3,1.9h0l-1.3-1.9h0L67.3,19.3c-.5-.8-1.5-1-2.3-.5-.2,.1-.4,.3-.5,.6l-5.2,8.9-2-2.7-8.8-11.9h0l-.1-.2c-.4-.6-1.1-1-1.8-1.1v.1h-1.2c-.6,.2-1.1,.5-1.5,1l-.1,.2h0l-4.2,5.8-11.7,15.9c-.1,.1-.3,.2-.4,.1l-.1-.1-1-2c-.4-.7-1.2-1-1.9-.6-.2,.1-.4,.3-.6,.5l-12.6,19L3,63.3c-.9,.4-1.8,.8-2.7,1.2v2.4l2.7-3.6c.4-.2,.8-.3,1.2-.5h0c-.4,.2-.8,.3-1.2,.5l-2.7,3.6v.2H.3v-.2H.3l-.2,.2,.2-.1H.3v1.3c13.9-6.7,26.8-8,42.5-4.4,6.4,1.5,12.7,3.7,18.7,6.4,6.3,2.7,11.8,5,20.6,5.7,1.9,.2,3.8,.2,5.7,.2,5.4,0,10.8-.6,16.1-1.8v-3.6c-.9,.3-1.7,.5-2.6,.6M66.7,19.7l11,16.9h0l-11-16.9c-.2-.3-.5-.5-.9-.5,.4,0,.7,.2,.9,.5m-2.3-.3h0l-5.1,9,.4,.5h0l-.4-.5h0l5.1-9Zm-38.7,14.3l1,2s0,.1,.1,.1l-.1-.1-1-2c0-.1-.1-.1-.1-.2,.1,0,.1,.1,.1,.2m-14.9,19.3l.6,.2h0l-.6-.2h0Zm-6.9,11.3c6.5-2.2,13.2-3.6,20.1-4,1-.1,2-.1,3.1-.1h0c-1,0-2.1,0-3.1,.1-6.9,.5-13.6,1.8-20.1,4h0Zm23.2-4h0m45.1,11.8c-3.5-.9-7-2-10.4-3.1h-.1l-.2-.1c-6.8-2.6-13.8-4.7-21-6.4l-.9-.2h0l.9,.2c7.1,1.6,14.1,3.8,21,6.4l.3,.1c3.4,1.1,6.9,2.2,10.4,3.1,.9,.2,1.8,.5,2.7,.7h0c-.8-.2-1.7-.4-2.7-.7m.5-.7c.8,.3,1.7,.5,2.6,.8h0c-1-.3-1.8-.5-2.6-.8m11.5,2.9c-3.1-.3-6.2-.8-9.2-1.5h0c3,.7,6.1,1.2,9.2,1.5,1.3,.1,2.7,.2,4.1,.2h0c1.1,0,2.2,0,3.3-.1l1.3-.1-.4-.5h0l.4,.5-1.3,.1c-1.1,.1-2.2,.1-3.3,.1-1.3,0-2.7-.1-4.1-.2m4-.3c-2.4,0-4.8-.2-7.2-.5h0c2.4,.3,4.8,.5,7.2,.5m-.2-.2c1.2,0,2.4,0,3.6-.1h0c-1.2,0-2.4,.1-3.6,.1m12.2,0c-3.9,1.1-8,1.6-12.1,1.6h0c4.1-.1,8.1-.6,12.1-1.6,.1,0,.2,0,.3-.1h0c-.2,0-.3,0-.3,.1m-.4-2.1h0c-2.7,.5-5.4,.8-8.1,1h-.8l.7,1h0l-.7-1h0l-24.6-33.5-.2,.1h0c-.2,.1-.3,.1-.5,.2l24.4,33.4c-2.6,.1-5.2,0-7.8-.2h0c-1.7-.1-3.3-.4-4.8-.6,2.3,.5,4.6,.8,6.9,1,1.4,.1,2.9,.2,4.4,.2-1.5,0-3,0-4.4-.2-2.3-.2-4.6-.5-6.9-1-1.5-.3-2.9-.6-4.3-1-.2-.1-.4-.1-.6-.2-3.5-.9-6.9-2-10.3-3.1,.4,.2,.8,.3,1.3,.5,2.4,.9,4.8,1.8,7.2,2.6-2.4-.8-4.9-1.7-7.2-2.6-.4-.2-.8-.3-1.3-.5l-2.1-.7c-3.5-1.2-7.2-2.4-10.9-3.4-2.9-.8-5.8-1.5-8.5-2l-.1,.2h0l.1-.2c2.7,.5,5.6,1.2,8.5,2,3.7,1,7.3,2.2,10.9,3.4h0l2.1,.7c3.4,1.1,6.9,2.2,10.3,3.1,.2,.1,.4,.1,.6,.2-3.6-1.1-7.1-2.4-10.5-3.9-6.2-2.8-12.6-4.9-19.2-6.5-.4-.1-.7-.2-1.1-.2l-.6,1c.3,.1,.6,.1,.9,.2-.3-.1-.6-.1-.9-.2l.6-1c-.2-.1-.5-.1-.7-.2s-.5-.1-.7-.1h0l-.9,1.5h0l-.4,.6h0c-5.2-1-10.5-1.3-15.7-1.1-7.5,.5-14.9,2-22,4.7h0c7.1-2.6,14.5-4.2,22-4.7,5.3-.2,10.5,.1,15.7,1.1l.4-.6c-.4-.1-.8-.1-1.2-.2,.4,.1,.8,.1,1.2,.2l.9-1.5c-12.9-2.6-24.1-1.9-35.5,2.3l6.7-8.9h0c.2,0,.4,.1,.7,.1,2,0,4.6-1.6,7.7-7.7h0c1.6-3.2,2.9-4.3,3.2-4.3,.4,.3,.7,.7,1,1.1,.7,1,1.5,2.1,2.7,2,1-.1,1.8-1.2,2.5-3.4,.7-1.9,1.3-1.7,2.6-1.2,.7,.3,1.4,.4,2.2,.3,1.1-.2,1.6-1.7,2.3-3.5,.3-1,.7-1.9,1.3-2.8,.7,1.3,1.1,2.7,1.5,4.1,1.1,3.7,2.1,7.1,4.1,7.2h.1c2.2,0,3-3.7,3.6-7,.2-1.1,.4-2.1,.8-3.2,.2,.3,.4,.6,.5,.9,.6,1.2,1.5,3.1,3.7,3.1,.2,0,.4,0,.5-.1,1-.3,1.5-1.6,1.9-2.8h0c0-.1,.1-.2,.1-.3,.5-1.2,.9-2.1,1.6-2.2h.2l.4-.7h-.1l.4-.6c-.2-.1-.4-.1-.6-.1h-.4c-1.7,.2-2.4,2-2.9,3.4-.3,.9-.7,2-1.2,2-1.3,0-1.8-1-2.5-2.3-.4-.9-.9-1.8-1.8-1.8-1.2,0-1.5,1.7-2,4.4-.4,2.2-1.2,5.9-2.3,5.9h0c-.1,0-.6-.1-1.3-1.8-.6-1.4-1.1-2.9-1.5-4.4-1-3.4-1.5-5.1-2.7-5.1-1.3-.1-2,1.8-2.7,3.7-.3,.9-.7,1.8-1.3,2.6-.5,0-1-.1-1.5-.3-1.3-.4-3.2-1.1-4.4,2.1-.8,2.3-1.4,2.5-1.4,2.5-.3,0-1-.9-1.4-1.4-.6-.9-1.2-1.7-2.1-1.7h0c-1.5,0-3.3,2.6-4.5,5.1-2.1,4.4-4.3,6.8-6.2,7l12-18.2-12.4,18.9h0c-.2,0-.5-.1-.7-.1h0c.2,.1,.5,.1,.7,.1l12.4-18.9h0l1,2c.3,.5,.8,.9,1.3,.9h.2c.5,0,1-.3,1.3-.7l15.9-21.7,.1-.2c.5-.6,1.3-.8,2-.3l.3,.3,.1,.2,11.1,15.1v.1l.4,.5,.1,.1,.4,.5,.1,.1,1.7,2.3c.2-.1,.3-.3,.5-.5h0c.1-.1,.3-.3,.4-.4h0l.1-.1-1.9-2.6,5.4-9.5c0-.1,.1-.1,.2-.1s.2,0,.3,.1l9.1,14.1c-2-1.3-3.9-2.4-4.6-2.4h0c-1.1,.1-1.5,1-1.8,1.6-.4,.8-.6,1.1-1.1,1.1-.7,0-1.1-.7-1.5-1.8-.3-.9-.6-1.8-1.5-1.9h-.2c-.9,.2-1.8,.7-2.4,1.5h0l-.1,.1c-.1,.1-.2,.2-.4,.4h0c-.2,.2-.3,.3-.5,.5l.4,.6h0l.4,.6h0c.2-.1,.3-.3,.5-.5-.2,.2-.3,.3-.5,.5l2.8,3.8c-1-.2-1.9-1.2-3.2-2.6h0c-.2-.2-.3-.4-.5-.6s-.4-.4-.5-.6c-.2-.3-.5-.5-.7-.7h0c-.4-.3-.8-.6-1.3-.9l-.3,.6h0l.3-.6h-.1c-.2-.1-.4-.2-.6-.2l-.4,.6h0l-.4,.7c.2,0,.4,.1,.6,.1h.2c.3,.1,.6,.3,.8,.5,.3-.1,.6-.1,.8-.2-.2,0-.5,.1-.8,.2,.2,.2,.4,.4,.6,.6,.4,.4,.8,.9,1.2,1.3,1.4,1.7,3,3.6,5.2,3.1l-.3-.4-.2-.2c-2,.2-3.5-2.1-5.1-3.9h0c1.6,1.8,3.1,4.1,5.1,3.9h0l.2,.2,.3,.4c.2,0,.3-.1,.5-.2l.2-.1h0l24.6,33.5h.8l-24.7-33.7h0l-.5-.6-3.6-4.9,2.8,3.7-2.8-3.7c-.2,.2-.3,.3-.5,.5h0c.2-.2,.3-.3,.5-.5h0c.4-.4,1.2-1.2,1.5-1.2,.2,.3,.3,.7,.4,1,.4,1.1,1,2.8,2.8,2.8,1.1-.1,2-.8,2.3-1.9,.3-.6,.4-.8,.6-.9,.7,.1,3.9,2.2,6.6,4h.1l-1-1.5h0l-10.2-15.7q-.1-.1-.2-.1c-.1,0-.2,.1-.2,.1l-5.5,9.5h0l5.5-9.5h0c0-.1,.1-.1,.2-.1s.2,0,.2,.1l10.2,15.7h0l1,1.5,1.5,1.1h0l1.3,.9-12.5-20.3c-.1-.2-.3-.4-.6-.6,.2,.1,.4,.3,.6,.6l12.9,19.9-1.3-.9,21.7,33.3h0l-21.7-33.3-1.5-1.1,22.4,34.5c.2-.1,.5-.1,.7-.1h0c-.2,0-.4,.1-.7,.1M13.9,52.6c1.9-.7,4-3.1,5.9-7.1h0c.6-1.4,1.5-2.7,2.5-3.8-1,1.1-1.8,2.4-2.5,3.8-1.9,4-3.9,6.4-5.9,7.1m14-9.1c.6-.8,1.1-1.6,1.3-2.6,.2-.8,.6-1.4,1.3-1.8-.6,.4-1.1,1.1-1.3,1.8-.2,.9-.6,1.8-1.3,2.6m7.1-4.2c1-1,1.8-4.9,2.9-5.9-1.2,1.1-1.9,4.9-2.9,5.9m9.8,4.9c1.9-1.6,2.2-8.9,3.2-9.9-1.1,1-1.3,8.2-3.2,9.9m8.5-6.2c.9-.9,1.2-3.3,2.3-4.5-1,1.2-1.3,3.7-2.3,4.5m3.3-5h0m14.1-.5h0c-1.5,.1-1.1,2.7-3,2.7h0c1.9,0,1.5-2.6,3-2.7h0m-6.2-1c-.6,0-1.3,.7-2,1.3h0c.7-.7,1.4-1.3,2-1.3m-4.4,2.7h0c-.2,0-.4,0-.7,.1h0c.3-.1,.5-.1,.7-.1m-.6,0c-.2-.2-.4-.4-.7-.6,.3,.2,.5,.4,.7,.6m-.7-.5c-.1-.1-.2-.2-.3-.2,.1,0,.2,.1,.3,.2h0m6.4,5h0c.2,0,.5-.1,.7-.2-.2,.2-.5,.2-.7,.2m36.5,35c-.2,.1-.5,.1-.7,.2,.2-.1,.5-.2,.7-.2h0Z"/>
          <path id="Tracé_722" data-name="Tracé 722" class="cls-3" d="M45.4,12.5h1.2v-.1h0V7.8c1.1,.2,2.2,.1,3.2-.2s2.1-.4,3.1,0l1,.4V1.5l-.4-.2c-1.3-.4-2.7-.4-4,0-1,.3-2,.3-2.9,.1v.7c.1,0,.3,.1,.4,.1-.1,0-.3,0-.4-.1v-.7q-.1,0-.2-.1l-1-.4h0l1,.4c.1,0,.1,.1,.2,.1V0h-1.4V12.4h.2v.1ZM53.3,1.9h0c-.4-.2-.8-.3-1.2-.3,.4,.1,.8,.2,1.2,.3m-6.5,1c1,.1,2,0,3-.2,.9-.3,1.8-.3,2.7-.2v3.6c-1-.1-2,0-3,.2-.9,.3-1.8,.3-2.7,.2V2.9Z"/>
        </g>
      </g>
    </g>
  </g>
</svg>