<svg id="Groupe_174" data-name="Groupe 174" xmlns="http://www.w3.org/2000/svg" xmlns:xlink="http://www.w3.org/1999/xlink" width="33.695" height="32.647" viewBox="0 0 33.695 32.647">
  <defs>
    <clipPath id="clip-path">
      <rect id="Rectangle_116" data-name="Rectangle 116" width="33.695" height="32.647" fill="#da725a"/>
    </clipPath>
  </defs>
  <g id="Groupe_173" data-name="Groupe 173" clip-path="url(#clip-path)">
    <path id="Tracé_160" data-name="Tracé 160" d="M131.219,92.556a73.636,73.636,0,0,0-7.142,6.113,54.764,54.764,0,0,1-3.753-6.961,1,1,0,0,0-1.331-.484,1.09,1.09,0,0,0-.545,1.453A65.353,65.353,0,0,0,122.5,100.3c-1.513,1.574-3.026,3.269-4.479,5.024a1,1,0,0,0,.182,1.453.9.9,0,0,0,1.331-.121c1.271-1.574,2.663-3.087,4.116-4.6a29,29,0,0,0,4.963,5.871.866.866,0,0,0,.605.242,1.255,1.255,0,0,0,.726-.3.925.925,0,0,0,.121-1.211c-.726-.968-1.453-1.876-2.179-2.784-.908-1.09-1.816-2.239-2.663-3.389a80.329,80.329,0,0,1,7.142-6.295.949.949,0,0,0,.121-1.331.873.873,0,0,0-1.271-.3Z" transform="translate(-107.606 -83.25)" fill="#da725a"/>
    <path id="Tracé_161" data-name="Tracé 161" d="M33.539,13.423c-.726-5.084-3.632-10.834-8.9-12.226a.463.463,0,0,0-.3-.121c-4.782-1.271-9.321-1.695-13.921.3-4.3,1.876-7.868,4.6-9.5,9.079C-1.385,16.873.734,26.013,6.3,30.249c5.75,4.358,16.282,2.239,21.669-2.058,4.479-3.51,6.295-9.2,5.568-14.769ZM29,23.531c-3.45,5.084-10.168,6.6-15.979,6.416-6.6-.182-10.108-6.84-10.592-12.771A12.775,12.775,0,0,1,9.389,4.525c4.721-2.6,9.14-2.6,14.345-1.331h.121C31.361,6.1,33.176,17.418,29,23.531Z" transform="translate(0.001 -0.001)" fill="#da725a"/>
  </g>
</svg>
