<?xml version="1.0" encoding="utf-8"?>
<!-- Generator: Adobe Illustrator 26.5.0, SVG Export Plug-In . SVG Version: 6.00 Build 0)  -->
<svg version="1.1" id="Groupe_221" xmlns="http://www.w3.org/2000/svg" xmlns:xlink="http://www.w3.org/1999/xlink" x="0px" y="0px"
	 viewBox="0 0 41.2 43.2" style="enable-background:new 0 0 41.2 43.2;" xml:space="preserve">
<style type="text/css">
	.st0{clip-path:url(#SVGID_00000052811157646212823840000007214060657524044207_);}
	.st1{fill:#DA725A;}
	.st2{fill:#FFFFFF;}
</style>
<g>
	<defs>
		<rect id="SVGID_1_" x="-25" y="-18.3" width="91" height="91.1"/>
	</defs>
	<clipPath id="SVGID_00000023248826837927841430000001889173769398483347_">
		<use xlink:href="#SVGID_1_"  style="overflow:visible;"/>
	</clipPath>
	<g id="Groupe_220" style="clip-path:url(#SVGID_00000023248826837927841430000001889173769398483347_);">
		<path id="Tracé_193" class="st1" d="M17.3,7.7c0.1-2.9,1.5-6,3.3-6s3.2,3.2,3.3,6h1.2c-0.1-3.6-2.3-6.4-4.5-6.4s-4.4,2.8-4.5,6.4
			H17.3z"/>
		<path id="Tracé_194" class="st2" d="M31.6,41.6h-22c-1.7,0-3-1.3-3-3c0-0.1,0-0.2,0-0.3l3.1-28c0.1-1.7,1.6-3.1,3.3-3.1h15.2
			c1.7,0,3.2,1.3,3.3,3.1l3.1,28c0.1,1.6-1.1,3.1-2.7,3.2C31.8,41.6,31.7,41.6,31.6,41.6"/>
		<path id="Tracé_195" class="st1" d="M31.6,42.6h-22c-2.2,0-4-1.8-4-4c0-0.1,0-0.2,0-0.3l3.1-28c0.2-2.3,2.1-4,4.4-4h15.2
			c2.3,0,4.2,1.7,4.4,4l3.1,27.9c0.2,2.2-1.4,4.2-3.6,4.4C31.8,42.6,31.7,42.6,31.6,42.6 M13,8.3c-1.2,0-2.2,0.9-2.3,2.1l-3.1,28
			c-0.1,1.1,0.7,2,1.8,2.1c0,0,0.1,0,0.1,0h22c1.1,0,2-0.9,2-2c0-0.1,0-0.1,0-0.2l-3.1-27.9c-0.1-1.2-1.1-2.2-2.3-2.1L13,8.3z"/>
		<path id="Tracé_196" class="st2" d="M30.7,15.3l-10.1,2.6l-10.1-2.6v-4.7c0-1.8,1.5-3.3,3.3-3.3h13.7c1.8,0,3.3,1.5,3.3,3.3
			L30.7,15.3z"/>
		<path id="Tracé_197" class="st1" d="M20.6,18.9L9.5,16.1v-5.5c0-2.4,1.9-4.3,4.3-4.3h13.7c2.4,0,4.3,1.9,4.3,4.3v5.5L20.6,18.9z
			 M11.5,14.4l9.1,2.3l9.1-2.3v-3.9c0-1.2-1-2.2-2.2-2.2H13.7c-1.2,0-2.2,1-2.2,2.2L11.5,14.4z"/>
		<path id="Tracé_198" class="st2" d="M28.4,27.4H12.8l-0.7,8.1c-0.1,1,0.7,1.9,1.7,2c0.1,0,0.1,0,0.2,0h13.4c1,0,1.8-0.8,1.8-1.8
			c0-0.1,0-0.1,0-0.2L28.4,27.4L28.4,27.4z"/>
		<path id="Tracé_199" class="st1" d="M27.3,38.5H13.9c-1.6,0-2.9-1.3-2.9-2.9c0-0.1,0-0.2,0-0.2l0.8-9.1h16.6v1l1-0.1l0.7,8.1
			c0.1,1.6-1,3-2.6,3.1C27.5,38.5,27.4,38.5,27.3,38.5 M13.7,28.4l-0.6,7.2c0,0.4,0.3,0.8,0.7,0.9c0,0,0,0,0.1,0h13.4
			c0.2,0,0.4-0.1,0.6-0.3c0.2-0.2,0.2-0.4,0.2-0.6l-0.6-7.2L13.7,28.4z"/>
		<path id="Tracé_200" class="st2" d="M20.6,32l-8.1-3.8v-1.6c0-1.5,1.2-2.7,2.7-2.7c0,0,0,0,0,0H26c1.5,0,2.7,1.2,2.7,2.7
			c0,0,0,0,0,0v1.6L20.6,32z"/>
		<path id="Tracé_201" class="st1" d="M20.6,33.1l-9.1-4.3v-2.3c0-2.1,1.7-3.8,3.8-3.8H26c2.1,0,3.8,1.7,3.8,3.8v2.3L20.6,33.1z
			 M13.5,27.5l7.1,3.3l7.1-3.3v-1c0-0.9-0.8-1.7-1.7-1.7H15.2c-0.9,0-1.7,0.8-1.7,1.7L13.5,27.5z"/>
		<rect id="Rectangle_221" x="14.1" y="13.2" class="st1" width="1.4" height="6.1"/>
		<rect id="Rectangle_222" x="13.6" y="19.3" class="st1" width="2.3" height="2.2"/>
		<rect id="Rectangle_223" x="26.2" y="13.2" class="st1" width="1.4" height="6.1"/>
		<rect id="Rectangle_224" x="25.7" y="19.3" class="st1" width="2.3" height="2.2"/>
		<path id="Tracé_202" class="st1" d="M22,28.3c0,0.8-0.6,1.4-1.4,1.4s-1.4-0.6-1.4-1.4s0.6-1.4,1.4-1.4l0,0
			C21.4,26.9,22,27.5,22,28.3C22,28.3,22,28.3,22,28.3"/>
		<path id="Tracé_203" class="st1" d="M11.3,7.3L7.9,0.7l3.8-0.4l2.9,6.8L11.3,7.3z"/>
		<path id="Tracé_204" class="st1" d="M11.4,0.9C8.6,4.5,6.6,8.7,5.7,13.2C3.3,25.5,7,31.7,7,31.7l-3.3,0.5c0,0-2.5-5.7-1-18
			C3.5,8,7.9,0.7,7.9,0.7L11.4,0.9L11.4,0.9z"/>
		<path id="Tracé_205" class="st2" d="M6.4,39.2l1.1-9.7l-5,2.1l-0.2,5.3L6.4,39.2z"/>
		<path id="Tracé_206" class="st1" d="M7.2,40.9l-6.1-3.4L1.4,31l7.2-3.1L7.2,40.9z M3.3,36.3l2.3,1.2l0.7-6.4l-2.8,1.2L3.3,36.3z"
			/>
		<path id="Tracé_207" class="st1" d="M30.3,7.3l3.4-6.6l-3.8-0.4L27,7.1L30.3,7.3z"/>
		<path id="Tracé_208" class="st1" d="M30.2,0.9C33,4.5,35,8.7,35.9,13.2c2.4,12.3-1.3,18.5-1.3,18.5l3.3,0.5c0,0,2.5-5.7,1-18
			C38.1,8,33.7,0.7,33.7,0.7L30.2,0.9L30.2,0.9z"/>
		<path id="Tracé_209" class="st2" d="M35.2,39.2l-1.1-9.7l5,2.1l0.2,5.2L35.2,39.2z"/>
		<path id="Tracé_210" class="st1" d="M34.4,40.9l-1.4-13l7.2,3.1l0.3,6.5L34.4,40.9z M35.4,31.2l0.7,6.4l2.3-1.2l-0.2-4L35.4,31.2
			z"/>
	</g>
</g>
</svg>
