<svg id="Groupe_170" data-name="Groupe 170" xmlns="http://www.w3.org/2000/svg" xmlns:xlink="http://www.w3.org/1999/xlink" width="55.935" height="51.549" viewBox="0 0 55.935 51.549">
  <defs>
    <clipPath id="clip-path">
      <rect id="Rectangle_112" data-name="Rectangle 112" width="55.935" height="51.548" fill="none"/>
    </clipPath>
  </defs>
  <g id="Groupe_169" data-name="Groupe 169" clip-path="url(#clip-path)">
    <path id="Tracé_153" data-name="Tracé 153" d="M34.071,315.454a5.536,5.536,0,1,1-5.536-5.536,5.536,5.536,0,0,1,5.536,5.536" transform="translate(-20.203 -272.238)"/>
    <path id="Tracé_154" data-name="Tracé 154" d="M8.332,303.585a8.332,8.332,0,1,1,8.332-8.332,8.342,8.342,0,0,1-8.332,8.332m0-16.178a7.846,7.846,0,1,0,7.846,7.846,7.855,7.855,0,0,0-7.846-7.846" transform="translate(0 -252.036)"/>
    <path id="Tracé_155" data-name="Tracé 155" d="M357.071,315.454a5.536,5.536,0,1,1-5.536-5.536,5.536,5.536,0,0,1,5.536,5.536" transform="translate(-303.932 -272.238)"/>
    <path id="Tracé_156" data-name="Tracé 156" d="M331.332,303.585a8.332,8.332,0,1,1,8.332-8.332,8.342,8.342,0,0,1-8.332,8.332m0-16.178a7.846,7.846,0,1,0,7.846,7.846,7.855,7.855,0,0,0-7.846-7.846" transform="translate(-283.729 -252.036)"/>
    <rect id="Rectangle_110" data-name="Rectangle 110" width="3.404" height="3.647" transform="translate(6.63 28.205)"/>
    <path id="Tracé_157" data-name="Tracé 157" d="M57.937,25.164h-3.4V21.336a21.527,21.527,0,0,1,.329-3.75l3.352.595a18.118,18.118,0,0,0-.276,3.155Zm39.271-.024H93.8v-3.8a18.116,18.116,0,0,0-.28-3.178l3.351-.6a21.538,21.538,0,0,1,.333,3.776ZM58.909,15.5,55.69,14.389a21.226,21.226,0,0,1,3.9-6.852l2.6,2.2A17.837,17.837,0,0,0,58.909,15.5m33.916-.021a17.835,17.835,0,0,0-3.288-5.752L92.13,7.518a21.228,21.228,0,0,1,3.912,6.845ZM64.143,7.768,61.916,5.193a21.232,21.232,0,0,1,6.812-3.97l1.139,3.208a17.845,17.845,0,0,0-5.724,3.336m23.438-.014a17.84,17.84,0,0,0-5.729-3.33l1.135-3.209a21.234,21.234,0,0,1,6.818,3.962ZM72.544,3.71,71.917.364a21.646,21.646,0,0,1,7.881,0l-.623,3.347a18.229,18.229,0,0,0-6.631,0" transform="translate(-47.903 0)"/>
    <rect id="Rectangle_111" data-name="Rectangle 111" width="3.404" height="3.647" transform="translate(45.901 28.205)"/>
  </g>
</svg>
