<svg id="Groupe_401" data-name="Groupe 401" xmlns="http://www.w3.org/2000/svg" xmlns:xlink="http://www.w3.org/1999/xlink" width="28.562" height="50.771" viewBox="0 0 28.562 50.771">
  <defs>
    <clipPath id="clip-path">
      <rect id="Rectangle_312" data-name="Rectangle 312" width="28.562" height="50.771" fill="#4f5c5c"/>
    </clipPath>
  </defs>
  <g id="Groupe_400" data-name="Groupe 400" clip-path="url(#clip-path)">
    <path id="Tracé_732" data-name="Tracé 732" d="M37.273,25.452l.149,0c1.126-.2,1.139-.924,1.139-.954l-.368,0c0,.018-.028.454-.8.593l-.086,0c-.806-.141-.833-.577-.834-.591H36.1c0,.031.013.757,1.171.957" transform="translate(-22.816 -15.478)" fill="#4f5c5c"/>
    <path id="Tracé_733" data-name="Tracé 733" d="M28,50.772l.558-.046-2.4-28.91a.962.962,0,0,0-.132-1.589l-.338-4.069-.558.046.328,3.943c-.347,0-.8.019-1.16.038l-.012-.119a.551.551,0,0,0-.545-.5c-.459,0-1.054.019-1.739.045-1.8.068-4.819.183-5.556-.366a2.179,2.179,0,0,1-.176-.16.542.542,0,0,0,.106-.294c.042-1.118.109-4.912-.753-6.984-.017-.054-.043-.11-.063-.165a4.918,4.918,0,0,0,1.569-.817,5.5,5.5,0,0,0,1.75-4.263c1.21.12,2.481.277,2.5.28a.593.593,0,0,0,.068,0,.717.717,0,0,0,.782-.5.945.945,0,0,0-.547-.987,11.971,11.971,0,0,0-1.173-.451c-.573-.208-1.586-.576-1.932-.735-.073-.165-.2-.466-.326-.758C16.8,0,16.731,0,16.282,0a3.345,3.345,0,0,0-.705.139,7.481,7.481,0,0,1-1.172.234A30.534,30.534,0,0,0,11.13,0c-.674,0-.924.717-1.561,3.568-.042.189-.086.386-.128.569-.051.22-.108.452-.151.6-.159.128-.576.4-.89.6C6.917,6.286,6.356,6.7,6.356,7.221a.6.6,0,0,0,.229.459.555.555,0,0,0,.392.131,14.37,14.37,0,0,0,2.73-.637A5.038,5.038,0,0,0,11.134,10.1a2.472,2.472,0,0,0-1.178.887l-.022.032-.022.035c-.213.347-.411.626-.6.895l-.147.208L6.39,11.94c-3.515-.152-4.132,6.37-4.159,6.671l-.339,7h0a1.633,1.633,0,0,0,.346,1.1,1.385,1.385,0,0,0,1.011.531l3.416.211c-.017.3-.034.615-.054.947v0a6.827,6.827,0,0,0-.013.89.463.463,0,0,0-.011.056c0,.363-.007.806-.011,1.3-.014,1.953-.041,5.938-.227,6.728A33.3,33.3,0,0,0,2.93,42.691a.548.548,0,0,0,.022.566,24.375,24.375,0,0,0-1.491,2.457s-.379.677-.7,1.262l-.077-.059c-.3.254-.8,1.476-.666,1.535.048.022.121.052.21.092l.085-.078.173.074v.114c.085.036.173.074.261.114l.085-.077.173.074v.114c.088.04.177.077.261.114l.085-.077.173.074V49.1l.236.1c.077.033.3-.217.409-.184.541.166,1.056.821,1.424.982.026.011.048.022.07.03l.085-.077.173.073v.114c.092.04.18.077.261.114l.085-.077.173.073v.114c.1.044.191.084.261.114l.085-.077.173.073v.111a2.745,2.745,0,0,0,.309.1l.063-.085.184.036.026.1q.121.017.232.022l.029-.089.188-.018.052.088a.41.41,0,0,0,.247-.122c.173-.176.313-.647.147-.725a1.118,1.118,0,0,0-.751-1.55c-.173-.118-1.214-1-1.214-1a.7.7,0,0,1-.048-.11A19.764,19.764,0,0,1,5.7,45.355a.543.543,0,0,0,.185-.109c.465-.42,4.563-4.144,5.244-5.611.291-.633.771-1.838,1.462-3.668a21.843,21.843,0,0,1,2.05,2.719c0,.071,0,.182,0,.33-.012.962-.04,3.216.153,6.486a.551.551,0,0,0,.187.382.542.542,0,0,0,.188.106c-.022.586,0,1.36.033,2.078a.275.275,0,0,0,0,.055c0,.111.011.221.015.328,0,.018,0,.037,0,.055.007.107.011.21.018.31a.151.151,0,0,0,0,.04c.007.1.011.187.018.272v.015c-.151.412-.121,1.619.022,1.619h.232l.048-.1h.188l.048.1h.287l.048-.1h.188l.048.1h.287l.048-.1h.188l.048.1h.258c.085,0,.188-.316.3-.331.559-.063,1.3.331,1.7.331h.077l.048-.1H19.5l.048.1h.287l.048-.1h.188l.048.1h.287l.048-.1h.188l.044.1c.107,0,.213-.019.32-.033l.022-.1.184-.04.066.085a1.784,1.784,0,0,0,.221-.074l-.007-.1.166-.092.081.063a.407.407,0,0,0,.177-.21c.055-.217,0-.707-.188-.714a1.116,1.116,0,0,0-1.306-1.118c-.206-.037-1.509-.431-1.509-.431a.666.666,0,0,1-.088-.084c-.061-.071-.175-1.35-.321-2.274a.545.545,0,0,0,.132-.258c.231-1.262.488-2.483.714-3.561.6-2.83,1.026-4.876.68-5.933-.4-1.223-3.93-6.431-4.725-7.595.089-.746.185-1.5.281-2.266.085-.669.169-1.343.25-2.013a16.688,16.688,0,0,0,2.451.164,40.279,40.279,0,0,0,5.835-.524.552.552,0,0,0,.467-.6l-.076-.753a8.358,8.358,0,0,0,1.1-.245ZM10.78,6.879l.014,0a41.236,41.236,0,0,1,6.227-.442c.188,0,.452.014.756.036a4.569,4.569,0,0,1-1.3,3.468c-1.178.862-1.755.736-2.176.644l-.1-.021a4.627,4.627,0,0,1-.893-.286q-.131-.069-.265-.124a3.963,3.963,0,0,1-2.267-3.27M6.707,26.344l-3.4-.209a.286.286,0,0,1-.206-.117A.54.54,0,0,1,3,25.659l.337-6.972c.005-.058.58-5.769,2.988-5.645l2.192.172c-.087.174-.171.363-.254.574a7.516,7.516,0,0,0-.893,2.775c-.122,1.033-.2,2.143-.231,2.634l-.016.266c-.134,1.209-.178,2.206-.25,3.848-.018.417-.038.872-.062,1.373Zm3.414,12.829c-.413.892-2.859,3.31-4.614,4.92l-1.4-1.249A28.553,28.553,0,0,1,7.264,38a.546.546,0,0,0,.1-.166,30.048,30.048,0,0,0,.308-5.779,4.267,4.267,0,0,0,1.08.849c.1.094.206.187.315.279.613.52,1.267.99,1.9,1.444l.741.54h0c-.764,2.036-1.283,3.347-1.584,4M18.27,41.59c-.2.964-.43,2.043-.642,3.168l-1.772.123c-.156-2.93-.131-4.955-.12-5.85,0-.276,0-.445,0-.495-.061-.808-3.919-5.615-5.8-6.3a4.393,4.393,0,0,1-.533-.234,5.744,5.744,0,0,1-1.684-2.648c-.01-.124-.023-.245-.024-.376h6.748a70.1,70.1,0,0,1,4.539,7.245c.254.777-.193,2.9-.711,5.363m-3.779-15.7c-.084.668-.168,1.333-.248,1.989h-6.5c.072-1.264.123-2.287.163-3.159l.308-5.15c.034-.306.073-.624.121-.972a20.327,20.327,0,0,1,.923-4.32c.046-.082.086-.167.136-.247l.619-.994a.55.55,0,0,0,.081-.286l.111-.156c.193-.271.413-.579.646-.959a1.472,1.472,0,0,1,1.706-.487c.095.047.194.089.291.132l.006,0a4.879,4.879,0,0,0,.673.335,3.813,3.813,0,0,0,.93.247,1.99,1.99,0,0,1,.116.294.492.492,0,0,0,.021.058,14.976,14.976,0,0,1,.7,4.9.545.545,0,0,0-.081.087c-.146-.45-.266-.919-.38-1.368a6.774,6.774,0,0,0-.848-2.3,2.653,2.653,0,0,0-3.221-.86,2.824,2.824,0,0,0-1.5,3.3c.335,1.686,1.478,5.283,3.4,6.833a5.574,5.574,0,0,0,2.085.974c-.085.7-.173,1.4-.261,2.1m-1.131-3.935c-1.555-1.253-2.652-4.387-3.011-6.189a1.722,1.722,0,0,1,.861-2.075,1.584,1.584,0,0,1,.64-.134A1.522,1.522,0,0,1,13.1,14.2h0a6.408,6.408,0,0,1,.664,1.908c.367,1.453.783,3.1,2.025,4.028.972.725,3.308.7,6.259.584.443-.017.845-.032,1.194-.04l.2,1.959c-5.2.74-8.594.51-10.077-.685" transform="translate(0 -0.001)" fill="#4f5c5c"/>
  </g>
</svg>
