<svg id="Groupe_325" data-name="Groupe 325" xmlns="http://www.w3.org/2000/svg" xmlns:xlink="http://www.w3.org/1999/xlink" width="140" height="102.866" viewBox="0 0 140 102.866">
  <defs>
    <clipPath id="clip-path">
      <rect id="Rectangle_242" data-name="Rectangle 242" width="140" height="102.866" fill="none"/>
    </clipPath>
  </defs>
  <g id="Groupe_246" data-name="Groupe 246" clip-path="url(#clip-path)">
    <path id="Tracé_223" data-name="Tracé 223" d="M209.823,14.142c-3.2-1.351-6.394,1.351-9.593,0V7.394c3.2,1.351,6.394-1.351,9.593,0Z" transform="translate(-138.051 -4.829)" fill="#fff"/>
    <path id="Tracé_224" data-name="Tracé 224" d="M208.686,13.3l-1.295-.547a7,7,0,0,0-4.242.053,8.64,8.64,0,0,1-5.351-.053l-.568-.239V3.74l1.295.547a7,7,0,0,0,4.242-.053,8.64,8.64,0,0,1,5.351.053l.568.239Zm-9.593-2.074a8.3,8.3,0,0,0,3.671-.242,10.879,10.879,0,0,1,4.056-.32V5.814a8.3,8.3,0,0,0-3.671.242,10.879,10.879,0,0,1-4.056.32Z" transform="translate(-135.983 -2.579)" fill="#da725a"/>
    <path id="Tracé_225" data-name="Tracé 225" d="M205.054,149.468c8.388,3.152,16.915,6.543,25.818,7.891a63.241,63.241,0,0,0,25.728-1.366c1.481-.394.565.388,2.015-.109l-46.96-71.955a1.321,1.321,0,0,0-2.251.062L176.63,140.823C184.946,142.5,197.129,146.493,205.054,149.468Z" transform="translate(-121.78 -57.453)" fill="#fff"/>
    <path id="Tracé_226" data-name="Tracé 226" d="M237.312,156.954a65.451,65.451,0,0,1-9.807-.745c-8.294-1.258-16.282-4.27-24.008-7.186l-2-.755c-8.313-3.124-20.281-7-28.278-8.605l-1.27-.255,33.423-57.953a2.252,2.252,0,0,1,3.838-.106l47.615,72.958-1.133.388a1.985,1.985,0,0,1-1.711.047,3.046,3.046,0,0,0-.366.078,63.139,63.139,0,0,1-16.3,2.133Zm-35.156-10.431c.668.252,1.332.5,2,.755,7.633,2.882,15.53,5.86,23.629,7.086a61.853,61.853,0,0,0,25.349-1.348,5.571,5.571,0,0,1,.55-.118L207.653,82.363a.378.378,0,0,0-.335-.177.372.372,0,0,0-.326.2L174.857,138.1a226.5,226.5,0,0,1,27.3,8.422Z" transform="translate(-118.553 -55.383)" fill="#da725a"/>
    <path id="Tracé_227" data-name="Tracé 227" d="M273.358,106.857s-8.133-5.677-9.471-5.59c-1.981.13-1.438,3.686-4.012,3.686-2.947,0-2.615-4.832-4.133-5.077-1.723-.279-4.385,4.431-6,3.646-.214-.106-5.115,1.006-5.115,1.006l11.658-20.471a1.322,1.322,0,0,1,2.258-.065Z" transform="translate(-168.663 -57.494)" fill="#fff"/>
    <path id="Tracé_228" data-name="Tracé 228" d="M272.611,108.274l-3.9-2.723c-3.587-2.5-7.987-5.27-8.909-5.422-.3.037-.484.335-.876,1.158-.475,1.006-1.192,2.528-3.164,2.528-2.394,0-3.192-2.242-3.72-3.726a5.7,5.7,0,0,0-.6-1.363c-.416.034-1.475,1.059-2.053,1.618-1.267,1.227-2.574,2.491-3.919,2.046-.624.081-2.813.54-4.742.978l-2.062.466,12.7-22.309a2.255,2.255,0,0,1,3.851-.109l17.4,26.862ZM251.464,96.858a2.128,2.128,0,0,1,.311.025c1.165.189,1.6,1.4,2.015,2.577.534,1.5.963,2.491,1.966,2.491.724,0,.981-.4,1.481-1.46.425-.9,1.006-2.13,2.472-2.227h.059c.984,0,3.506,1.438,6.2,3.189L253.647,82.428a.39.39,0,0,0-.665.019l-10.617,18.645c3.22-.7,3.385-.618,3.674-.478h.012c.373,0,1.453-1.047,2.037-1.612,1.137-1.1,2.214-2.143,3.379-2.143Z" transform="translate(-164.547 -55.423)" fill="#da725a"/>
    <path id="Tracé_229" data-name="Tracé 229" d="M38.17,121.346c11.509-.568,22.846,1.31,33.911,4.375,10.549,2.925,20.769,6.925,31.364,9.692a93.837,93.837,0,0,0,16.052,2.857,71.749,71.749,0,0,0,9.869.093L94.7,91.022,70.3,57.785a2.832,2.832,0,0,0-4.565,0L44.079,87.277a1.313,1.313,0,0,1-2.236-.193l-1.335-2.692a1.009,1.009,0,0,0-1.748-.106L21.792,110.039,8.47,127.669a102.493,102.493,0,0,1,29.7-6.323Z" transform="translate(-5.84 -39.044)" fill="#fff"/>
    <path id="Tracé_230" data-name="Tracé 230" d="M119.147,137.34c-1.9,0-3.745-.075-5.568-.224a94.186,94.186,0,0,1-16.21-2.885c-5.683-1.484-11.341-3.348-16.809-5.152-4.754-1.568-9.67-3.186-14.567-4.543-12.369-3.428-23.365-4.848-33.616-4.344A100.694,100.694,0,0,0,2.95,126.459L0,127.524l15.195-20.11L32.147,81.686a1.942,1.942,0,0,1,3.36.2l1.335,2.692a.383.383,0,0,0,.652.056L59.148,55.147a3.763,3.763,0,0,1,6.068,0l24.4,33.237,35.681,48.73-1.714.1c-1.519.084-2.99.127-4.428.127Zm-82.7-19.111a112.168,112.168,0,0,1,30.041,4.512c4.938,1.369,9.875,3,14.651,4.571,5.444,1.795,11.071,3.649,16.7,5.118a92.407,92.407,0,0,0,15.893,2.829,68.858,68.858,0,0,0,8.018.171L88.109,89.49l-24.4-33.234a1.9,1.9,0,0,0-3.062,0L38.991,85.748a2.245,2.245,0,0,1-3.82-.332l-1.335-2.692a.081.081,0,0,0-.065-.043.075.075,0,0,0-.068.034l-17,25.8L5.233,123.692a100.115,100.115,0,0,1,27.054-5.363q2.064-.1,4.164-.1Z" transform="translate(0 -36.962)" fill="#da725a"/>
    <path id="Tracé_231" data-name="Tracé 231" d="M124.275,91.386c-5.1,1.947-7.618-8-12.359-7.515-3.292.335-2.987,7.2-5.636,7.2-3.987,0-4.065-5.63-5.792-5.63-1.975,0-1.95,14.046-5.885,13.94-3.546-.1-5.251-15.117-7.428-15.226-2.146-.106-3.245,8.2-5.189,8.558-2.407.444-5.385-3.245-7.124,1.81-3.13,9.1-5.375-.13-7.456-.165-1.04-.019-3.155,2.14-5.248,6.363-3.643,7.363-7.391,10.807-10.788,9.683L68.338,84.647a1.012,1.012,0,0,1,1.748.106l1.335,2.692a1.313,1.313,0,0,0,2.236.193L95.116,58.413a3.074,3.074,0,0,1,4.956,0l24.206,32.97Z" transform="translate(-35.418 -39.408)" fill="#fff"/>
    <path id="Tracé_232" data-name="Tracé 232" d="M49.434,109.48a4.916,4.916,0,0,1-1.562-.255l-1.152-.382L64.355,82.078a1.942,1.942,0,0,1,3.36.2l1.335,2.692a.383.383,0,0,0,.652.056L91.161,55.807a4,4,0,0,1,6.459,0l24.93,33.954-1.143.435c-3.335,1.273-5.67-1.484-7.729-3.919-1.618-1.91-3.136-3.711-4.869-3.54-1.062.109-1.652,1.463-2.369,3.36-.68,1.8-1.45,3.838-3.36,3.838-2.99,0-4.2-2.528-5.006-4.2a10.256,10.256,0,0,0-.668-1.245,27.454,27.454,0,0,0-1.053,4.292c-.876,4.441-1.866,9.468-4.9,9.468h-.075c-2.668-.071-4.046-4.729-5.509-9.661-.578-1.953-1.435-4.841-2.009-5.515-.55.4-1.351,2.556-1.795,3.745-.894,2.4-1.668,4.478-3.112,4.748a5.821,5.821,0,0,1-2.907-.46c-1.748-.6-2.627-.894-3.506,1.658-1.028,2.99-2.081,4.416-3.413,4.615-1.553.233-2.664-1.286-3.643-2.63a6.607,6.607,0,0,0-1.317-1.519c-.45.09-2.273,1.59-4.379,5.841-4.087,8.254-7.7,10.406-10.353,10.406ZM65.973,83.066a.063.063,0,0,0-.062.034L49.773,107.6c2.543-.267,5.456-3.506,8.347-9.35,1.649-3.332,4.105-6.882,6.071-6.882h.028c1.118.019,1.922,1.121,2.773,2.289.5.68,1.425,1.95,1.86,1.885.084-.012.838-.211,1.928-3.379,1.484-4.31,4.124-3.41,5.869-2.813a4.46,4.46,0,0,0,1.966.391c.46-.224,1.239-2.314,1.7-3.565.975-2.621,1.888-5.093,3.7-5.009,1.546.075,2.27,2.292,3.636,6.9a54.011,54.011,0,0,0,2,5.934c.994,2.258,1.652,2.388,1.773,2.394h.019c1.506,0,2.487-4.984,3.077-7.965.736-3.726,1.18-5.978,2.764-5.978,1.273,0,1.879,1.264,2.466,2.484.882,1.841,1.64,3.143,3.326,3.143.621,0,1.149-1.4,1.615-2.633.727-1.925,1.633-4.323,3.925-4.556,2.7-.279,4.621,1.994,6.478,4.189,1.677,1.981,2.931,3.338,4.3,3.543L96.117,56.906a2.14,2.14,0,0,0-3.453,0L71.206,86.131a2.245,2.245,0,0,1-3.82-.332l-1.335-2.692a.081.081,0,0,0-.065-.043H65.98Z" transform="translate(-32.212 -37.348)" fill="#da725a"/>
    <path id="Tracé_233" data-name="Tracé 233" d="M140.565,270.6a94.474,94.474,0,0,1-29.017,2.267c-11.158-.928-18.266-3.925-26.5-7.394A147.34,147.34,0,0,0,59.1,256.687C37.637,251.7,19.738,253.271.82,262.031v5.186c18.7-9.061,36.218-10.822,57.35-5.9a143.921,143.921,0,0,1,25.284,8.571c8.555,3.605,15.943,6.72,27.753,7.7,2.624.22,5.177.317,7.645.317a99.88,99.88,0,0,0,21.713-2.435Z" transform="translate(-0.565 -175.037)" fill="#da725a"/>
    <rect id="Rectangle_241" data-name="Rectangle 241" width="1.863" height="16.788" transform="translate(60.943)" fill="#da725a"/>
  </g>
</svg>
