<svg xmlns="http://www.w3.org/2000/svg" width="140" height="139.47" viewBox="0 0 140 139.47">
  <g id="Illustration_se_ressourcer_dans_un_cadre_naturel" data-name="Illustration_se ressourcer dans un cadre naturel" transform="translate(0)">
    <path id="Tracé_607" data-name="Tracé 607" d="M85.088,155.487c-3.378,4.286-6.866,10.658-10.277,16.142q-1.816,2.918-3.411,5.742a.792.792,0,0,1-1.481-.411v-.033c.123-5.113-.1-10.727-.614-21.951-.306-6.752-.614-11.818-.614-11.818H60.914s2.943,20.4,2.865,33.358c0,.336-.006.674-.012,1.016a1.685,1.685,0,0,1-2.97,1.052l-.018-.024a24.035,24.035,0,0,1-2.389-3.956c-1.493-2.865-1.121-11.335,1.774-21.9l-2.116,1.007a60.017,60.017,0,0,0-1.771,9.156c-.575,5.053-.866,7.583-.2,10.712l.006.021a1.3,1.3,0,0,1-1.585,1.529,18.641,18.641,0,0,1-6.459-2.76,10.5,10.5,0,0,1-2.5-2.814,20.476,20.476,0,0,1-1.96-3.878,14.444,14.444,0,0,1-1.016-4.289c-.045-.959-1.544-.965-1.5,0a15.043,15.043,0,0,0,.935,4.322,27.121,27.121,0,0,0,2.371,4.8,11.983,11.983,0,0,0,2.431,2.793c1.418,1.136,5.814,3.989,7.343,4.951,1,.629,1.867,1.2,2.646,1.705a12.327,12.327,0,0,1,5.275,7.328l.018.072.006.027a11,11,0,0,1,.117,4.741,101.723,101.723,0,0,1-8.764,25.43l12.006.273c.168-1.214,1.379-10.529,2.362-18.33a72.706,72.706,0,0,1,8.973-27.022c.042-.072.084-.147.126-.219,3.779-6.57,7.813-13.349,11.371-17.416l-3.183.635Z" transform="translate(-28.751 -100.253)" fill="#da725a"/>
    <path id="Tracé_608" data-name="Tracé 608" d="M151.063,401.349a91.181,91.181,0,0,1-28,2.188c-10.769-.9-17.629-3.788-25.574-7.136a142.2,142.2,0,0,0-25.044-8.482c-20.716-4.816-37.991-3.3-56.25,5.158v5.005c18.046-8.746,34.955-10.445,55.351-5.7a138.907,138.907,0,0,1,24.4,8.272c8.257,3.48,15.387,6.486,26.785,7.433,2.533.213,5,.306,7.379.306a96.4,96.4,0,0,0,20.956-2.35v-4.7Z" transform="translate(-11.338 -269.755)" fill="#da725a"/>
    <g id="Groupe_329" data-name="Groupe 329" transform="translate(113.845 104.063)">
      <g id="Groupe_327" data-name="Groupe 327">
        <path id="Tracé_609" data-name="Tracé 609" d="M395.747,362.071a12.89,12.89,0,0,1-6.86,10.915,12.9,12.9,0,0,1,.845-22.316,12.884,12.884,0,0,1,6.015,11.4Z" transform="translate(-381.956 -349.633)" fill="#fff"/>
        <path id="Tracé_610" data-name="Tracé 610" d="M386.735,371.6l-.441-.279a13.793,13.793,0,0,1,.905-23.872l.462-.243.441.279a13.846,13.846,0,0,1,6.435,12.2h0a13.845,13.845,0,0,1-7.34,11.677l-.459.243Zm.845-22.3a12,12,0,0,0-.767,20.216,12,12,0,0,0,.764-20.216Z" transform="translate(-379.847 -347.21)" fill="#da725a"/>
      </g>
      <g id="Groupe_328" data-name="Groupe 328" transform="translate(3.318 3.459)">
        <path id="Tracé_611" data-name="Tracé 611" d="M402.427,377.347h-.012a.318.318,0,0,1-.306-.33l.68-17.962a.318.318,0,0,1,.635.024l-.68,17.962A.317.317,0,0,1,402.427,377.347Z" transform="translate(-398.755 -358.75)" fill="#da725a"/>
        <path id="Tracé_612" data-name="Tracé 612" d="M396.4,404.547l-2.9-2.667a.318.318,0,0,1,.432-.468l2.521,2.314,2.889-2.116a.32.32,0,1,1,.378.516l-3.312,2.425Z" transform="translate(-392.655 -388.567)" fill="#da725a"/>
        <path id="Tracé_613" data-name="Tracé 613" d="M397.565,373.907l-2.9-2.667a.318.318,0,1,1,.432-.468l2.521,2.314,2.889-2.116a.32.32,0,0,1,.378.516l-3.312,2.425Z" transform="translate(-393.467 -367.11)" fill="#da725a"/>
        <path id="Tracé_614" data-name="Tracé 614" d="M394.845,386.98l-3.824-3.51a.318.318,0,0,1,.432-.468l3.441,3.159,3.941-2.883a.32.32,0,1,1,.378.516l-4.364,3.195Z" transform="translate(-390.918 -375.674)" fill="#da725a"/>
      </g>
    </g>
    <path id="Tracé_615" data-name="Tracé 615" d="M391.224,423.349a6.844,6.844,0,0,1-1.72,4.433,17.532,17.532,0,0,0-2.664,4.292.751.751,0,0,0,1.448.4,18.973,18.973,0,0,1,2.736-4.244,7.827,7.827,0,0,0,1.7-4.879.768.768,0,0,0-.749-.749.757.757,0,0,0-.749.749h0Z" transform="translate(-270.875 -295.942)" fill="#da725a"/>
    <path id="Tracé_616" data-name="Tracé 616" d="M55.552,342.039a24.546,24.546,0,0,0-1.6-8.626,27.006,27.006,0,0,0-4.526-7.909,18.858,18.858,0,0,0-3.531-3.255.754.754,0,0,0-1.025.27.765.765,0,0,0,.27,1.025,19.4,19.4,0,0,1,5.338,6.021,26.221,26.221,0,0,1,3.1,7.936,20.975,20.975,0,0,1,.474,4.535.75.75,0,0,0,1.5,0h0Z" transform="translate(-31.353 -225.592)" fill="#da725a"/>
    <path id="Tracé_617" data-name="Tracé 617" d="M34.2,300a5.185,5.185,0,0,0-2.176-3.2,3.325,3.325,0,0,0-3.624-.1c-2.368,1.427-2.227,4.762-.294,6.5,1.253,1.127,3.027,1.457,4.595,1.945a.762.762,0,0,0,.923-.525c.147-.6.27-1.2.381-1.8a8.211,8.211,0,0,0,.2-2.82.757.757,0,0,0-.923-.525.768.768,0,0,0-.524.923c.018.1,0-.009-.006-.045,0,.039.006.078.009.114,0,.087.006.171,0,.258,0,.2-.018.4-.039.6-.042.4-.108.8-.195,1.265-.1.548-.216,1.094-.351,1.636l.923-.525-1.747-.545a8.049,8.049,0,0,1-1.606-.605,3.229,3.229,0,0,1-1.57-2.1,2.274,2.274,0,0,1,.65-2.215,1.87,1.87,0,0,1,2.065-.372,3.625,3.625,0,0,1,1.87,2.533.76.76,0,0,0,.923.525.768.768,0,0,0,.524-.923Z" transform="translate(-18.653 -207.431)" fill="#da725a"/>
    <path id="Tracé_618" data-name="Tracé 618" d="M57.31,317.394a3.556,3.556,0,0,1,.557-2.8,2.665,2.665,0,0,1,.947-.749,2.492,2.492,0,0,1,.533-.159c-.093.018.039-.006.051-.006.054,0,.108-.009.165-.009h.159s.234.033.117.009a1.548,1.548,0,0,1,1.415,1.54,2.539,2.539,0,0,1-.42,1.364,2.073,2.073,0,0,1-.947.731c-1.139.477-2.527.348-3.749.611a.751.751,0,1,0,.4,1.448c1.373-.3,2.79-.168,4.1-.758a3.733,3.733,0,0,0,2.119-3.393,3.021,3.021,0,0,0-2.281-2.931,3.6,3.6,0,0,0-3.51,1.067,5.01,5.01,0,0,0-1.1,4.43.757.757,0,0,0,.923.525.767.767,0,0,0,.524-.923h0Z" transform="translate(-38.929 -218.613)" fill="#da725a"/>
    <path id="Tracé_619" data-name="Tracé 619" d="M41.935,332.052a5.985,5.985,0,0,0-3.447-1.609,4.623,4.623,0,0,0-3.579.92,2.56,2.56,0,0,0-.258,3.318,3.442,3.442,0,0,0,3.495,1.286,9.886,9.886,0,0,0,4-2.131.771.771,0,0,0,.27-1.025.756.756,0,0,0-1.025-.27,13.784,13.784,0,0,1-2.694,1.729,2.711,2.711,0,0,1-2.452-.048,1.509,1.509,0,0,1-.56-.86.9.9,0,0,1,.117-.761,2.849,2.849,0,0,1,2.386-.686,4.341,4.341,0,0,1,2.688,1.2.75.75,0,0,0,1.061-1.061h0Z" transform="translate(-23.925 -231.376)" fill="#da725a"/>
    <path id="Tracé_620" data-name="Tracé 620" d="M71.581,342.358a3.406,3.406,0,0,0,2.988-1.421,3.477,3.477,0,0,0,.507-3.252,2.32,2.32,0,0,0-2.649-1.448,3.06,3.06,0,0,0-1.936,2.167,11.1,11.1,0,0,0-.545,3.926.763.763,0,0,0,.749.749.746.746,0,0,0,.749-.749,10.168,10.168,0,0,1,.252-2.676q.081-.342.18-.674c.021-.072.045-.141.069-.213.018-.048.036-.093.051-.141.045-.117-.039.084.012-.03a2.983,2.983,0,0,1,.231-.432c.027-.042.054-.084.081-.123-.009.012-.06.072-.006.006a2.16,2.16,0,0,1,.2-.207c.06-.057,0-.006-.015.006a.9.9,0,0,1,.087-.06c.036-.021.219-.1.1-.063a1.243,1.243,0,0,1,.207-.057c-.15.024.207.018.051,0,.051.006.1.024.147.033,0,0,.12.036.051.012s.048.021.048.024c.045.024.087.051.132.075.1.057.012-.009.093.069.03.03.189.207.138.138a1.654,1.654,0,0,1,.12.2c.072.129.03.066.018.033.015.042.027.084.039.126a1.5,1.5,0,0,1,.051.543,2.025,2.025,0,0,1-.1.459,2.088,2.088,0,0,1-.207.477,1.886,1.886,0,0,1-1.9,1.01.749.749,0,0,0,0,1.5h0Z" transform="translate(-48.977 -235.422)" fill="#da725a"/>
    <path id="Tracé_621" data-name="Tracé 621" d="M56.285,355.763a6.013,6.013,0,0,0-6.057-2.685,2.19,2.19,0,0,0-1.993,2.581c.321,1.361,1.837,1.951,3.111,2.077a7.789,7.789,0,0,0,2.248-.207,3.291,3.291,0,0,1,1.924-.03.771.771,0,0,0,1.025-.27.754.754,0,0,0-.27-1.025,5.308,5.308,0,0,0-3.315-.075,3.851,3.851,0,0,1-2.862-.3.811.811,0,0,1-.417-.761c.063-.273.387-.4.668-.48a4.12,4.12,0,0,1,2.455.183,4.428,4.428,0,0,1,2.191,1.75c.513.8,1.816.06,1.295-.755h0Z" transform="translate(-33.737 -247.192)" fill="#da725a"/>
    <path id="Tracé_622" data-name="Tracé 622" d="M305.553,391.869a20.824,20.824,0,0,0-.7-13.946,14.9,14.9,0,0,0-1.909-3.378.775.775,0,0,0-1.025-.27.757.757,0,0,0-.27,1.025c2.688,3.51,3.564,8.284,3.171,12.612a16.756,16.756,0,0,1-.716,3.558c-.294.92,1.154,1.316,1.445.4Z" transform="translate(-211.168 -262.031)" fill="#da725a"/>
    <path id="Tracé_623" data-name="Tracé 623" d="M297.385,356.1a4.24,4.24,0,0,0-1.058-3.171,2.8,2.8,0,0,0-2.829-.821c-2.224.584-2.865,3.282-1.762,5.119a9.676,9.676,0,0,0,3.084,2.592.76.76,0,0,0,1.025-.27q.378-.629.716-1.283a6.7,6.7,0,0,0,.824-2.17.751.751,0,0,0-.749-.749.768.768,0,0,0-.749.749c.033-.258,0-.033-.018.021q-.027.1-.063.207c-.027.078-.054.153-.084.228-.015.039-.033.081-.048.12.033-.078.03-.075,0,.006-.15.324-.3.641-.468.956-.207.393-.423.779-.65,1.16l1.025-.27c-.518-.36-1.043-.713-1.558-1.076a3.273,3.273,0,0,1-1.043-1.073,2.144,2.144,0,0,1,.078-2.3,1.532,1.532,0,0,1,.842-.53,1.314,1.314,0,0,1,.929.069,2.544,2.544,0,0,1,1.061,2.479.753.753,0,0,0,.749.749.766.766,0,0,0,.749-.749Z" transform="translate(-203.929 -246.51)" fill="#da725a"/>
    <path id="Tracé_624" data-name="Tracé 624" d="M309.572,375.088c-.012.1.024-.141.03-.168.018-.1.042-.189.066-.282a2.7,2.7,0,0,1,.174-.479,2.3,2.3,0,0,1,.65-.851c-.069.057.033-.024.039-.03.045-.03.09-.06.135-.087.069-.042.141-.078.21-.117.132-.069.075-.036.042-.021.048-.021.1-.036.15-.054a2.742,2.742,0,0,1,.309-.078c-.015,0-.093.009,0,0a1.414,1.414,0,0,1,.159-.009c.093,0,.186,0,.276.009-.1-.012.117.03.15.036s.069.021.1.033c.123.036-.009-.012.057.024s.147.084.222.129c0,0,.1.072.042.027s.051.048.063.06a1.725,1.725,0,0,1,.177.186c-.009-.012-.054-.078-.006-.006.033.051.066.1.1.153s.045.084.066.129c-.006-.015-.036-.093-.009-.012a2.234,2.234,0,0,1,.066.243c-.027-.135,0,.09,0,.132a.557.557,0,0,1-.036.231,1.845,1.845,0,0,1-.536.869,1.375,1.375,0,0,1-.123.108c.036-.027.051-.03-.051.027a2.013,2.013,0,0,1-.225.12c.075-.03-.054.015-.057.015-.054.015-.108.033-.162.045a1.3,1.3,0,0,1-.222.042,18.819,18.819,0,0,1-3.048-.417.755.755,0,0,0-.749.749.765.765,0,0,0,.749.749c.525.048,1.076.207,1.615.306a5.222,5.222,0,0,0,1.843.057,3.12,3.12,0,0,0,2.41-2.272,2.6,2.6,0,0,0-1.208-2.871,3.012,3.012,0,0,0-3.129.09,4.19,4.19,0,0,0-1.837,3.192.755.755,0,0,0,.749.749.765.765,0,0,0,.749-.749h0Z" transform="translate(-215.43 -260.098)" fill="#da725a"/>
    <path id="Tracé_625" data-name="Tracé 625" d="M296.29,382.115a4.774,4.774,0,0,0-2.161-2.017,3.911,3.911,0,0,0-3.222-.195,2.149,2.149,0,0,0-1.043,2.634,2.879,2.879,0,0,0,2.308,1.882,8,8,0,0,0,3.8-.659.751.751,0,1,0-.4-1.448c-.447.144-.887.306-1.337.441-.225.066-.45.126-.68.171-.057.012-.114.021-.171.03,0,0-.144.018-.06.009-.1.012-.195.018-.291.021s-.2,0-.294,0c-.033,0-.3-.03-.168-.009a2.836,2.836,0,0,1-.563-.147c-.144-.051-.048-.021-.021-.009-.042-.021-.087-.042-.129-.066a1.806,1.806,0,0,1-.24-.153c.1.078-.1-.1-.117-.12a1.22,1.22,0,0,1-.081-.093c.066.084.024.03-.009-.027a1.994,1.994,0,0,1-.1-.195c.063.147-.015-.069-.027-.117s-.018-.081-.027-.123c.006.03.009.156,0,.015,0-.093.006-.186,0-.279s-.045.1,0,.018a.457.457,0,0,0,.021-.087c.009-.039.027-.075.036-.114-.036.132-.03.057,0,.015s.042-.069.06-.1c.027-.051.081-.066-.009.009.03-.024.057-.06.087-.087.084-.078-.024.009.048-.03.015-.009.147-.084.075-.048s.042-.015.048-.018a1.969,1.969,0,0,1,.291-.072c-.12.021,0,0,.027,0,.051,0,.1-.006.15-.006.111,0,.222,0,.333.009.021,0,.168.015.078.006s.054.009.075.012c.081.015.162.03.243.051s.183.048.273.075l.135.045c.015.006.189.072.108.039s.057.024.072.033c.054.024.108.051.159.078.093.048.186.1.276.159s.177.117.264.177c.018.012.108.09.018.012.045.039.09.075.135.114a3.981,3.981,0,0,1,.441.459c.078.093-.057-.081.012.015.036.048.069.1.1.144.066.1.126.2.183.3a.76.76,0,0,0,1.025.27.775.775,0,0,0,.27-1.025Z" transform="translate(-202.912 -265.854)" fill="#da725a"/>
    <path id="Tracé_626" data-name="Tracé 626" d="M314.541,397.147a3.076,3.076,0,0,0,1.552.135,2.761,2.761,0,0,0,1.325-.668,2.833,2.833,0,0,0,1.037-2.533,2,2,0,0,0-1.849-1.693,2.764,2.764,0,0,0-2.185,1.433,9.367,9.367,0,0,0-1.25,2.745.759.759,0,0,0,.524.923.767.767,0,0,0,.923-.525,10.377,10.377,0,0,1,.336-.989c.042-.111-.045.1,0-.009.015-.03.027-.063.042-.093.036-.081.075-.165.114-.246q.117-.243.252-.477.117-.207.243-.4c.048-.072.1-.147.144-.219l.069-.1c.048-.066.033-.036-.006.009a3.561,3.561,0,0,1,.309-.33c.051-.045.174-.126.054-.051.072-.045.15-.087.219-.135.084-.057-.123.036-.024.009l.078-.027a.472.472,0,0,1,.108-.027c-.018-.012-.147,0-.033.006h.114c0,.006-.144-.033-.063-.009.033.009.069.021.1.027.081.012-.123-.075-.009-.006.033.021.177.12.1.057s.078.087.1.1c.06.057-.039-.039-.033-.048s.051.078.06.09c.018.03.036.063.054.1.069.12-.024-.09,0-.006.015.06.033.123.051.183.03.1.021-.012,0-.039a.509.509,0,0,1,.006.114v.09c0,.027-.021.153,0,.051s0,0-.006.018c-.015.06-.03.117-.048.174-.009.03-.021.057-.03.087-.033.1.057-.1,0-.012-.036.063-.066.129-.1.189a2.424,2.424,0,0,1-.138.2c.006-.009.078-.09.021-.03-.036.036-.066.078-.1.114-.066.069-.132.135-.2.2-.024.021-.048.042-.075.063.111-.093,0,0-.03.018a2.617,2.617,0,0,1-.252.144c.027-.015.138-.045,0,0-.045.015-.087.03-.132.042s-.09.018-.135.03c.132-.039,0,0-.039,0-.1.006-.207,0-.309,0-.033,0-.141-.027-.006,0l-.135-.027a3.256,3.256,0,0,1-.333-.1.756.756,0,0,0-.923.524.768.768,0,0,0,.524.923h0Z" transform="translate(-219.293 -274.784)" fill="#da725a"/>
    <path id="Tracé_627" data-name="Tracé 627" d="M301.978,403.26a4.922,4.922,0,0,0-4.193-3.57,2.207,2.207,0,0,0-1.478.336,1.712,1.712,0,0,0-.71,1.582,3.056,3.056,0,0,0,2.365,2.335,9.593,9.593,0,0,0,1.7.27c.141.018-.174-.03.057.009l.216.036c.117.024.234.051.348.084l.135.045c.156.051-.051-.042.078.036l.153.087a.894.894,0,0,1,.087.06c-.057-.045-.054-.039.015.018a.769.769,0,0,0,1.061,0,.757.757,0,0,0,0-1.061,4.146,4.146,0,0,0-2.482-.851c-.1-.012-.2-.021-.3-.033-.153-.018-.054-.009-.021,0-.048-.006-.1-.015-.147-.024a3.875,3.875,0,0,1-.629-.159,2.556,2.556,0,0,1-.944-.578.991.991,0,0,1-.075-.084c.069.081-.009-.012-.018-.027-.027-.042-.051-.084-.075-.129.051.1,0,.006-.009-.021-.012-.045-.027-.093-.036-.138.009.036,0,.129,0-.015a1.087,1.087,0,0,1,.006-.141c-.018.138.027-.06,0,.018s.075-.2.027-.051c.021-.066.069-.054,0-.009.036-.024.075-.045.114-.066-.126.069.09-.021.135-.03s.132,0,0,0c.057,0,.114-.006.174-.006.081,0,.162.009.243.012-.15-.009.09.018.141.027a4.084,4.084,0,0,1,.566.165c.018.006.153.063.072.027s.051.024.069.033c.072.036.147.072.216.111s.162.093.24.144c.039.024.078.051.117.078.012.009.162.117.093.066s.048.039.06.051c.045.036.09.075.132.114.078.069.153.144.225.219s.141.156.21.234c.015.018.087.111.012.012.036.045.069.093.1.141a4.65,4.65,0,0,1,.315.542c.009.018.069.15.033.069s.033.09.039.1c.039.111.072.222.1.333a.751.751,0,0,0,1.448-.4h0Z" transform="translate(-206.996 -279.89)" fill="#da725a"/>
    <g id="Groupe_330" data-name="Groupe 330" transform="translate(42.938 89.928)">
      <path id="Tracé_628" data-name="Tracé 628" d="M146.547,319.333c1.2,3.731.665,8.467-2.053,11.434-.65.71.408,1.771,1.061,1.061,3.075-3.354,3.8-8.641,2.44-12.894-.294-.914-1.741-.525-1.445.4h0Z" transform="translate(-143.983 -312.909)" fill="#da725a"/>
      <path id="Tracé_629" data-name="Tracé 629" d="M147.637,312.835c2.658-1.028,2.628-4.34,2.035-6.669a10.955,10.955,0,0,0-3.854-5.916.763.763,0,0,0-1.253.33c-.749,2.227-1.52,4.583-1.241,6.965a8.722,8.722,0,0,0,2.769,5.437c.71.647,1.774-.408,1.061-1.061a7.2,7.2,0,0,1-2.359-4.658,15.777,15.777,0,0,1,1.214-6.285l-1.253.33a9.64,9.64,0,0,1,3.345,4.807,8.735,8.735,0,0,1,.4,2.979,2.485,2.485,0,0,1-1.259,2.293.774.774,0,0,0-.524.923.757.757,0,0,0,.923.524Z" transform="translate(-143.265 -300.049)" fill="#da725a"/>
    </g>
    <path id="Tracé_630" data-name="Tracé 630" d="M447.221,407.017a12.224,12.224,0,0,1-1.813,11.947.775.775,0,0,0,0,1.061.757.757,0,0,0,1.061,0,13.709,13.709,0,0,0,2.2-13.4.774.774,0,0,0-.923-.525.757.757,0,0,0-.524.923h0Z" transform="translate(-311.767 -284.366)" fill="#da725a"/>
    <path id="Tracé_631" data-name="Tracé 631" d="M447.941,400c2.167-.983,2.311-3.662,1.966-5.692a11.87,11.87,0,0,0-2.506-5.425,11.64,11.64,0,0,0-2.521-2.3.754.754,0,0,0-1.1.447c-.683,2.515-1.337,5.11-.887,7.727a9.234,9.234,0,0,0,3.279,5.542.772.772,0,0,0,1.061,0,.754.754,0,0,0,0-1.061,7.972,7.972,0,0,1-2.892-4.882c-.4-2.323.285-4.705.887-6.929l-1.1.447a10.318,10.318,0,0,1,3.851,4.987c.611,1.705,1.322,4.876-.794,5.838a.755.755,0,0,0-.27,1.025.769.769,0,0,0,1.025.27h0Z" transform="translate(-310.05 -270.644)" fill="#da725a"/>
    <path id="Tracé_632" data-name="Tracé 632" d="M36.729,377.456c.249-1.543.53-3.078.728-4.631a9.274,9.274,0,0,0-.758-5.632,7.08,7.08,0,0,0-2.838-2.539.75.75,0,0,0-.755,1.295,5.2,5.2,0,0,1,2.542,2.5,8.613,8.613,0,0,1,.4,3.591,24.638,24.638,0,0,1-.336,2.485c-.135.845-.285,1.687-.42,2.53a.775.775,0,0,0,.524.923.758.758,0,0,0,.923-.525h0Z" transform="translate(-22.927 -255.291)" fill="#da725a"/>
    <path id="Tracé_633" data-name="Tracé 633" d="M25.659,357.167a14.782,14.782,0,0,0-.755-5.772,6.326,6.326,0,0,0-1.424-2.386,8.954,8.954,0,0,0-2.982-1.9,8.781,8.781,0,0,0-3.9-.593.768.768,0,0,0-.722.551,9.522,9.522,0,0,0,1.034,6.105,9.167,9.167,0,0,0,4.574,4.043,9.3,9.3,0,0,0,3.42.707.75.75,0,0,0,0-1.5,7.922,7.922,0,0,1-5.829-2.73,7.8,7.8,0,0,1-1.756-6.228l-.722.551a7.539,7.539,0,0,1,5.554,1.813,7.061,7.061,0,0,1,1.894,4.469,15.877,15.877,0,0,1,.108,2.874c-.051.959,1.448.962,1.5,0h0Z" transform="translate(-11.033 -242.642)" fill="#da725a"/>
    <path id="Tracé_634" data-name="Tracé 634" d="M138.466,361.1c.066-.722.12-1.448.186-2.17.039-.45.081-.9.126-1.343.021-.195.039-.39.063-.584.012-.1.021-.195.033-.291.006-.045.039-.306.021-.177a11.784,11.784,0,0,1,.653-2.562,4.407,4.407,0,0,1,1.5-2.143,1.139,1.139,0,0,0,.135-.069c-.126.108-.15.057-.051.024.045-.015.09-.033.135-.051.2-.072.411-.135.614-.195.581-.171,1.172-.321,1.759-.465,1.433-.354,2.871-.677,4.31-1,1.052-.234,2.122-.429,3.162-.71a.75.75,0,0,0-.4-1.445c-.935.255-1.864.423-2.793.629-1.49.33-2.976.662-4.46,1.025-.626.153-1.253.312-1.873.489a6.109,6.109,0,0,0-1.229.435,5.036,5.036,0,0,0-1.834,2.119,11.3,11.3,0,0,0-1.007,3.087c-.327,1.771-.39,3.6-.551,5.392a.755.755,0,0,0,.749.749.765.765,0,0,0,.749-.749h0Z" transform="translate(-95.913 -243.624)" fill="#da725a"/>
    <path id="Tracé_635" data-name="Tracé 635" d="M159.489,342.816a15.385,15.385,0,0,1,2.338-2.44,7.878,7.878,0,0,1,2.778-1.633,6.1,6.1,0,0,1,3.291.15,7.507,7.507,0,0,1,3.15,1.843l-.117-.908a7.756,7.756,0,0,1-11.557,2.077.775.775,0,0,0-1.061,0,.757.757,0,0,0,0,1.061,9.5,9.5,0,0,0,5.973,2.161,9.255,9.255,0,0,0,5.662-1.975,9.358,9.358,0,0,0,2.275-2.566.762.762,0,0,0-.117-.908,9.085,9.085,0,0,0-6.075-2.583,8.106,8.106,0,0,0-5.527,2.449,16.836,16.836,0,0,0-2.308,2.515.754.754,0,0,0,.27,1.025.768.768,0,0,0,1.025-.27h0Z" transform="translate(-110.705 -236.062)" fill="#da725a"/>
    <g id="Groupe_331" data-name="Groupe 331" transform="translate(124.211 122.671)">
      <path id="Tracé_636" data-name="Tracé 636" d="M420.653,413.77a3.728,3.728,0,0,0,1.031-2.59,1.959,1.959,0,0,0-1.753-1.879,2.248,2.248,0,0,0-2.107,1.678,3.275,3.275,0,0,0,.515,2.847l.447-1.1a6.631,6.631,0,0,1-1.313.186,2.576,2.576,0,0,0-1.313.575,2.115,2.115,0,0,0-.554,2.533,2.091,2.091,0,0,0,2.323,1,4.131,4.131,0,0,0,2.209-1.6l-1.253-.33c.339,2,3.168,3.483,4.792,1.912a1.908,1.908,0,0,0-.4-2.889c-.962-.7-2.341-.575-3.468-.617-.965-.036-.962,1.463,0,1.5a8.629,8.629,0,0,1,2.293.186.86.86,0,0,1,.575.486c.048.123.033.2-.1.315a1.317,1.317,0,0,1-1.358-.039,1.688,1.688,0,0,1-.887-1.247.747.747,0,0,0-1.253-.33,3.493,3.493,0,0,1-1.253,1.142c-.288.114-.761.153-.905-.195-.153-.375.171-.731.5-.86a2.608,2.608,0,0,1,.746-.1,3.859,3.859,0,0,0,1.013-.174.755.755,0,0,0,.447-1.1,1.954,1.954,0,0,1-.417-1.493c.051-.294.309-.791.614-.788.135,0,.213.093.288.246a.837.837,0,0,1,.078.516,3.51,3.51,0,0,1-.836,1.466.752.752,0,0,0,.27,1.025.767.767,0,0,0,1.025-.27h0Z" transform="translate(-415.11 -409.298)" fill="#da725a"/>
      <path id="Tracé_637" data-name="Tracé 637" d="M417.833,428.777c.012.033.015.075.03.108-.081-.183,0-.147-.015-.033a1.36,1.36,0,0,0-.009.156c.006-.24.006-.045-.009.021a6.738,6.738,0,0,1-.24.806,9.656,9.656,0,0,1-.387.923c-.171.366-.351.725-.536,1.082-.363.689-.749,1.364-1.169,2.02-.165.258-.336.513-.518.761-.03.039-.177.216-.027.036-.036.042-.069.087-.1.129a2.084,2.084,0,0,1-.177.186c-.71.656.351,1.711,1.061,1.061a5.589,5.589,0,0,0,.8-1.019c.342-.5.656-1.025.959-1.555a18.69,18.69,0,0,0,1.657-3.543,2.484,2.484,0,0,0,.135-1.534.774.774,0,0,0-.923-.524.757.757,0,0,0-.524.923h0Z" transform="translate(-414.436 -422.276)" fill="#da725a"/>
    </g>
    <path id="Tracé_638" data-name="Tracé 638" d="M285.306,249.738l2.652.53a134.691,134.691,0,0,1,8.56,12.2q1.511,2.432,2.838,4.783a.659.659,0,0,0,1.232-.342v-.027c-.1-4.256.087-8.931.51-18.276.255-5.623.513-9.843.513-9.843h6.477s-2.452,16.985-2.386,27.78c0,.279.006.56.009.848a1.4,1.4,0,0,0,2.473.875l.015-.018a19.988,19.988,0,0,0,1.987-3.294c1.244-2.386.935-9.438-1.478-18.234l1.762.839a50.115,50.115,0,0,1,1.475,7.625c.48,4.208.719,6.312.171,8.919-1.031,4.885-3.471,5.311-5,11.476l-.006.024a9.381,9.381,0,0,0-.111,3.938c1.211,6.582,3.432,15.693,7.31,23.584-3.333.075-6.666-2.245-10-2.17-.216-1.552,2.356-5.152-2.955-23.407a82.923,82.923,0,0,0-16.056-27.8Z" transform="translate(-199.792 -167.201)" fill="#da725a"/>
    <g id="Groupe_335" data-name="Groupe 335" transform="translate(0 28.684)">
      <g id="Groupe_332" data-name="Groupe 332" transform="translate(43.459 10.771)">
        <path id="Tracé_639" data-name="Tracé 639" d="M157.57,149.087a14.714,14.714,0,0,1,4.034-.261c3.456.411,6.645,2.548,10.124,1.337,3.117-1.085,6.039-2.1,7.1-5.629a7.8,7.8,0,0,0-3.375-8.674c-3.021-1.8-6.672-1.241-9.9-.429-3.588.9-7.241,1.511-10.808,2.53-2.817.806-6.171,1.891-6.681,5.239a5.546,5.546,0,0,0,3.123,5.724c2.053.92,4.223.516,6.39.165Z" transform="translate(-147.105 -133.761)" fill="#fff"/>
        <path id="Tracé_640" data-name="Tracé 640" d="M167.4,149.311a16.319,16.319,0,0,1-4.655-.911,19.949,19.949,0,0,0-3.351-.8,13.8,13.8,0,0,0-3.785.255l-.249.042c-2.176.354-4.43.719-6.651-.273a6.461,6.461,0,0,1-3.645-6.678c.617-4.052,4.813-5.251,7.322-5.97,2.116-.605,4.283-1.073,6.381-1.526,1.466-.318,2.985-.644,4.457-1.013,3.375-.845,7.268-1.445,10.583.527a8.674,8.674,0,0,1,3.776,9.7c-1.19,3.965-4.478,5.113-7.661,6.219a7.586,7.586,0,0,1-2.521.42Zm-8.9-3.561a9.287,9.287,0,0,1,1.112.063,21.674,21.674,0,0,1,3.656.863c2.089.623,4.061,1.214,6.066.516,3.009-1.049,5.6-1.951,6.531-5.038a6.923,6.923,0,0,0-2.973-7.643c-2.751-1.639-6.207-1.085-9.225-.33-1.5.378-3.033.707-4.514,1.025-2.068.447-4.2.908-6.264,1.5-2.949.842-5.629,1.822-6.039,4.511a4.607,4.607,0,0,0,2.6,4.765c1.729.773,3.624.465,5.626.141l.252-.042a19.93,19.93,0,0,1,3.174-.33Z" transform="translate(-145.003 -131.644)" fill="#da725a"/>
      </g>
      <g id="Groupe_333" data-name="Groupe 333" transform="translate(0 12.257)">
        <path id="Tracé_641" data-name="Tracé 641" d="M23.32,140.557c-4.391.6-9.273,1.07-13.346,2.943-3.956,1.819-7.777,5.718-6.827,10.391,1.37,6.738,9.492,5.958,13.973,3.12.408,1.07,2,4.855,5.808,6.417a11.038,11.038,0,0,0,9.177-.743,15.029,15.029,0,0,0,4.3-3.4c.659-.746,1.067-1.819,1.987-1.831,1.016-.012,2.464.956,3.525,1.163a7.176,7.176,0,0,0,4.151-.3,5.433,5.433,0,0,0,2.919-3.018c1.019-2.655-.279-6.363-1.346-8.856a11.074,11.074,0,0,0-6.324-5.712c-3.543-1.334-7.451-1.22-11.221-.914q-3.4.274-6.779.74Z" transform="translate(-2.101 -138.717)" fill="#fff"/>
        <path id="Tracé_642" data-name="Tracé 642" d="M24.43,162.9a10.32,10.32,0,0,1-3.941-.755,11.731,11.731,0,0,1-5.9-5.967c-2.9,1.52-7.07,2.4-10.331,1.013a6.887,6.887,0,0,1-4.1-5.236c-1.031-5.065,2.94-9.369,7.334-11.386,3.722-1.711,7.951-2.269,12.045-2.808l1.556-.207h0c2.263-.312,4.559-.56,6.83-.743,3.6-.291,7.757-.48,11.611.968a12.011,12.011,0,0,1,6.833,6.2c1.78,4.157,2.224,7.277,1.358,9.531a6.3,6.3,0,0,1-3.408,3.525,8.063,8.063,0,0,1-4.672.351,8.682,8.682,0,0,1-1.7-.605,5.437,5.437,0,0,0-1.639-.542h-.009c-.2,0-.486.4-.755.782a8.879,8.879,0,0,1-.566.743,15.8,15.8,0,0,1-4.562,3.6,13.059,13.059,0,0,1-5.994,1.532Zm-8.961-9.351.393,1.028c.507,1.328,2.041,4.565,5.311,5.907a10.078,10.078,0,0,0,8.422-.71,14.111,14.111,0,0,0,4.046-3.195c.15-.171.294-.375.447-.587a2.811,2.811,0,0,1,2.206-1.547,6.319,6.319,0,0,1,2.383.689,7.357,7.357,0,0,0,1.325.489,6.4,6.4,0,0,0,3.629-.243,4.546,4.546,0,0,0,2.431-2.515c.689-1.8.255-4.472-1.334-8.179a10.192,10.192,0,0,0-5.814-5.224c-3.507-1.319-7.43-1.136-10.835-.86-2.236.18-4.5.429-6.729.734h0c-.516.072-1.037.141-1.564.21-3.959.521-8.053,1.061-11.53,2.658-3.746,1.723-7.154,5.3-6.321,9.393a5.086,5.086,0,0,0,3.039,3.938c2.889,1.232,7,.228,9.573-1.4l.929-.587Z" transform="translate(0 -136.602)" fill="#da725a"/>
      </g>
      <g id="Groupe_334" data-name="Groupe 334" transform="translate(13.234)">
        <path id="Tracé_643" data-name="Tracé 643" d="M79.338,104.141c3.027-1.594,7.145-1.891,9.7.731a8.53,8.53,0,0,1,1.969,7.966c-1.232,4.508-6.2,6.495-10.148,6.7a12.084,12.084,0,0,1-4.4-.6,12.63,12.63,0,0,1-2.269-1c-.519-.294-1.421-1.262-1.975-1.3-1.4-.108-3.4,1.816-4.78,2.248A20.231,20.231,0,0,1,50.206,116.4a7.238,7.238,0,0,1-2.643-2.742,5.126,5.126,0,0,1-.4-1.927c-.051-2.509,1.636-4.472,2.82-5.817a19.839,19.839,0,0,1,5.727-4.457,21.232,21.232,0,0,1,14.227-2.389,20.206,20.206,0,0,1,9.4,5.071Z" transform="translate(-46.264 -97.789)" fill="#fff"/>
        <path id="Tracé_644" data-name="Tracé 644" d="M47.592,115.066a8.171,8.171,0,0,1-2.952-3.1,5.89,5.89,0,0,1-.483-2.3c-.06-2.91,1.885-5.113,3.045-6.432a20.823,20.823,0,0,1,5.988-4.661,22.264,22.264,0,0,1,14.818-2.473,21.224,21.224,0,0,1,9.36,4.885c3.042-1.364,7.346-1.762,10.2,1.172A9.446,9.446,0,0,1,89.761,111c-1.3,4.762-6.447,7.127-10.969,7.361a12.939,12.939,0,0,1-4.732-.647,13.731,13.731,0,0,1-2.431-1.076,6.1,6.1,0,0,1-.8-.59,5.167,5.167,0,0,0-.83-.6,5.871,5.871,0,0,0-2.323,1.106,9.745,9.745,0,0,1-2.089,1.109,21.052,21.052,0,0,1-6.072.953h-.222a20.845,20.845,0,0,1-11.707-3.543Zm22.58-1.415a3.612,3.612,0,0,1,1.8,1,5.789,5.789,0,0,0,.548.42,11.81,11.81,0,0,0,2.107.935,11.184,11.184,0,0,0,4.076.56c3.875-.2,8.263-2.143,9.33-6.039a7.6,7.6,0,0,0-1.747-7.1c-2.395-2.458-6.156-1.87-8.638-.563l-.551.291-.465-.417a19.511,19.511,0,0,0-8.979-4.861,20.244,20.244,0,0,0-13.634,2.308,18.912,18.912,0,0,0-5.467,4.253c-1.052,1.193-2.643,3-2.6,5.206a4.31,4.31,0,0,0,.306,1.556,6.522,6.522,0,0,0,2.338,2.386,19.344,19.344,0,0,0,10.715,3.237H59.5a19.165,19.165,0,0,0,5.554-.872,8.816,8.816,0,0,0,1.666-.911,6.778,6.778,0,0,1,3.267-1.382c.063,0,.123,0,.186.006Z" transform="translate(-44.155 -95.706)" fill="#da725a"/>
      </g>
    </g>
    <g id="Groupe_336" data-name="Groupe 336" transform="translate(98.272 81.154)">
      <path id="Tracé_645" data-name="Tracé 645" d="M341.256,289.4a15.884,15.884,0,0,1,4.373-.282c3.746.444,7.2,2.76,10.972,1.448,3.378-1.178,6.543-2.278,7.691-6.1a8.444,8.444,0,0,0-3.659-9.4c-3.273-1.948-7.229-1.343-10.733-.465-3.887.974-7.849,1.636-11.713,2.742-3.054.872-6.687,2.05-7.238,5.68a6,6,0,0,0,3.384,6.2c2.227,1,4.574.56,6.923.18Z" transform="translate(-329.99 -272.877)" fill="#fff"/>
      <path id="Tracé_646" data-name="Tracé 646" d="M352.091,289.764a17.638,17.638,0,0,1-5.023-.983,22.2,22.2,0,0,0-3.644-.869,15.011,15.011,0,0,0-4.124.279l-.27.045c-2.35.381-4.777.776-7.163-.291a6.931,6.931,0,0,1-3.908-7.157c.662-4.343,5.179-5.635,7.879-6.408,2.293-.656,4.64-1.163,6.911-1.651,1.588-.342,3.234-.7,4.831-1.1,3.641-.911,7.843-1.559,11.41.566a9.32,9.32,0,0,1,4.058,10.43c-1.277,4.262-4.825,5.5-8.254,6.69a8.159,8.159,0,0,1-2.706.45Zm-9.651-3.707a9.952,9.952,0,0,1,1.193.069,23.537,23.537,0,0,1,3.947.932c2.275.68,4.427,1.325,6.621.557,3.279-1.142,6.111-2.128,7.124-5.509a7.575,7.575,0,0,0-3.258-8.368c-3.006-1.789-6.767-1.19-10.052-.366-1.624.408-3.285.764-4.888,1.112-2.242.483-4.562.983-6.794,1.624-3.219.92-6.147,1.993-6.6,4.948A5.076,5.076,0,0,0,332.6,286.3c1.894.848,3.956.512,6.141.156l.273-.045a21.491,21.491,0,0,1,3.429-.357Z" transform="translate(-327.889 -270.776)" fill="#da725a"/>
    </g>
    <g id="Groupe_337" data-name="Groupe 337" transform="translate(57.868 74.636)">
      <path id="Tracé_647" data-name="Tracé 647" d="M218.093,253.054c-4.756.653-10.046,1.16-14.464,3.189-4.286,1.969-8.428,6.2-7.4,11.26,1.484,7.3,10.286,6.456,15.144,3.381.444,1.16,2.17,5.26,6.3,6.953a11.965,11.965,0,0,0,9.947-.806,16.352,16.352,0,0,0,4.663-3.68c.716-.809,1.157-1.972,2.152-1.984,1.1-.012,2.67,1.034,3.818,1.259a7.8,7.8,0,0,0,4.5-.321,5.9,5.9,0,0,0,3.165-3.273c1.106-2.88-.3-6.9-1.46-9.6a12,12,0,0,0-6.854-6.189c-3.839-1.445-8.074-1.322-12.162-.992q-3.682.3-7.346.8Z" transform="translate(-195.174 -251.138)" fill="#fff"/>
      <path id="Tracé_648" data-name="Tracé 648" d="M219.475,277.368a11.149,11.149,0,0,1-4.241-.812,12.688,12.688,0,0,1-6.384-6.5c-3.126,1.66-7.664,2.637-11.2,1.13a7.384,7.384,0,0,1-4.394-5.62c-1.109-5.449,3.171-10.079,7.9-12.255,4.022-1.849,8.6-2.452,13.031-3.036l1.684-.225h0c2.449-.336,4.936-.608,7.4-.806,3.89-.315,8.389-.519,12.549,1.046a12.946,12.946,0,0,1,7.364,6.678c1.921,4.487,2.4,7.846,1.472,10.274A6.752,6.752,0,0,1,241,271.023a8.646,8.646,0,0,1-5.02.375,9.326,9.326,0,0,1-1.822-.65,5.945,5.945,0,0,0-1.8-.593h-.009c-.24,0-.5.351-.878.881a9.464,9.464,0,0,1-.611.8,17.062,17.062,0,0,1-4.924,3.884,14.061,14.061,0,0,1-6.459,1.651Zm-9.75-9.947.393,1.028c.554,1.448,2.227,4.978,5.8,6.444a10.987,10.987,0,0,0,9.189-.773,15.319,15.319,0,0,0,4.406-3.48A7.676,7.676,0,0,0,230,270a2.974,2.974,0,0,1,2.329-1.642h.027a6.828,6.828,0,0,1,2.524.74,8.071,8.071,0,0,0,1.451.534,6.993,6.993,0,0,0,3.977-.267,5,5,0,0,0,2.673-2.766c.755-1.966.282-4.885-1.445-8.919a11.113,11.113,0,0,0-6.345-5.7c-3.815-1.436-8.077-1.235-11.773-.935-2.425.195-4.879.465-7.3.794h0c-.557.078-1.124.15-1.7.228-4.3.566-8.74,1.154-12.516,2.886-4.088,1.879-7.8,5.781-6.893,10.262a5.591,5.591,0,0,0,3.339,4.322c3.156,1.346,7.643.252,10.445-1.523l.929-.587Z" transform="translate(-193.08 -249.026)" fill="#da725a"/>
    </g>
    <g id="Groupe_338" data-name="Groupe 338" transform="translate(73.437 66.707)">
      <path id="Tracé_649" data-name="Tracé 649" d="M282.878,242.869c3.279,1.729,7.745,1.723,10.511-1.118a9.249,9.249,0,0,0,2.134-8.635c-1.337-4.885-6.716-7.04-11-7.259a13.119,13.119,0,0,0-4.771.653,13.5,13.5,0,0,0-2.458,1.091c-.563.318-1.538,1.367-2.14,1.412-1.517.117-3.683-1.969-5.182-2.437a21.948,21.948,0,0,0-18.672,2.682,7.859,7.859,0,0,0-2.865,2.97,5.593,5.593,0,0,0-.429,2.086c-.057,2.718,1.771,4.846,3.057,6.306a21.47,21.47,0,0,0,6.207,4.828,23,23,0,0,0,15.417,2.589,21.964,21.964,0,0,0,10.184-5.17Z" transform="translate(-247.112 -224.682)" fill="#fff"/>
      <path id="Tracé_650" data-name="Tracé 650" d="M261.361,222.573h.237a22.714,22.714,0,0,1,6.558,1.031A10.3,10.3,0,0,1,270.4,224.8,6.392,6.392,0,0,0,272.974,226a5.29,5.29,0,0,0,.932-.665,6.555,6.555,0,0,1,.857-.632,14.581,14.581,0,0,1,2.619-1.16,13.94,13.94,0,0,1,5.1-.7c4.873.252,10.418,2.8,11.821,7.921a10.161,10.161,0,0,1-2.356,9.5c-3.084,3.168-7.742,3.042-11.014,1.559a22.834,22.834,0,0,1-10.145,4.981,24.031,24.031,0,0,1-16.011-2.673,22.434,22.434,0,0,1-6.468-5.032c-1.253-1.421-3.348-3.794-3.282-6.917a6.4,6.4,0,0,1,.516-2.461,8.782,8.782,0,0,1,3.174-3.327,22.522,22.522,0,0,1,12.645-3.827Zm11.584,5.23a7.3,7.3,0,0,1-3.5-1.487,9.536,9.536,0,0,0-1.822-1,20.926,20.926,0,0,0-6.039-.947h-.21a21.042,21.042,0,0,0-11.653,3.519,7.146,7.146,0,0,0-2.56,2.613,4.659,4.659,0,0,0-.339,1.714c-.051,2.422,1.684,4.391,2.832,5.691a20.667,20.667,0,0,0,5.946,4.625,22.006,22.006,0,0,0,14.824,2.509,21.144,21.144,0,0,0,9.768-4.96l.465-.417.551.291c2.712,1.43,6.827,1.741,9.45-.95a8.3,8.3,0,0,0,1.909-7.768c-1.163-4.256-5.949-6.381-10.178-6.6a12.1,12.1,0,0,0-4.445.611,12.786,12.786,0,0,0-2.3,1.019,6.308,6.308,0,0,0-.605.462,3.861,3.861,0,0,1-1.909,1.067c-.063.006-.129.006-.195.006Z" transform="translate(-245.025 -222.57)" fill="#da725a"/>
    </g>
    <g id="Groupe_339" data-name="Groupe 339" transform="translate(33.561 2.519)">
      <path id="Tracé_651" data-name="Tracé 651" d="M338.881,34.648c-.6-.4-.593-.743-.081-1.178a3.12,3.12,0,0,0,.929-1.334,2.3,2.3,0,0,1,1.025-.962,7.836,7.836,0,0,0,.98-.788,1.517,1.517,0,0,1,.8-.333.878.878,0,0,1,.3.051c-.009.417.528.644.318,1.16-.327.8-.542,1.639-.815,2.458a5.228,5.228,0,0,1-.809,1.612c-.6.767-.4,1.217.554,1.427.108.024.219.036.327.057.273.057.512.186.509.489s-.312.252-.5.321c-.1.036-.213.054-.321.084-1.106.321-1.247.566-.806,1.654a15.852,15.852,0,0,1,.677,3.674c.048.327.039.785-.285.932-.381.177-.749-.108-1.01-.4A7.134,7.134,0,0,1,339,41.319c-.165-.474-.569-.815-.755-1.307a2.487,2.487,0,0,1-.285-1.831.354.354,0,0,0-.174-.423.559.559,0,0,0-.671-.042,8.224,8.224,0,0,0-.9.629.665.665,0,0,1-.851.045c-1.609-.9-.836-3.072.192-3.782a.412.412,0,0,1,.587.1c.357.381.83.608,1.214.95a.993.993,0,0,0,.495.231c.282.051.557.09.384-.36-.024-.063.018-.156-.009-.219-.246-.572-.054-.806.656-.668Z" transform="translate(-267.761 -23.563)" fill="#da725a"/>
      <path id="Tracé_652" data-name="Tracé 652" d="M212.152,30.41a2.762,2.762,0,0,1-.408,1.4c-.4.707-.273.965.507,1.187.09.024.18.045.267.072.291.087.605.231.644.53.048.357-.363.276-.569.393a2.6,2.6,0,0,1-.516.192c-.839.255-.812.246-.626,1.085a8.225,8.225,0,0,1-.641,5.053.579.579,0,0,1-.65.4.638.638,0,0,1-.6-.489c-.366-1.535-1-3-1.241-4.568a4.049,4.049,0,0,1-.012-1.043c.045-.39-.132-.5-.468-.486-.366.021-.731.066-1.1.087-.333.018-.716.042-.854-.339a1.465,1.465,0,0,1,.252-1.409c.222-.3.536-.246.857-.153a9.68,9.68,0,0,0,1.022.222c.264.045.447-.072.435-.354-.045-1.079.617-1.948.866-2.943.2-.8.56-1.553.7-2.371a.848.848,0,0,1,.725-.788c.435-.069.632.264.764.59a11.334,11.334,0,0,1,.641,3.737Z" transform="translate(-177.681 -20.782)" fill="#da725a"/>
      <path id="Tracé_653" data-name="Tracé 653" d="M400.922,112.09a2.762,2.762,0,0,1-.408,1.4c-.4.707-.273.965.507,1.187.09.024.18.045.267.072.291.087.605.231.644.53.048.357-.363.276-.569.393a2.529,2.529,0,0,1-.516.192c-.839.255-.812.246-.626,1.085a8.224,8.224,0,0,1-.641,5.053.579.579,0,0,1-.65.4.638.638,0,0,1-.6-.489c-.366-1.535-1-3-1.241-4.568a3.922,3.922,0,0,1-.012-1.043c.045-.39-.132-.5-.468-.486-.366.021-.731.066-1.1.087-.333.018-.716.042-.854-.339a1.465,1.465,0,0,1,.252-1.409c.222-.3.536-.246.857-.153a9.676,9.676,0,0,0,1.022.222c.264.045.447-.072.435-.354-.045-1.079.617-1.948.866-2.943.2-.8.56-1.553.7-2.371a.848.848,0,0,1,.725-.788c.435-.069.632.264.764.59a11.335,11.335,0,0,1,.641,3.737Z" transform="translate(-309.875 -77.982)" fill="#da725a"/>
      <path id="Tracé_654" data-name="Tracé 654" d="M314.7,143.177a4.925,4.925,0,0,1-2.176-.716,1.525,1.525,0,0,1-.108-2.209,3.089,3.089,0,0,1,.92-.689.615.615,0,0,1,.872.177,3.279,3.279,0,0,0,.881.9c.135.075.336.183.462.051.162-.174-.1-.222-.171-.33a.619.619,0,0,1-.06-.534,5.055,5.055,0,0,0-.03-2.664c-.051-.327-.231-.758.441-.587.216.057.264-.177.123-.273-.432-.291.084-.887-.408-1.16-.072-.039.1-.159.213-.147a.937.937,0,0,1,.513.306,15.55,15.55,0,0,1,1.9,2.218,1.95,1.95,0,0,1,.288,1.636c-.036.162-.1.315-.141.477-.279,1.013-.108,1.247.944,1.3.225.012.471.009.554.264.1.3-.195.375-.363.474a6.953,6.953,0,0,1-3.282.818c-.3.015-.533.018-.632.372-.1.381-.447.312-.74.318Z" transform="translate(-252.05 -97.056)" fill="#da725a"/>
      <path id="Tracé_655" data-name="Tracé 655" d="M281.67,102.935a3.593,3.593,0,0,0-.95-2.383c-.177-.249-.614-.441-.351-.818s.605-.09.9.018a9.619,9.619,0,0,1,2.392,1.355,1.539,1.539,0,0,1,.746,1.927c-.21.569.06.908.665,1.016.072.012.147.012.219.021.306.03.722-.024.755.375.03.351-.4.291-.635.39-.306.129-.614.207-.722.6a.932.932,0,0,1-.545.519,8.472,8.472,0,0,1-3.225.872c-.144.012-.318.033-.39-.129-.093-.207.09-.291.222-.384a3.367,3.367,0,0,0,.8-.671c.075-.1.207-.189.123-.333-.066-.111-.195-.087-.3-.078-.513.048-1.022.108-1.535.156a.729.729,0,0,1-.893-.536c-.162-.572.111-.944.716-.923.384.012.767.093,1.154.1.722.015.818-.087.854-.809.006-.093,0-.183,0-.276Z" transform="translate(-228.869 -72.234)" fill="#da725a"/>
      <path id="Tracé_656" data-name="Tracé 656" d="M156.792,11.523a1.575,1.575,0,0,1-.521,1.313c-.447.45-.351.68.279.848.195.051.45.075.486.3.048.285-.258.252-.42.336a1.815,1.815,0,0,1-.513.2c-.438.069-.614.27-.468.719a.729.729,0,0,1-.114.581,6.7,6.7,0,0,1-2.131,2.275c-.21.141-.465.315-.707.111-.222-.189-.072-.444.006-.665a4.749,4.749,0,0,0,.435-2.679c-.057-.246.294-.56.018-.7a1.494,1.494,0,0,0-1.124-.126c-.018.006-.036.009-.054.015-.294.06-.623.261-.836-.123a.974.974,0,0,1,.174-1.034c.225-.363.53-.2.836-.117.441.126.89.225,1.337.333.177.042.381.06.333-.195a1.88,1.88,0,0,1,.632-1.579,2.376,2.376,0,0,0,.7-1.454c.012-.3.108-.593.554-.435.279.1.306-.126.273-.321a1.478,1.478,0,0,0-.147-.351c-.048-.108-.222-.228-.072-.327.171-.114.27.081.321.2a7.144,7.144,0,0,1,.728,2.886Z" transform="translate(-139.329 -8.405)" fill="#da725a"/>
      <path id="Tracé_657" data-name="Tracé 657" d="M117.732,31.7a1.575,1.575,0,0,1-.521,1.313c-.447.45-.351.68.279.848.195.051.45.075.486.3.048.285-.258.252-.42.336a1.816,1.816,0,0,1-.513.2c-.438.069-.614.27-.468.719a.729.729,0,0,1-.114.581,6.7,6.7,0,0,1-2.131,2.275c-.21.141-.465.315-.707.111-.222-.189-.072-.444.006-.665a4.749,4.749,0,0,0,.435-2.679c-.057-.246.294-.56.018-.7a1.494,1.494,0,0,0-1.124-.126c-.018.006-.036.009-.054.015-.294.06-.623.261-.836-.123a.974.974,0,0,1,.174-1.034c.225-.363.53-.2.833-.117.441.126.89.225,1.337.333.177.042.381.06.333-.195a1.888,1.888,0,0,1,.632-1.579,2.376,2.376,0,0,0,.7-1.454c.012-.3.108-.593.554-.435.279.1.306-.126.273-.321a1.478,1.478,0,0,0-.147-.351c-.051-.108-.222-.228-.072-.327.171-.114.27.081.321.2a7.144,7.144,0,0,1,.728,2.886Z" transform="translate(-111.976 -22.537)" fill="#da725a"/>
    </g>
    <rect id="Rectangle_294" data-name="Rectangle 294" width="135.382" height="139.47" transform="translate(4.349)" fill="none"/>
    <path id="Tracé_658" data-name="Tracé 658" d="M133.659,347.85a5.719,5.719,0,0,0-.752-3.252,5.614,5.614,0,0,0-1.073-1.346,2.574,2.574,0,0,0-.812-.548,1.42,1.42,0,0,0-1.223.132,2.655,2.655,0,0,0-1.223,2.539,3.656,3.656,0,0,0,1.538,2.694,8.311,8.311,0,0,0,3.45,1.247.772.772,0,0,0,.923-.525.757.757,0,0,0-.525-.923c-.444-.084-.89-.174-1.328-.294-.2-.054-.4-.114-.587-.183a3.243,3.243,0,0,1-.53-.225,4.2,4.2,0,0,1-.548-.327,2.843,2.843,0,0,1-.414-.372c-.03-.033-.057-.066-.084-.1.021.024.075.114,0,0-.048-.075-.1-.147-.141-.222a2.227,2.227,0,0,1-.1-.207c-.051-.1.036.1,0,0-.018-.051-.039-.1-.054-.156a2.439,2.439,0,0,1-.066-.255c-.009-.042-.015-.087-.024-.129.006.03.012.15,0,.006-.006-.087-.012-.171-.012-.258,0-.042,0-.084,0-.129,0-.021.018-.2,0-.09-.012.09.024-.114.03-.147.021-.081.045-.159.072-.237-.054.156.027-.048.054-.1a1.184,1.184,0,0,1,.066-.1c.072-.117-.048.045.015-.015.03-.03.057-.06.084-.09s.114-.1.042-.042.147-.093.156-.1a.136.136,0,0,1-.069.006.819.819,0,0,1,.252.2,3.734,3.734,0,0,1,.755.9,4.182,4.182,0,0,1,.629,2.634.755.755,0,0,0,.749.749.763.763,0,0,0,.749-.749h0Z" transform="translate(-90.033 -239.934)" fill="#da725a"/>
  </g>
</svg>
