<svg id="Groupe_274" data-name="Groupe 274" xmlns="http://www.w3.org/2000/svg" xmlns:xlink="http://www.w3.org/1999/xlink" width="140" height="131.576" viewBox="0 0 140 131.576">
  <defs>
    <clipPath id="clip-path">
      <rect id="Rectangle_247" data-name="Rectangle 247" width="140" height="131.576" fill="none"/>
    </clipPath>
  </defs>
  <g id="Groupe_252" data-name="Groupe 252" clip-path="url(#clip-path)">
    <path id="Tracé_358" data-name="Tracé 358" d="M354.971,218.017s1.934.424,2.1-1.838-.2-2.7-.916-2.772-1.507-.077-1.507-.077l.316,4.691Z" transform="translate(-244.923 -147.326)" fill="#fddfc1"/>
    <path id="Tracé_359" data-name="Tracé 359" d="M400.56,136.72s-2.444.114-2.268,1.222,1.216,4.118,3.873,3.666a48.377,48.377,0,0,0-1.6-4.889Z" transform="translate(-275.054 -94.419)" fill="#fddfc1"/>
    <path id="Tracé_360" data-name="Tracé 360" d="M363.723,133.363c-2.707.507-2.819,3.728-2.506,7.4s4.752,15.649,4.768,20.767a17.181,17.181,0,0,1-1.055,6.494c-.056.133-.114.257-.173.374-.006.009-.009.019-.015.028-.059.111-.114.22-.173.316a.175.175,0,0,1-.015.025,3.205,3.205,0,0,1-.183.272v.006c-.068.084-.13.161-.195.226a2.171,2.171,0,0,1-.179.167.055.055,0,0,1-.022.015,1.159,1.159,0,0,1-.17.105c-.009,0-.015.009-.025.012a.7.7,0,0,1-.167.053H363.6a.524.524,0,0,1-.17,0c-.381-.068-1.108-1.033-1.912-2.37a35.925,35.925,0,0,1-3.592-7.887c-.665-2.862-3.388-3.725-5.551-3.908a2.768,2.768,0,0,0-.316-.009h-.034c-2.023.012-1.463,2.447-1.392,3.564.241,3.719.842,12.351,1.309,13.759.6,1.8,7.017,15.866,7.017,15.866l-10.232,29.891,20.569,3.1,10.575-58.916s.411-.842-1.429-4.944-7.757-18.233-8.307-19.155a3.581,3.581,0,0,0-2.751-1.148c-.155-.464-.254-.777-.285-.9-.291-1.231-.659-3.716-3.366-3.208Z" transform="translate(-240.828 -92.052)" fill="#fff"/>
    <path id="Tracé_361" data-name="Tracé 361" d="M367.254,220.617l-22.561-3.4,10.473-30.6c-1-2.2-6.34-13.932-6.9-15.622-.461-1.383-.99-8.372-1.355-13.991-.009-.136-.025-.291-.043-.458-.109-1.03-.257-2.438.572-3.366a2.3,2.3,0,0,1,1.785-.73h.04a3.46,3.46,0,0,1,.393.012c3.487.294,5.752,1.937,6.377,4.622a34.906,34.906,0,0,0,3.484,7.617,11.951,11.951,0,0,0,1.25,1.8l.037-.046.053-.068c.04-.056.077-.114.118-.176.062-.1.108-.186.155-.278l.012-.022c.053-.1.1-.21.152-.325a16.457,16.457,0,0,0,.981-6.129c-.006-2.862-1.5-8.094-2.812-12.713a56.989,56.989,0,0,1-1.949-7.976c-.229-2.676-.653-7.658,3.261-8.391,3.41-.637,4.118,2.488,4.384,3.666l.056.241s.019.068.071.241a3.961,3.961,0,0,1,2.856,1.544c.322.538,1.9,4.226,4.468,10.238,1.522,3.564,3.1,7.252,3.886,9.013,1.231,2.741,1.739,4.65,1.485,5.551L367.257,220.62Zm-20.086-4.9,18.576,2.8,10.442-58.158c.006-.238-.062-1.315-1.389-4.27-.8-1.776-2.373-5.47-3.9-9.044-1.81-4.242-4.062-9.517-4.356-10.018a2.88,2.88,0,0,0-1.971-.693l-.653-.012-.207-.622c-.226-.674-.282-.872-.306-.981l-.059-.26c-.4-1.77-.817-2.515-2.234-2.249-1.627.306-2.119,2.1-1.751,6.411a58.243,58.243,0,0,0,1.884,7.624c1.349,4.734,2.877,10.1,2.884,13.218a18.079,18.079,0,0,1-1.132,6.863c-.065.152-.13.294-.2.427l-.012.028c-.071.139-.139.263-.207.377l-.022.034c-.065.105-.13.207-.2.3l-.019.028a.125.125,0,0,1-.009.012l-.019.025c-.074.1-.148.186-.223.266l-.108.13-.046.025c-.05.046-.1.09-.155.133l-.034.025a1.985,1.985,0,0,1-.325.2l-.049.025a1.592,1.592,0,0,1-.393.121l-.087.009a1.449,1.449,0,0,1-.421-.012c-.464-.084-1.083-.377-2.543-2.8a37.035,37.035,0,0,1-3.7-8.156c-.548-2.355-2.871-3.038-4.725-3.193-.077-.006-.148-.006-.217-.006h-.034a.572.572,0,0,0-.427.114c-.278.312-.167,1.364-.109,1.931.022.195.041.374.05.532.483,7.45.968,12.633,1.262,13.527.461,1.386,4.768,10.925,6.98,15.773l.155.337-9.994,29.189Zm13.589-48.842.43.517-.433-.56v.046Zm-.133-.217h-.009l-.025.015.105.127-.009-.059-.065-.084Z" transform="translate(-238.045 -89.982)" fill="#da725a"/>
    <rect id="Rectangle_245" data-name="Rectangle 245" width="1.856" height="19.684" transform="matrix(0.975, -0.221, 0.221, 0.975, 125.352, 44.725)" fill="#da725a"/>
    <path id="Tracé_362" data-name="Tracé 362" d="M355.353,215.354a2.656,2.656,0,0,1-.371-.022l.26-1.838-.13.919.118-.922a2.175,2.175,0,0,0,1.717-.656c.656-.684,1.324-2.243.774-5.8l1.835-.285c.541,3.49.1,5.984-1.306,7.407a4.068,4.068,0,0,1-2.9,1.191Z" transform="translate(-245.15 -142.781)" fill="#da725a"/>
    <path id="Tracé_363" data-name="Tracé 363" d="M92.013,220.017s-1.934.424-2.1-1.838.2-2.7.916-2.772,1.507-.077,1.507-.077l-.316,4.69Z" transform="translate(-62.062 -148.707)" fill="#fddfc1"/>
    <path id="Tracé_364" data-name="Tracé 364" d="M43.258,138.72s2.445.114,2.268,1.222-1.216,4.118-3.874,3.666a48.3,48.3,0,0,1,1.6-4.889Z" transform="translate(-28.766 -95.8)" fill="#fddfc1"/>
    <path id="Tracé_365" data-name="Tracé 365" d="M19.174,135.363c2.707.507,2.819,3.728,2.506,7.4s-4.752,15.649-4.768,20.767a17.181,17.181,0,0,0,1.055,6.494c.056.133.115.257.174.374.006.009.009.019.015.028.059.111.114.22.173.316a.172.172,0,0,0,.015.025,3.128,3.128,0,0,0,.183.272v.006c.068.084.13.161.195.226a2.173,2.173,0,0,0,.179.167.057.057,0,0,0,.021.015,1.177,1.177,0,0,0,.17.105c.009,0,.015.009.025.012a.7.7,0,0,0,.167.053H19.3a.524.524,0,0,0,.17,0c.38-.068,1.108-1.033,1.912-2.37a35.925,35.925,0,0,0,3.592-7.887c.665-2.862,3.388-3.725,5.551-3.908a2.767,2.767,0,0,1,.316-.009h.034c2.023.012,1.463,2.447,1.392,3.564-.241,3.719-.842,12.351-1.309,13.759-.6,1.8-7.017,15.866-7.017,15.866l2.472,13.233-14.4,3.218L3.035,164.715s-.412-.842,1.429-4.944,7.757-18.233,8.307-19.155a3.582,3.582,0,0,1,2.751-1.148c.155-.464.254-.777.285-.9.291-1.231.659-3.716,3.366-3.208Z" transform="translate(-2.069 -93.433)" fill="#fff"/>
    <path id="Tracé_366" data-name="Tracé 366" d="M9.236,206.132.069,162.891c-.266-.891.242-2.806,1.482-5.569.789-1.757,2.361-5.442,3.883-9C8,142.3,9.586,138.612,9.9,138.074a3.96,3.96,0,0,1,2.856-1.544c.055-.173.068-.229.071-.241l.056-.241c.266-1.179.971-4.3,4.384-3.666,3.914.733,3.487,5.715,3.261,8.391a57.076,57.076,0,0,1-1.949,7.976c-1.315,4.619-2.806,9.854-2.813,12.713a16.521,16.521,0,0,0,.981,6.129c.05.114.1.223.152.325l.015.031q.065.13.139.251l.015.028c.037.062.077.124.118.179l.034.043c.019.025.037.046.053.068a12.174,12.174,0,0,0,1.25-1.8,34.975,34.975,0,0,0,3.484-7.617c.625-2.686,2.89-4.329,6.377-4.622a3.652,3.652,0,0,1,.412-.012h.04a2.288,2.288,0,0,1,1.764.73c.829.925.681,2.336.572,3.366-.019.167-.034.322-.043.458-.365,5.619-.894,12.608-1.355,13.991-.566,1.711-6.015,13.682-6.931,15.69l2.584,13.824L9.24,206.139ZM1.857,162.368l8.808,41.546L23.277,201.1l-2.361-12.642.121-.266c2.212-4.848,6.519-14.384,6.98-15.773.3-.891.78-6.077,1.262-13.527.01-.155.028-.337.05-.532.059-.566.17-1.621-.108-1.931a.567.567,0,0,0-.412-.114h-.05c-.068,0-.139,0-.216.006-1.853.158-4.177.838-4.721,3.193a36.951,36.951,0,0,1-3.7,8.156c-1.464,2.429-2.079,2.72-2.543,2.8a1.6,1.6,0,0,1-.44.012l-.065-.009a1.558,1.558,0,0,1-.393-.121l-.074-.034a1.817,1.817,0,0,1-.3-.189l-.037-.028a2.087,2.087,0,0,1-.2-.173l-.019-.012-.077-.084c-.087-.093-.161-.183-.235-.278l-.015-.022-.013-.015-.006-.006c-.074-.1-.142-.207-.213-.319l-.022-.034c-.068-.114-.136-.238-.208-.371l-.019-.034c-.068-.133-.133-.275-.2-.427a18.108,18.108,0,0,1-1.132-6.863c.01-3.119,1.538-8.484,2.884-13.218a57.755,57.755,0,0,0,1.884-7.627c.368-4.307-.124-6.1-1.751-6.411-1.417-.266-1.832.48-2.234,2.249l-.059.26c-.025.105-.08.306-.306.981l-.208.622-.653.012a2.881,2.881,0,0,0-1.971.693c-.294.5-2.549,5.78-4.359,10.025-1.526,3.57-3.1,7.262-3.9,9.038-1.352,3.014-1.4,4.075-1.39,4.282Z" transform="translate(0 -91.363)" fill="#da725a"/>
    <rect id="Rectangle_246" data-name="Rectangle 246" width="19.684" height="1.856" transform="translate(8.476 64.133) rotate(-77.21)" fill="#da725a"/>
    <path id="Tracé_367" data-name="Tracé 367" d="M86.424,217.368a4.068,4.068,0,0,1-2.9-1.191c-1.408-1.426-1.847-3.917-1.306-7.407l1.835.285c-.554,3.583.124,5.142.792,5.82a2.192,2.192,0,0,0,1.686.637l.26,1.838a3.364,3.364,0,0,1-.371.022Z" transform="translate(-56.627 -144.176)" fill="#da725a"/>
    <path id="Tracé_368" data-name="Tracé 368" d="M275.608,50.413a12.286,12.286,0,0,1-11.426,4.511,12.287,12.287,0,0,1,13.239-16.658,12.28,12.28,0,0,1-1.813,12.147" transform="translate(-181.852 -26.335)" fill="#fff"/>
    <path id="Tracé_369" data-name="Tracé 369" d="M273.011,52.65l4.743.009a.33.33,0,1,0,0-.659l-4.22-.006,2.15-2.707,3.5.006a.335.335,0,0,0,.331-.328.329.329,0,0,0-.328-.331l-2.98-.006,3.174-4a.328.328,0,1,0-.513-.408l-3.156,3.97-.541-2.741a.33.33,0,0,0-.653.046.372.372,0,0,0,.006.08l.65,3.292-2.135,2.689-.77-3.911a.328.328,0,0,0-.387-.26.332.332,0,0,0-.266.306.352.352,0,0,0,.006.08l.879,4.458-2.234,2.812-.541-2.744a.33.33,0,0,0-.653.046.354.354,0,0,0,.006.08l.65,3.292-1.513,1.9a.331.331,0,0,0-.071.189.328.328,0,0,0,.585.223l1.507-1.9,3.5.006a.333.333,0,0,0,.331-.328.329.329,0,0,0-.328-.331l-2.98-.006,2.249-2.831Z" transform="translate(-185.184 -30.453)" fill="#da725a"/>
    <path id="Tracé_370" data-name="Tracé 370" d="M268.114,57.979a.485.485,0,0,1-.483-.511.467.467,0,0,1,.105-.275l1.467-1.847-.634-3.221a.727.727,0,0,1-.009-.118.488.488,0,0,1,.39-.452.468.468,0,0,1,.362.074.475.475,0,0,1,.2.309l.476,2.413,1.983-2.494-.863-4.387a.782.782,0,0,1-.009-.118.488.488,0,0,1,.39-.452.468.468,0,0,1,.362.074.475.475,0,0,1,.2.309l.705,3.58,1.884-2.37-.634-3.221a.4.4,0,0,1-.009-.121.484.484,0,0,1,.39-.449.468.468,0,0,1,.362.074.475.475,0,0,1,.2.309l.477,2.413,2.949-3.71a.486.486,0,0,1,.681-.077.467.467,0,0,1,.179.325.476.476,0,0,1-.1.356l-2.976,3.744h2.661a.51.51,0,0,1,.343.145.493.493,0,0,1,.142.343.485.485,0,0,1-.483.483l-3.425-.006L273.5,51.5l3.9.006a.467.467,0,0,1,.34.142.486.486,0,0,1,0,.687.482.482,0,0,1-.34.139l-4.666-.009-2,2.522h2.661a.491.491,0,0,1,.483.489.485.485,0,0,1-.483.483l-3.425-.006-1.46,1.838a.485.485,0,0,1-.381.183Zm.931-6.123a.184.184,0,0,0-.034,0,.178.178,0,0,0-.142.161v.043l.662,3.363-1.556,1.959a.163.163,0,0,0-.037.1.184.184,0,0,0,.065.145.176.176,0,0,0,.244-.028l1.553-1.955,3.577.006a.174.174,0,0,0,.173-.176.161.161,0,0,0-.053-.121.173.173,0,0,0-.124-.053l-3.3-.006,2.5-3.14,4.817.009a.163.163,0,0,0,.124-.05.176.176,0,0,0-.124-.3l-4.542-.006,2.4-3.017,3.577.006a.178.178,0,0,0,.173-.176.18.18,0,0,0-.176-.176l-3.3-.006,3.376-4.248a.172.172,0,0,0,.037-.127.181.181,0,0,0-.065-.118.176.176,0,0,0-.244.028l-3.363,4.233-.606-3.072a.165.165,0,0,0-.074-.111.175.175,0,0,0-.13-.025.171.171,0,0,0-.139.161V45.2l.662,3.363-2.389,3.007-.835-4.239a.165.165,0,0,0-.074-.111.175.175,0,0,0-.13-.025.178.178,0,0,0-.142.161.22.22,0,0,0,0,.043l.891,4.527L269.8,55.061l-.606-3.072a.165.165,0,0,0-.074-.111.177.177,0,0,0-.1-.031Z" transform="translate(-184.825 -30.118)" fill="#da725a"/>
    <path id="Tracé_371" data-name="Tracé 371" d="M238.334,58.08a20.249,20.249,0,0,1,4.74-1.835,7.768,7.768,0,0,0,3.682-2.385,13.209,13.209,0,0,0,13.487-18l-.2-.5-.532-.077A13.228,13.228,0,0,0,245.277,53.2v.006a6.94,6.94,0,0,1-2.986,1.683,18.159,18.159,0,0,0-4.669,1.819.8.8,0,0,0-.331,1.043.78.78,0,0,0,1.043.331ZM246.821,52A11.355,11.355,0,0,1,258.705,37.05,11.358,11.358,0,0,1,246.821,52Z" transform="translate(-163.814 -24.269)" fill="#da725a"/>
    <path id="Tracé_372" data-name="Tracé 372" d="M237.664,57.99a.915.915,0,0,1-.223-.028.992.992,0,0,1-.628-.483.943.943,0,0,1,.384-1.241,13.4,13.4,0,0,1,3.694-1.525c.34-.1.678-.2,1.012-.312a7.077,7.077,0,0,0,2.856-1.572,13.367,13.367,0,0,1,14.437-18.038l.619.093.229.582a13.366,13.366,0,0,1-13.561,18.217,7.851,7.851,0,0,1-3.7,2.37c-.461.164-.931.306-1.389.446a12.092,12.092,0,0,0-3.317,1.374.737.737,0,0,1-.411.121Zm19.582-23.038a13.044,13.044,0,0,0-13.054,12.382,12.96,12.96,0,0,0,.885,5.464l.037.09-.065.077A7.226,7.226,0,0,1,242,54.691c-.337.108-.678.21-1.018.312a13.123,13.123,0,0,0-3.611,1.488.646.646,0,0,0-.282.842.7.7,0,0,0,.43.325.482.482,0,0,0,.387-.049,12.377,12.377,0,0,1,3.4-1.414c.455-.136.922-.278,1.377-.439a7.47,7.47,0,0,0,3.611-2.336l.053-.068.084.006a13.058,13.058,0,0,0,13.329-17.791l-.164-.418-.442-.065a13.156,13.156,0,0,0-1.9-.139ZM247.564,51.87a11,11,0,0,1-1.1-.056l-.1-.009-.031-.1a11.511,11.511,0,0,1,12.045-15.158l.1.009.031.1a11.508,11.508,0,0,1-10.94,15.21Zm-.975-.353a11.205,11.205,0,0,0,11.655-14.666A11.2,11.2,0,0,0,246.59,51.517" transform="translate(-163.472 -23.928)" fill="#da725a"/>
    <path id="Tracé_373" data-name="Tracé 373" d="M236.415,12.937A12.281,12.281,0,0,1,232.8,24.679,12.286,12.286,0,0,1,228.055,3.94a12.283,12.283,0,0,1,8.357,9Z" transform="translate(-154.785 -2.721)" fill="#fff"/>
    <path id="Tracé_374" data-name="Tracé 374" d="M236.332,21.313l2.967-3.7a.33.33,0,0,0-.514-.415l-2.639,3.292-.77-3.372,2.191-2.732a.33.33,0,1,0-.514-.415l-1.866,2.324-1.139-4.975a.328.328,0,0,0-.64.145l1.132,4.944-2.478-1.29a.329.329,0,0,0-.368.538.265.265,0,0,0,.068.046l2.976,1.55.767,3.348-3.533-1.838a.329.329,0,0,0-.368.538.264.264,0,0,0,.068.046l4.031,2.1.8,3.5-2.481-1.29a.329.329,0,0,0-.368.538.264.264,0,0,0,.068.046l2.976,1.55.541,2.37a.328.328,0,0,0,.64-.145l-.541-2.364,2.191-2.732a.33.33,0,1,0-.514-.415l-1.866,2.324-.808-3.524Z" transform="translate(-159.869 -7.64)" fill="#da725a"/>
    <path id="Tracé_375" data-name="Tracé 375" d="M237.164,28.252a.483.483,0,0,1-.47-.377l-.526-2.3-2.915-1.516a.513.513,0,0,1-.1-.068.483.483,0,0,1,.545-.789l2.184,1.135-.712-3.106-3.97-2.064a.434.434,0,0,1-.1-.068.484.484,0,0,1,.548-.789l3.239,1.683-.674-2.952L231.3,15.526a.561.561,0,0,1-.1-.068.486.486,0,0,1,.548-.792l2.184,1.135-1.058-4.619a.486.486,0,0,1,.062-.365.481.481,0,0,1,.3-.213.486.486,0,0,1,.365.062.479.479,0,0,1,.213.3l1.067,4.663,1.665-2.076a.485.485,0,0,1,.681-.077.486.486,0,0,1,.074.681l-2.144,2.673.684,2.986,2.441-3.045a.479.479,0,0,1,.325-.179.472.472,0,0,1,.356.1.485.485,0,0,1,.077.681l-2.921,3.642.718,3.14,1.665-2.076a.485.485,0,0,1,.681-.077.486.486,0,0,1,.074.681l-2.144,2.673.523,2.29a.486.486,0,0,1-.062.365.481.481,0,0,1-.3.213.431.431,0,0,1-.108.012Zm-3.688-4.8a.176.176,0,0,0-.155.093.174.174,0,0,0,.037.21.156.156,0,0,0,.037.025l3.041,1.581.557,2.438a.174.174,0,0,0,.053.09.179.179,0,0,0,.155.04.173.173,0,0,0,.13-.207l-.557-2.435,2.237-2.791a.18.18,0,0,0-.028-.248.173.173,0,0,0-.244.028l-2.064,2.574-.894-3.911,3.014-3.759a.172.172,0,0,0,.037-.127.181.181,0,0,0-.065-.118.175.175,0,0,0-.13-.037.181.181,0,0,0-.118.065l-2.84,3.543-.86-3.756,2.237-2.791a.176.176,0,0,0-.028-.244.191.191,0,0,0-.127-.037.181.181,0,0,0-.118.065l-2.064,2.574-1.21-5.288a.163.163,0,0,0-.077-.108.168.168,0,0,0-.133-.022.173.173,0,0,0-.13.207l1.207,5.272L231.6,14.938a.181.181,0,0,0-.133-.012.176.176,0,0,0-.1.087.174.174,0,0,0,.037.21.156.156,0,0,0,.037.025l3.038,1.581.857,3.744L231.5,18.58a.175.175,0,0,0-.2.285.237.237,0,0,0,.034.025l4.1,2.132.891,3.9-2.775-1.445a.18.18,0,0,0-.08-.019Z" transform="translate(-159.488 -7.315)" fill="#da725a"/>
    <path id="Tracé_376" data-name="Tracé 376" d="M229.96,31.7a20.251,20.251,0,0,1,1.525-4.848,7.773,7.773,0,0,0,.436-4.366A13.21,13.21,0,0,0,226.281.718L225.768.56l-.393.365a13.224,13.224,0,0,0,5.1,22.308h.006a6.951,6.951,0,0,1-.551,3.388,18.085,18.085,0,0,0-1.494,4.783.8.8,0,0,0,.606.91.778.778,0,0,0,.91-.606Zm.551-10.424a11.355,11.355,0,0,1-4.264-18.617,11.358,11.358,0,0,1,4.26,18.62Z" transform="translate(-152.733 -0.387)" fill="#da725a"/>
    <path id="Tracé_377" data-name="Tracé 377" d="M228.839,32.094a.915.915,0,0,1-.894-1.089,13.407,13.407,0,0,1,1.114-3.84q.2-.492.39-.984A7.033,7.033,0,0,0,230,22.967,13.421,13.421,0,0,1,221,13.2,13.413,13.413,0,0,1,224.925.427L225.383,0l.6.186a13.367,13.367,0,0,1,5.768,21.967,7.872,7.872,0,0,1-.458,4.372c-.161.461-.343.919-.52,1.361a12.077,12.077,0,0,0-1,3.45.774.774,0,0,1-.325.554,1.033,1.033,0,0,1-.606.207ZM225.464.347l-.328.306A13.07,13.07,0,0,0,230.182,22.7l.093.028.022.1a7.213,7.213,0,0,1-.56,3.462c-.124.331-.257.662-.39.99a13.15,13.15,0,0,0-1.092,3.75.648.648,0,0,0,.483.746.684.684,0,0,0,.523-.133.477.477,0,0,0,.2-.334,12.394,12.394,0,0,1,1.018-3.54c.176-.439.359-.894.517-1.349a7.472,7.472,0,0,0,.43-4.279l-.022-.084.059-.062A13.057,13.057,0,0,0,225.891.473L225.464.34Zm4.746,20.73-.093-.034a11.64,11.64,0,0,1-7.311-8.258,11.634,11.634,0,0,1,2.989-10.616l.071-.071.093.034a11.515,11.515,0,0,1,4.322,18.873Zm-4.264-18.62a11.322,11.322,0,0,0-2.84,10.257,11.315,11.315,0,0,0,7.02,8,11.205,11.205,0,0,0-4.18-18.261Z" transform="translate(-152.389)" fill="#da725a"/>
    <path id="Tracé_378" data-name="Tracé 378" d="M174.515,43.552c-.012-.347-.037-.69-.068-1.033a11.231,11.231,0,0,1,1.785-4.746,8.985,8.985,0,0,0,6.386-1.94,18.4,18.4,0,0,0,4.062-5.319.783.783,0,0,0-.4-1.16,11.488,11.488,0,0,0-7.324.944c-2.1,1.036-4.919,3.3-3.945,5.987a1.062,1.062,0,0,0,.17.306,13.4,13.4,0,0,0-1.318,2.364,28.292,28.292,0,0,0-1.432-4.329c-.075-.176-.155-.35-.232-.523a.55.55,0,0,0,.062-.3.394.394,0,0,0,0-.062c.025,0,.046.009.071.009a3.539,3.539,0,0,0,3.057-1.559,3.653,3.653,0,0,0,.39-3.456,2.442,2.442,0,0,0-2.689-1.371,3.04,3.04,0,0,0-1.955,2.2,9.846,9.846,0,0,0-.362,1.733,25.921,25.921,0,0,0-2.757-3.874,9.931,9.931,0,0,0,3.06-.739,3.838,3.838,0,0,0,2.085-3.567,3.135,3.135,0,0,0-2.379-2.955,3.675,3.675,0,0,0-3.6,1.151,5,5,0,0,0-1.12,4.112,18.768,18.768,0,0,0-1.98-1.556c.105-.569.2-1.142.278-1.714a8.115,8.115,0,0,0,.077-2.8c-.653-2.531-3.539-4.907-6.1-3.23a3.789,3.789,0,0,0-1.757,3.264,4.747,4.747,0,0,0,1.708,3.487,9.837,9.837,0,0,0,4.2,1.627.732.732,0,0,0,.309.381,17,17,0,0,1,1.714,1.253,6.276,6.276,0,0,0-.73-.105,4.8,4.8,0,0,0-3.688,1.108,2.654,2.654,0,0,0-.062,3.527,3.558,3.558,0,0,0,3.663,1.071,10.4,10.4,0,0,0,3.92-2.351c.362.47.709.95,1.033,1.442a27.864,27.864,0,0,1,1.556,2.683,6.049,6.049,0,0,0-4.09-.563c-1.247.291-2.4,1.3-2.017,2.7.405,1.467,2,2.03,3.388,2.067a8.955,8.955,0,0,0,2.339-.35,3.336,3.336,0,0,1,1.958-.074c.173.526.334,1.055.473,1.59a22.977,22.977,0,0,1,.644,3.57c-.006.062-.018.121-.028.183a.7.7,0,0,0,.074.421c.009.139.019.278.025.418a.8.8,0,0,0,.733.814.781.781,0,0,0,.814-.733Zm5.374-11.986a9.888,9.888,0,0,1,4.895-.876,14.792,14.792,0,0,1-3,3.83,7.392,7.392,0,0,1-4.335,1.717,11.493,11.493,0,0,1,3.815-2.713c.913-.4.2-1.77-.708-1.374a12.605,12.605,0,0,0-4.156,2.936c.1-1.643,2.163-2.905,3.493-3.524ZM162.965,19.933h0m-1.33,2.741a8.539,8.539,0,0,1-1.658-.526,3.318,3.318,0,0,1-1.752-2.082,2.349,2.349,0,0,1,.5-2.283,1.954,1.954,0,0,1,2.218-.517,3.674,3.674,0,0,1,1.977,2.42c.015.068.025.139.037.207V19.9c0,.043.006.09.006.133.006.2,0,.4-.012.6-.025.48-.08.959-.145,1.436-.04.291-.087.582-.133.873l-1.04-.269Zm6.423,0a2.308,2.308,0,0,1,2.088-1.071,2.041,2.041,0,0,1,.944.415,1.406,1.406,0,0,1,.517,1.018,2.624,2.624,0,0,1-.34,1.463,2.151,2.151,0,0,1-1,.851,8.841,8.841,0,0,1-2.59.575.743.743,0,0,0-.012-.306,3.727,3.727,0,0,1,.39-2.945Zm-6.528,7.3a1.581,1.581,0,0,1-.547-.78.882.882,0,0,1,.12-.873,2.98,2.98,0,0,1,2.339-.77,4.529,4.529,0,0,1,2.747.99,10.154,10.154,0,0,1-2.088,1.42,2.648,2.648,0,0,1-2.571.012m11.157-.192c.031-.08.062-.158.1-.235.009-.015.059-.108.068-.127.041-.068.08-.133.127-.2.025-.034.053-.071.08-.105l.037-.037c.046-.04.093-.084.142-.124.012,0,.124-.068.148-.08h0a.927.927,0,0,1,.1-.025.091.091,0,0,0,.031-.009h.111c.012,0,.05.006.068.006l.068.019c.04.012.189.074.161.062a.931.931,0,0,1,.291.238,1.379,1.379,0,0,1,.282.73,2.3,2.3,0,0,1-.251,1.148A1.964,1.964,0,0,1,172.4,32.2a.768.768,0,0,0-.167.019,10.858,10.858,0,0,1,.149-1.309,6.285,6.285,0,0,1,.3-1.12Zm-6.742,5.947c-.226-.167-.461-.489-.353-.774s.517-.427.8-.5a4.437,4.437,0,0,1,2.506.155,4.643,4.643,0,0,1,1.68,1.036,12.8,12.8,0,0,0-1.59.319,3.8,3.8,0,0,1-3.048-.238" transform="translate(-108.132 -10.75)" fill="#da725a"/>
    <path id="Tracé_379" data-name="Tracé 379" d="M173.39,44.084h-.04a.941.941,0,0,1-.879-.962c-.006-.127-.012-.254-.022-.381a.89.89,0,0,1-.074-.48c0-.037.009-.071.015-.105l.009-.062a22.7,22.7,0,0,0-.637-3.53c-.121-.458-.266-.953-.449-1.507a3.374,3.374,0,0,0-1.8.1,9.122,9.122,0,0,1-2.379.353c-1.426-.037-3.1-.628-3.53-2.181a2.006,2.006,0,0,1,.2-1.6,3.04,3.04,0,0,1,1.931-1.3,6.086,6.086,0,0,1,3.778.381c-.415-.786-.863-1.544-1.337-2.262-.278-.424-.585-.854-.931-1.309l-.251.2a9.363,9.363,0,0,1-3.608,2.085,3.714,3.714,0,0,1-3.821-1.126,2.794,2.794,0,0,1,.074-3.731,4.982,4.982,0,0,1,3.809-1.154c.056,0,.111.009.167.015-.408-.316-.826-.61-1.244-.879a.864.864,0,0,1-.34-.377l-.294-.068a9.015,9.015,0,0,1-3.9-1.572,4.908,4.908,0,0,1-1.764-3.6,3.928,3.928,0,0,1,1.825-3.4,3.387,3.387,0,0,1,3.19-.337,5.52,5.52,0,0,1,3.144,3.657,7.711,7.711,0,0,1-.053,2.679l-.025.179c-.068.5-.155,1.036-.263,1.624a18.748,18.748,0,0,1,1.612,1.247,5.008,5.008,0,0,1,1.2-3.833,3.818,3.818,0,0,1,3.75-1.2,3.274,3.274,0,0,1,2.494,3.1,4,4,0,0,1-2.172,3.71,8.371,8.371,0,0,1-2.655.687c-.059.009-.118.015-.176.025a25.973,25.973,0,0,1,2.367,3.307,10.325,10.325,0,0,1,.306-1.321,3.25,3.25,0,0,1,2.064-2.308,2.589,2.589,0,0,1,2.868,1.454,3.785,3.785,0,0,1-.4,3.6,3.648,3.648,0,0,1-3.1,1.627.733.733,0,0,1-.046.2l.046.1c.053.121.108.238.158.359a28.584,28.584,0,0,1,1.334,3.92,13.818,13.818,0,0,1,1.086-1.894,1.3,1.3,0,0,1-.127-.254c-.95-2.63,1.575-4.972,4.022-6.179a11.59,11.59,0,0,1,7.423-.956.759.759,0,0,1,.548.446,1.075,1.075,0,0,1-.043.944,18.526,18.526,0,0,1-4.1,5.359,9.2,9.2,0,0,1-6.4,1.98,11.122,11.122,0,0,0-1.711,4.588c.034.387.056.715.068,1.024a.8.8,0,0,1-.254.6,1,1,0,0,1-.681.288Zm-2.682-7.423a2.291,2.291,0,0,1,.78.13l.071.025.025.071c.195.591.35,1.114.476,1.6a23.172,23.172,0,0,1,.65,3.6V42.1l-.012.105c-.006.031-.009.062-.012.093a.588.588,0,0,0,.056.331l.019.1c.009.13.015.257.022.387a.647.647,0,0,0,.585.665.675.675,0,0,0,.489-.2.5.5,0,0,0,.161-.371c-.012-.309-.034-.634-.068-1.024v-.034a11.472,11.472,0,0,1,1.81-4.814l.05-.077.093.009a8.917,8.917,0,0,0,6.278-1.906,18.305,18.305,0,0,0,4.025-5.275.757.757,0,0,0,.028-.659.448.448,0,0,0-.325-.269,11.278,11.278,0,0,0-7.225.928c-2.336,1.151-4.749,3.357-3.868,5.8a.951.951,0,0,0,.145.263l.071.09-.065.093a13.063,13.063,0,0,0-1.3,2.336l-.183.427-.108-.452a27.818,27.818,0,0,0-1.426-4.3c-.05-.118-.1-.235-.155-.353l-.105-.235.034-.065a.388.388,0,0,0,.046-.217l-.015-.223.183-.006h.031a3.371,3.371,0,0,0,2.949-1.479,3.515,3.515,0,0,0,.381-3.3,2.3,2.3,0,0,0-2.509-1.287,2.952,2.952,0,0,0-1.847,2.1,10.234,10.234,0,0,0-.359,1.7l-.056.455-.232-.4a25.573,25.573,0,0,0-2.741-3.852l-.183-.21.275-.043c.152-.025.3-.046.452-.068a8.039,8.039,0,0,0,2.562-.659,3.688,3.688,0,0,0,2-3.422,2.97,2.97,0,0,0-2.262-2.809,3.5,3.5,0,0,0-3.444,1.1,4.793,4.793,0,0,0-1.08,3.985l.062.424-.319-.285a18.938,18.938,0,0,0-1.965-1.544l-.084-.056.019-.1c.114-.622.207-1.179.278-1.708l.025-.179a7.528,7.528,0,0,0,.056-2.565,5.19,5.19,0,0,0-2.952-3.444,3.089,3.089,0,0,0-2.908.306,3.621,3.621,0,0,0-1.686,3.128,4.6,4.6,0,0,0,1.655,3.372,8.792,8.792,0,0,0,3.765,1.507l.458.108.028.08a.576.576,0,0,0,.248.3,17.945,17.945,0,0,1,1.73,1.262l.47.39-.6-.121a5.868,5.868,0,0,0-.712-.1,4.679,4.679,0,0,0-3.564,1.061,2.494,2.494,0,0,0-.053,3.326,3.4,3.4,0,0,0,3.505,1.015,9.083,9.083,0,0,0,3.484-2.023l.5-.393.1.124c.39.507.73.984,1.04,1.451a27.655,27.655,0,0,1,1.562,2.7l.217.427-.427-.22a5.857,5.857,0,0,0-3.985-.551,2.729,2.729,0,0,0-1.736,1.157,1.68,1.68,0,0,0-.167,1.355c.384,1.389,1.928,1.918,3.243,1.952a8.644,8.644,0,0,0,2.29-.343,5.594,5.594,0,0,1,1.278-.2Zm6.012-.6.263-.285a11.7,11.7,0,0,1,3.868-2.751.516.516,0,0,0,.275-.724.642.642,0,0,0-.863-.365,12.427,12.427,0,0,0-4.106,2.9l-.294.312.028-.427c.114-1.853,2.543-3.174,3.583-3.654a10.088,10.088,0,0,1,4.972-.888l.248.022-.127.213a15.023,15.023,0,0,1-3.038,3.871,7.524,7.524,0,0,1-4.424,1.754l-.387.025Zm3.812-4.492a.989.989,0,0,1,.882.61.822.822,0,0,1-.436,1.132A11.333,11.333,0,0,0,177.5,35.7a7.185,7.185,0,0,0,3.837-1.646,14.278,14.278,0,0,0,2.843-3.577,9.791,9.791,0,0,0-4.567.879c-.891.415-2.862,1.47-3.314,2.911a12.665,12.665,0,0,1,3.849-2.608.949.949,0,0,1,.387-.084Zm-13.378,4.4a2.7,2.7,0,0,1-1.649-.467.884.884,0,0,1-.405-.953c.105-.272.405-.467.913-.591a4.537,4.537,0,0,1,2.593.161,4.74,4.74,0,0,1,1.736,1.071l.238.229-.328.037a12.057,12.057,0,0,0-1.439.282l-.133.031a6.631,6.631,0,0,1-1.525.2Zm-.139-1.822a3.825,3.825,0,0,0-.925.111c-.4.1-.631.235-.7.4-.074.189.1.446.3.591a3.518,3.518,0,0,0,2.918.213l.133-.031c.374-.09.755-.179,1.142-.244a4.482,4.482,0,0,0-1.377-.783,4.553,4.553,0,0,0-1.491-.263Zm4.715-2.095.012-.2a10.026,10.026,0,0,1,.152-1.33,6.387,6.387,0,0,1,.306-1.148c.031-.084.065-.164.1-.248l.04-.074c.015-.028.031-.056.037-.065a2.365,2.365,0,0,1,.133-.207c.028-.037.056-.077.087-.114a.414.414,0,0,1,.053-.053l.043-.037c.034-.031.071-.062.108-.093l.028-.022.037-.006c-.019,0,.019-.015.043-.031s.062-.034.074-.04l.195-.05h.111l.068.009.118.028c.022.006.074.028.118.043l.05.019-.053.145.074-.136.127.068v.009a1.294,1.294,0,0,1,.2.195,1.515,1.515,0,0,1,.322.826,2.45,2.45,0,0,1-.266,1.222,2.114,2.114,0,0,1-1.986,1.238.711.711,0,0,0-.139.015l-.195.04Zm1.247-3.317c-.028.022-.053.046-.08.068l-.071.065c-.015.022-.04.056-.065.087-.043.059-.08.124-.118.186l-.031.056c-.019.034-.037.068-.04.077-.025.056-.056.133-.084.207a6.332,6.332,0,0,0-.291,1.1,9.851,9.851,0,0,0-.136,1.108,1.815,1.815,0,0,0,1.708-1.061,2.176,2.176,0,0,0,.238-1.074,1.228,1.228,0,0,0-.244-.634.806.806,0,0,0-.241-.2.428.428,0,0,1-.049-.019c-.034-.012-.077-.031-.1-.037l-.179-.022h-.012l-.1.028a.159.159,0,0,1-.031.022c-.037.022-.062.034-.08.043Zm-10.668,1.374a2.063,2.063,0,0,1-1.213-.362,1.724,1.724,0,0,1-.606-.863,1.039,1.039,0,0,1,.149-1.009,3.161,3.161,0,0,1,2.466-.829,4.721,4.721,0,0,1,2.843,1.027l.145.121-.145.118a10.4,10.4,0,0,1-2.119,1.442,3.814,3.814,0,0,1-1.513.359Zm-1.033-.613a2.582,2.582,0,0,0,2.416-.025A9.345,9.345,0,0,0,165.6,28.2a4.454,4.454,0,0,0-2.5-.838,2.947,2.947,0,0,0-2.212.709.719.719,0,0,0-.093.736,1.424,1.424,0,0,0,.489.7Zm5.876-3.747.034-.207a.671.671,0,0,0-.009-.248,3.868,3.868,0,0,1,.411-3.066,2.445,2.445,0,0,1,2.231-1.136,2.192,2.192,0,0,1,1.03.452,1.569,1.569,0,0,1,.569,1.12,2.778,2.778,0,0,1-.359,1.556,2.293,2.293,0,0,1-1.064.913,7.686,7.686,0,0,1-2.29.541l-.551.074Zm2.457-4.356a2.18,2.18,0,0,0-1.767,1.012,3.561,3.561,0,0,0-.368,2.822,1,1,0,0,1,.025.164l.164-.022a7.357,7.357,0,0,0,2.2-.517,2,2,0,0,0,.931-.789,2.462,2.462,0,0,0,.319-1.374,1.257,1.257,0,0,0-.464-.913,1.943,1.943,0,0,0-.857-.377,1.743,1.743,0,0,0-.179-.009Zm-7.15,1.386-1.463-.381a7.161,7.161,0,0,1-1.429-.47,3.49,3.49,0,0,1-1.832-2.181,2.483,2.483,0,0,1,.538-2.432,2.111,2.111,0,0,1,2.392-.551,3.827,3.827,0,0,1,2.067,2.525c.015.074.028.145.037.217a.233.233,0,0,0,0,.046l.015.09-.012.012v.022c.006.179,0,.368-.012.613-.022.421-.068.869-.145,1.448q-.056.4-.121.8l-.04.244Zm-2.583-5.872a1.944,1.944,0,0,0-1.38.625,2.188,2.188,0,0,0-.461,2.138,3.182,3.182,0,0,0,1.668,1.983,6.873,6.873,0,0,0,1.368.449l1.135.294c.037-.232.074-.467.105-.7.077-.572.121-1.012.142-1.423.012-.235.015-.418.012-.588,0-.043,0-.087-.006-.13-.009-.062-.019-.124-.034-.189a3.5,3.5,0,0,0-1.89-2.314,1.615,1.615,0,0,0-.665-.139Z" transform="translate(-107.787 -10.393)" fill="#da725a"/>
    <path id="Tracé_380" data-name="Tracé 380" d="M286.033,102c.343.025.69.04,1.033.05a11.232,11.232,0,0,1,4.514,2.314,9,9,0,0,0,1.2,6.565,18.35,18.35,0,0,0,4.82,4.641.782.782,0,0,0,1.2-.266,11.51,11.51,0,0,0-.1-7.382c-.789-2.209-2.713-5.263-5.5-4.6a1.1,1.1,0,0,0-.322.133,13.252,13.252,0,0,0-2.2-1.578,28.335,28.335,0,0,0,4.465-.931c.183-.053.362-.114.545-.17a.562.562,0,0,0,.291.1c.022,0,.043,0,.062,0a.546.546,0,0,0-.015.068,3.529,3.529,0,0,0,1.2,3.215,3.649,3.649,0,0,0,3.388.78,2.443,2.443,0,0,0,1.668-2.515,3.039,3.039,0,0,0-1.968-2.194,10,10,0,0,0-1.68-.557,26.228,26.228,0,0,0,4.165-2.3,9.961,9.961,0,0,0,.387,3.125,3.839,3.839,0,0,0,3.3,2.478,3.14,3.14,0,0,0,3.208-2.027,3.666,3.666,0,0,0-.733-3.7,4.989,4.989,0,0,0-3.957-1.581,18.6,18.6,0,0,0,1.77-1.791c.554.17,1.111.331,1.674.473a8.145,8.145,0,0,0,2.772.4c2.59-.362,5.278-2.958,3.9-5.69a3.79,3.79,0,0,0-3.041-2.116,4.746,4.746,0,0,0-3.66,1.3,9.863,9.863,0,0,0-2.095,3.991.722.722,0,0,0-.415.266,16.738,16.738,0,0,1-1.439,1.559,6.729,6.729,0,0,0,.189-.715,4.792,4.792,0,0,0-.681-3.79,2.656,2.656,0,0,0-3.5-.464,3.56,3.56,0,0,0-1.482,3.518,10.337,10.337,0,0,0,1.89,4.161c-.507.306-1.024.6-1.55.863a27.628,27.628,0,0,1-2.843,1.241,6.065,6.065,0,0,0,1.027-4c-.145-1.272-1.018-2.537-2.457-2.311-1.5.235-2.246,1.76-2.438,3.128a9.03,9.03,0,0,0,.08,2.364,3.365,3.365,0,0,1-.148,1.955c-.541.111-1.086.213-1.634.291a22.871,22.871,0,0,1-3.623.235c-.059-.015-.118-.034-.176-.046a.711.711,0,0,0-.424.025c-.139-.006-.278-.012-.418-.025a.794.794,0,0,0-.891.634.779.779,0,0,0,.634.891Zm11.3,6.7a9.857,9.857,0,0,1,.313,4.963,14.852,14.852,0,0,1-3.465-3.422,7.391,7.391,0,0,1-1.213-4.5,11.463,11.463,0,0,1,2.262,4.1c.291.953,1.736.4,1.448-.548a12.6,12.6,0,0,0-2.444-4.462c1.618.288,2.642,2.478,3.1,3.874Zm13.484-15.489h0m-2.571-1.634a8.492,8.492,0,0,1,.712-1.587,3.306,3.306,0,0,1,2.268-1.5,2.353,2.353,0,0,1,2.213.755,1.959,1.959,0,0,1,.263,2.262,3.681,3.681,0,0,1-2.63,1.689c-.071.006-.139.009-.21.012h-.006c-.043,0-.09-.006-.133-.009-.2-.019-.4-.046-.6-.08-.473-.08-.944-.189-1.411-.306-.285-.071-.569-.152-.854-.232C307.985,92.246,308.112,91.911,308.242,91.577Zm-.734,6.38a2.3,2.3,0,0,1,.823,2.2,2.039,2.039,0,0,1-.52.891,1.4,1.4,0,0,1-1.067.4,2.641,2.641,0,0,1-1.417-.5,2.158,2.158,0,0,1-.73-1.089,8.765,8.765,0,0,1-.275-2.639.756.756,0,0,0,.306.022,3.719,3.719,0,0,1,2.88.724Zm-6.516-7.317a1.574,1.574,0,0,1,.838-.455.889.889,0,0,1,.854.22,2.969,2.969,0,0,1,.5,2.41,4.532,4.532,0,0,1-1.3,2.618,10.435,10.435,0,0,1-1.176-2.237A2.64,2.64,0,0,1,300.993,90.64Zm-1.08,11.107c.074.04.152.08.223.124.012.009.1.071.118.084.062.046.124.1.183.149a1.334,1.334,0,0,1,.1.093l.031.04c.037.053.074.1.108.158,0,.012.053.133.062.158s.009.071.012.105a.058.058,0,0,0,.006.031c0,.037-.009.074-.015.111,0,.012-.012.05-.015.068s-.019.046-.028.068c-.019.04-.1.179-.08.155a.949.949,0,0,1-.269.263,1.369,1.369,0,0,1-.758.2,2.308,2.308,0,0,1-1.111-.381,1.969,1.969,0,0,1-.931-1.965.757.757,0,0,0,0-.167,10.724,10.724,0,0,1,1.284.3,6.464,6.464,0,0,1,1.08.424Zm-5.142-7.376c.192-.2.538-.4.808-.26s.365.563.4.857a4.435,4.435,0,0,1-.439,2.472,4.61,4.61,0,0,1-1.219,1.55,13.43,13.43,0,0,0-.136-1.615,3.781,3.781,0,0,1,.585-3Z" transform="translate(-197.092 -60.025)" fill="#da725a"/>
    <path id="Tracé_381" data-name="Tracé 381" d="M297.786,115.536a1.054,1.054,0,0,1-.622-.195,18.519,18.519,0,0,1-4.858-4.681,9.219,9.219,0,0,1-1.241-6.59,11.129,11.129,0,0,0-4.366-2.221c-.387-.012-.715-.028-1.024-.05a.8.8,0,0,1-.572-.322,1,1,0,0,1-.2-.749.946.946,0,0,1,1.055-.764c.127.009.254.015.381.022a.877.877,0,0,1,.483-.022l.1.028.062.015a22.873,22.873,0,0,0,3.58-.232c.467-.065.975-.155,1.55-.272a3.35,3.35,0,0,0,.1-1.8,9.18,9.18,0,0,1-.08-2.4c.2-1.414.978-3.01,2.568-3.261a2.006,2.006,0,0,1,1.562.381,3.038,3.038,0,0,1,1.071,2.067,6.091,6.091,0,0,1-.808,3.71c.829-.325,1.634-.684,2.4-1.071.452-.229.916-.483,1.4-.777l-.17-.269a9.3,9.3,0,0,1-1.658-3.821,3.712,3.712,0,0,1,1.556-3.666,2.793,2.793,0,0,1,3.7.5,4.991,4.991,0,0,1,.712,3.917c-.009.056-.022.108-.034.164.362-.368.7-.749,1.015-1.135a.866.866,0,0,1,.415-.294l.1-.285a9.009,9.009,0,0,1,2-3.691,4.909,4.909,0,0,1,3.778-1.343,3.934,3.934,0,0,1,3.168,2.2,3.383,3.383,0,0,1-.028,3.205,5.509,5.509,0,0,1-3.991,2.7,7.775,7.775,0,0,1-2.658-.356l-.176-.043c-.492-.124-1.012-.269-1.584-.446a19.068,19.068,0,0,1-1.42,1.46,5.027,5.027,0,0,1,3.673,1.631,3.811,3.811,0,0,1,.761,3.861,3.282,3.282,0,0,1-3.363,2.126,3.99,3.99,0,0,1-3.437-2.58,8.391,8.391,0,0,1-.381-2.72c0-.059,0-.118-.006-.173a26.181,26.181,0,0,1-3.555,1.977,9.837,9.837,0,0,1,1.278.455,3.24,3.24,0,0,1,2.057,2.311,2.594,2.594,0,0,1-1.77,2.686,3.791,3.791,0,0,1-3.536-.808,3.665,3.665,0,0,1-1.265-3.267.662.662,0,0,1-.195-.068l-.118.037c-.121.04-.241.077-.365.114a28.907,28.907,0,0,1-4.047.879,13.614,13.614,0,0,1,1.757,1.3,1.138,1.138,0,0,1,.266-.1c2.72-.647,4.759,2.129,5.681,4.7a11.6,11.6,0,0,1,.105,7.481.761.761,0,0,1-.5.5,1.041,1.041,0,0,1-.309.046ZM285.871,100.27a.63.63,0,0,0-.665.507.674.674,0,0,0,.142.507.5.5,0,0,0,.35.2c.309.022.634.037,1.027.05h.034a11.518,11.518,0,0,1,4.576,2.351l.071.059-.019.09a8.908,8.908,0,0,0,1.179,6.454,18.213,18.213,0,0,0,4.783,4.6.759.759,0,0,0,.653.1.443.443,0,0,0,.3-.294,11.287,11.287,0,0,0-.1-7.283c-.876-2.45-2.8-5.1-5.315-4.5a1,1,0,0,0-.278.114l-.1.062-.087-.077a13.049,13.049,0,0,0-2.172-1.559l-.4-.232.461-.056a28.1,28.1,0,0,0,4.44-.928c.118-.034.238-.074.356-.111l.257-.08.062.04a.407.407,0,0,0,.207.071l.217.015-.015.207a3.382,3.382,0,0,0,1.139,3.1,3.514,3.514,0,0,0,3.243.752,2.292,2.292,0,0,0,1.562-2.348A2.944,2.944,0,0,0,299.9,100a10.142,10.142,0,0,0-1.652-.551l-.446-.108.421-.186a25.946,25.946,0,0,0,4.14-2.283l.232-.158.012.278c.006.152.009.3.015.455a8.124,8.124,0,0,0,.362,2.621,3.686,3.686,0,0,0,3.171,2.379,2.974,2.974,0,0,0,3.051-1.928,3.508,3.508,0,0,0-.705-3.549,4.8,4.8,0,0,0-3.837-1.528l-.427.012.319-.285a18.275,18.275,0,0,0,1.757-1.776l.065-.077.1.031c.606.186,1.151.34,1.665.47l.176.043a7.612,7.612,0,0,0,2.543.35,5.187,5.187,0,0,0,3.756-2.543,3.08,3.08,0,0,0,.025-2.924,3.621,3.621,0,0,0-2.918-2.033,4.6,4.6,0,0,0-3.54,1.259,8.776,8.776,0,0,0-1.928,3.57l-.158.442-.084.019a.558.558,0,0,0-.325.21,17.67,17.67,0,0,1-1.451,1.575l-.442.424.186-.582a5.713,5.713,0,0,0,.183-.7,4.67,4.67,0,0,0-.65-3.663,2.491,2.491,0,0,0-3.3-.43,3.408,3.408,0,0,0-1.408,3.366,9.072,9.072,0,0,0,1.615,3.691l.334.538-.133.08c-.548.331-1.058.613-1.559.866a28.064,28.064,0,0,1-2.859,1.247l-.449.167.266-.4a5.858,5.858,0,0,0,1-3.9,2.736,2.736,0,0,0-.953-1.856,1.688,1.688,0,0,0-1.327-.322c-1.423.223-2.126,1.7-2.308,3a8.7,8.7,0,0,0,.08,2.314,3.5,3.5,0,0,1-.164,2.051l-.034.068-.074.015c-.613.127-1.151.223-1.643.291a22.989,22.989,0,0,1-3.648.235h-.034l-.087-.028c-.028-.009-.059-.015-.09-.025a.554.554,0,0,0-.334.019l-.031.012h-.034c-.152-.009-.285-.015-.421-.025h-.062ZM297.4,113.584l-.2-.152a14.964,14.964,0,0,1-3.5-3.459,7.487,7.487,0,0,1-1.238-4.595l.022-.387.251.294a11.769,11.769,0,0,1,2.293,4.155.5.5,0,0,0,.365.371.715.715,0,0,0,.65-.217.609.609,0,0,0,.136-.613,12.427,12.427,0,0,0-2.413-4.409l-.275-.328.421.074c1.829.325,2.862,2.89,3.224,3.976a10.065,10.065,0,0,1,.316,5.04l-.049.244Zm-4.638-7.781a7.178,7.178,0,0,0,1.2,4,14.1,14.1,0,0,0,3.23,3.23,9.785,9.785,0,0,0-.353-4.638c-.309-.934-1.135-3.01-2.515-3.623a12.671,12.671,0,0,1,2.153,4.121.918.918,0,0,1-.207.916,1.014,1.014,0,0,1-.944.306.8.8,0,0,1-.591-.585,11.365,11.365,0,0,0-1.971-3.728Zm6.541-2.46h-.065a2.471,2.471,0,0,1-1.185-.405,2.113,2.113,0,0,1-1-2.113,1.039,1.039,0,0,0,0-.139l-.019-.2.2.034a10.223,10.223,0,0,1,1.3.3,6.53,6.53,0,0,1,1.1.433q.121.06.232.13c.025.019.05.034.074.053l.056.04c.065.049.13.1.192.158.034.031.071.065.1.1a.465.465,0,0,1,.046.059l.034.046c.028.037.053.077.077.118l.019.031v.037a.217.217,0,0,1,.028.046c.012.031.025.062.031.074l.028.158-.015.155s-.006.04-.012.065l-.04.114c-.009.022-.037.074-.059.114l-.022.043-.139-.068.127.09-.084.121H300.3a1.386,1.386,0,0,1-.217.179,1.533,1.533,0,0,1-.789.229Zm-1.946-2.488a1.818,1.818,0,0,0,.86,1.819,2.163,2.163,0,0,0,1.04.359,1.224,1.224,0,0,0,.659-.17.761.761,0,0,0,.226-.217l.022-.043c.019-.034.04-.074.05-.093l.04-.176v-.012l-.009-.084-.019-.046a.774.774,0,0,1-.034-.087l-.059-.087-.056-.077c-.019-.019-.049-.046-.08-.074-.056-.049-.111-.1-.17-.139l-.046-.031c-.034-.022-.068-.046-.077-.053-.053-.031-.124-.071-.2-.108a6.213,6.213,0,0,0-1.055-.412,9.99,9.99,0,0,0-1.086-.26Zm9.1.39h-.065a2.757,2.757,0,0,1-1.5-.535,2.286,2.286,0,0,1-.786-1.163,7.6,7.6,0,0,1-.278-2.339l-.012-.554.2.056a.65.65,0,0,0,.244.019,3.854,3.854,0,0,1,3,.758,2.45,2.45,0,0,1,.876,2.345,2.183,2.183,0,0,1-.566.972,1.55,1.55,0,0,1-1.114.439Zm-2.327-4.2V97.2a7.573,7.573,0,0,0,.263,2.243,2,2,0,0,0,.678,1.015,2.462,2.462,0,0,0,1.327.473,1.259,1.259,0,0,0,.959-.356,1.936,1.936,0,0,0,.47-.811,2.134,2.134,0,0,0-.773-2.045,3.562,3.562,0,0,0-2.763-.687.981.981,0,0,1-.164.006ZM293.82,98.962v-.331a12.326,12.326,0,0,0-.118-1.467l-.015-.133a3.763,3.763,0,0,1,.625-3.122.89.89,0,0,1,.993-.294c.26.136.418.455.483.972a4.548,4.548,0,0,1-.455,2.559,4.781,4.781,0,0,1-1.259,1.6l-.254.21Zm1.21-5.1a.767.767,0,0,0-.5.26A3.509,3.509,0,0,0,293.99,97l.015.133c.046.381.093.774.111,1.166a4.416,4.416,0,0,0,.934-1.281,4.234,4.234,0,0,0,.424-2.385c-.053-.405-.161-.653-.322-.739a.268.268,0,0,0-.13-.031Zm6.476,1.457-.1-.161a10.438,10.438,0,0,1-1.191-2.271,2.882,2.882,0,0,1,.313-2.707,1.741,1.741,0,0,1,.928-.5,1.043,1.043,0,0,1,.987.26,3.173,3.173,0,0,1,.545,2.543,4.708,4.708,0,0,1-1.343,2.707l-.136.13Zm.235-5.359a1.329,1.329,0,0,0-.235.022,1.44,1.44,0,0,0-.749.405,2.586,2.586,0,0,0-.251,2.4,9.371,9.371,0,0,0,1.055,2.039,4.437,4.437,0,0,0,1.117-2.392,2.957,2.957,0,0,0-.455-2.277.631.631,0,0,0-.486-.2Zm8.635,3.054L310.366,93h-.019c-.179-.015-.371-.04-.61-.08-.418-.071-.857-.167-1.423-.309-.257-.065-.514-.136-.77-.21l-.251-.071.541-1.411a7.1,7.1,0,0,1,.631-1.368,3.5,3.5,0,0,1,2.376-1.572,2.5,2.5,0,0,1,2.355.811,2.113,2.113,0,0,1,.275,2.438A3.823,3.823,0,0,1,310.732,93a1.81,1.81,0,0,1-.22.012h-.049l-.09.006Zm-2.667-.891c.229.065.455.127.684.186.56.142.99.235,1.4.3.229.037.415.065.585.077l.13.009c.062,0,.127-.006.192-.012a3.49,3.49,0,0,0,2.512-1.615,1.811,1.811,0,0,0-.247-2.085,2.181,2.181,0,0,0-2.07-.7,3.184,3.184,0,0,0-2.16,1.433,6.7,6.7,0,0,0-.6,1.309l-.421,1.1Z" transform="translate(-196.744 -59.671)" fill="#da725a"/>
    <path id="Tracé_382" data-name="Tracé 382" d="M145.727,85.716c-.7-1.358-1.37-2.738-2.113-4.075a13.835,13.835,0,0,0-1.739-2.5.66.66,0,0,0-.043-.093l-.022-.031a.568.568,0,0,0-.071-.1,15.247,15.247,0,0,0-4.313-4.418,6.456,6.456,0,0,0-2.911-1.043,9.008,9.008,0,0,0-3.385.347,9.469,9.469,0,0,0-3.471,1.894.783.783,0,0,0-.17.928,9.547,9.547,0,0,0,13.468,3.818,11.738,11.738,0,0,1,.928,1.293c.931,1.5,1.665,3.125,2.472,4.691a.773.773,0,0,0,1.374-.709Zm-11.828-5.7a8.19,8.19,0,0,1-4.725-3.555,7.776,7.776,0,0,1,2.884-1.309,6.274,6.274,0,0,1,3.4.065A7.821,7.821,0,0,1,138.02,76.9a10.232,10.232,0,0,0-2.571.025.778.778,0,0,0-.588.922.788.788,0,0,0,.922.588,5.2,5.2,0,0,1,3.812.709c.077.056.151.114.226.173a8.119,8.119,0,0,1-5.922.69Z" transform="translate(-87.986 -50.701)" fill="#da725a"/>
    <path id="Tracé_383" data-name="Tracé 383" d="M144.65,86.649h-.043a.851.851,0,0,1-.734-.489c-.229-.446-.451-.894-.674-1.343-.554-1.117-1.126-2.271-1.791-3.338a11.484,11.484,0,0,0-.832-1.176,9.692,9.692,0,0,1-13.568-3.948.937.937,0,0,1,.208-1.117,9.589,9.589,0,0,1,3.527-1.924,9.218,9.218,0,0,1,3.443-.353,6.594,6.594,0,0,1,2.983,1.064,15.231,15.231,0,0,1,4.36,4.465.625.625,0,0,1,.077.114.542.542,0,0,1,.062.114,14.373,14.373,0,0,1,1.742,2.512c.523.941,1.018,1.915,1.495,2.859.207.405.411.814.619,1.219a.856.856,0,0,1-.028.885,1.029,1.029,0,0,1-.844.458ZM140.644,79.9l.084.1a11.389,11.389,0,0,1,.941,1.312c.671,1.08,1.247,2.24,1.807,3.363.223.449.446.9.675,1.34a.543.543,0,0,0,.473.322.71.71,0,0,0,.613-.316.551.551,0,0,0,.012-.575c-.21-.405-.415-.814-.622-1.219-.476-.941-.969-1.915-1.491-2.85a13.58,13.58,0,0,0-1.721-2.475l-.028-.043c-.015-.034-.021-.053-.031-.068l-.028-.043a.361.361,0,0,0-.055-.077A15.068,15.068,0,0,0,137,74.286a6.238,6.238,0,0,0-2.843-1.018,8.929,8.929,0,0,0-3.329.34,9.291,9.291,0,0,0-3.416,1.863.629.629,0,0,0-.133.743,9.4,9.4,0,0,0,13.252,3.756l.114-.068Zm-5.016.21a7.842,7.842,0,0,1-2.113-.285A8.278,8.278,0,0,1,128.7,76.2l-.074-.121.115-.084a7.869,7.869,0,0,1,2.939-1.334,6.483,6.483,0,0,1,3.487.071,7.818,7.818,0,0,1,2.614,1.72l.362.337-.489-.068a9.815,9.815,0,0,0-2.531.025.5.5,0,0,0-.337.217.7.7,0,0,0-.121.52.648.648,0,0,0,.752.47,5.4,5.4,0,0,1,3.92.736c.065.046.127.093.189.142l.232.179-.207.111a8.3,8.3,0,0,1-3.92.987Zm-2.029-.585a8,8,0,0,0,5.591-.566l-.028-.019a5.044,5.044,0,0,0-3.706-.681.945.945,0,0,1-1.092-.709.981.981,0,0,1,.17-.764.788.788,0,0,1,.551-.343,11.225,11.225,0,0,1,2.128-.077,6.957,6.957,0,0,0-2.153-1.34,6.179,6.179,0,0,0-3.314-.062,7.582,7.582,0,0,0-2.707,1.2A7.967,7.967,0,0,0,133.6,79.53Z" transform="translate(-87.642 -50.363)" fill="#da725a"/>
    <path id="Tracé_384" data-name="Tracé 384" d="M274.744,102.184a3.647,3.647,0,0,0,.26.433,2.618,2.618,0,0,0,2.748,1.1,1.882,1.882,0,0,0,1-2.686,4.022,4.022,0,0,0-1.692-1.562,3.262,3.262,0,0,0,1.711-1.593,1.955,1.955,0,0,0-.64-2.4,2.18,2.18,0,0,0-2.587.415,3.063,3.063,0,0,0-.86,1.6,3.668,3.668,0,0,0-.362-.158,2.48,2.48,0,0,0-1.368-.071,1.976,1.976,0,0,0-.118,3.858,2.539,2.539,0,0,0,.687.118c-.031.043-.065.087-.1.13a2.953,2.953,0,0,1-.375.337,2.711,2.711,0,0,1-.4.207c-.049.015-.1.034-.151.046a.773.773,0,1,0,.334,1.51,3.4,3.4,0,0,0,1.915-1.287Zm2.423-.736a1.1,1.1,0,0,1,.21.294,1.3,1.3,0,0,1,.053.2v.124c-.015.053-.053.155-.037.118-.012.031,0,.031-.071.05a.932.932,0,0,1-.606-.114,1.611,1.611,0,0,1-.5-.452,1.5,1.5,0,0,1-.278-1.074A4.944,4.944,0,0,1,277.166,101.448Zm-.2-4.653a.715.715,0,0,1,.241-.037c.025,0,.13.025.056.009s.074.043.049.022a.344.344,0,0,1,.077.248.739.739,0,0,1-.152.439,2.611,2.611,0,0,1-1.086.718,1.656,1.656,0,0,1,.362-1.083,1.139,1.139,0,0,1,.449-.316Zm-3.546,2.887c-.062-.015-.241-.087-.241-.087-.022-.012-.183-.127-.136-.087a.312.312,0,0,1-.139-.356.649.649,0,0,1,.767-.4,3.275,3.275,0,0,1,.746.294,3.442,3.442,0,0,0,.65.223c-.009.019-.022.034-.031.053a.8.8,0,0,0-.111.037,5.381,5.381,0,0,1-.841.282,2,2,0,0,1-.662.034Z" transform="translate(-187.387 -65.752)" fill="#da725a"/>
    <path id="Tracé_385" data-name="Tracé 385" d="M276.842,103.619a2.989,2.989,0,0,1-2.293-1.25c-.053-.074-.105-.155-.158-.244a3.579,3.579,0,0,1-1.853,1.16.939.939,0,0,1-1.108-.7.846.846,0,0,1,.1-.659.981.981,0,0,1,.6-.455c.034-.009.068-.019.1-.031l.04-.012a2.444,2.444,0,0,0,.365-.192,2.957,2.957,0,0,0,.244-.21,2.8,2.8,0,0,1-.424-.1,2.128,2.128,0,0,1,.127-4.152,2.608,2.608,0,0,1,1.454.074,2.189,2.189,0,0,1,.207.08,3.163,3.163,0,0,1,.857-1.488,2.316,2.316,0,0,1,2.775-.433,2.114,2.114,0,0,1,.7,2.587,3.2,3.2,0,0,1-1.538,1.544,3.825,3.825,0,0,1,1.516,1.485,2.251,2.251,0,0,1,.065,1.856,1.833,1.833,0,0,1-1.157,1.046,2.092,2.092,0,0,1-.628.1Zm-2.4-2.067.114.223a3.493,3.493,0,0,0,.247.415,2.467,2.467,0,0,0,2.577,1.043,1.522,1.522,0,0,0,.962-.873,1.934,1.934,0,0,0-.059-1.6,3.871,3.871,0,0,0-1.634-1.5l-.248-.145.257-.127a3.154,3.154,0,0,0,1.637-1.513,1.818,1.818,0,0,0-.579-2.209,2.037,2.037,0,0,0-2.395.4,2.86,2.86,0,0,0-.814,1.519l-.04.195-.179-.09a2.357,2.357,0,0,0-1.624-.217,1.822,1.822,0,0,0-.108,3.561,2.3,2.3,0,0,0,.644.108l.285.009-.161.232-.1.139a3.131,3.131,0,0,1-.4.365,2.8,2.8,0,0,1-.436.226l-.053.015-.121.037a.677.677,0,0,0-.411.309.54.54,0,0,0-.065.421.636.636,0,0,0,.736.48,3.241,3.241,0,0,0,1.825-1.231l.148-.2Zm2.416.514a1.212,1.212,0,0,1-.548-.149,1.73,1.73,0,0,1-.548-.5,1.67,1.67,0,0,1-.306-1.182l.031-.223.2.108a5.035,5.035,0,0,1,1.265.882,1.205,1.205,0,0,1,.238.337,1.917,1.917,0,0,1,.068.251v.127l.009.04-.015.019-.037.121-.1-.028.1.04a.12.12,0,0,1-.006.019l-.049.121-.059-.019a.3.3,0,0,1-.065.019.8.8,0,0,1-.173.019Zm.062-.266v0Zm-1.163-1.287a1.41,1.41,0,0,0,.263.73,1.439,1.439,0,0,0,.446.405.8.8,0,0,0,.47.105l.012-.04v-.093a1.41,1.41,0,0,0-.04-.152.942.942,0,0,0-.179-.251,4.073,4.073,0,0,0-.972-.7Zm-2.481-1a1.131,1.131,0,0,1-.223-.019c-.028-.006-.08-.025-.133-.043l-.009.019-.139-.077s-.04-.025-.074-.049l-.068-.046.068-.114-.09.1-.006-.006-.105-.093.006-.009a.427.427,0,0,1-.084-.4.791.791,0,0,1,.944-.517,2.337,2.337,0,0,1,.625.232c.053.025.105.053.158.074a3.434,3.434,0,0,0,.622.213l.2.046-.155.288-.071.019a.543.543,0,0,0-.093.031,5.576,5.576,0,0,1-.866.288,2.588,2.588,0,0,1-.51.053Zm-.152-.322a1.866,1.866,0,0,0,.591-.034,4.9,4.9,0,0,0,.594-.186c-.1-.034-.192-.074-.291-.118-.056-.025-.111-.053-.167-.077a2.038,2.038,0,0,0-.541-.2c-.248-.04-.548.062-.591.272-.019.09-.019.111.074.195.028.015.053.034.077.049l.043.028c.04.015.161.062.207.074Zm2.549-1.1v-.232a1.79,1.79,0,0,1,.393-1.185,1.261,1.261,0,0,1,.52-.362.632.632,0,0,1,.217-.04h0l.006-.022.087.015a.221.221,0,0,1,.186.084l.006-.006.093.1-.015.022a.551.551,0,0,1,.043.241.854.854,0,0,1-.186.529,2.774,2.774,0,0,1-1.145.767l-.213.093Zm1.009-1.488h0a.974.974,0,0,0-.381.269,1.44,1.44,0,0,0-.309.736,2.135,2.135,0,0,0,.8-.566.574.574,0,0,0,.121-.347.3.3,0,0,0-.015-.105.145.145,0,0,1-.031-.015h-.046a.314.314,0,0,0-.13.025Z" transform="translate(-187.056 -65.412)" fill="#da725a"/>
    <path id="Tracé_386" data-name="Tracé 386" d="M149.782,107.638a3.543,3.543,0,0,0,.356-.359,2.624,2.624,0,0,0,.377-2.936,1.883,1.883,0,0,0-2.85-.3,4.009,4.009,0,0,0-1.092,2.03,3.264,3.264,0,0,0-1.971-1.259,1.958,1.958,0,0,0-2.163,1.216,2.176,2.176,0,0,0,1.046,2.4,3.046,3.046,0,0,0,1.764.433,2.992,2.992,0,0,0-.062.39,2.475,2.475,0,0,0,.272,1.34,1.976,1.976,0,0,0,3.765-.848,2.562,2.562,0,0,0-.059-.693c.053.019.1.04.152.062a2.913,2.913,0,0,1,.421.278,2.571,2.571,0,0,1,.3.337c.028.043.056.09.08.133a.773.773,0,1,0,1.38-.7,3.392,3.392,0,0,0-1.723-1.532Zm-1.318-2.163a1.047,1.047,0,0,1,.232-.275,1.246,1.246,0,0,1,.183-.1c.019-.006.108-.025.121-.031.056,0,.164.012.124.006.031,0,.031,0,.065.059a.916.916,0,0,1,.04.616,1.576,1.576,0,0,1-.312.594,1.513,1.513,0,0,1-.972.538,4.838,4.838,0,0,1,.52-1.4Zm-4.455,1.358a.735.735,0,0,1-.1-.226c-.009-.022-.009-.133-.006-.056s.025-.08.009-.056a.355.355,0,0,1,.22-.139.754.754,0,0,1,.464.037,2.694,2.694,0,0,1,.968.873,1.656,1.656,0,0,1-1.139-.08,1.139,1.139,0,0,1-.418-.356Zm3.679,2.713c0,.062-.025.257-.022.257-.006.022-.077.207-.049.155a.314.314,0,0,1-.309.226c-.309.019-.545-.316-.575-.644a3.293,3.293,0,0,1,.1-.8,3.684,3.684,0,0,0,.056-.684.412.412,0,0,0,.059.015,1.068,1.068,0,0,0,.062.1,5.387,5.387,0,0,1,.483.746,1.969,1.969,0,0,1,.2.631Z" transform="translate(-98.312 -71.5)" fill="#da725a"/>
    <path id="Tracé_387" data-name="Tracé 387" d="M146.962,111.544a2.272,2.272,0,0,1-1.968-1.21,2.624,2.624,0,0,1-.291-1.426c.006-.071.015-.145.028-.22a3.121,3.121,0,0,1-1.655-.461,2.313,2.313,0,0,1-1.111-2.58,2.114,2.114,0,0,1,2.329-1.321,3.2,3.2,0,0,1,1.878,1.1,3.806,3.806,0,0,1,1.061-1.838,2.239,2.239,0,0,1,1.779-.526,1.83,1.83,0,0,1,1.3.857,2.784,2.784,0,0,1-.393,3.116,2.543,2.543,0,0,1-.2.213,3.551,3.551,0,0,1,1.584,1.5.94.94,0,0,1-.4,1.247.847.847,0,0,1-.662.068.99.99,0,0,1-.591-.47c-.015-.031-.034-.059-.053-.09l-.021-.037a2.486,2.486,0,0,0-.275-.306,2.857,2.857,0,0,0-.263-.183,2.949,2.949,0,0,1,.012.433,2.225,2.225,0,0,1-1.538,2.048,1.952,1.952,0,0,1-.548.077Zm-1.853-3.181-.041.195a3.314,3.314,0,0,0-.058.371,2.324,2.324,0,0,0,.254,1.256,1.822,1.822,0,0,0,3.475-.783,2.372,2.372,0,0,0-.056-.653l-.062-.278.266.1c.053.019.105.043.161.065a2.838,2.838,0,0,1,.455.3,2.906,2.906,0,0,1,.328.365l.028.046c.022.034.043.071.065.108a.677.677,0,0,0,.4.322.555.555,0,0,0,.424-.04.636.636,0,0,0,.282-.832,3.237,3.237,0,0,0-1.646-1.46l-.232-.093.186-.167a2.885,2.885,0,0,0,.337-.343,2.467,2.467,0,0,0,.365-2.757,1.535,1.535,0,0,0-1.083-.715,1.935,1.935,0,0,0-1.532.455,3.885,3.885,0,0,0-1.043,1.955l-.077.275-.185-.217a3.141,3.141,0,0,0-1.875-1.207,1.811,1.811,0,0,0-1.993,1.111,2.04,2.04,0,0,0,.981,2.221,2.9,2.9,0,0,0,1.674.408ZM146.943,110a.808.808,0,0,1-.706-.786,2.385,2.385,0,0,1,.068-.662c.013-.059.025-.118.034-.173a3.557,3.557,0,0,0,.052-.656v-.2l.316.077.034.065a.449.449,0,0,0,.053.08,5.619,5.619,0,0,1,.5.764,2.214,2.214,0,0,1,.217.7,1.3,1.3,0,0,1-.009.136h.021l-.04.161s-.015.046-.031.087-.022.062-.028.074l-.124-.037.118.059-.065.13h-.009a.43.43,0,0,1-.365.179h-.031Zm-.257-1.878c-.009.1-.025.2-.04.309-.009.059-.022.121-.034.179a2.213,2.213,0,0,0-.062.575c.022.248.2.514.411.5.093-.006.114-.009.17-.121a.713.713,0,0,1,.028-.084c.006-.019.015-.04.019-.053.006-.043.021-.173.021-.22a1.784,1.784,0,0,0-.182-.563,4.586,4.586,0,0,0-.328-.529Zm-1.934-.972a1.681,1.681,0,0,1-.73-.158,1.274,1.274,0,0,1-.48-.412.663.663,0,0,1-.1-.2l-.022-.006-.007-.09a.232.232,0,0,1,.034-.2h-.006l.068-.118.025.009a.591.591,0,0,1,.223-.105.87.87,0,0,1,.56.046,2.746,2.746,0,0,1,1.027.919l.145.183-.226.062a1.982,1.982,0,0,1-.517.071m-.95-.739a.952.952,0,0,0,.356.3,1.461,1.461,0,0,0,.792.118,2.113,2.113,0,0,0-.749-.628.589.589,0,0,0-.365-.031.309.309,0,0,0-.1.04.146.146,0,0,1-.006.034.177.177,0,0,1,.012.043.317.317,0,0,0,.058.121Zm3.6.309.056-.22a5.142,5.142,0,0,1,.538-1.448.943.943,0,0,1,.492-.442c.012,0,.04-.012.074-.019a.326.326,0,0,0,.046-.012l.037-.022.021.012.124.006v.108l.012-.108h.018l.13.015v.059a.57.57,0,0,1,.034.059,1.051,1.051,0,0,1,.053.727,1.742,1.742,0,0,1-.347.656,1.66,1.66,0,0,1-1.067.591l-.223.028Zm1.278-1.838s-.028.006-.047.012l-.043.009c-.015.006-.114.062-.136.077a.9.9,0,0,0-.2.238,4.217,4.217,0,0,0-.44,1.117,1.416,1.416,0,0,0,.919-.968.8.8,0,0,0-.015-.48h-.044Z" transform="translate(-97.977 -71.161)" fill="#da725a"/>
    <path id="Tracé_388" data-name="Tracé 388" d="M120.948,172.152a3.97,3.97,0,0,0-.065-.5,2.625,2.625,0,0,0-2.082-2.1,1.881,1.881,0,0,0-1.983,2.064,4.016,4.016,0,0,0,.931,2.11,3.268,3.268,0,0,0-2.206.78,1.953,1.953,0,0,0-.368,2.454,2.172,2.172,0,0,0,2.537.65,3.041,3.041,0,0,0,1.426-1.126,3.433,3.433,0,0,0,.269.288,2.461,2.461,0,0,0,1.225.61,2.07,2.07,0,0,0,2.271-1.194,2.049,2.049,0,0,0-.628-2.3,2.6,2.6,0,0,0-.585-.381c.046-.028.093-.056.142-.08a2.911,2.911,0,0,1,.48-.161,2.749,2.749,0,0,1,.452-.031c.053.006.105.009.155.019.4.068,3.7-.405,3.762-.826a.783.783,0,0,0-.61-.907A16.744,16.744,0,0,0,120.948,172.152Zm-2.515-.291a1,1,0,0,1-.074-.353,1.649,1.649,0,0,1,.031-.207c.006-.022.046-.1.05-.114.037-.043.108-.121.08-.093.022-.022.015-.028.087-.015a.922.922,0,0,1,.511.347,1.576,1.576,0,0,1,.278.613,1.512,1.512,0,0,1-.17,1.1,4.833,4.833,0,0,1-.786-1.272Zm-1.668,4.35a.729.729,0,0,1-.238-.062c-.025-.006-.108-.074-.046-.031s-.049-.068-.037-.04a.355.355,0,0,1,.028-.26.728.728,0,0,1,.316-.34,2.685,2.685,0,0,1,1.281-.229,1.679,1.679,0,0,1-.761.851,1.132,1.132,0,0,1-.538.111Zm4.4-1.235c.05.037.189.176.189.176.015.019.118.189.09.133a.315.315,0,0,1-.012.384.645.645,0,0,1-.86.056,3.083,3.083,0,0,1-.566-.569,3.759,3.759,0,0,0-.507-.464l.05-.037c.037.006.077.009.118.012a5.663,5.663,0,0,1,.885.077,2,2,0,0,1,.622.232Z" transform="translate(-79.342 -117.082)" fill="#da725a"/>
    <path id="Tracé_389" data-name="Tracé 389" d="M116.5,177.573a1.989,1.989,0,0,1-1.4-3.524,3.225,3.225,0,0,1,2.027-.8,3.845,3.845,0,0,1-.8-1.965,2.242,2.242,0,0,1,.678-1.726,1.834,1.834,0,0,1,1.476-.5,2.909,2.909,0,0,1,2.268,2.531,18.089,18.089,0,0,1,5.015-.557.942.942,0,0,1,.739,1.083.328.328,0,0,1-.152.213,11.458,11.458,0,0,1-3.79.739c-.034-.006-.068-.009-.1-.012h-.043a1.906,1.906,0,0,0-.411.025,2.481,2.481,0,0,0-.306.1,2.606,2.606,0,0,1,.35.257,2.132,2.132,0,0,1-1.773,3.762,2.635,2.635,0,0,1-1.3-.647,1.9,1.9,0,0,1-.158-.158,3.146,3.146,0,0,1-1.38,1.024,2.711,2.711,0,0,1-.928.164Zm1.776-8.221a1.525,1.525,0,0,0-1.058.427,1.925,1.925,0,0,0-.582,1.488,3.9,3.9,0,0,0,.9,2.023l.17.232-.285.015a3.157,3.157,0,0,0-2.1.736,1.81,1.81,0,0,0-.347,2.256,2.035,2.035,0,0,0,2.355.591,2.889,2.889,0,0,0,1.352-1.071l.114-.164.13.152a2.632,2.632,0,0,0,.257.272,2.321,2.321,0,0,0,1.148.572,1.821,1.821,0,0,0,1.519-3.221,2.318,2.318,0,0,0-.548-.356l-.257-.121.241-.149c.05-.031.1-.059.152-.087a3.089,3.089,0,0,1,.517-.176,2.722,2.722,0,0,1,.492-.034l.056.006c.04,0,.084.009.124.015a10.988,10.988,0,0,0,3.589-.715.635.635,0,0,0-.489-.715,16.646,16.646,0,0,0-5.018.616l-.217.124-.015-.248a3.146,3.146,0,0,0-.062-.476,2.471,2.471,0,0,0-1.949-1.983,1.627,1.627,0,0,0-.173-.009Zm-1.782,6.677h-.071a.586.586,0,0,1-.217-.049l-.015.015-.071-.049a.236.236,0,0,1-.139-.152h-.009l-.046-.124.022-.012a.569.569,0,0,1,.056-.238.878.878,0,0,1,.381-.411,2.792,2.792,0,0,1,1.355-.248h.232l-.09.213a1.814,1.814,0,0,1-.835.928,1.306,1.306,0,0,1-.548.13Zm-.22-.356.043.015a.339.339,0,0,0,.13.028.986.986,0,0,0,.455-.1,1.457,1.457,0,0,0,.579-.554,2.113,2.113,0,0,0-.953.2.56.56,0,0,0-.248.272.318.318,0,0,0-.028.1l.025.025Zm4.412,0a1.01,1.01,0,0,1-.532-.158,2.339,2.339,0,0,1-.48-.461c-.04-.046-.077-.09-.118-.133a3.286,3.286,0,0,0-.486-.442l-.164-.124.257-.2.071.012a.5.5,0,0,0,.1.009,5.676,5.676,0,0,1,.91.08,2.116,2.116,0,0,1,.684.26c.025.019.065.056.1.09l.015-.012.1.127s.028.04.049.074.037.056.043.068l-.108.077.124-.059.059.133-.009.006a.431.431,0,0,1-.08.4.636.636,0,0,1-.538.257Zm-1.12-1.185c.074.071.149.145.22.223.04.043.08.093.121.139a2.206,2.206,0,0,0,.415.4c.207.136.526.164.65-.015.053-.077.062-.1.012-.207-.019-.025-.037-.053-.053-.077l-.028-.043c-.031-.031-.124-.121-.161-.152a1.859,1.859,0,0,0-.557-.2A4.158,4.158,0,0,0,119.563,174.488Zm-.665-1.426-.139-.176a5.016,5.016,0,0,1-.811-1.315,1.174,1.174,0,0,1-.084-.405,1.491,1.491,0,0,1,.04-.257.34.34,0,0,1,.031-.071l.025-.084.022-.012.084-.093.084.068-.077-.077.012-.012.093-.093.046.04a.242.242,0,0,1,.068.009,1.068,1.068,0,0,1,.606.405,1.749,1.749,0,0,1,.306.674,1.657,1.657,0,0,1-.192,1.207l-.118.192Zm-.659-1.6a4.027,4.027,0,0,0,.613,1.03,1.438,1.438,0,0,0,.049-.773,1.457,1.457,0,0,0-.248-.548.779.779,0,0,0-.39-.282l-.028.034a.413.413,0,0,0-.019.043l-.019.04c0,.019-.022.13-.022.155a.944.944,0,0,0,.065.3Z" transform="translate(-79.003 -116.742)" fill="#da725a"/>
    <path id="Tracé_390" data-name="Tracé 390" d="M224.126,65.258a9.888,9.888,0,0,1,4.894-.876,14.792,14.792,0,0,1-3,3.83,7.391,7.391,0,0,1-4.335,1.717,11.492,11.492,0,0,1,3.815-2.713c.913-.4.2-1.77-.708-1.374a12.6,12.6,0,0,0-4.155,2.936c.1-1.643,2.162-2.905,3.493-3.524Z" transform="translate(-152.369 -44.442)" fill="#fff"/>
    <path id="Tracé_391" data-name="Tracé 391" d="M165.1,26.117a8.548,8.548,0,0,1-1.658-.526,3.319,3.319,0,0,1-1.751-2.082,2.349,2.349,0,0,1,.5-2.283,1.954,1.954,0,0,1,2.218-.517,3.674,3.674,0,0,1,1.977,2.42c.015.068.025.139.037.207v.006c0,.043.006.09.006.133.006.2,0,.4-.012.6-.025.48-.08.959-.145,1.436-.04.291-.087.582-.133.873l-1.04-.269Z" transform="translate(-111.597 -14.193)" fill="#fff"/>
    <path id="Tracé_392" data-name="Tracé 392" d="M192.51,36.129a2.308,2.308,0,0,1,2.088-1.071,2.041,2.041,0,0,1,.944.415,1.406,1.406,0,0,1,.517,1.018,2.624,2.624,0,0,1-.34,1.463,2.149,2.149,0,0,1-1,.851,8.841,8.841,0,0,1-2.59.575.732.732,0,0,0-.012-.306,3.727,3.727,0,0,1,.39-2.945Z" transform="translate(-132.585 -24.205)" fill="#fff"/>
    <path id="Tracé_393" data-name="Tracé 393" d="M171.228,56.749a1.579,1.579,0,0,1-.548-.78.883.883,0,0,1,.121-.873,2.979,2.979,0,0,1,2.339-.77,4.529,4.529,0,0,1,2.747.99,10.154,10.154,0,0,1-2.088,1.42,2.648,2.648,0,0,1-2.571.012" transform="translate(-117.83 -37.517)" fill="#fff"/>
    <path id="Tracé_394" data-name="Tracé 394" d="M207.642,59.441c.031-.08.062-.158.1-.235.009-.015.058-.108.068-.127.041-.068.081-.133.127-.2.025-.034.053-.071.081-.105l.037-.037c.046-.04.093-.084.142-.124.013,0,.124-.068.149-.08h0a.925.925,0,0,1,.1-.025.089.089,0,0,0,.031-.009h.111c.013,0,.05.006.068.006l.068.019c.04.012.189.074.161.062a.935.935,0,0,1,.291.238,1.379,1.379,0,0,1,.281.73,2.3,2.3,0,0,1-.251,1.148,1.964,1.964,0,0,1-1.847,1.148.765.765,0,0,0-.167.019,10.855,10.855,0,0,1,.149-1.309,6.285,6.285,0,0,1,.3-1.12Z" transform="translate(-143.087 -40.4)" fill="#fff"/>
    <path id="Tracé_395" data-name="Tracé 395" d="M186.005,77.667c-.226-.167-.461-.489-.353-.774s.517-.427.8-.5a4.438,4.438,0,0,1,2.506.155,4.643,4.643,0,0,1,1.68,1.036,12.8,12.8,0,0,0-1.59.319,3.8,3.8,0,0,1-3.048-.238" transform="translate(-128.193 -52.679)" fill="#fff"/>
    <path id="Tracé_396" data-name="Tracé 396" d="M137.847,83.433a8.19,8.19,0,0,1-4.725-3.555,7.776,7.776,0,0,1,2.884-1.309,6.274,6.274,0,0,1,3.4.065,7.821,7.821,0,0,1,2.562,1.689,10.232,10.232,0,0,0-2.571.025.778.778,0,0,0-.588.922.788.788,0,0,0,.922.588,5.2,5.2,0,0,1,3.812.709c.077.056.151.114.226.173a8.119,8.119,0,0,1-5.922.69Z" transform="translate(-91.934 -54.121)" fill="#fff"/>
    <path id="Tracé_397" data-name="Tracé 397" d="M160.932,108.908a1.059,1.059,0,0,1,.232-.275,1.28,1.28,0,0,1,.183-.1c.019-.006.109-.025.121-.031.056,0,.164.012.124.006.031,0,.031,0,.065.059a.916.916,0,0,1,.041.616,1.584,1.584,0,0,1-.312.594,1.514,1.514,0,0,1-.972.538,4.837,4.837,0,0,1,.519-1.4Z" transform="translate(-110.781 -74.93)" fill="#fff"/>
    <path id="Tracé_398" data-name="Tracé 398" d="M147.454,113.1a.735.735,0,0,1-.1-.226c-.009-.022-.009-.133-.006-.056s.025-.08.009-.056a.355.355,0,0,1,.22-.139.754.754,0,0,1,.464.037,2.694,2.694,0,0,1,.968.873,1.656,1.656,0,0,1-1.139-.08,1.139,1.139,0,0,1-.418-.356Z" transform="translate(-101.758 -77.764)" fill="#fff"/>
    <path id="Tracé_399" data-name="Tracé 399" d="M157.45,119.665c0,.062-.025.257-.022.257-.006.022-.077.207-.049.155-.081.164-.143.213-.309.226-.309.019-.545-.316-.575-.644a3.278,3.278,0,0,1,.1-.8,3.711,3.711,0,0,0,.056-.684.4.4,0,0,0,.059.015,1.008,1.008,0,0,0,.062.1,5.414,5.414,0,0,1,.482.746,1.962,1.962,0,0,1,.2.631Z" transform="translate(-108.072 -81.615)" fill="#fff"/>
    <path id="Tracé_400" data-name="Tracé 400" d="M287.4,113.474a1.108,1.108,0,0,1,.21.294,1.3,1.3,0,0,1,.053.2v.124c-.015.053-.053.155-.037.118-.012.031,0,.031-.071.049a.932.932,0,0,1-.606-.114,1.611,1.611,0,0,1-.5-.452,1.5,1.5,0,0,1-.278-1.074A4.944,4.944,0,0,1,287.4,113.474Z" transform="translate(-197.621 -77.775)" fill="#fff"/>
    <path id="Tracé_401" data-name="Tracé 401" d="M287.7,100.257a.713.713,0,0,1,.241-.037c.024,0,.13.025.056.009s.074.043.049.022a.345.345,0,0,1,.077.248.743.743,0,0,1-.152.439,2.613,2.613,0,0,1-1.086.718,1.654,1.654,0,0,1,.362-1.083,1.139,1.139,0,0,1,.449-.316Z" transform="translate(-198.121 -69.212)" fill="#fff"/>
    <path id="Tracé_402" data-name="Tracé 402" d="M276.872,107.572c-.062-.015-.241-.087-.241-.087-.022-.012-.183-.127-.136-.087a.312.312,0,0,1-.139-.356.649.649,0,0,1,.767-.4,3.275,3.275,0,0,1,.746.294,3.441,3.441,0,0,0,.65.223c-.009.019-.022.034-.031.053a.8.8,0,0,0-.111.037,5.382,5.382,0,0,1-.841.282,2,2,0,0,1-.662.034Z" transform="translate(-190.843 -73.643)" fill="#fff"/>
    <path id="Tracé_403" data-name="Tracé 403" d="M122.7,259.449a12.28,12.28,0,0,1,12.051-2.376,12.285,12.285,0,0,1-16.024,14A12.282,12.282,0,0,1,122.7,259.449Z" transform="translate(-81.832 -177.081)" fill="#fff"/>
    <path id="Tracé_404" data-name="Tracé 404" d="M132.348,265.344l-4.663-.863a.329.329,0,0,0-.121.647l4.149.767-2.605,2.274-3.444-.637a.332.332,0,0,0-.384.263.328.328,0,0,0,.263.384l2.93.541-3.843,3.357a.329.329,0,1,0,.433.5l3.821-3.338.037,2.794a.329.329,0,0,0,.65.071.337.337,0,0,0,.009-.08l-.043-3.354,2.587-2.259.053,3.985a.329.329,0,0,0,.65.071.337.337,0,0,0,.009-.08l-.059-4.545,2.7-2.364.037,2.794a.329.329,0,0,0,.65.071.337.337,0,0,0,.009-.08l-.043-3.354,1.832-1.6a.343.343,0,0,0,.105-.17.333.333,0,0,0-.071-.294.329.329,0,0,0-.464-.031l-1.825,1.593-3.444-.637a.332.332,0,0,0-.384.263.328.328,0,0,0,.263.384l2.93.541-2.723,2.379Z" transform="translate(-85.993 -180.057)" fill="#da725a"/>
    <path id="Tracé_405" data-name="Tracé 405" d="M124.512,272.5h-.034a.481.481,0,0,1-.331-.164.472.472,0,0,1-.118-.353.482.482,0,0,1,.164-.331l3.6-3.147-2.614-.483a.46.46,0,0,1-.309-.2.47.47,0,0,1-.077-.362.484.484,0,0,1,.563-.387l3.369.622,2.308-2.014-3.837-.709a.484.484,0,0,1-.309-.2.471.471,0,0,1-.077-.362.482.482,0,0,1,.2-.309.469.469,0,0,1,.362-.077l4.589.848,2.425-2.119-2.614-.483a.481.481,0,0,1-.309-.2.467.467,0,0,1-.077-.362.486.486,0,0,1,.563-.387l3.369.622,1.77-1.547a.484.484,0,0,1,.789.476.467.467,0,0,1-.152.251l-1.776,1.553.043,3.283a.506.506,0,0,1-.012.118.484.484,0,0,1-.808.235.472.472,0,0,1-.145-.34l-.031-2.46-2.4,2.1.058,4.474a.507.507,0,0,1-.012.118.485.485,0,0,1-.464.371h-.006a.484.484,0,0,1-.483-.476l-.049-3.651-2.28,1.993.043,3.283a.507.507,0,0,1-.012.118.485.485,0,0,1-.464.371.5.5,0,0,1-.343-.136.469.469,0,0,1-.145-.34l-.031-2.46-3.567,3.116a.486.486,0,0,1-.319.121Zm.758-5.13a.181.181,0,0,0-.173.142.161.161,0,0,0,.028.13.168.168,0,0,0,.111.071l3.246.6-4.084,3.567a.18.18,0,0,0-.059.121.172.172,0,0,0,.043.127.18.18,0,0,0,.121.059.192.192,0,0,0,.127-.043l4.072-3.558.04,3.131a.175.175,0,0,0,.173.173.172.172,0,0,0,.167-.133.089.089,0,0,0,0-.04l-.046-3.428,2.893-2.525.056,4.319a.173.173,0,0,0,.053.124.243.243,0,0,0,.123.049.172.172,0,0,0,.167-.133.208.208,0,0,0,.006-.043l-.062-4.616,3.01-2.63.04,3.131a.174.174,0,0,0,.053.124.182.182,0,0,0,.121.049.172.172,0,0,0,.167-.133.089.089,0,0,0,0-.04l-.046-3.428,1.884-1.646a.184.184,0,0,0,.056-.09.172.172,0,0,0-.037-.155.18.18,0,0,0-.121-.059.2.2,0,0,0-.127.043l-1.881,1.643-3.515-.65a.177.177,0,0,0-.2.142.167.167,0,0,0,.028.13.158.158,0,0,0,.111.071l3.246.6-3.02,2.639-4.737-.876a.161.161,0,0,0-.13.028.168.168,0,0,0-.071.111.16.16,0,0,0,.028.13.167.167,0,0,0,.111.071l4.464.826-2.9,2.534-3.515-.65h-.031Z" transform="translate(-85.654 -179.745)" fill="#da725a"/>
    <path id="Tracé_406" data-name="Tracé 406" d="M141.3,246.384a20.224,20.224,0,0,1-4.994.95,7.767,7.767,0,0,0-4.053,1.683,13.21,13.21,0,0,0-16.51,15.272l.1.526.507.173a13.222,13.222,0,0,0,17.234-15.052v-.006a6.944,6.944,0,0,1,3.243-1.117,18.16,18.16,0,0,0,4.919-.947.8.8,0,0,0,.514-.965.778.778,0,0,0-.966-.514Zm-9.443,4.446A11.358,11.358,0,0,1,117.472,263.4a11.358,11.358,0,0,1,14.384-12.568Z" transform="translate(-79.765 -170.123)" fill="#da725a"/>
    <path id="Tracé_407" data-name="Tracé 407" d="M120.264,265.488a13.28,13.28,0,0,1-4.3-.712l-.594-.2-.121-.616a13.366,13.366,0,0,1,16.621-15.476,7.832,7.832,0,0,1,4.069-1.665c.48-.077.972-.133,1.448-.186a12.043,12.043,0,0,0,3.509-.755.771.771,0,0,1,.644.025,1,1,0,0,1,.532.588.944.944,0,0,1-.6,1.151,13.394,13.394,0,0,1-3.911.835c-.353.04-.7.077-1.052.124a7.111,7.111,0,0,0-3.094,1.03,13.357,13.357,0,0,1-13.15,15.851Zm-4.626-1.148.424.145A13.069,13.069,0,0,0,133.1,249.61l-.019-.1.077-.065a7.246,7.246,0,0,1,3.314-1.148c.35-.046.705-.087,1.058-.124a13.228,13.228,0,0,0,3.821-.811.645.645,0,0,0,.427-.777.7.7,0,0,0-.365-.4.481.481,0,0,0-.39-.022,12.409,12.409,0,0,1-3.6.777c-.47.053-.959.108-1.433.186a7.448,7.448,0,0,0-3.973,1.646l-.062.056-.08-.022a13.058,13.058,0,0,0-16.318,15.1l.087.439Zm4.6-.715a11.462,11.462,0,0,1-3.147-.439l-.1-.028-.015-.1a11.512,11.512,0,0,1,14.579-12.738l.1.028.015.1a11.494,11.494,0,0,1-11.432,13.18Zm-2.967-.712a11.2,11.2,0,0,0,14.109-12.323,11.2,11.2,0,0,0-14.106,12.323Z" transform="translate(-79.42 -169.763)" fill="#da725a"/>
    <path id="Tracé_408" data-name="Tracé 408" d="M191.766,253.118c-.05.343-.087.684-.118,1.027a11.2,11.2,0,0,1-2.611,4.347,9,9,0,0,0-6.634.758,18.31,18.31,0,0,0-4.954,4.5.782.782,0,0,0,.186,1.213,11.5,11.5,0,0,0,7.373.393c2.255-.64,5.433-2.355,4.96-5.176a1.1,1.1,0,0,0-.111-.331,13.422,13.422,0,0,0,1.723-2.085,27.864,27.864,0,0,0,.631,4.517c.04.186.089.371.133.557a.566.566,0,0,0-.118.282.371.371,0,0,1-.009.062c-.022-.006-.043-.016-.068-.022a3.54,3.54,0,0,0-3.289.981,3.647,3.647,0,0,0-1.006,3.329,2.439,2.439,0,0,0,2.4,1.832,3.034,3.034,0,0,0,2.32-1.816,9.845,9.845,0,0,0,.668-1.637,26.02,26.02,0,0,0,2.014,4.307,9.93,9.93,0,0,0-3.143.176,3.836,3.836,0,0,0-2.695,3.131,3.138,3.138,0,0,0,1.807,3.335,3.677,3.677,0,0,0,3.747-.483,4.986,4.986,0,0,0,1.841-3.843,18.673,18.673,0,0,0,1.668,1.887c-.207.541-.4,1.086-.585,1.637a8.141,8.141,0,0,0-.581,2.741c.185,2.608,2.6,5.467,5.414,4.276a3.792,3.792,0,0,0,2.317-2.893,4.739,4.739,0,0,0-1.052-3.738,9.819,9.819,0,0,0-3.843-2.358.726.726,0,0,0-.235-.43,16.8,16.8,0,0,1-1.46-1.541,5.822,5.822,0,0,0,.7.235,4.792,4.792,0,0,0,3.827-.424,2.658,2.658,0,0,0,.7-3.459,3.559,3.559,0,0,0-3.409-1.714,10.359,10.359,0,0,0-4.279,1.606c-.273-.526-.526-1.061-.755-1.6a27.741,27.741,0,0,1-1.046-2.918,6.06,6.06,0,0,0,3.923,1.293c1.281-.059,2.6-.848,2.472-2.3-.133-1.516-1.606-2.361-2.958-2.642a9.024,9.024,0,0,0-2.364-.077,3.329,3.329,0,0,1-1.94-.282c-.074-.548-.14-1.1-.179-1.649a22.527,22.527,0,0,1,.009-3.629c.019-.059.04-.114.059-.173a.672.672,0,0,0,0-.427c.015-.139.034-.275.053-.415a.793.793,0,0,0-.572-.931.779.779,0,0,0-.931.572Zm-7.447,10.82a9.879,9.879,0,0,1-4.972-.022,14.739,14.739,0,0,1,3.648-3.227,7.4,7.4,0,0,1,4.573-.91,11.5,11.5,0,0,1-4.242,1.98c-.968.226-.517,1.7.452,1.479a12.637,12.637,0,0,0,4.616-2.141c-.4,1.6-2.652,2.469-4.072,2.837Zm14.548,14.492h0m1.8-2.457a8.522,8.522,0,0,1,1.538.817,3.32,3.32,0,0,1,1.346,2.364,2.352,2.352,0,0,1-.9,2.157,1.955,1.955,0,0,1-2.274.108,3.686,3.686,0,0,1-1.51-2.738v-.217c.006-.043.012-.09.019-.133.031-.2.074-.393.121-.588.111-.467.25-.928.4-1.386.09-.282.192-.557.291-.835l.975.455Zm-6.315-1.16a2.3,2.3,0,0,1-2.246.674,2.031,2.031,0,0,1-.854-.579,1.411,1.411,0,0,1-.325-1.092,2.618,2.618,0,0,1,.6-1.38,2.145,2.145,0,0,1,1.136-.656,8.8,8.8,0,0,1,2.652-.1.783.783,0,0,0-.043.3,3.712,3.712,0,0,1-.916,2.825Zm7.738-6.009a1.607,1.607,0,0,1,.4.866.879.879,0,0,1-.275.835,2.974,2.974,0,0,1-2.438.337,4.516,4.516,0,0,1-2.525-1.47,10.147,10.147,0,0,1,2.311-1.021,2.643,2.643,0,0,1,2.531.452Zm-11.008-1.822a2.453,2.453,0,0,1-.14.214c-.012.012-.077.1-.089.111-.049.059-.105.118-.161.173a1.3,1.3,0,0,1-.1.09c-.013.009-.028.019-.043.028-.056.031-.108.068-.164.1-.012,0-.136.043-.161.053h0c-.034,0-.068,0-.1.006a.072.072,0,0,0-.031,0c-.037-.006-.074-.015-.108-.022-.013,0-.047-.015-.065-.019s-.043-.022-.065-.031c-.037-.022-.17-.108-.149-.09a.931.931,0,0,1-.244-.288,1.365,1.365,0,0,1-.145-.767,2.3,2.3,0,0,1,.455-1.083,1.975,1.975,0,0,1,2.023-.8,1.017,1.017,0,0,0,.167.012,10.052,10.052,0,0,1-.384,1.262A6.522,6.522,0,0,1,191.082,266.983Zm7.7-4.635a.748.748,0,0,1,.207.823c-.164.263-.585.325-.882.343a4.425,4.425,0,0,1-2.435-.6,4.615,4.615,0,0,1-1.463-1.321,14.191,14.191,0,0,0,1.621-.025,3.8,3.8,0,0,1,2.954.783Z" transform="translate(-122.407 -174.398)" fill="#da725a"/>
    <path id="Tracé_409" data-name="Tracé 409" d="M201.057,283.085a3.453,3.453,0,0,1-1.816-.535,5.518,5.518,0,0,1-2.432-4.165,7.761,7.761,0,0,1,.532-2.624l.056-.173c.158-.483.337-.993.551-1.55a19.011,19.011,0,0,1-1.362-1.516,5.012,5.012,0,0,1-1.875,3.555,3.816,3.816,0,0,1-3.9.5,3.284,3.284,0,0,1-1.9-3.5,4,4,0,0,1,2.807-3.258,8.466,8.466,0,0,1,2.738-.2c.059,0,.118,0,.177.006a26.058,26.058,0,0,1-1.733-3.679,9.632,9.632,0,0,1-.541,1.244,3.233,3.233,0,0,1-2.444,1.9,2.594,2.594,0,0,1-2.562-1.946,3.784,3.784,0,0,1,1.043-3.475,3.658,3.658,0,0,1,3.344-1.043.71.71,0,0,1,.084-.192l-.031-.124c-.031-.124-.062-.244-.089-.368a29.092,29.092,0,0,1-.607-4.1,13.15,13.15,0,0,1-1.411,1.665,1.19,1.19,0,0,1,.077.272c.461,2.757-2.444,4.607-5.071,5.35a11.591,11.591,0,0,1-7.472-.4.751.751,0,0,1-.458-.535,1.078,1.078,0,0,1,.21-.922,18.5,18.5,0,0,1,5-4.533,9.2,9.2,0,0,1,6.659-.8,11.164,11.164,0,0,0,2.509-4.2c.037-.387.074-.712.118-1.018a.8.8,0,0,1,.359-.548,1.01,1.01,0,0,1,.761-.155.94.94,0,0,1,.69,1.1c-.019.127-.034.254-.046.377a.885.885,0,0,1-.013.483c-.009.034-.021.068-.034.1l-.019.059a23.11,23.11,0,0,0-.009,3.586c.034.47.09.981.167,1.562a3.346,3.346,0,0,0,1.788.223,9.224,9.224,0,0,1,2.4.08c1.4.294,2.939,1.179,3.082,2.782a2.011,2.011,0,0,1-.486,1.535,3.048,3.048,0,0,1-2.135.931,6.049,6.049,0,0,1-3.648-1.055c.266.845.569,1.674.906,2.466.2.467.421.944.681,1.454l.282-.148a9.278,9.278,0,0,1,3.924-1.4,3.7,3.7,0,0,1,3.555,1.8,2.8,2.8,0,0,1-.746,3.657,5,5,0,0,1-3.954.449,1.559,1.559,0,0,1-.161-.046c.347.387.7.752,1.067,1.089a.886.886,0,0,1,.266.433l.278.121a9.015,9.015,0,0,1,3.546,2.249,4.906,4.906,0,0,1,1.086,3.861,3.917,3.917,0,0,1-2.41,3.01,3.522,3.522,0,0,1-1.383.291Zm-4.734-11.408.26.337a18.611,18.611,0,0,0,1.655,1.872l.071.071-.037.1c-.226.591-.418,1.123-.582,1.631l-.056.173a7.54,7.54,0,0,0-.517,2.512,5.183,5.183,0,0,0,2.284,3.917,3.09,3.09,0,0,0,2.915.223,3.62,3.62,0,0,0,2.224-2.772,4.616,4.616,0,0,0-1.018-3.617,8.788,8.788,0,0,0-3.432-2.163l-.43-.189-.012-.084a.567.567,0,0,0-.189-.34,17.242,17.242,0,0,1-1.473-1.553l-.393-.47.569.226a5.7,5.7,0,0,0,.68.229,4.665,4.665,0,0,0,3.7-.4,2.492,2.492,0,0,0,.65-3.261,3.421,3.421,0,0,0-3.264-1.631,9.089,9.089,0,0,0-3.793,1.364l-.557.3-.071-.139c-.294-.569-.541-1.1-.761-1.615a27.757,27.757,0,0,1-1.052-2.936l-.136-.458.38.291a5.87,5.87,0,0,0,3.821,1.259,2.721,2.721,0,0,0,1.915-.826,1.677,1.677,0,0,0,.408-1.3c-.127-1.436-1.547-2.234-2.837-2.506a8.615,8.615,0,0,0-2.314-.074,3.55,3.55,0,0,1-2.036-.3l-.065-.037-.009-.074c-.087-.619-.145-1.163-.182-1.661a23.146,23.146,0,0,1,.009-3.654l.006-.034.028-.084c.009-.031.022-.059.031-.09a.537.537,0,0,0,0-.334l-.009-.031.006-.065c.015-.13.031-.257.049-.387a.642.642,0,0,0-.455-.758.673.673,0,0,0-.517.108.5.5,0,0,0-.226.337c-.043.306-.08.631-.118,1.021l-.006.034a11.467,11.467,0,0,1-2.649,4.409l-.065.065-.09-.025a8.877,8.877,0,0,0-6.519.746,18.289,18.289,0,0,0-4.907,4.462.757.757,0,0,0-.145.644.445.445,0,0,0,.272.322,11.28,11.28,0,0,0,7.274.387c2.5-.709,5.278-2.447,4.852-5a.937.937,0,0,0-.1-.285l-.053-.1.081-.08a13.114,13.114,0,0,0,1.7-2.061l.257-.387.025.464a28.019,28.019,0,0,0,.628,4.489c.028.121.056.241.087.362l.065.263-.046.059a.39.39,0,0,0-.084.2l-.025.223-.214-.037a3.379,3.379,0,0,0-3.168.928,3.511,3.511,0,0,0-.968,3.184,2.3,2.3,0,0,0,2.237,1.717,2.947,2.947,0,0,0,2.194-1.733,9.993,9.993,0,0,0,.659-1.612l.136-.436.155.43a25.938,25.938,0,0,0,2,4.282l.142.241-.279-.009c-.151,0-.3-.009-.458-.015a8.085,8.085,0,0,0-2.639.186,3.685,3.685,0,0,0-2.587,3.007,2.969,2.969,0,0,0,1.717,3.171,3.5,3.5,0,0,0,3.586-.464A4.809,4.809,0,0,0,196.3,272.1l.016-.427Zm4.718,9.848a1.94,1.94,0,0,1-1.108-.34,3.822,3.822,0,0,1-1.578-2.856v-.248a.134.134,0,0,1,.007-.022l.015-.1v-.019c.031-.179.068-.371.123-.6.1-.408.223-.838.4-1.4.084-.254.17-.5.26-.752l.087-.248,1.368.634a7.316,7.316,0,0,1,1.324.721,3.49,3.49,0,0,1,1.408,2.475,2.485,2.485,0,0,1-.968,2.3,2.333,2.333,0,0,1-1.343.452Zm-1.612-6.157c-.08.223-.157.446-.232.671-.179.551-.3.975-.4,1.374-.053.223-.09.408-.118.579l-.019.13c0,.065,0,.127,0,.192a3.5,3.5,0,0,0,1.442,2.618,1.808,1.808,0,0,0,2.1-.108,2.189,2.189,0,0,0,.838-2.02,3.179,3.179,0,0,0-1.284-2.252,6.968,6.968,0,0,0-1.268-.69Zm-7.128-.012a2.111,2.111,0,0,1-.591-.084,2.222,2.222,0,0,1-.931-.631,1.578,1.578,0,0,1-.359-1.2,2.754,2.754,0,0,1,.634-1.463,2.284,2.284,0,0,1,1.213-.705,7.652,7.652,0,0,1,2.348-.121l.557.025-.068.2a.582.582,0,0,0-.034.244,3.855,3.855,0,0,1-.959,2.942,2.561,2.561,0,0,1-1.807.8Zm1.343-3.932a5.012,5.012,0,0,0-1.3.142,2.006,2.006,0,0,0-1.058.606,2.45,2.45,0,0,0-.56,1.293,1.258,1.258,0,0,0,.291.981,1.974,1.974,0,0,0,.777.526,2.149,2.149,0,0,0,2.094-.634,3.544,3.544,0,0,0,.87-2.71,1.5,1.5,0,0,1,.006-.164l-.167-.009c-.316-.015-.634-.034-.953-.034Zm6.76-.684a5,5,0,0,1-1.018-.111,4.7,4.7,0,0,1-2.611-1.522l-.121-.145.167-.09a10.426,10.426,0,0,1,2.345-1.036,2.867,2.867,0,0,1,2.679.5,1.747,1.747,0,0,1,.442.959,1.031,1.031,0,0,1-.328.965,2.312,2.312,0,0,1-1.556.483Zm-3.264-1.689a4.443,4.443,0,0,0,2.311,1.275,2.961,2.961,0,0,0,2.3-.3.732.732,0,0,0,.226-.709,1.426,1.426,0,0,0-.356-.773,2.576,2.576,0,0,0-2.379-.411,9.286,9.286,0,0,0-2.1.916Zm-7.388-1.5-.152-.028-.068-.019-.034-.012-.071-.034c-.021-.012-.071-.04-.108-.065l-.043-.028.077-.133-.1.121-.114-.09.007-.006a1.221,1.221,0,0,1-.17-.229,1.516,1.516,0,0,1-.167-.869,2.453,2.453,0,0,1,.483-1.154,2.114,2.114,0,0,1,2.175-.86.7.7,0,0,0,.139.009h.2l-.046.192a10.046,10.046,0,0,1-.39,1.281,6.543,6.543,0,0,1-.507,1.074,2.6,2.6,0,0,1-.145.223l-.053.068c-.019.025-.04.049-.046.059a2.4,2.4,0,0,1-.17.183c-.034.034-.068.065-.105.1a.377.377,0,0,1-.065.043l-.043.025c-.04.025-.083.049-.127.074l-.034.019h-.037a.2.2,0,0,1-.049.022c-.034.012-.065.022-.077.025l-.161.019Zm-.312-.446c.015.009.031.019.043.025a.926.926,0,0,0,.089.056l.173.053h.013l.1-.006a.189.189,0,0,1,.034-.015.452.452,0,0,1,.09-.028l.093-.056.074-.046c.025-.022.053-.049.084-.077.053-.053.1-.105.152-.161l.037-.046c.025-.031.049-.062.055-.071.034-.049.077-.121.121-.189a6.21,6.21,0,0,0,.483-1.024,10.02,10.02,0,0,0,.334-1.064,1.815,1.815,0,0,0-1.872.736,2.14,2.14,0,0,0-.427,1.015,1.215,1.215,0,0,0,.127.668.793.793,0,0,0,.2.241Zm-7.921-3.072a9.9,9.9,0,0,1-2.568-.334l-.241-.065.164-.186a14.883,14.883,0,0,1,3.688-3.258,7.486,7.486,0,0,1,4.669-.928l.383.046-.312.232a11.716,11.716,0,0,1-4.3,2.008.514.514,0,0,0-.4.662.644.644,0,0,0,.783.517,12.41,12.41,0,0,0,4.56-2.113l.344-.254-.1.415c-.446,1.8-3.075,2.664-4.183,2.949a9.957,9.957,0,0,1-2.484.309Zm-2.243-.569a9.808,9.808,0,0,0,4.65-.04c.953-.244,3.082-.928,3.784-2.268a12.577,12.577,0,0,1-4.257,1.872.955.955,0,0,1-1.154-.746.822.822,0,0,1,.634-1.033,11.4,11.4,0,0,0,3.852-1.714,7.152,7.152,0,0,0-4.069.928,14.257,14.257,0,0,0-3.441,3Zm18.248-.148a4.629,4.629,0,0,1-2.277-.631,4.759,4.759,0,0,1-1.513-1.364l-.192-.269.328.022a12.264,12.264,0,0,0,1.47-.019l.133-.006a3.779,3.779,0,0,1,3.075.832.884.884,0,0,1,.226,1.012,1.179,1.179,0,0,1-1,.418c-.08.006-.164.006-.244.006Zm-3.338-1.918a4.444,4.444,0,0,0,1.213,1.018,4.257,4.257,0,0,0,2.351.585c.507-.031.693-.164.758-.272.1-.17-.019-.455-.189-.637a3.514,3.514,0,0,0-2.834-.736l-.133.006c-.384.022-.777.04-1.17.034Z" transform="translate(-122.05 -174.033)" fill="#da725a"/>
    <path id="Tracé_410" data-name="Tracé 410" d="M252.848,250.228c.446,1.463.854,2.939,1.346,4.387a13.824,13.824,0,0,0,1.259,2.775.385.385,0,0,0,.028.1.208.208,0,0,1,.015.037.63.63,0,0,0,.049.111,15.287,15.287,0,0,0,3.447,5.124,6.453,6.453,0,0,0,2.677,1.55,9.033,9.033,0,0,0,3.394.269,9.452,9.452,0,0,0,3.756-1.238.787.787,0,0,0,.334-.885,9.547,9.547,0,0,0-12.559-6.185,11.782,11.782,0,0,1-.681-1.442c-.646-1.643-1.074-3.376-1.587-5.062a.774.774,0,0,0-1.479.452Zm10.606,7.741a8.181,8.181,0,0,1,4.007,4.347,7.763,7.763,0,0,1-3.073.767,6.283,6.283,0,0,1-3.332-.678,7.824,7.824,0,0,1-2.215-2.122,10.037,10.037,0,0,0,2.534.439.78.78,0,0,0,.746-.8.793.793,0,0,0-.8-.746,5.21,5.21,0,0,1-3.623-1.383c-.065-.068-.127-.139-.192-.21a8.119,8.119,0,0,1,5.947.39Z" transform="translate(-174.591 -172.126)" fill="#da725a"/>
    <path id="Tracé_411" data-name="Tracé 411" d="M263.73,264.464a9.139,9.139,0,0,1-2.447-.331,6.567,6.567,0,0,1-2.741-1.584,15.3,15.3,0,0,1-3.484-5.176.617.617,0,0,1-.056-.127.479.479,0,0,1-.04-.124,14.148,14.148,0,0,1-1.259-2.785c-.347-1.018-.656-2.067-.956-3.082-.13-.439-.26-.876-.393-1.312a.928.928,0,0,1,1.776-.538c.145.476.285.959.421,1.442.343,1.2.7,2.438,1.16,3.608a11.57,11.57,0,0,0,.606,1.306,9.7,9.7,0,0,1,12.633,6.33.936.936,0,0,1-.4,1.061,9.533,9.533,0,0,1-3.818,1.256,9.038,9.038,0,0,1-1,.056Zm-11.08-14.61c.133.436.263.876.393,1.315.3,1.012.606,2.054.95,3.069a13.775,13.775,0,0,0,1.243,2.744l.019.046a.623.623,0,0,0,.019.071l.021.046a.458.458,0,0,0,.04.087,14.991,14.991,0,0,0,3.416,5.083,6.2,6.2,0,0,0,2.614,1.513,8.963,8.963,0,0,0,3.335.266,9.271,9.271,0,0,0,3.694-1.216.632.632,0,0,0,.266-.705,9.523,9.523,0,0,0-9.514-6.689,9.624,9.624,0,0,0-2.84.606l-.124.046-.065-.114a12.093,12.093,0,0,1-.69-1.46c-.467-1.185-.823-2.429-1.17-3.635-.139-.48-.275-.959-.421-1.436a.62.62,0,0,0-1.185.362Zm11.046,13.06a6.185,6.185,0,0,1-3.06-.705,7.753,7.753,0,0,1-2.259-2.166l-.3-.4.467.158a9.7,9.7,0,0,0,2.494.43.484.484,0,0,0,.368-.152.688.688,0,0,0,.21-.489.644.644,0,0,0-.656-.6,5.4,5.4,0,0,1-3.722-1.429c-.056-.059-.109-.118-.164-.179l-.189-.214.226-.071a8.149,8.149,0,0,1,10.146,4.83l.052.133-.13.062a7.886,7.886,0,0,1-3.131.783c-.114,0-.232.006-.356.006Zm-4.78-2.679a6.951,6.951,0,0,0,1.875,1.7,6.145,6.145,0,0,0,3.249.656,7.5,7.5,0,0,0,2.881-.69,7.831,7.831,0,0,0-9.477-4.582l.025.025a5.049,5.049,0,0,0,3.521,1.337.947.947,0,0,1,.944.894.986.986,0,0,1-.306.721.808.808,0,0,1-.607.238,11.242,11.242,0,0,1-2.107-.309Z" transform="translate(-174.245 -171.799)" fill="#da725a"/>
    <path id="Tracé_412" data-name="Tracé 412" d="M148.274,226.051a3.79,3.79,0,0,0-.176-.473A2.629,2.629,0,0,0,145.592,224a1.88,1.88,0,0,0-1.463,2.46,4.036,4.036,0,0,0,1.383,1.844,3.275,3.275,0,0,0-1.971,1.259,1.953,1.953,0,0,0,.2,2.472,2.176,2.176,0,0,0,2.618.059,3.036,3.036,0,0,0,1.132-1.417,3.035,3.035,0,0,0,.328.22,2.476,2.476,0,0,0,1.33.316,1.975,1.975,0,0,0,.811-3.772,2.539,2.539,0,0,0-.656-.238l.121-.111a2.925,2.925,0,0,1,.43-.266,3.044,3.044,0,0,1,.433-.133c.053-.006.105-.015.158-.019a.774.774,0,0,0-.056-1.547,3.4,3.4,0,0,0-2.113.922Zm-2.515.288a1.1,1.1,0,0,1-.155-.328,1.31,1.31,0,0,1-.015-.207c0-.022.022-.111.022-.124a1.053,1.053,0,0,0,.056-.108c.019-.028.009-.031.08-.034a.924.924,0,0,1,.575.223,1.627,1.627,0,0,1,.408.532,1.515,1.515,0,0,1,.08,1.108,4.831,4.831,0,0,1-1.055-1.061Zm-.637,4.613a.759.759,0,0,1-.244-.006c-.025,0-.124-.046-.053-.019s-.065-.056-.046-.031a.343.343,0,0,1-.034-.257.728.728,0,0,1,.229-.405,2.664,2.664,0,0,1,1.2-.511,1.656,1.656,0,0,1-.551,1A1.162,1.162,0,0,1,145.122,230.952Zm4.01-2.2c.059.025.223.13.223.127.019.015.155.158.118.108a.309.309,0,0,1,.074.374.647.647,0,0,1-.826.251,3.169,3.169,0,0,1-.681-.424,3.587,3.587,0,0,0-.6-.337c.012-.015.028-.031.04-.046a.511.511,0,0,0,.118-.015,5.273,5.273,0,0,1,.879-.124,1.9,1.9,0,0,1,.656.087Z" transform="translate(-98.89 -154.685)" fill="#da725a"/>
    <path id="Tracé_413" data-name="Tracé 413" d="M144.648,232.328a1.971,1.971,0,0,1-1.364-.51,2.115,2.115,0,0,1-.223-2.67,3.2,3.2,0,0,1,1.791-1.241,3.81,3.81,0,0,1-1.222-1.733,2.248,2.248,0,0,1,.269-1.838,1.832,1.832,0,0,1,1.324-.82,2.785,2.785,0,0,1,2.664,1.665,2.64,2.64,0,0,1,.111.269,3.57,3.57,0,0,1,2.033-.808.943.943,0,0,1,.965.888.857.857,0,0,1-.217.631.983.983,0,0,1-.675.337.576.576,0,0,0-.1.012l-.041.006a2.864,2.864,0,0,0-.4.121,3,3,0,0,0-.278.164,2.533,2.533,0,0,1,.4.17,2.131,2.131,0,0,1-.872,4.066,2.65,2.65,0,0,1-1.417-.334,1.676,1.676,0,0,1-.189-.118,3.187,3.187,0,0,1-1.114,1.312,2.665,2.665,0,0,1-1.441.439Zm.83-8.521a1.644,1.644,0,0,0-.213.012,1.531,1.531,0,0,0-1.1.684,1.935,1.935,0,0,0-.229,1.581,3.887,3.887,0,0,0,1.336,1.767l.217.186-.276.08a3.153,3.153,0,0,0-1.884,1.194,1.818,1.818,0,0,0,.173,2.277,2.034,2.034,0,0,0,2.426.043A2.876,2.876,0,0,0,147,230.286l.074-.186.161.121a2.156,2.156,0,0,0,.312.207,2.348,2.348,0,0,0,1.247.3,1.821,1.821,0,0,0,.749-3.481,2.316,2.316,0,0,0-.616-.223l-.279-.062.2-.2c.04-.04.084-.08.127-.118a3.239,3.239,0,0,1,.464-.288,2.9,2.9,0,0,1,.47-.145l.053-.006a.886.886,0,0,1,.127-.012.669.669,0,0,0,.461-.232.555.555,0,0,0,.142-.4.641.641,0,0,0-.637-.6,3.251,3.251,0,0,0-2.017.882l-.183.17-.071-.238a3.33,3.33,0,0,0-.17-.452,2.55,2.55,0,0,0-2.132-1.5Zm-.916,6.983-.08-.031a.228.228,0,0,1-.17-.118H144.3l-.074-.105.019-.019a.556.556,0,0,1,0-.248.876.876,0,0,1,.278-.489,2.79,2.79,0,0,1,1.266-.548l.226-.053-.037.229a1.825,1.825,0,0,1-.6,1.1,1.294,1.294,0,0,1-.575.263.655.655,0,0,1-.223,0h0l-.012.019Zm.016-.331s.031,0,.046.006a.37.37,0,0,0,.133,0,.98.98,0,0,0,.421-.195,1.465,1.465,0,0,0,.439-.668,2.1,2.1,0,0,0-.882.415.549.549,0,0,0-.179.319.242.242,0,0,0,0,.105.169.169,0,0,1,.028.022Zm4.084-.975a1.047,1.047,0,0,1-.34-.059,2.315,2.315,0,0,1-.572-.34c-.05-.034-.1-.071-.143-.1a3.483,3.483,0,0,0-.572-.322l-.189-.084.207-.257.071-.006a.5.5,0,0,0,.1-.012,5.683,5.683,0,0,1,.9-.13,2.181,2.181,0,0,1,.724.1c.028.012.074.04.121.068l.012-.015.121.1.071.065a.675.675,0,0,0,.056.053l-.087.1.1-.084.09.114-.006.006a.427.427,0,0,1,.012.408.7.7,0,0,1-.681.4Zm-1.144-.925c.089.053.176.108.263.167.049.034.1.071.148.108a2.025,2.025,0,0,0,.495.3c.235.084.551.037.631-.161.034-.087.04-.108-.037-.2-.022-.019-.043-.04-.062-.059l-.04-.04c-.034-.022-.145-.09-.192-.111a1.727,1.727,0,0,0-.588-.071,4.585,4.585,0,0,0-.616.074Zm-.972-1.238-.177-.142a5.066,5.066,0,0,1-1.086-1.1,1.228,1.228,0,0,1-.173-.374,1.328,1.328,0,0,1-.022-.257.582.582,0,0,1,.013-.077l.009-.046v-.04l.015-.015.059-.108.1.049-.1-.062a.132.132,0,0,1,.009-.015l.071-.108.053.028a.264.264,0,0,1,.068-.006,1.057,1.057,0,0,1,.683.257,1.791,1.791,0,0,1,.452.588,1.664,1.664,0,0,1,.087,1.219l-.068.213Zm-1-1.408a4.129,4.129,0,0,0,.83.866,1.445,1.445,0,0,0-.127-.764,1.428,1.428,0,0,0-.365-.476.79.79,0,0,0-.442-.186l-.022.037s-.006.028-.009.046l-.01.046c0,.015.01.13.013.155a.865.865,0,0,0,.133.278Zm-.08-.616v0Z" transform="translate(-98.543 -154.349)" fill="#da725a"/>
    <path id="Tracé_414" data-name="Tracé 414" d="M270.265,244.458a3.4,3.4,0,0,0-.415.291,2.628,2.628,0,0,0-.9,2.819,1.882,1.882,0,0,0,2.747.8,4.029,4.029,0,0,0,1.439-1.8,3.27,3.27,0,0,0,1.711,1.593,1.951,1.951,0,0,0,2.345-.808,2.175,2.175,0,0,0-.6-2.549,3.042,3.042,0,0,0-1.655-.743,2.822,2.822,0,0,0,.13-.374,2.448,2.448,0,0,0-.028-1.368,1.975,1.975,0,0,0-3.855.155,2.634,2.634,0,0,0-.068.693c-.047-.028-.093-.059-.14-.09a2.785,2.785,0,0,1-.365-.35,2.74,2.74,0,0,1-.235-.387c-.019-.049-.04-.1-.056-.149a.774.774,0,0,0-1.485.439,3.387,3.387,0,0,0,1.42,1.816Zm.906,2.364a1.1,1.1,0,0,1-.278.229,1.391,1.391,0,0,1-.2.068c-.022,0-.111.006-.124.009a1.047,1.047,0,0,0-.121-.028c-.031-.009-.031,0-.053-.068a.924.924,0,0,1,.071-.613,1.6,1.6,0,0,1,.415-.529,1.509,1.509,0,0,1,1.052-.356A4.929,4.929,0,0,1,271.171,246.822Zm4.629-.532a.82.82,0,0,1,.056.238c0,.025-.015.13-.006.056s-.04.074-.019.053a.336.336,0,0,1-.241.1.747.747,0,0,1-.449-.121,2.678,2.678,0,0,1-.795-1.03,1.679,1.679,0,0,1,1.107.282A1.11,1.11,0,0,1,275.8,246.29Zm-3.131-3.332c.009-.062.068-.248.068-.248.009-.022.115-.189.077-.142a.313.313,0,0,1,.347-.164c.306.04.48.408.449.736a3.2,3.2,0,0,1-.241.764,3.474,3.474,0,0,0-.177.662.454.454,0,0,0-.055-.025,1.132,1.132,0,0,0-.044-.108,5.618,5.618,0,0,1-.34-.82,1.967,1.967,0,0,1-.08-.656Z" transform="translate(-185.634 -166.331)" fill="#da725a"/>
    <path id="Tracé_415" data-name="Tracé 415" d="M270.3,248.484a2.119,2.119,0,0,1-.7-.114,1.824,1.824,0,0,1-1.123-1.08,2.787,2.787,0,0,1,.947-2.995q.107-.088.232-.176a3.544,3.544,0,0,1-1.287-1.767.939.939,0,0,1,.619-1.154.851.851,0,0,1,.665.053.986.986,0,0,1,.5.569c.012.034.025.065.037.1l.015.04a2.472,2.472,0,0,0,.217.353,3.143,3.143,0,0,0,.226.229,2.45,2.45,0,0,1,.065-.427,2.13,2.13,0,0,1,4.152-.167,2.631,2.631,0,0,1,.031,1.454c-.019.071-.043.142-.068.213a3.161,3.161,0,0,1,1.547.752A2.316,2.316,0,0,1,277,247.1a2.117,2.117,0,0,1-2.531.882,3.2,3.2,0,0,1-1.649-1.423,3.861,3.861,0,0,1-1.374,1.618,2.282,2.282,0,0,1-1.151.312Zm-1.04-7.02a.525.525,0,0,0-.167.028.633.633,0,0,0-.427.767A3.268,3.268,0,0,0,270.02,244l.21.133-.213.13a3.224,3.224,0,0,0-.4.278,2.47,2.47,0,0,0-.857,2.645,1.535,1.535,0,0,0,.937.9,1.931,1.931,0,0,0,1.587-.173,3.922,3.922,0,0,0,1.38-1.736l.127-.257.145.248a3.15,3.15,0,0,0,1.627,1.525,1.809,1.809,0,0,0,2.16-.733,2.031,2.031,0,0,0-.563-2.361,2.893,2.893,0,0,0-1.572-.705l-.2-.025.074-.186a3.162,3.162,0,0,0,.124-.353,2.332,2.332,0,0,0-.025-1.281,1.821,1.821,0,0,0-3.558.142,2.366,2.366,0,0,0-.062.653l.009.285-.244-.145-.145-.093a3.05,3.05,0,0,1-.393-.377,2.793,2.793,0,0,1-.257-.421l-.022-.05c-.016-.037-.031-.077-.043-.118a.679.679,0,0,0-.34-.39.6.6,0,0,0-.257-.062Zm.972,5.495-.022-.015-.121-.031.022-.1-.031.1a.053.053,0,0,1-.015-.006l-.127-.04.012-.059a.559.559,0,0,1-.025-.065,1.1,1.1,0,0,1,.077-.727,1.774,1.774,0,0,1,.458-.585,1.67,1.67,0,0,1,1.157-.39l.226.012-.093.2a5.143,5.143,0,0,1-.789,1.327,1.206,1.206,0,0,1-.319.263,1.638,1.638,0,0,1-.244.084l-.077.006-.087.015Zm-.019-.331.043.009h.093c.015-.006.124-.043.148-.056a.818.818,0,0,0,.235-.2,4.1,4.1,0,0,0,.631-1.018,1.4,1.4,0,0,0-.709.316,1.477,1.477,0,0,0-.371.473.811.811,0,0,0-.071.476Zm5.009-.074a.878.878,0,0,1-.5-.148,2.75,2.75,0,0,1-.845-1.089l-.108-.207.232-.019a1.812,1.812,0,0,1,1.21.313,1.291,1.291,0,0,1,.4.492.635.635,0,0,1,.056.213l.022.009-.009.087a.243.243,0,0,1-.068.192l.006.006-.09.1-.022-.012a.533.533,0,0,1-.238.062h-.046Zm-.947-1.157a2.109,2.109,0,0,0,.622.752.582.582,0,0,0,.356.1.225.225,0,0,0,.1-.025.232.232,0,0,1,.012-.034.273.273,0,0,0-.006-.046.349.349,0,0,0-.034-.127.985.985,0,0,0-.294-.359A1.417,1.417,0,0,0,274.274,245.4Zm-1.293-.937-.3-.136-.022-.068a.456.456,0,0,0-.037-.09,5.71,5.71,0,0,1-.35-.842,2.121,2.121,0,0,1-.087-.727,2.509,2.509,0,0,1,.074-.269,1.087,1.087,0,0,1,.053-.1c.015-.028.034-.056.04-.068l.118.059-.108-.084.009-.012.08-.105h.009a.439.439,0,0,1,.393-.108.8.8,0,0,1,.585.9,2.382,2.382,0,0,1-.186.64c-.022.056-.043.108-.065.164a3.564,3.564,0,0,0-.17.634l-.034.2Zm-.489-1.813a1.834,1.834,0,0,0,.077.588,4.246,4.246,0,0,0,.229.579c.028-.1.059-.2.1-.3.022-.056.043-.114.065-.17a2.138,2.138,0,0,0,.167-.554c.025-.248-.1-.541-.312-.569-.093-.012-.114-.012-.189.087a.666.666,0,0,1-.043.08c-.012.019-.022.037-.028.046a2.147,2.147,0,0,0-.059.213Z" transform="translate(-185.308 -165.998)" fill="#da725a"/>
    <path id="Tracé_416" data-name="Tracé 416" d="M189.005,280a9.88,9.88,0,0,1-4.972-.022,14.74,14.74,0,0,1,3.648-3.227,7.4,7.4,0,0,1,4.573-.91,11.5,11.5,0,0,1-4.242,1.98c-.968.226-.517,1.7.452,1.479a12.635,12.635,0,0,0,4.616-2.141c-.4,1.6-2.652,2.469-4.072,2.837Z" transform="translate(-127.093 -190.455)" fill="#fff"/>
    <path id="Tracé_417" data-name="Tracé 417" d="M248.926,327.3a8.513,8.513,0,0,1,1.538.817,3.318,3.318,0,0,1,1.346,2.364,2.351,2.351,0,0,1-.9,2.157,1.955,1.955,0,0,1-2.274.108,3.687,3.687,0,0,1-1.51-2.738v-.217c.007-.043.013-.09.019-.133.031-.2.075-.393.121-.588.111-.467.251-.928.4-1.386.089-.282.192-.557.291-.835l.974.455Z" transform="translate(-170.662 -225.722)" fill="#fff"/>
    <path id="Tracé_418" data-name="Tracé 418" d="M224.877,317.459a2.3,2.3,0,0,1-2.246.674,2.03,2.03,0,0,1-.854-.579,1.41,1.41,0,0,1-.325-1.092,2.618,2.618,0,0,1,.6-1.38,2.146,2.146,0,0,1,1.135-.656,8.8,8.8,0,0,1,2.652-.1.771.771,0,0,0-.043.3,3.712,3.712,0,0,1-.916,2.825Z" transform="translate(-152.929 -217.04)" fill="#fff"/>
    <path id="Tracé_419" data-name="Tracé 419" d="M246.751,303.855a1.6,1.6,0,0,1,.4.866.88.88,0,0,1-.275.835,2.974,2.974,0,0,1-2.438.337,4.515,4.515,0,0,1-2.525-1.47,10.135,10.135,0,0,1,2.311-1.021,2.644,2.644,0,0,1,2.531.452Z" transform="translate(-167.064 -209.444)" fill="#fff"/>
    <path id="Tracé_420" data-name="Tracé 420" d="M218.01,293.986a2.535,2.535,0,0,1-.139.213c-.013.012-.077.1-.09.111-.049.059-.1.118-.161.173-.031.031-.065.062-.1.09-.012.009-.028.019-.043.028-.056.031-.109.068-.164.1-.012,0-.136.043-.161.053h0c-.034,0-.068,0-.1.006a.069.069,0,0,0-.031,0c-.037-.006-.074-.015-.108-.022-.012,0-.046-.015-.065-.019s-.043-.022-.065-.031c-.037-.022-.17-.108-.148-.09a.941.941,0,0,1-.245-.288,1.367,1.367,0,0,1-.145-.767,2.307,2.307,0,0,1,.455-1.083,1.976,1.976,0,0,1,2.024-.8,1.007,1.007,0,0,0,.167.012,10.1,10.1,0,0,1-.384,1.262A6.5,6.5,0,0,1,218.01,293.986Z" transform="translate(-149.332 -201.398)" fill="#fff"/>
    <path id="Tracé_421" data-name="Tracé 421" d="M236.665,282.495a.747.747,0,0,1,.207.823c-.164.263-.585.325-.881.343a4.426,4.426,0,0,1-2.435-.6,4.618,4.618,0,0,1-1.463-1.321,14.191,14.191,0,0,0,1.622-.025,3.8,3.8,0,0,1,2.954.783Z" transform="translate(-160.283 -194.541)" fill="#fff"/>
    <path id="Tracé_422" data-name="Tracé 422" d="M273.942,275.714a8.182,8.182,0,0,1,4.007,4.347,7.762,7.762,0,0,1-3.073.767,6.281,6.281,0,0,1-3.332-.678,7.816,7.816,0,0,1-2.215-2.122,10.036,10.036,0,0,0,2.534.439.781.781,0,0,0,.746-.8.793.793,0,0,0-.8-.746,5.21,5.21,0,0,1-3.623-1.383c-.065-.068-.127-.139-.192-.21a8.119,8.119,0,0,1,5.947.39Z" transform="translate(-185.075 -189.873)" fill="#fff"/>
    <path id="Tracé_423" data-name="Tracé 423" d="M274.666,257.271a1.1,1.1,0,0,1-.278.229,1.375,1.375,0,0,1-.2.068c-.022,0-.111.006-.124.009a1.047,1.047,0,0,0-.121-.028c-.031-.009-.031,0-.053-.068a.926.926,0,0,1,.071-.613,1.6,1.6,0,0,1,.415-.529,1.51,1.51,0,0,1,1.052-.356A4.938,4.938,0,0,1,274.666,257.271Z" transform="translate(-189.131 -176.781)" fill="#fff"/>
    <path id="Tracé_424" data-name="Tracé 424" d="M288.167,256.833a.807.807,0,0,1,.055.238c0,.025-.015.13-.006.056s-.04.074-.019.053a.336.336,0,0,1-.241.1.745.745,0,0,1-.449-.121,2.682,2.682,0,0,1-.8-1.03,1.68,1.68,0,0,1,1.108.282A1.11,1.11,0,0,1,288.167,256.833Z" transform="translate(-198.003 -176.875)" fill="#fff"/>
    <path id="Tracé_425" data-name="Tracé 425" d="M281.287,246.4c.009-.062.068-.247.068-.247.009-.022.114-.189.077-.142a.312.312,0,0,1,.347-.164c.306.04.48.408.449.736a3.2,3.2,0,0,1-.241.764,3.5,3.5,0,0,0-.176.662.442.442,0,0,0-.056-.025,1.123,1.123,0,0,0-.043-.108,5.553,5.553,0,0,1-.34-.82,1.975,1.975,0,0,1-.08-.656Z" transform="translate(-194.255 -169.779)" fill="#fff"/>
    <path id="Tracé_426" data-name="Tracé 426" d="M151.1,229.8a1.106,1.106,0,0,1-.155-.328,1.349,1.349,0,0,1-.015-.207c0-.022.022-.111.022-.124a.907.907,0,0,0,.055-.108c.019-.028.009-.031.081-.034a.925.925,0,0,1,.575.223,1.626,1.626,0,0,1,.408.532,1.515,1.515,0,0,1,.08,1.108A4.823,4.823,0,0,1,151.1,229.8Z" transform="translate(-104.232 -158.146)" fill="#fff"/>
    <path id="Tracé_427" data-name="Tracé 427" d="M148.559,243.758a.758.758,0,0,1-.244-.006c-.025,0-.124-.046-.053-.019s-.065-.056-.046-.031a.344.344,0,0,1-.034-.257.731.731,0,0,1,.229-.405,2.664,2.664,0,0,1,1.2-.511,1.657,1.657,0,0,1-.551,1A1.162,1.162,0,0,1,148.559,243.758Z" transform="translate(-102.327 -167.491)" fill="#fff"/>
    <path id="Tracé_428" data-name="Tracé 428" d="M158.6,239.2c.059.025.223.13.223.127.019.015.155.158.118.108a.31.31,0,0,1,.074.374.647.647,0,0,1-.826.251,3.177,3.177,0,0,1-.681-.424,3.574,3.574,0,0,0-.6-.337c.012-.015.028-.031.04-.046a.514.514,0,0,0,.118-.015,5.266,5.266,0,0,1,.878-.124,1.9,1.9,0,0,1,.656.087Z" transform="translate(-108.363 -165.133)" fill="#fff"/>
    <path id="Tracé_429" data-name="Tracé 429" d="M141.645,364.551a94.127,94.127,0,0,1-28.91,2.259c-11.117-.925-18.2-3.911-26.4-7.367a146.8,146.8,0,0,0-25.854-8.756c-21.386-4.972-39.22-3.4-58.068,5.325v5.167C21.041,352.15,38.5,350.4,59.552,355.3a143.4,143.4,0,0,1,25.191,8.539c8.524,3.592,15.885,6.7,27.651,7.673,2.614.22,5.158.316,7.618.316a99.512,99.512,0,0,0,21.633-2.426Z" transform="translate(-1.666 -240.249)" fill="#da725a"/>
    <path id="Tracé_430" data-name="Tracé 430" d="M120.465,126.566a13.124,13.124,0,0,0,10.869,7.116c.993.056.99-1.491,0-1.547a11.569,11.569,0,0,1-9.533-6.352c-.442-.891-1.779-.108-1.337.78Z" transform="translate(-83.132 -86.594)" fill="#da725a"/>
    <path id="Tracé_431" data-name="Tracé 431" d="M117.5,119.337c-2.017.851-3.753-1.615-4.554-3.134a9.779,9.779,0,0,1-1.052-5.854l-1.135.461a17.806,17.806,0,0,1,5.04,3.351,7.476,7.476,0,0,1,1.98,5.585c-.062.993,1.485.99,1.547,0a9,9,0,0,0-2.265-6.494,17.764,17.764,0,0,0-5.523-3.778c-.393-.2-1.061-.062-1.135.461a11.529,11.529,0,0,0,1.324,7.265c1.145,2.048,3.546,4.74,6.185,3.626a.8.8,0,0,0,.541-.953.781.781,0,0,0-.953-.541Z" transform="translate(-76.158 -75.542)" fill="#da725a"/>
    <path id="Tracé_432" data-name="Tracé 432" d="M105.324,155.435a12.47,12.47,0,0,1,10.17-3.914,13.547,13.547,0,0,1,3.93,1.058.78.78,0,0,0,.953-.541.8.8,0,0,0-.541-.953,14.051,14.051,0,0,0-7.358-1.043,13.725,13.725,0,0,0-5.782,2.231,15.143,15.143,0,0,0-2.463,2.067c-.69.718.4,1.813,1.1,1.1Z" transform="translate(-71.831 -103.536)" fill="#da725a"/>
    <path id="Tracé_433" data-name="Tracé 433" d="M100.454,150.454c-2.274-1.937-5.325-.189-7.144,1.528a11.31,11.31,0,0,0-3.388,6.324.788.788,0,0,0,.953.953,17.376,17.376,0,0,0,6.655-2.113,8.832,8.832,0,0,0,3.83-5.365c.241-.965-1.253-1.38-1.491-.411a7.428,7.428,0,0,1-3.338,4.576,17.133,17.133,0,0,1-6.067,1.819l.953.953a9.909,9.909,0,0,1,2.658-5.312,9.306,9.306,0,0,1,2.42-1.81,2.653,2.653,0,0,1,2.871-.046.793.793,0,0,0,1.1,0,.782.782,0,0,0,0-1.1Z" transform="translate(-62.09 -103.316)" fill="#da725a"/>
    <path id="Tracé_434" data-name="Tracé 434" d="M295.461,224a13.137,13.137,0,0,0-9.075-9.291.774.774,0,0,0-.411,1.491,11.565,11.565,0,0,1,7.995,8.211A.774.774,0,0,0,295.461,224Z" transform="translate(-197.117 -148.256)" fill="#da725a"/>
    <path id="Tracé_435" data-name="Tracé 435" d="M303.446,226.32a2.543,2.543,0,0,1,2.342,1.284,8.94,8.94,0,0,1,1.278,2.778,9.919,9.919,0,0,1-.282,6.1l1.293-.34a17.929,17.929,0,0,1-4.211-4.329,7.509,7.509,0,0,1-.78-5.879.774.774,0,0,0-1.491-.411,9.013,9.013,0,0,0,.808,6.85,18.366,18.366,0,0,0,4.582,4.861.787.787,0,0,0,1.293-.34,11.338,11.338,0,0,0,.133-7.407c-.783-2.385-2.519-5.186-5.377-4.65a.783.783,0,0,0-.541.953.793.793,0,0,0,.953.541Z" transform="translate(-208.048 -155.223)" fill="#da725a"/>
    <path id="Tracé_436" data-name="Tracé 436" d="M307.03,173.25a13.423,13.423,0,0,1-4.919,1.16,11.766,11.766,0,0,1-5.8-1.278,13.631,13.631,0,0,1-3.271-2.4.775.775,0,0,0-1.095,1.1,14.209,14.209,0,0,0,6.451,3.741,13.973,13.973,0,0,0,6.34.062,15.21,15.21,0,0,0,3.078-1.04.78.78,0,0,0,.279-1.058A.794.794,0,0,0,307.03,173.25Z" transform="translate(-201.455 -117.75)" fill="#da725a"/>
    <path id="Tracé_437" data-name="Tracé 437" d="M320.086,175.942c1.361,2.58,4.935,2.036,7.169,1.126a11.647,11.647,0,0,0,5.529-4.694.779.779,0,0,0-.461-1.135c-2.45-.517-5.009-1.027-7.494-.43a9.02,9.02,0,0,0-5.185,3.558.779.779,0,0,0,.278,1.058.789.789,0,0,0,1.058-.278,7.41,7.41,0,0,1,4.4-2.881,15.6,15.6,0,0,1,6.528.464l-.461-1.135a9.909,9.909,0,0,1-4.465,3.923c-1.525.678-4.554,1.547-5.56-.356-.464-.882-1.8-.1-1.336.78Z" transform="translate(-220.669 -117.775)" fill="#da725a"/>
    <path id="Tracé_438" data-name="Tracé 438" d="M151.885,121.289a23.292,23.292,0,1,1,15.732,28.939,23.291,23.291,0,0,1-15.732-28.939" transform="translate(-104.228 -72.233)" fill="#da725a"/>
    <path id="Tracé_439" data-name="Tracé 439" d="M172.184,150.041c-.43,0-.863-.012-1.3-.034a24.042,24.042,0,1,1,1.3.037Zm-.043-46.583a22.363,22.363,0,0,0-1.157,44.7c.4.022.792.031,1.185.031a22.363,22.363,0,0,0,1.157-44.7c-.4-.022-.792-.031-1.185-.031" transform="translate(-102.163 -70.166)" fill="#da725a"/>
    <path id="Tracé_440" data-name="Tracé 440" d="M164.619,121.1c-1.643.074-2.2.913-4.929-.916a5.387,5.387,0,0,0-3.088-1,23.091,23.091,0,0,1,2.679-4.8,6.448,6.448,0,0,0,3.9-.306c1.86-1.1.678-2.59,3.369-1.683s3.066-4.27,5.826-3.741,4.824,1.2,6.927-2.809a4.047,4.047,0,0,1,.78-1,23.3,23.3,0,0,1,20.764,17.989,5.2,5.2,0,0,1-3.468-2.983c-1.674-3.53-2.937-1.3-3.3.377s-4.319,3.159-5.186-1.2-.671-4.957-2.747-4.9-.69-1.077-1.305-3.951-4.1-1.476-5.471-.288a8.943,8.943,0,0,0-2.732,6.2c.1,2.243-3.422,1.621-3.8,3.518s-.17,4.313-2.614,5.059-3.963-3.654-5.609-3.574Z" transform="translate(-108.149 -72.409)" fill="#fff"/>
    <path id="Tracé_441" data-name="Tracé 441" d="M166.562,123.553c-1.556,0-2.732-1.355-3.626-2.385-.387-.446-1.1-1.272-1.374-1.278a6.448,6.448,0,0,0-.91.124c-1.281.238-2.358.291-4.579-1.194a4.508,4.508,0,0,0-2.562-.845l-1.4.015.532-1.3a24.123,24.123,0,0,1,2.788-4.991l.334-.461.56.087a5.57,5.57,0,0,0,3.286-.189,2.081,2.081,0,0,0,.851-.937c.671-1.219,1.5-1.429,3.289-.826.606.2.975-.158,1.859-1.429.8-1.148,1.89-2.72,3.843-2.345l.464.09c2.45.486,3.8.752,5.464-2.42a5.038,5.038,0,0,1,.953-1.228l.3-.294.421.034a24.12,24.12,0,0,1,21.593,18.706l.34,1.482-1.473-.374a6.112,6.112,0,0,1-4.078-3.481,3.3,3.3,0,0,0-.891-1.321,3.158,3.158,0,0,0-.665,1.5,3.469,3.469,0,0,1-3.391,2.395h-.031c-1.8-.015-3.134-1.368-3.58-3.614-.111-.56-.2-1.055-.288-1.5a10.182,10.182,0,0,0-.625-2.512c-.043-.065-.108-.164-.9-.139a1.811,1.811,0,0,1-2.129-2.364,7.576,7.576,0,0,0-.111-2.32c-.139-.644-.421-.817-.65-.894-.832-.278-2.432.359-3.307,1.114a8,8,0,0,0-2.41,5.455c.084,1.863-1.467,2.466-2.494,2.868-.773.3-1.25.514-1.321.873-.062.319-.108.659-.155,1.021-.223,1.671-.529,3.96-3.1,4.746a2.821,2.821,0,0,1-.835.13Zm-5-5.52c1.108,0,1.952.975,2.772,1.918.99,1.142,1.754,1.934,2.519,1.7,1.358-.415,1.569-1.491,1.8-3.215.049-.374.1-.761.173-1.132.275-1.386,1.541-1.881,2.466-2.243,1.114-.436,1.334-.613,1.315-1.055a9.858,9.858,0,0,1,3.051-6.943c1.027-.888,3.32-2.07,5.111-1.47a2.82,2.82,0,0,1,1.875,2.265,9.447,9.447,0,0,1,.149,2.846c-.009.121-.019.257-.025.371.065,0,.149,0,.251,0,2.6-.071,2.834,1.17,3.4,4.165.084.436.173.928.285,1.479.192.962.653,2.107,1.776,2.119h.015a1.741,1.741,0,0,0,1.578-.931c.142-.653.724-2.8,2.277-2.973s2.469,1.76,2.769,2.395a4.889,4.889,0,0,0,1.176,1.6,22.264,22.264,0,0,0-18.945-15.247,2.791,2.791,0,0,0-.325.467c-2.305,4.393-4.929,3.874-7.466,3.372l-.455-.09c-.7-.133-1.154.405-1.971,1.581s-1.955,2.809-3.976,2.126a3.612,3.612,0,0,0-.956-.232c-.034.056-.077.133-.111.195a3.9,3.9,0,0,1-1.528,1.637,6.357,6.357,0,0,1-3.945.5,22.205,22.205,0,0,0-1.751,3.026,6.864,6.864,0,0,1,2.246,1.006c1.76,1.179,2.336,1.074,3.205.91a7.75,7.75,0,0,1,1.163-.152h.084Z" transform="translate(-105.049 -70.269)" fill="#da725a"/>
    <path id="Tracé_442" data-name="Tracé 442" d="M287.294,190.628a25.584,25.584,0,0,0-.832-4.39c-1.4-5.322,2.32-3.886,2.157-6.374-.1-1.507,1.21-2.163,2.262-2.444.028.653.019,1.312-.015,1.98a23.14,23.14,0,0,1-3.57,11.228" transform="translate(-197.613 -122.526)" fill="#fff"/>
    <path id="Tracé_443" data-name="Tracé 443" d="M284.525,190.786l-.22-2.766a25.183,25.183,0,0,0-.8-4.23c-.934-3.567.214-4.728,1.47-5.613.585-.412.687-.517.659-.937-.105-1.634.971-2.871,2.949-3.4l1.12-.3.046,1.157c.028.659.022,1.337-.015,2.067a24.148,24.148,0,0,1-3.716,11.677l-1.488,2.342Zm3.369-14.613a1.045,1.045,0,0,0-.415.947,2.724,2.724,0,0,1-1.445,2.577c-.8.56-1.429,1.006-.743,3.62q.251.956.436,1.81a22.394,22.394,0,0,0,2.144-8.459c.009-.167.015-.334.022-.5" transform="translate(-195.55 -119.847)" fill="#da725a"/>
    <path id="Tracé_444" data-name="Tracé 444" d="M251.976,225.785a2.006,2.006,0,0,0-1.089-2.676c-3.026-1.7.968-2.355.411-5.665s2.271-1.631,3.781.2c1.015,1.228,3.518,1.81,5.043,2.061a23.411,23.411,0,0,1-8.146,6.08Z" transform="translate(-172.472 -148.861)" fill="#fff"/>
    <path id="Tracé_445" data-name="Tracé 445" d="M248.254,225.466l.779-2.082c.217-.579.186-1.061-.674-1.541a2.886,2.886,0,0,1-1.578-1.7,2.621,2.621,0,0,1,.718-2.1,3.086,3.086,0,0,0,.811-2.519c-.309-1.844.328-2.553.919-2.822,1.5-.687,3.53,1.108,4.492,2.274.61.736,2.24,1.371,4.48,1.736l1.63.269-1.079,1.253a24.452,24.452,0,0,1-8.472,6.321l-2.03.913Zm.356-5.724a2.264,2.264,0,0,0,.659.48,3.2,3.2,0,0,1,1.649,1.952,22.712,22.712,0,0,0,5.337-3.973,7.658,7.658,0,0,1-3.96-2.048,5.592,5.592,0,0,0-2.2-1.726,2.9,2.9,0,0,0,.05.783,4.881,4.881,0,0,1-1.132,3.9,4.1,4.1,0,0,0-.4.622Z" transform="translate(-170.398 -146.786)" fill="#da725a"/>
    <path id="Tracé_446" data-name="Tracé 446" d="M184.325,218.2a23.225,23.225,0,0,1-17-8.75c2.02.272,5.47.374,7.952-1.491,3.719-2.8,3.648,1.355,7.3-.056s1.674-6.909,5.207-6.145,5.207,4.941,3.49,9.879a15.4,15.4,0,0,0-.866,6.083,23.079,23.079,0,0,1-6.074.476Z" transform="translate(-115.553 -139.284)" fill="#fff"/>
    <path id="Tracé_447" data-name="Tracé 447" d="M180.724,217.088c-.427,0-.854-.012-1.284-.034a24.233,24.233,0,0,1-17.679-9.1l-1.439-1.807,2.29.309c1.748.235,5.018.377,7.271-1.312,2.321-1.745,3.6-1.247,4.928-.473a2.461,2.461,0,0,0,2.587.3c1.324-.514,1.674-1.779,2.045-3.119.4-1.454,1.006-3.651,3.695-3.066a5.886,5.886,0,0,1,3.917,2.939,10.08,10.08,0,0,1,.251,8.153,14.388,14.388,0,0,0-.817,5.715l.056.8-.786.167a24.041,24.041,0,0,1-5.034.529m-16.055-8.635a22.386,22.386,0,0,0,19.938,6.439,16.472,16.472,0,0,1,.946-5.628,8.245,8.245,0,0,0-.118-6.637,4,4,0,0,0-2.692-2.033c-.835-.179-1.006-.077-1.513,1.748-.408,1.479-.968,3.5-3.165,4.353a4.249,4.249,0,0,1-4.193-.424c-.9-.526-1.355-.789-2.877.356a10.557,10.557,0,0,1-6.327,1.822Z" transform="translate(-110.718 -137.213)" fill="#da725a"/>
  </g>
</svg>
