<?xml version="1.0" encoding="UTF-8"?>
<svg id="Calque_2" data-name="Calque 2" xmlns="http://www.w3.org/2000/svg" xmlns:xlink="http://www.w3.org/1999/xlink" viewBox="0 0 107.41 105.48">
  <defs>
    <style>
      .cls-1 {
        fill: none;
      }

      .cls-2 {
        clip-path: url(#clippath);
      }

      .cls-3 {
        fill: #789389;
      }

      .cls-4 {
        opacity: .24;
      }
    </style>
    <clipPath id="clippath">
      <rect class="cls-1" x="9.45" y="7.24" width="88.5" height="91" transform="translate(-9.05 94.31) rotate(-78)"/>
    </clipPath>
  </defs>
  <g id="Calque_1-2" data-name="Calque 1">
    <g id="Groupe_383" data-name="Groupe 383" class="cls-4">
      <g class="cls-2">
        <g id="Groupe_382" data-name="Groupe 382">
          <path id="Tracé_702" data-name="Tracé 702" class="cls-3" d="M82.6,91.86c-.01,.1,.08,.21,.18,.22h0c.1,.01,.21-.08,.22-.18l.28-1.68,2.04-1.19c.11-.09,.12-.19,.13-.29-.09-.11-.19-.12-.29-.13h0l-1.82,1.02,.36-2.48,2.78-1.62c.11-.09,.12-.19,.03-.3-.09-.11-.19-.12-.3-.03l-2.56,1.44,.35-2.38,2.04-1.19c.11-.09,.12-.19,.13-.29-.09-.11-.19-.12-.29-.13h0l-1.82,1.02,.47-3.47c.01-.1-.08-.21-.18-.22h0c-.1-.01-.21,.08-.22,.18l-.47,3.47-1.26-1.44c-.09-.11-.2-.02-.3-.03-.11,.09-.12,.19-.03,.3l1.52,1.77-.35,2.38-1.79-2.1c-.09-.11-.2-.02-.3-.03-.11,.09-.12,.19-.03,.3l2.07,2.33-.36,2.48-1.26-1.44c-.09-.11-.2-.02-.3-.03-.11,.09-.12,.19-.03,.3l1.52,1.77-.18,1.69h0Z"/>
          <path id="Tracé_706" data-name="Tracé 706" class="cls-3" d="M93.6,95.33c.63-.24,1.08-.69,1.34-1.27,.27-.68,.36-1.47,.34-2.28,.01-.1-.07-.31-.06-.41-.18-1.13-.57-2.27-1.17-3.24-.43-.65-.88-1.2-1.43-1.66-.19-.12-.49-.15-.72,.13v.1c-.77,1.53-1.15,3.2-1.13,4.91,.05,1.41,.72,2.69,1.72,3.7-.17,.69-.53,1.25-.91,1.92-1.52,.14-3.14,.17-4.95,.18,.47-.65,.84-1.32,1.22-2.08v-.1c.63,.77,1.62,.97,2.49,.36,.55-.44,.53-1.25,.09-1.8-.1-.01-.09-.11-.19-.12-.47-.35-.95-.5-1.55-.57,.44-.36,.7-.93,.65-1.44,.06-.6-.38-1.15-.97-1.31-.6-.06-1.25,.37-1.51,.95-.14,.39-.18,.79-.13,1.19l-.2-.02c-.3-.03-.62,.14-.94,.3-.54,.35-.71,1.03-.57,1.55,.25,.53,.81,.89,1.43,.75q.1,.01,.21-.08c-.12,.19-.13,.29-.25,.48-.12,.19-.25,.48-.37,.66-.23,.28-.47,.65-.7,.93-1.4-.05-2.91-.1-4.4-.26,.34-.37,.68-.73,1.02-1.1,.78-.72,1.18-1.69,1.4-2.77,4.45-2.15,6.42-7.47,4.37-11.91-.57-1.27-1.46-2.37-2.57-3.29l-.28-.23-.32,.17c-4.62,1.83-6.87,7.02-4.94,11.65,.55,1.47,1.52,2.77,2.83,3.72h0c-.29,.87-.67,1.64-1.34,2.27-.45,.46-.79,.82-1.14,1.29-.7-.07-1.49-.16-2.18-.33-1.42-4.67-2.32-9.49-2.61-14.35-.12-.82,.08-1.7,.37-2.58h0c1.27-3.49,2.73-3.94,3.67-6.25l1.19,.13c.79,.18,1.56,.47,2.32,.85,1.05,.51,2.13,.83,3.22,.94,.6,.06,1.2,.03,1.82-.11,2.27-.57,4.64-1.12,5.82-3.71,.97-2.51,.27-5.4-1.87-7.03-1.31-.94-2.87-1.41-4.48-1.38,.63-1.24,.88-2.62,.63-4.06-.55-3.38-3.95-5.44-7.12-5.88-1.08-.21-2.2-.13-3.33,.15-.62,.14-1.24,.27-1.77,.62-.21,.08-.43,.26-.64,.34-.22,.18-.43,.26-.64,.34-.59-.16-1.15-.52-1.61-.97-.47-.35-.83-.69-1.41-.95-1.35-.54-2.71-.99-4.2-1.15l-.4-.04c-2.88-.3-5.86,.29-8.42,1.63-.95,.4-1.73,1.13-2.32,1.97-.25,.48-.4,.96-.47,1.56l-.03,.3c-1.72,.12-3.37,.45-5.02,.88-3.23,1.07-6.33,3.76-5.91,7.42,.13,1.62,.98,3.12,2.5,3.98,2.18,1.23,5.14,.84,7.33,.07,.6,1.97,1.93,3.62,3.64,4.61,.85,.49,1.74,.69,2.73,.79,1.49,.16,2.93-.09,4.29-.65,1.26-.47,2.44-1.25,3.44-2.15l.11-.09c1.21,2.84,2.1,5.85,2.79,8.84,1.84,10.25,.81,13.36,.46,14.73-2.25-.64-4.36-1.56-6.46-2.59v-.1c.67-1.54,1.04-3.11,1.01-4.72h0c.29,.13,.69,.17,.98,.2,.31-.07,.62-.14,.94-.3,.54-.35,.8-.92,.86-1.52-.04-.61-.48-1.16-1.08-1.22s-1.14,.28-1.49,.75c-.11,.09-.12,.19-.23,.28-.04-.61-.16-1.32-.3-1.94,.1,.01,.19,.12,.39,.14,.39,.14,.79,.18,1.19,.13,.82-.12,1.47-.55,1.75-1.32,.27-.68,.06-1.5-.6-1.97-.55-.46-1.36-.44-2-.11-.53,.25-.99,.8-1.25,1.38-.17-.32-.24-.63-.41-.85,.12-.19,.35-.47,.47-.65,.24-.38,.49-.85,.63-1.24v-.1c.19-.79-.03-1.51-.47-2.16-.44-.55-1.12-.82-1.74-.69-1.24,.27-1.96,1.4-1.69,2.64,.08,.21,.06,.41,.25,.53,.34,.64,.88,1.2,1.53,1.67q-.01,.1,.08,.21c.18,.22,.26,.43,.34,.64-.57-.36-1.35-.54-1.98-.31s-1.01,1-.87,1.62c.13,.72,.68,1.18,1.37,1.35,.79,.18,1.6,.07,2.33-.16,.13,.72,.26,1.33,.19,2.03-.44-.55-1.02-.81-1.71-.98-.3-.03-.7-.07-1.02,.09s-.56,.54-.6,.94c.12,.82,.65,1.48,1.33,1.65,.39,.14,.69,.17,1.07,.31h.1c.1,.02,.2,.03,.19,.13h.1s.09,.12,.09,.12h0l-.08,.8c-.18,.79-.37,1.57-.74,2.24-1.43-.75-2.76-1.5-4.19-2.25-4.93-2.83-10.2-5.3-15.64-7.17-3.78-1.3-7.7-2.32-11.66-2.93v-.1c.04-.3,.17-.59,.2-.88l.04-.4,.02-.2v-.1c.17-.59,.32-1.07,.59-1.65,.12-.19,.25-.48,.37-.66q.11-.09,.22-.18h0c.11-.09,.22-.18,.33-.27,0,0,.11-.09,.21-.08h.1c.1,.02,.31-.06,.41-.05,.41-.06,.82-.12,1.13-.18,.1,.01,.2,.02,.31-.07,.92,.8,2.07,1.32,3.37,1.46s2.64-.23,3.82-.91c.65-.43,1.2-.88,1.67-1.53,.12-.19,.14-.39-.04-.61-.99-1.11-2.32-1.85-3.7-2.1-1.39-.15-2.65,.32-3.75,1.21-.55,.44-1.1,.89-1.55,1.35h0l-.11,.09c-.31,.07-.61,.04-.82,.12,.47-.65,.75-1.43,1.05-2.3,1.76-.52,1.88-2.62,1.74-4.14-.24-1.53-.99-3.02-2.09-4.04-.18-.22-.48-.25-.7-.07-.01,.1-.11,.09-.12,.19-.74,1.33-1.21,2.89-1.27,4.39,.05,1.41,.52,2.67,1.42,3.67h0c-.3,.97-.81,1.93-1.6,2.75l-.11,.09c.06-.6-.06-1.31-.3-1.94-.17-.32-.34-.64-.6-.97-.18-.22-.27-.33-.46-.45-.29-.13-.59-.16-.81,.02-.64,.34-1,.9-.96,1.51,.03,.71,.26,1.33,.81,1.89,.47,.35,.93,.7,1.52,.86-.36,.57-.62,1.14-.8,1.83-.17,.69-.36,1.47-.53,2.16l-2.78-.29c.53-2.16,1.6-6.57,2.49-10.3,1.44-6.08,3.95-11.75,7.61-16.9l.11-.09c2.38-3.47,5.04-6.81,7.98-9.92,.49,.15,1.06,.41,1.55,.57,.96,.4,1.94,.71,2.92,.91,.6,.06,1.1,.02,1.62-.13,2.16-.48,4.33-1.05,5.39-3.46,.95-2.31,.22-5-1.83-6.53s-4.58-1.39-6.83-1.02c-.51,.05-1.13,.18-1.73,.22,.05-1.4-.41-2.76-1.2-3.85-1.69-2.09-4.51-2.08-6.48-1.49-1.52-1.77-3.51-2.98-5.73-3.82-3.22-.94-6.66-.7-9.71,.59-1.58,.64-2.97,1.5-4.19,2.58-1.31,.97-2.16,2.39-2.43,3.97l-.03,.3c-1.32,.16-2.55,.34-3.81,.81-.73,.23-1.48,.65-2.11,.98-2.05,1.29-3.57,3.35-3.32,5.78,.04,1.51,1,2.92,2.33,3.66h.1c1.63,.78,3.42,.97,5.18,.45,0,.91,.11,1.82,.32,2.65,.28,1.14,.68,2.18,1.17,3.24,.32,.74,.86,1.4,1.4,1.96,.82,.79,3.51,2.98,4.44,3.68,.55,.46,1.11,.92,1.58,1.27,1.58,1.27,2.59,3.09,2.88,5.13h0c.09,1.02,.08,2.12-.22,3.09-1.68,5.45-4.13,10.63-7.16,15.54-.2-.02-.41,.06-.61,.04,.11-.09,.12-.19,.13-.29,.2-1.89,0-3.82-.41-5.67,.01-.1-.08-.21-.06-.41,.01-.1,.11-.09,.12-.19h.1c.8,.09,1.52-.13,1.98-.69,.56-.54,.74-1.33,.52-2.06s-.88-1.2-1.6-1.07c-.62,.14-1.18,.68-1.44,1.26-.13,.29-.27,.68-.3,.97-.4-.95-.82-1.8-1.33-2.65,.7,.07,1.41-.05,2.03-.19,.84-.31,1.53-1.15,1.62-2.04s-.42-1.75-1.29-2.05c-.77-.28-1.7-.08-2.36,.46-.67,.63-1.06,1.5-1.06,2.4-.36-.44-.72-.78-1.09-1.12,.13-.29,.27-.68,.31-1.07,.16-.59,.32-1.17,.29-1.78-.12-.82-.53-1.66-1.17-2.23s-1.54-.66-2.38-.35c-1.28,.67-1.75,2.33-1.08,3.61,.08,.21,.26,.43,.44,.55,.73,.68,1.59,1.17,2.46,1.47-.01,.1,.08,.21,.17,.32,.37,.34,.64,.57,.91,.9-.2-.02-.29-.13-.49-.15-.79-.18-1.7-.08-2.35,.36-.66,.53-.85,1.42-.43,2.17s1.29,1.14,2.2,1.04c.92-.1,1.86-.51,2.73-1.12,.17,.32,.34,.64,.49,1.06,.24,.63,.48,1.16,.72,1.78-.74-.58-1.63-.77-2.53-.77-.81,.02-1.47,.55-1.45,1.36l-.02,.2c.21,.83,.95,1.51,1.84,1.6,.5,.05,.99,.1,1.5,.06,.41-.06,.81-.02,1.19,.13h0c.07,.31,.13,.72,.19,1.03,.09,1.02,.09,2.02,0,2.92-.02,.2,.06,.41,.26,.43-2.03,.19-3.98,.59-5.94,.98,.14-.39,.19-.88,.33-1.27,.16-.59,.22-1.18,.2-1.89v-.1c.25-1.28,.17-2.5-.09-3.83-.14-.62-.38-1.15-.74-1.59-.54-.56-1.09-1.12-1.76-1.39-.76-.38-1.64-.67-2.44-.66-.2-.02-.41,.06-.54,.35-.35,1.37-.29,2.78,.28,4.05,.82,1.8,2.38,3.17,4.35,3.57l-.1,.99c-.05,.5-.21,1.08-.37,1.57-.02,.2-.14,.39-.16,.59-1.75,.42-3.52,.94-5.29,1.56l-.34,3.28c12.23-4.45,23.29-4.39,36.19,.08,5.23,1.86,10.32,4.2,15.25,7.03,5.13,2.85,9.51,5.22,16.8,6.59,1.58,.27,3.16,.53,4.75,.7,4.57,.48,9.2,.46,13.68-.07l.32-3.08c-.61,.04-1.32,.16-2.03,.19,.26-.58,.52-1.15,.69-1.74q.27,.33,.37,.34h0Zm-4.32-.96c.2,.02,.28,.23,.37,.34q-.01,.1-.12,.19c-.32,.17-.61,.04-.9-.09-.19-.12-.37-.34-.43-.65,.41-.06,.8,.08,1.08,.21h0Zm-1.54-2.58c.02-.2,.25-.48,.45-.46,.1,.01,.09,.11,.18,.22,.09,.11,.08,.21,.07,.31-.13,.29-.26,.58-.58,.74-.18-.22-.25-.53-.12-.82m-1.17,2.49c-.21,.08-.51,.05-.59-.16s.15-.49,.36-.57c.2,.02,.31-.07,.51-.05s.4,.04,.61-.04v.1h-.01c-.23,.28-.56,.54-.88,.71h0Zm-6.48-9.13c.38-2.67,2.12-4.9,4.45-5.97,3.22,2.85,3.61,7.72,.85,11.05-.69,.83-1.67,1.53-2.73,2.03-1.92-1.81-2.95-4.43-2.57-7.11h0Zm-12.58,1.09c.01-.1,0,0,0,0m-.48,.75c.11-.09,.12-.19,.23-.28,.11-.09,.12-.19,.23-.28l.11-.09v-.1q.12-.09,.23-.18s.11-.09,0,0l.11-.09h.1s0,.01,.1,.02l.09,.11h0v.1s-.02,.1-.02,.1v.1h-.01v.1h-.01s-.01,.1-.11,.09l-.11,.09-.11,.09-.11,.09h0c-.1-.01-.11,.09-.21,.08h-.1s-.1-.02-.1-.02c.1,.01,0,0,0,0l-.2-.02h0c-.12,.19-.11,.09-.11,.09q-.1-.01,0,0h0Zm.25-5.2q.1,.01,0,0m-.94,1.31c-.01,.1,.01-.1,.01-.1l.02-.2c.01-.1,.12-.19,.13-.29,.12-.19,.24-.38,.45-.46h0s.1,.01,.11-.09l.11-.09h.1q.1,.02,.21-.07s-.1-.01,0,0h.1q.1,.02,.2,.03h.1s0,.01,.1,.02h0l.09,.11h0l.09,.11s-.01,.1,.09,.11v.1h-.01v.1s-.02,.1-.02,.1v.1c-.13,.19-.25,.38-.37,.57,0,0-.1-.01-.11,.09h0s-.1-.01-.11,.09h-.1s-.1-.02-.1-.02h-.1c-.4-.05-.8-.09-1.18-.24l.2,.02h0Zm-2.4-2.97c-.28-.23-.46-.45-.62-.77-.25-.53-.19-1.03,.26-1.48,.12-.19,.33-.27,.53-.25,.21-.08,.4,.04,.6,.06,.46,.45,.69,1.08,.53,1.66v.1s-.02,.1-.02,.1q-.01,.1-.11,.09v.1h-.01l-.36,.57c-.11,.09-.12,.19-.23,.28-.19-.12-.38-.24-.55-.46h0Zm.39,3.96c-.1-.01-.31,.07-.41,.06h-.1s-.1-.02-.1-.02l-.2-.02-.2-.02h-.1c-.1-.02-.2-.03-.29-.14-.1-.01,0,0,0,0h-.1s-.09-.12-.09-.12l-.09-.11h0s.01-.1-.09-.11v-.1s.01,0,.02-.1l.02-.2v-.1h.01v-.1h.11q.1,.02,.2,.03h.1q.1,.02,.2,.03h.1q.1,.02,.2,.03l.2,.02h.1s0,.01,.1,.02h.1s.1,.02,.09,.12c.1,.01,.09,.11,.19,.12s.09,.11,.19,.12h0s.1,.01,.09,.11c.09,.11,.18,.22,.27,.33h0s-.01,.1,.09,.11c-.3-.03-.41,.06-.61,.04h0Zm.3,3.85l-.2-.02c-.1-.01,0,0,0,0h-.1c-.1-.02-.29-.14-.39-.15-.19-.12-.38-.24-.55-.46h0v-.1h.01v-.1h.01v-.1h.01s.01-.1,0,0h.1s.1,.02,.1,.02l.2,.02c-.1-.01,.1,.01,.1,.01,.1,.01,.19,.12,.39,.14h0s.1,.01,.09,.11c0,0,.09,.11,.19,.12,0,0,.1,.01,.09,.11h.1s.1,.02,.09,.12c.1,.01,.09,.11,.09,.11,0,0,.09,.11,.08,.21h0s-.01,.1,.09,.11l.09,.11c-.29-.13-.38-.24-.58-.26h0Zm-25.4-14.74c.55-.44,1.18-.68,1.91-.91,.72-.13,1.4,.05,2.08,.32,.58,.26,1.14,.62,1.7,1.08-.8,.92-2.08,1.59-3.29,1.67-1.11,.08-2.1-.12-3.04-.72,.41-.06,.82-.12,1.13-.18,.72-.13,1.42-.15,2.14-.28,.31-.07,.43-.26,.36-.57-.07-.31-.26-.43-.57-.36h0c-.62,.14-1.22,.17-1.83,.21-.41,.06-.92,.1-1.32,.16,.2,.02,.53-.25,.75-.42Zm-3.8-5.02c.11-1.09,.34-2.28,.85-3.33,.62,.77,1.13,1.73,1.32,2.75,.14,.62,.16,1.32,.1,1.92-.04,.4-.18,.79-.52,1.15,.11-1.09,.12-2.1-.07-3.12-.14-.62-1.06-.41-.93,.2,.19,1.03,.19,2.03,.08,3.03-.62-.77-.83-1.7-.83-2.6h0Zm-3.45,5.07s-.01,.1,0,0m.24,.63s-.01,.1,0,0m.54,.56c-.09-.11-.19-.12-.38-.24-.09-.11-.18-.22-.28-.23l-.09-.11h0l-.09-.11s.01-.1-.09-.11h0v-.1q.02-.1,.03-.2v-.1q.02-.1,.03-.2v-.1s.01,0,.02-.1v-.1s.02-.1,.02-.1v-.1s.01,0,.02-.1h0l.11-.09h0s.1,.01,.11-.09c.1,.01,.09,.11,.09,.11,.18,.22,.36,.44,.43,.65,.26,.43,.3,.94,.25,1.43h-.1c.19,.11,.09,.1-.1-.02h0ZM12.02,41.11c-.74-.58-1.25-1.54-1.34-2.55-.13-1.62,.64-3.25,2.05-4.21,.77-.62,1.73-1.13,2.66-1.43,1.15-.38,2.38-.65,3.6-.73v.1c.3,.84,.93,1.61,1.67,2.19,2.03,1.72,4.63,2.8,7.32,3.08h.1c.99,.11,2,.12,3.03-.07,.31-.07,.62-.14,.93-.2,.52-.15,.94-.3,1.47-.55,.43-.26,1.06-.49,1.56-.54,.19,.12,.38,.24,.46,.45,.09,.11,.19,.12,.18,.22,.09,.11,.19,.12,.28,.23,.47,.35,.94,.6,1.52,.86,.1,.01,.19,.12,.29,.13,.19,.12,.39,.14,.58,.26,.2,.02,.39,.14,.59,.16h0l.08,.21c.15,.52,.19,1.03,.24,1.53-.03,.3,.05,.51,.02,.81-.05,.5-.1,.99-.35,1.37-.37,.66-1.03,1.2-1.76,1.42-.62,.14-1.22,.17-1.81,.01-.2-.02-.3-.03-.49-.15-.29-.13-.58-.26-.86-.39-.47-.35-.95-.5-1.45-.55-.61,.04-1.14,.28-1.49,.75,0,0-.01,.1-.11,.09-.11,.09-.23,.28-.34,.37-.78,.72-1.76,1.42-2.81,1.82-.11,.09-.21,.08-.32,.17-.42,.16-.83,.21-1.24,.27-1.33,.26-2.72,.02-3.97-.52-1.51-.96-2.65-2.49-3.08-4.15l-.23-.73-.64,.34c-1.81,.92-4.45,1.24-6.26,.25,.21-.08,.02-.2-.07-.31h0Zm8.11-10.21c.24-1.28,.96-2.41,2.05-3.2,1.11-.99,2.41-1.86,3.77-2.42,2.84-1.21,5.99-1.48,9.01-.56,2.14,.73,4.01,2.03,5.43,3.79l.27,.33,.42-.16c1.67-.63,4.2-.76,5.53,.98,.7,.98,1.08,2.12,.97,3.22l-.06,.6c-.02,.2-.04,.4-.16,.59-.01,.1-.02,.2-.13,.29-.96,2.41-3.88,3.41-6.47,3.24l-.6-.06c-.2-.02-.4-.04-.59-.16-.1-.01-.3-.03-.39-.14-.1-.01-.2-.02-.29-.13-.1-.01-.2-.02-.29-.13-.1-.01-.29-.13-.39-.14h-.1c-.38-.25-.76-.39-1.13-.73-.09-.11-.18-.22-.37-.34-.18-.22-.37-.34-.55-.46-.19-.12-.38-.24-.58-.26h-.1c-.81,0-1.53,.23-2.18,.67-.32,.17-.74,.32-1.16,.48-.21,.08-.51,.05-.72,.13-.92,.1-1.93,.2-2.93,.09h-.1c-2.49-.27-4.8-1.22-6.74-2.83-.57-.36-.91-.9-1.26-1.44,.01-.1-.09-.11-.08-.21s-.08-.21-.07-.31c-.08-.21-.06-.41-.03-.71-.01,.1,0,0,0,0h0Zm36.32,3.62c1.58,1.27,2.06,3.33,1.37,5.17-.81,1.93-2.56,2.35-4.52,2.84-1.32,.16-2.71-.08-3.85-.71-.76-.38-1.55-.57-2.32-.85l-.7-.07c-.7-.07-1.4-.05-2.11-.02l-.2-.02c-1.22,.17-2.42,.05-3.57-.48-.04-.61-.08-1.11-.23-1.63l.2,.02c2.91,.1,6.44-1.03,7.56-4.03,.13-.29,.15-.49,.28-.77,.71-.03,1.32-.16,2.04-.29,2.14-.28,4.46-.34,6.05,.84h0Zm-18.29,17.08c-.93,1.21-1.75,2.33-2.57,3.45-.12,.19-.53,.25-.72,.13-.19-.12-.27-.33-.25-.53h0c.36-2.48,.54-5.17,.8-9.57,.79,.18,1.49,.16,2.22-.07,1.04-.29,1.93-1.1,2.43-2.06,.24-.38,.29-.87,.43-1.26,1.16,.42,2.47,.46,3.69,.29l.2,.02c.51-.05,1,0,1.41-.05-2.38,2.57-5.1,6.4-7.65,9.65h0Zm-13.37,.91c-1.46-.46-2.79-1.2-3.99-2.23-.54-.56-1.08-1.22-1.4-1.96-.41-.85-.73-1.69-1.03-2.62-.3-.94-.41-1.85-.4-2.86v-.1c.22-.08,.43-.16,.54-.25,.62,1.77,1.76,3.3,3.37,4.28,.76,.38,1.64,.67,2.53,.77,.6,.06,1.2,.03,1.71-.02-.35,1.37-.39,2.77-.24,4.2h0c.05,.51-.29,.87-.8,.92,.01-.1-.19-.12-.29-.13h0Zm3.85,2.62h0c-.51-.86-.92-1.81-1.32-2.75s-.41-2.76,.05-5.22c.31-.07,.73-.23,1.04-.29,1.05-.39,1.92-1.01,2.78-1.62-.02,3.01-.25,6.21-.52,8.79l-.07,.7c-.06,.6-.61,1.04-1.21,.98-.29-.13-.58-.26-.74-.58h0Zm-12.63,8.22c.09,.11-.01,.1,0,0m-2.04,1.19c-.47-.35-.81-.89-.85-1.5-.05-.51,.11-1.09,.54-1.35s.94-.3,1.31-.06c.57,.36,1,1.01,1.03,1.72v.1q-.02,.1-.03,.2l-.04,.4c-.03,.3-.15,.49-.18,.79-.02,.2-.14,.39-.16,.59l-.58-.26c-.38-.24-.76-.38-1.04-.61h0Zm5.01,1.13c.22-.18,.44-.36,.65-.43,.1,.01,.21-.08,.31-.07h.1s.1,.02,.1,.02h.1c.49,.16,.84,.6,.79,1.1-.03,.3-.16,.59-.39,.86-.22,.18-.44,.36-.65,.43-.52,.15-1.13,.18-1.72,.12l.02-.2c.07-.7,.25-1.38,.7-1.84h0Zm-3.16,4.19c-.52,.15-1.11,.08-1.59-.17-.19-.12-.27-.33-.34-.64-.08-.21,.03-.3,.15-.49,.44-.36,1.05-.39,1.63-.23,.6,.06,1.16,.42,1.62,.87-.53,.25-.96,.5-1.48,.65h0Zm5.59,.39h0s-.11,.09,0,0m-.51,1.05c.01-.1,.13-.29,.14-.39v-.1s.02-.1,.02-.1h0c.01-.1,.12-.19,.23-.28l.11-.09,.11-.09h.1s.1,.02,.1,.02h.1s0,.01,.1,.02h.1c.1,.02,0,.01,.1,.02l.09,.11,.09,.11c-.01,.1,0,0,0,0v.1c-.02,.1-.03,.2-.05,.4-.01,.1-.02,.2-.13,.29-.01,.1-.12,.19-.13,.29-.25,.48-.77,.62-1.27,.57h-.1c.14-.4,.17-.7,.29-.88h0Zm-2.6,2.74c-.62,.14-1.3-.04-1.87-.4-.19-.12-.27-.33-.25-.53s.33-.27,.43-.26c.51-.05,1.1,.02,1.58,.27,.38,.24,.75,.48,1.02,.81-.31,.07-.61,.04-.92,.1h0Zm-7.41,.63c-.79-1.09-1.04-2.52-.81-3.81,1.19,.13,2.25,.64,3.06,1.53,.53,.66,.85,1.5,.85,2.4-.36-.44-.72-.78-1.2-1.03-.19-.12-.5-.05-.72,.13-.12,.19-.15,.49,.13,.72,.66,.37,1.2,1.03,1.52,1.77-.01,.1,.08,.21,.07,.31-1.17-.32-2.2-1.04-2.91-2.01h0Zm65.52,.35h0c-.34,.37-.94,.3-1.3-.04-.18-.22-.26-.43-.23-.73l.06-.6,.02-.2c.8,.08,1.5,.06,2.32-.06l.2,.02,.2,.02c-.36,.57-.82,1.12-1.27,1.58h0Zm-8.38-4.5h0c-.12,.19-.23,.28-.35,.47-.89,.81-1.97,1.5-3.12,1.98-1.89,.81-4.1,.78-6.02-.13-1.71-.98-2.84-2.61-3.34-4.57l-.23-.73-.64,.34c-1.92,1.01-4.87,1.4-6.87,.28-1.14-.62-1.82-1.8-1.9-3.01-.29-2.95,2.35-5.18,5.18-6.19,1.55-.44,3.1-.78,4.71-.81,.27,1.24,.86,2.3,1.57,3.28,1.06,1.42,2.33,2.66,3.83,3.72,1.69,1.18,3.61,1.99,5.57,2.5,.39,.14,.88,.19,1.28,.24,.9,.09,1.79,.19,2.71,.08,.2,.02,.41-.06,.51-.05h.1c.2,.03,.41-.05,.72-.12,.1,.01,.31-.07,.41-.06,1.33-.26,2.58-.63,3.75-1.21,.32-.17,.64-.34,.85-.41,.19,1.03,.17,2.23-.33,3.18-.26,.58-.71,1.03-1.25,1.38-.21,.08-.42,.16-.63,.24-.83,.21-1.73,.22-2.51-.06h0q-.1-.01-.19-.12c-.19-.12-.38-.24-.58-.26h-.1c-.19-.13-.38-.25-.66-.38-.29-.13-.58-.26-.97-.3h0c-.2-.02-.51,.05-.72,.13-.21,.08-.54,.35-.77,.62h0Zm-11.32-13.76c.04-.4,.18-.79,.31-1.07,.47-.65,1.13-1.19,1.87-1.51,2.34-1.26,5.11-1.78,7.8-1.49h.1c1.29,.15,2.66,.49,3.82,1.01,.38,.24,.75,.48,1.13,.72,.64,.57,1.3,1.04,2.18,1.23h.1q.1,.02,.2,.03c.2,.02,.31-.07,.52-.15s.43-.26,.64-.34c.11-.09,.32-.17,.43-.26,.53-.25,1.05-.39,1.56-.54,.93-.2,1.93-.2,2.93-.09,2.67,.38,5.71,2.11,6.11,4.97,.26,1.33-.09,2.81-.92,3.93-.12,.19-.35,.47-.47,.65-.11,.09-.23,.28-.34,.37s-.33,.27-.44,.36c-1.18,.68-2.6,.83-3.87,.5-.2-.02-.39-.14-.59-.16-.19-.12-.49-.15-.68-.27-.09-.11-.29-.13-.38-.24-.1-.01-.19-.12-.29-.13l-.19-.12-.19-.12-.22,.18-.11,.09h0c-.11,.09-.33,.27-.54,.35s-.33,.27-.54,.35h0c-.11,.09-.21,.08-.32,.17-.64,.34-1.28,.67-1.91,.91-.21,.08-.42,.16-.63,.24-.42,.16-.94,.3-1.35,.36-.1-.01-.31,.07-.41,.06-.31,.07-.51,.05-.82,.12h-.1c-1.32,.15-2.62,.02-3.8-.21-.5-.05-.88-.19-1.37-.35-1.46-.46-2.89-1.21-4.21-2.05-1.41-.95-2.6-2.08-3.57-3.39-.62-.77-1.13-1.73-1.33-2.65-.08-.21-.06-.41-.04-.61-.17-.32-.15-.52-.12-.82h0Zm35.4,14.28c-.93,2.11-2.78,2.52-4.95,3.1-1.44,.35-2.8-.19-4.23-.85-.76-.38-1.64-.67-2.52-.87l-.8-.08-.3-.03c-.3-.03-.7-.07-1.1-.02-.3-.03-.61,.04-.91,0l-.2-.02c-.71,.03-1.41,.05-2.11-.02-.4-.04-.7-.07-1.08-.21,.31-.07,.72-.13,1.03-.19h.1c1.05-.38,2.03-1.08,2.54-2.14,.54-1.35,.71-2.94,.36-4.39l.11-.09c.19,.12,.48,.25,.66,.37,.29,.13,.68,.27,.96,.4,1.95,.61,4,.22,5.54-1.03,.23-.28,.55-.44,.78-.72,1.62-.13,3.19,.24,4.51,1.08,1.76,1.39,2.33,3.66,1.61,5.7m-21.3,2.69c-.4-.95-.91-1.91-1.3-2.95h.1c.39,.15,.77,.29,1.15,.53,.29,.13,.48,.25,.76,.38,.09,.11,.18,.22,.37,.34l-.16,1.49h0c-.02,.2-.24,.38-.44,.36-.32,.17-.41,.06-.49-.15h0Zm20.87,17.68c.04-1.3,.27-2.59,.8-3.74,.81,.89,1.41,1.86,1.7,2.99,.29,1.04,.51,2.77-.47,3.47,.22-1.18,.15-2.4-.13-3.53-.07-.31-.26-.43-.57-.36s-.43,.26-.36,.57c.29,1.04,.37,2.25,.15,3.33-.72-.78-1.13-1.73-1.12-2.73"/>
          <path id="Tracé_707" data-name="Tracé 707" class="cls-3" d="M35.07,75.3c-.01,.1,.1,.01,0,0h0q.1,.01,0,0"/>
          <path id="Tracé_708" data-name="Tracé 708" class="cls-3" d="M77.44,20.43c.19,.12,.39,.14,.6,.06,.21-.08,.43-.26,.64-.34,.11-.09,.31-.07,.4,.04,.09,.11,.08,.21,.07,.31-.14,.39-.08,.8,.07,1.21,.07,.31,.35,.54,.41,.85,.24,.63,.48,1.16,.94,1.61,.18,.22,.36,.44,.66,.37,.21-.08,.24-.38,.26-.58-.02-.81-.03-1.61-.15-2.43-.23-.73-.1-.92,.61-1.04q.1,.01,.21-.08c.1,.01,.3,.03,.32-.17s-.17-.32-.27-.33l-.2-.02c-.59-.16-.65-.47-.3-.94,.23-.28,.47-.65,.6-.94,.25-.48,.41-1.06,.66-1.54,.13-.29-.15-.52-.12-.82l-.2-.02c-.2-.02-.41,.06-.52,.15-.22,.18-.44,.36-.65,.43-.31,.07-.54,.35-.76,.52-.13,.29-.36,.57-.69,.83-.33,.27-.35,.47,.02,.81-.49-.15-.61,.04-.44,.36v.1c.06,.31-.14,.29-.23,.18-.1-.01-.19-.12-.29-.13-.18-.22-.55-.46-.73-.68-.09-.11-.18-.22-.39-.14h0c-.84,.31-1.48,1.65-.55,2.36h0Z"/>
          <path id="Tracé_709" data-name="Tracé 709" class="cls-3" d="M52.67,16.92c.2,.02,.5,.05,.71-.03,.2,.02,.29,.13,.27,.33l-.07,.7c.09,1.02,.39,2.05,.48,3.07-.02,.2,.17,.32,.37,.34s.41-.06,.43-.26c.6-.94,.83-2.13,.74-3.24q-.05-.51,.47-.65c.1,.01,.21-.08,.31-.07,.11-.09,.4,.04,.43-.26,.02-.2-.17-.32-.37-.34l-.2-.02c-.49-.15-.57-.36-.21-.83,.23-.28,.36-.57,.39-.86,.08-.8,.07-1.6-.15-2.43-.08-.21-.16-.42-.46-.45s-.53,.25-.55,.44c-.15,.49-.4,.96-.65,1.44-.36,.57-.63,1.24-.8,1.83-.02,.2-.13,.29-.32,.17-.2-.02-.39-.14-.69-.17-.19-.12-.39-.14-.61,.04-.23,.28-.36,.57-.29,.87,.27,.33,.57,.36,.76,.38h0Z"/>
          <path id="Tracé_710" data-name="Tracé 710" class="cls-3" d="M87.5,36.57c.2,.02,.5,.05,.71-.03,.2,.02,.29,.13,.27,.33l-.07,.7c.09,1.02,.39,2.05,.48,3.07-.02,.2,.17,.32,.37,.34s.41-.06,.43-.26c.6-.94,.83-2.13,.74-3.24q-.05-.51,.47-.65c.1,.01,.21-.08,.31-.07,.11-.09,.4,.04,.43-.26,.02-.2-.17-.32-.37-.34l-.2-.02c-.49-.15-.57-.36-.21-.83,.23-.28,.36-.57,.39-.86,.08-.8,.07-1.6-.15-2.43-.08-.21-.16-.42-.46-.45s-.53,.25-.55,.44c-.15,.49-.4,.96-.65,1.44-.36,.57-.63,1.24-.8,1.83-.02,.2-.13,.29-.32,.17-.2-.02-.39-.14-.69-.17-.19-.12-.39-.14-.61,.04-.23,.28-.36,.57-.29,.87,.37,.34,.57,.36,.76,.38h0Z"/>
          <path id="Tracé_711" data-name="Tracé 711" class="cls-3" d="M70.78,39.74c.37,.34,.85,.49,1.34,.64,.2,.02,.4,.04,.52-.15s.22-.18,.42-.16c.7,.07,1.51-.04,2.14-.28,.11-.09,.31-.07,.23-.28s-.18-.22-.38-.24c-.7-.07-.77-.28-.51-.86,.01-.1,.12-.19,.13-.29,.14-.39,.08-.8-.08-1.11-.35-.54-.69-1.08-1.05-1.52-.09-.11-.18-.22-.28-.23s-.21,.08-.11,.09c.28,.23-.06,.6,.21,.83,.09,.11,.08,.21-.12,.19-.39-.14-.32,.17-.34,.37,.14,.62,.07,1.21-.18,1.69l-.03,.3c-.01,.1,.19,.12,.08,.21s-.2-.02-.3-.03l-.53-.66c-.08-.21-.38-.24-.59-.16h0c-.21,.08-.43,.26-.64,.34-.32,.17-.29,.87,.06,1.31h0Z"/>
          <path id="Tracé_712" data-name="Tracé 712" class="cls-3" d="M65.45,31.14c.3,.03,.71-.03,1,0,.1,.01,.2,.02,.19,.12,.09,.11-.02,.2-.12,.19-.12,.19-.33,.27-.54,.35-.11,.09-.21,.08-.12,.19-.01,.1,.19,.12,.29,.13,.7,.07,1.41-.05,2.15-.38,.21-.08,.32-.17,.43-.26,.13-.29,.33-.27,.54-.35,.21-.08,.4,.04,.43-.26s-.28-.23-.48-.25h-.1c-.39-.15-.57-.37-.32-.75,.25-.48,.1-.99-.36-1.35-.46-.45-.92-.8-1.5-1.06-.19-.12-.38-.24-.6-.06s.06,.41,.15,.52c.36,.44,.49,1.06,.44,1.55l-.02,.2c-.05,.5-.15,.49-.65,.43-.2-.02-.49-.15-.79-.18-.4-.04-.62,.14-.56,.54,.05,.51,.32,.74,.53,.66h0Z"/>
          <path id="Tracé_713" data-name="Tracé 713" class="cls-3" d="M42.56,10.73h0c.31-.07,.5,.05,.79,.18,.19,.12-.03,.3-.05,.5,.04,.61-.13,1.19-.48,1.66-.11,.09-.13,.29-.04,.4,.09,.11,.3,.03,.51-.05,.64-.34,1.09-.79,1.55-1.35,.11-.09,.12-.19,.14-.39-.07-.31,.04-.4,.35-.47,.1,.01,.21-.08,.31-.07,.11-.09,.3,.03,.32-.17,.01-.1-.18-.22-.28-.23-.39-.14-.47-.35-.14-.62,.22-.18,.45-.46,.39-.86,.07-.7-.06-1.31-.3-1.94,.01-.1-.08-.21-.19-.12s-.01,.1-.02,.2,.09,.11,.08,.21-.03,.3-.22,.18c-.29-.13-.41,.06-.43,.26-.04,.4-.27,.68-.59,.84-.33,.27-.46,.55-.5,.95-.02,.2-.12,.19-.21,.08-.29-.13-.59-.16-.87-.29-.19-.12-.38-.24-.51,.05-.22,.18-.24,.38-.17,.69,.15,.52,.36,.44,.57,.36h0Z"/>
          <path id="Tracé_714" data-name="Tracé 714" class="cls-3" d="M34.58,13.92h0c.31-.07,.5,.05,.79,.18,.19,.12-.03,.3-.05,.5,.04,.61-.13,1.19-.48,1.66-.11,.09-.13,.29-.04,.4,.09,.11,.3,.03,.51-.05,.64-.34,1.09-.79,1.55-1.35,.11-.09,.12-.19,.14-.39-.07-.31,.04-.4,.35-.47,.1,.01,.21-.08,.31-.07,.11-.09,.3,.03,.32-.17,.01-.1-.18-.22-.28-.23-.39-.14-.47-.35-.14-.62,.22-.18,.45-.46,.39-.86,.07-.7-.06-1.31-.3-1.94,.01-.1-.08-.21-.19-.12s-.01,.1-.02,.2,.09,.11,.08,.21-.03,.3-.22,.18c-.29-.13-.41,.06-.43,.26-.04,.4-.27,.68-.59,.84-.33,.27-.46,.55-.5,.95-.02,.2-.12,.19-.21,.08-.29-.13-.59-.16-.87-.29-.19-.12-.38-.24-.51,.05-.22,.18-.24,.38-.17,.69,.16,.42,.37,.34,.57,.36h0Z"/>
        </g>
      </g>
    </g>
  </g>
</svg>